<?xml version="1.0" standalone="no"?>
 <!DOCTYPE svg PUBLIC "-//W3C//DTD SVG 1.1//EN" 
 "http://www.w3.org/Graphics/SVG/1.1/DTD/svg11.dtd"> 
<svg
  xmlns:svg="http://www.w3.org/2000/svg"
  xmlns="http://www.w3.org/2000/svg"
  xmlns:xlink="http://www.w3.org/1999/xlink"
  version="1.1"
  width="279.4000mm" height="215.9000mm" viewBox="0.0000 0.0000 279.4000 215.9000">
<title>SVG Image created as LVDS-PMOD-FrameEdge_Cuts.svg date 2025/03/20 00:33:24 </title>
  <desc>Image generated by PCBNEW </desc>
<g style="fill:#000000; fill-opacity:1.0000;stroke:#000000; stroke-opacity:1.0000;
stroke-linecap:round; stroke-linejoin:round;"
 transform="translate(0 0) scale(1 1)">
<path style="fill:none; 
stroke:#000000; stroke-width:0.1000; stroke-opacity:1; 
stroke-linecap:round; stroke-linejoin:round;fill:none"
d="M 15.8750,16.5100
92.0750,16.5100
92.0750,155.5750
15.8750,155.5750
Z" /> 
<path style="fill:none; 
stroke:#000000; stroke-width:0.0254; stroke-opacity:1; 
stroke-linecap:round; stroke-linejoin:round;fill:none"
d="M 67.2234,39.0525
73.0250,39.0525
73.0250,42.5450
74.6125,42.5450
74.6125,44.1325
77.7875,44.1325
77.7875,130.1750
74.6125,130.1750
74.6125,131.4450
73.0250,131.4450
73.0250,134.6200
67.5528,134.6200
58.0278,145.4150
33.3375,145.4150
33.3375,142.2400
31.7500,142.2400
31.7500,140.6525
28.5750,140.6525
28.5750,33.3375
31.7500,33.3375
31.7500,31.7500
33.3375,31.7500
33.3375,28.5750
57.6984,28.5750
Z" /> 
</g> 
</svg>
