%TF.GenerationSoftware,KiCad,Pcbnew,9.0.0-9.0.0-2~ubuntu24.04.1*%
%TF.CreationDate,2025-03-20T00:33:01-04:00*%
%TF.ProjectId,LVDS-PMOD,4c564453-2d50-44d4-9f44-2e6b69636164,1*%
%TF.SameCoordinates,Original*%
%TF.FileFunction,Legend,Bot*%
%TF.FilePolarity,Positive*%
%FSLAX46Y46*%
G04 Gerber Fmt 4.6, Leading zero omitted, Abs format (unit mm)*
G04 Created by KiCad (PCBNEW 9.0.0-9.0.0-2~ubuntu24.04.1) date 2025-03-20 00:33:01*
%MOMM*%
%LPD*%
G01*
G04 APERTURE LIST*
%ADD10C,0.150000*%
%ADD11C,0.120000*%
%ADD12C,0.304800*%
G04 APERTURE END LIST*
D10*
X42969319Y-136982333D02*
X42493128Y-136649000D01*
X42969319Y-136410905D02*
X41969319Y-136410905D01*
X41969319Y-136410905D02*
X41969319Y-136791857D01*
X41969319Y-136791857D02*
X42016938Y-136887095D01*
X42016938Y-136887095D02*
X42064557Y-136934714D01*
X42064557Y-136934714D02*
X42159795Y-136982333D01*
X42159795Y-136982333D02*
X42302652Y-136982333D01*
X42302652Y-136982333D02*
X42397890Y-136934714D01*
X42397890Y-136934714D02*
X42445509Y-136887095D01*
X42445509Y-136887095D02*
X42493128Y-136791857D01*
X42493128Y-136791857D02*
X42493128Y-136410905D01*
X42302652Y-137839476D02*
X42969319Y-137839476D01*
X41921700Y-137601381D02*
X42635985Y-137363286D01*
X42635985Y-137363286D02*
X42635985Y-137982333D01*
X36704319Y-136982333D02*
X36228128Y-136649000D01*
X36704319Y-136410905D02*
X35704319Y-136410905D01*
X35704319Y-136410905D02*
X35704319Y-136791857D01*
X35704319Y-136791857D02*
X35751938Y-136887095D01*
X35751938Y-136887095D02*
X35799557Y-136934714D01*
X35799557Y-136934714D02*
X35894795Y-136982333D01*
X35894795Y-136982333D02*
X36037652Y-136982333D01*
X36037652Y-136982333D02*
X36132890Y-136934714D01*
X36132890Y-136934714D02*
X36180509Y-136887095D01*
X36180509Y-136887095D02*
X36228128Y-136791857D01*
X36228128Y-136791857D02*
X36228128Y-136410905D01*
X35704319Y-137315667D02*
X35704319Y-137934714D01*
X35704319Y-137934714D02*
X36085271Y-137601381D01*
X36085271Y-137601381D02*
X36085271Y-137744238D01*
X36085271Y-137744238D02*
X36132890Y-137839476D01*
X36132890Y-137839476D02*
X36180509Y-137887095D01*
X36180509Y-137887095D02*
X36275747Y-137934714D01*
X36275747Y-137934714D02*
X36513842Y-137934714D01*
X36513842Y-137934714D02*
X36609080Y-137887095D01*
X36609080Y-137887095D02*
X36656700Y-137839476D01*
X36656700Y-137839476D02*
X36704319Y-137744238D01*
X36704319Y-137744238D02*
X36704319Y-137458524D01*
X36704319Y-137458524D02*
X36656700Y-137363286D01*
X36656700Y-137363286D02*
X36609080Y-137315667D01*
X36704319Y-84923333D02*
X36228128Y-84590000D01*
X36704319Y-84351905D02*
X35704319Y-84351905D01*
X35704319Y-84351905D02*
X35704319Y-84732857D01*
X35704319Y-84732857D02*
X35751938Y-84828095D01*
X35751938Y-84828095D02*
X35799557Y-84875714D01*
X35799557Y-84875714D02*
X35894795Y-84923333D01*
X35894795Y-84923333D02*
X36037652Y-84923333D01*
X36037652Y-84923333D02*
X36132890Y-84875714D01*
X36132890Y-84875714D02*
X36180509Y-84828095D01*
X36180509Y-84828095D02*
X36228128Y-84732857D01*
X36228128Y-84732857D02*
X36228128Y-84351905D01*
X36704319Y-85875714D02*
X36704319Y-85304286D01*
X36704319Y-85590000D02*
X35704319Y-85590000D01*
X35704319Y-85590000D02*
X35847176Y-85494762D01*
X35847176Y-85494762D02*
X35942414Y-85399524D01*
X35942414Y-85399524D02*
X35990033Y-85304286D01*
X66517332Y-45809819D02*
X66183999Y-46809819D01*
X66183999Y-46809819D02*
X65850666Y-45809819D01*
X64945904Y-46714580D02*
X64993523Y-46762200D01*
X64993523Y-46762200D02*
X65136380Y-46809819D01*
X65136380Y-46809819D02*
X65231618Y-46809819D01*
X65231618Y-46809819D02*
X65374475Y-46762200D01*
X65374475Y-46762200D02*
X65469713Y-46666961D01*
X65469713Y-46666961D02*
X65517332Y-46571723D01*
X65517332Y-46571723D02*
X65564951Y-46381247D01*
X65564951Y-46381247D02*
X65564951Y-46238390D01*
X65564951Y-46238390D02*
X65517332Y-46047914D01*
X65517332Y-46047914D02*
X65469713Y-45952676D01*
X65469713Y-45952676D02*
X65374475Y-45857438D01*
X65374475Y-45857438D02*
X65231618Y-45809819D01*
X65231618Y-45809819D02*
X65136380Y-45809819D01*
X65136380Y-45809819D02*
X64993523Y-45857438D01*
X64993523Y-45857438D02*
X64945904Y-45905057D01*
X63945904Y-46714580D02*
X63993523Y-46762200D01*
X63993523Y-46762200D02*
X64136380Y-46809819D01*
X64136380Y-46809819D02*
X64231618Y-46809819D01*
X64231618Y-46809819D02*
X64374475Y-46762200D01*
X64374475Y-46762200D02*
X64469713Y-46666961D01*
X64469713Y-46666961D02*
X64517332Y-46571723D01*
X64517332Y-46571723D02*
X64564951Y-46381247D01*
X64564951Y-46381247D02*
X64564951Y-46238390D01*
X64564951Y-46238390D02*
X64517332Y-46047914D01*
X64517332Y-46047914D02*
X64469713Y-45952676D01*
X64469713Y-45952676D02*
X64374475Y-45857438D01*
X64374475Y-45857438D02*
X64231618Y-45809819D01*
X64231618Y-45809819D02*
X64136380Y-45809819D01*
X64136380Y-45809819D02*
X63993523Y-45857438D01*
X63993523Y-45857438D02*
X63945904Y-45905057D01*
X65945904Y-48397438D02*
X66041142Y-48349819D01*
X66041142Y-48349819D02*
X66183999Y-48349819D01*
X66183999Y-48349819D02*
X66326856Y-48397438D01*
X66326856Y-48397438D02*
X66422094Y-48492676D01*
X66422094Y-48492676D02*
X66469713Y-48587914D01*
X66469713Y-48587914D02*
X66517332Y-48778390D01*
X66517332Y-48778390D02*
X66517332Y-48921247D01*
X66517332Y-48921247D02*
X66469713Y-49111723D01*
X66469713Y-49111723D02*
X66422094Y-49206961D01*
X66422094Y-49206961D02*
X66326856Y-49302200D01*
X66326856Y-49302200D02*
X66183999Y-49349819D01*
X66183999Y-49349819D02*
X66088761Y-49349819D01*
X66088761Y-49349819D02*
X65945904Y-49302200D01*
X65945904Y-49302200D02*
X65898285Y-49254580D01*
X65898285Y-49254580D02*
X65898285Y-48921247D01*
X65898285Y-48921247D02*
X66088761Y-48921247D01*
X65469713Y-49349819D02*
X65469713Y-48349819D01*
X65469713Y-48349819D02*
X64898285Y-49349819D01*
X64898285Y-49349819D02*
X64898285Y-48349819D01*
X64422094Y-49349819D02*
X64422094Y-48349819D01*
X64422094Y-48349819D02*
X64183999Y-48349819D01*
X64183999Y-48349819D02*
X64041142Y-48397438D01*
X64041142Y-48397438D02*
X63945904Y-48492676D01*
X63945904Y-48492676D02*
X63898285Y-48587914D01*
X63898285Y-48587914D02*
X63850666Y-48778390D01*
X63850666Y-48778390D02*
X63850666Y-48921247D01*
X63850666Y-48921247D02*
X63898285Y-49111723D01*
X63898285Y-49111723D02*
X63945904Y-49206961D01*
X63945904Y-49206961D02*
X64041142Y-49302200D01*
X64041142Y-49302200D02*
X64183999Y-49349819D01*
X64183999Y-49349819D02*
X64422094Y-49349819D01*
X65660285Y-59509819D02*
X66231713Y-59509819D01*
X65945999Y-59509819D02*
X65945999Y-58509819D01*
X65945999Y-58509819D02*
X66041237Y-58652676D01*
X66041237Y-58652676D02*
X66136475Y-58747914D01*
X66136475Y-58747914D02*
X66231713Y-58795533D01*
X65945904Y-71257438D02*
X66041142Y-71209819D01*
X66041142Y-71209819D02*
X66183999Y-71209819D01*
X66183999Y-71209819D02*
X66326856Y-71257438D01*
X66326856Y-71257438D02*
X66422094Y-71352676D01*
X66422094Y-71352676D02*
X66469713Y-71447914D01*
X66469713Y-71447914D02*
X66517332Y-71638390D01*
X66517332Y-71638390D02*
X66517332Y-71781247D01*
X66517332Y-71781247D02*
X66469713Y-71971723D01*
X66469713Y-71971723D02*
X66422094Y-72066961D01*
X66422094Y-72066961D02*
X66326856Y-72162200D01*
X66326856Y-72162200D02*
X66183999Y-72209819D01*
X66183999Y-72209819D02*
X66088761Y-72209819D01*
X66088761Y-72209819D02*
X65945904Y-72162200D01*
X65945904Y-72162200D02*
X65898285Y-72114580D01*
X65898285Y-72114580D02*
X65898285Y-71781247D01*
X65898285Y-71781247D02*
X66088761Y-71781247D01*
X65469713Y-72209819D02*
X65469713Y-71209819D01*
X65469713Y-71209819D02*
X64898285Y-72209819D01*
X64898285Y-72209819D02*
X64898285Y-71209819D01*
X64422094Y-72209819D02*
X64422094Y-71209819D01*
X64422094Y-71209819D02*
X64183999Y-71209819D01*
X64183999Y-71209819D02*
X64041142Y-71257438D01*
X64041142Y-71257438D02*
X63945904Y-71352676D01*
X63945904Y-71352676D02*
X63898285Y-71447914D01*
X63898285Y-71447914D02*
X63850666Y-71638390D01*
X63850666Y-71638390D02*
X63850666Y-71781247D01*
X63850666Y-71781247D02*
X63898285Y-71971723D01*
X63898285Y-71971723D02*
X63945904Y-72066961D01*
X63945904Y-72066961D02*
X64041142Y-72162200D01*
X64041142Y-72162200D02*
X64183999Y-72209819D01*
X64183999Y-72209819D02*
X64422094Y-72209819D01*
X65660285Y-82369819D02*
X66231713Y-82369819D01*
X65945999Y-82369819D02*
X65945999Y-81369819D01*
X65945999Y-81369819D02*
X66041237Y-81512676D01*
X66041237Y-81512676D02*
X66136475Y-81607914D01*
X66136475Y-81607914D02*
X66231713Y-81655533D01*
X66517332Y-68669819D02*
X66183999Y-69669819D01*
X66183999Y-69669819D02*
X65850666Y-68669819D01*
X64945904Y-69574580D02*
X64993523Y-69622200D01*
X64993523Y-69622200D02*
X65136380Y-69669819D01*
X65136380Y-69669819D02*
X65231618Y-69669819D01*
X65231618Y-69669819D02*
X65374475Y-69622200D01*
X65374475Y-69622200D02*
X65469713Y-69526961D01*
X65469713Y-69526961D02*
X65517332Y-69431723D01*
X65517332Y-69431723D02*
X65564951Y-69241247D01*
X65564951Y-69241247D02*
X65564951Y-69098390D01*
X65564951Y-69098390D02*
X65517332Y-68907914D01*
X65517332Y-68907914D02*
X65469713Y-68812676D01*
X65469713Y-68812676D02*
X65374475Y-68717438D01*
X65374475Y-68717438D02*
X65231618Y-68669819D01*
X65231618Y-68669819D02*
X65136380Y-68669819D01*
X65136380Y-68669819D02*
X64993523Y-68717438D01*
X64993523Y-68717438D02*
X64945904Y-68765057D01*
X63945904Y-69574580D02*
X63993523Y-69622200D01*
X63993523Y-69622200D02*
X64136380Y-69669819D01*
X64136380Y-69669819D02*
X64231618Y-69669819D01*
X64231618Y-69669819D02*
X64374475Y-69622200D01*
X64374475Y-69622200D02*
X64469713Y-69526961D01*
X64469713Y-69526961D02*
X64517332Y-69431723D01*
X64517332Y-69431723D02*
X64564951Y-69241247D01*
X64564951Y-69241247D02*
X64564951Y-69098390D01*
X64564951Y-69098390D02*
X64517332Y-68907914D01*
X64517332Y-68907914D02*
X64469713Y-68812676D01*
X64469713Y-68812676D02*
X64374475Y-68717438D01*
X64374475Y-68717438D02*
X64231618Y-68669819D01*
X64231618Y-68669819D02*
X64136380Y-68669819D01*
X64136380Y-68669819D02*
X63993523Y-68717438D01*
X63993523Y-68717438D02*
X63945904Y-68765057D01*
X65945904Y-94117438D02*
X66041142Y-94069819D01*
X66041142Y-94069819D02*
X66183999Y-94069819D01*
X66183999Y-94069819D02*
X66326856Y-94117438D01*
X66326856Y-94117438D02*
X66422094Y-94212676D01*
X66422094Y-94212676D02*
X66469713Y-94307914D01*
X66469713Y-94307914D02*
X66517332Y-94498390D01*
X66517332Y-94498390D02*
X66517332Y-94641247D01*
X66517332Y-94641247D02*
X66469713Y-94831723D01*
X66469713Y-94831723D02*
X66422094Y-94926961D01*
X66422094Y-94926961D02*
X66326856Y-95022200D01*
X66326856Y-95022200D02*
X66183999Y-95069819D01*
X66183999Y-95069819D02*
X66088761Y-95069819D01*
X66088761Y-95069819D02*
X65945904Y-95022200D01*
X65945904Y-95022200D02*
X65898285Y-94974580D01*
X65898285Y-94974580D02*
X65898285Y-94641247D01*
X65898285Y-94641247D02*
X66088761Y-94641247D01*
X65469713Y-95069819D02*
X65469713Y-94069819D01*
X65469713Y-94069819D02*
X64898285Y-95069819D01*
X64898285Y-95069819D02*
X64898285Y-94069819D01*
X64422094Y-95069819D02*
X64422094Y-94069819D01*
X64422094Y-94069819D02*
X64183999Y-94069819D01*
X64183999Y-94069819D02*
X64041142Y-94117438D01*
X64041142Y-94117438D02*
X63945904Y-94212676D01*
X63945904Y-94212676D02*
X63898285Y-94307914D01*
X63898285Y-94307914D02*
X63850666Y-94498390D01*
X63850666Y-94498390D02*
X63850666Y-94641247D01*
X63850666Y-94641247D02*
X63898285Y-94831723D01*
X63898285Y-94831723D02*
X63945904Y-94926961D01*
X63945904Y-94926961D02*
X64041142Y-95022200D01*
X64041142Y-95022200D02*
X64183999Y-95069819D01*
X64183999Y-95069819D02*
X64422094Y-95069819D01*
X65660285Y-105229819D02*
X66231713Y-105229819D01*
X65945999Y-105229819D02*
X65945999Y-104229819D01*
X65945999Y-104229819D02*
X66041237Y-104372676D01*
X66041237Y-104372676D02*
X66136475Y-104467914D01*
X66136475Y-104467914D02*
X66231713Y-104515533D01*
X66517332Y-91529819D02*
X66183999Y-92529819D01*
X66183999Y-92529819D02*
X65850666Y-91529819D01*
X64945904Y-92434580D02*
X64993523Y-92482200D01*
X64993523Y-92482200D02*
X65136380Y-92529819D01*
X65136380Y-92529819D02*
X65231618Y-92529819D01*
X65231618Y-92529819D02*
X65374475Y-92482200D01*
X65374475Y-92482200D02*
X65469713Y-92386961D01*
X65469713Y-92386961D02*
X65517332Y-92291723D01*
X65517332Y-92291723D02*
X65564951Y-92101247D01*
X65564951Y-92101247D02*
X65564951Y-91958390D01*
X65564951Y-91958390D02*
X65517332Y-91767914D01*
X65517332Y-91767914D02*
X65469713Y-91672676D01*
X65469713Y-91672676D02*
X65374475Y-91577438D01*
X65374475Y-91577438D02*
X65231618Y-91529819D01*
X65231618Y-91529819D02*
X65136380Y-91529819D01*
X65136380Y-91529819D02*
X64993523Y-91577438D01*
X64993523Y-91577438D02*
X64945904Y-91625057D01*
X63945904Y-92434580D02*
X63993523Y-92482200D01*
X63993523Y-92482200D02*
X64136380Y-92529819D01*
X64136380Y-92529819D02*
X64231618Y-92529819D01*
X64231618Y-92529819D02*
X64374475Y-92482200D01*
X64374475Y-92482200D02*
X64469713Y-92386961D01*
X64469713Y-92386961D02*
X64517332Y-92291723D01*
X64517332Y-92291723D02*
X64564951Y-92101247D01*
X64564951Y-92101247D02*
X64564951Y-91958390D01*
X64564951Y-91958390D02*
X64517332Y-91767914D01*
X64517332Y-91767914D02*
X64469713Y-91672676D01*
X64469713Y-91672676D02*
X64374475Y-91577438D01*
X64374475Y-91577438D02*
X64231618Y-91529819D01*
X64231618Y-91529819D02*
X64136380Y-91529819D01*
X64136380Y-91529819D02*
X63993523Y-91577438D01*
X63993523Y-91577438D02*
X63945904Y-91625057D01*
X65945904Y-116977438D02*
X66041142Y-116929819D01*
X66041142Y-116929819D02*
X66183999Y-116929819D01*
X66183999Y-116929819D02*
X66326856Y-116977438D01*
X66326856Y-116977438D02*
X66422094Y-117072676D01*
X66422094Y-117072676D02*
X66469713Y-117167914D01*
X66469713Y-117167914D02*
X66517332Y-117358390D01*
X66517332Y-117358390D02*
X66517332Y-117501247D01*
X66517332Y-117501247D02*
X66469713Y-117691723D01*
X66469713Y-117691723D02*
X66422094Y-117786961D01*
X66422094Y-117786961D02*
X66326856Y-117882200D01*
X66326856Y-117882200D02*
X66183999Y-117929819D01*
X66183999Y-117929819D02*
X66088761Y-117929819D01*
X66088761Y-117929819D02*
X65945904Y-117882200D01*
X65945904Y-117882200D02*
X65898285Y-117834580D01*
X65898285Y-117834580D02*
X65898285Y-117501247D01*
X65898285Y-117501247D02*
X66088761Y-117501247D01*
X65469713Y-117929819D02*
X65469713Y-116929819D01*
X65469713Y-116929819D02*
X64898285Y-117929819D01*
X64898285Y-117929819D02*
X64898285Y-116929819D01*
X64422094Y-117929819D02*
X64422094Y-116929819D01*
X64422094Y-116929819D02*
X64183999Y-116929819D01*
X64183999Y-116929819D02*
X64041142Y-116977438D01*
X64041142Y-116977438D02*
X63945904Y-117072676D01*
X63945904Y-117072676D02*
X63898285Y-117167914D01*
X63898285Y-117167914D02*
X63850666Y-117358390D01*
X63850666Y-117358390D02*
X63850666Y-117501247D01*
X63850666Y-117501247D02*
X63898285Y-117691723D01*
X63898285Y-117691723D02*
X63945904Y-117786961D01*
X63945904Y-117786961D02*
X64041142Y-117882200D01*
X64041142Y-117882200D02*
X64183999Y-117929819D01*
X64183999Y-117929819D02*
X64422094Y-117929819D01*
X66517332Y-114389819D02*
X66183999Y-115389819D01*
X66183999Y-115389819D02*
X65850666Y-114389819D01*
X64945904Y-115294580D02*
X64993523Y-115342200D01*
X64993523Y-115342200D02*
X65136380Y-115389819D01*
X65136380Y-115389819D02*
X65231618Y-115389819D01*
X65231618Y-115389819D02*
X65374475Y-115342200D01*
X65374475Y-115342200D02*
X65469713Y-115246961D01*
X65469713Y-115246961D02*
X65517332Y-115151723D01*
X65517332Y-115151723D02*
X65564951Y-114961247D01*
X65564951Y-114961247D02*
X65564951Y-114818390D01*
X65564951Y-114818390D02*
X65517332Y-114627914D01*
X65517332Y-114627914D02*
X65469713Y-114532676D01*
X65469713Y-114532676D02*
X65374475Y-114437438D01*
X65374475Y-114437438D02*
X65231618Y-114389819D01*
X65231618Y-114389819D02*
X65136380Y-114389819D01*
X65136380Y-114389819D02*
X64993523Y-114437438D01*
X64993523Y-114437438D02*
X64945904Y-114485057D01*
X63945904Y-115294580D02*
X63993523Y-115342200D01*
X63993523Y-115342200D02*
X64136380Y-115389819D01*
X64136380Y-115389819D02*
X64231618Y-115389819D01*
X64231618Y-115389819D02*
X64374475Y-115342200D01*
X64374475Y-115342200D02*
X64469713Y-115246961D01*
X64469713Y-115246961D02*
X64517332Y-115151723D01*
X64517332Y-115151723D02*
X64564951Y-114961247D01*
X64564951Y-114961247D02*
X64564951Y-114818390D01*
X64564951Y-114818390D02*
X64517332Y-114627914D01*
X64517332Y-114627914D02*
X64469713Y-114532676D01*
X64469713Y-114532676D02*
X64374475Y-114437438D01*
X64374475Y-114437438D02*
X64231618Y-114389819D01*
X64231618Y-114389819D02*
X64136380Y-114389819D01*
X64136380Y-114389819D02*
X63993523Y-114437438D01*
X63993523Y-114437438D02*
X63945904Y-114485057D01*
X65660285Y-128089819D02*
X66231713Y-128089819D01*
X65945999Y-128089819D02*
X65945999Y-127089819D01*
X65945999Y-127089819D02*
X66041237Y-127232676D01*
X66041237Y-127232676D02*
X66136475Y-127327914D01*
X66136475Y-127327914D02*
X66231713Y-127375533D01*
X42969319Y-84923333D02*
X42493128Y-84590000D01*
X42969319Y-84351905D02*
X41969319Y-84351905D01*
X41969319Y-84351905D02*
X41969319Y-84732857D01*
X41969319Y-84732857D02*
X42016938Y-84828095D01*
X42016938Y-84828095D02*
X42064557Y-84875714D01*
X42064557Y-84875714D02*
X42159795Y-84923333D01*
X42159795Y-84923333D02*
X42302652Y-84923333D01*
X42302652Y-84923333D02*
X42397890Y-84875714D01*
X42397890Y-84875714D02*
X42445509Y-84828095D01*
X42445509Y-84828095D02*
X42493128Y-84732857D01*
X42493128Y-84732857D02*
X42493128Y-84351905D01*
X42064557Y-85304286D02*
X42016938Y-85351905D01*
X42016938Y-85351905D02*
X41969319Y-85447143D01*
X41969319Y-85447143D02*
X41969319Y-85685238D01*
X41969319Y-85685238D02*
X42016938Y-85780476D01*
X42016938Y-85780476D02*
X42064557Y-85828095D01*
X42064557Y-85828095D02*
X42159795Y-85875714D01*
X42159795Y-85875714D02*
X42255033Y-85875714D01*
X42255033Y-85875714D02*
X42397890Y-85828095D01*
X42397890Y-85828095D02*
X42969319Y-85256667D01*
X42969319Y-85256667D02*
X42969319Y-85875714D01*
D11*
%TO.C,R4*%
X41519500Y-136421936D02*
X41519500Y-137876064D01*
X39699500Y-136421936D02*
X39699500Y-137876064D01*
%TO.C,R3*%
X38979500Y-136421936D02*
X38979500Y-137876064D01*
X37159500Y-136421936D02*
X37159500Y-137876064D01*
%TO.C,R1*%
X38979500Y-84362936D02*
X38979500Y-85817064D01*
X37159500Y-84362936D02*
X37159500Y-85817064D01*
D12*
%TO.C,PMOD1*%
X72042000Y-60325000D02*
X72042000Y-45085000D01*
X72042000Y-45085000D02*
X66962000Y-45085000D01*
X66962000Y-60325000D02*
X72042000Y-60325000D01*
X66962000Y-50165000D02*
X72042000Y-50165000D01*
X66962000Y-45085000D02*
X66962000Y-60325000D01*
%TO.C,PMOD2*%
X72042000Y-83185000D02*
X72042000Y-67945000D01*
X72042000Y-67945000D02*
X66962000Y-67945000D01*
X66962000Y-83185000D02*
X72042000Y-83185000D01*
X66962000Y-73025000D02*
X72042000Y-73025000D01*
X66962000Y-67945000D02*
X66962000Y-83185000D01*
%TO.C,PMOD3*%
X66962000Y-90805000D02*
X66962000Y-106045000D01*
X66962000Y-95885000D02*
X72042000Y-95885000D01*
X66962000Y-106045000D02*
X72042000Y-106045000D01*
X72042000Y-90805000D02*
X66962000Y-90805000D01*
X72042000Y-106045000D02*
X72042000Y-90805000D01*
%TO.C,PMOD4*%
X66962000Y-113665000D02*
X66962000Y-128905000D01*
X66962000Y-118745000D02*
X72042000Y-118745000D01*
X66962000Y-128905000D02*
X72042000Y-128905000D01*
X72042000Y-113665000D02*
X66962000Y-113665000D01*
X72042000Y-128905000D02*
X72042000Y-113665000D01*
D11*
%TO.C,R2*%
X39699500Y-84362936D02*
X39699500Y-85817064D01*
X41519500Y-84362936D02*
X41519500Y-85817064D01*
%TD*%
M02*
