%TF.GenerationSoftware,KiCad,Pcbnew,9.0.0-9.0.0-2~ubuntu24.04.1*%
%TF.CreationDate,2025-03-20T00:33:01-04:00*%
%TF.ProjectId,LVDS-PMOD,4c564453-2d50-44d4-9f44-2e6b69636164,1*%
%TF.SameCoordinates,Original*%
%TF.FileFunction,Soldermask,Bot*%
%TF.FilePolarity,Negative*%
%FSLAX46Y46*%
G04 Gerber Fmt 4.6, Leading zero omitted, Abs format (unit mm)*
G04 Created by KiCad (PCBNEW 9.0.0-9.0.0-2~ubuntu24.04.1) date 2025-03-20 00:33:01*
%MOMM*%
%LPD*%
G01*
G04 APERTURE LIST*
%ADD10C,1.700000*%
%ADD11C,1.524000*%
%ADD12R,1.524000X1.524000*%
G04 APERTURE END LIST*
%TO.C,R4*%
G36*
G01*
X39984500Y-138049000D02*
X41234500Y-138049000D01*
G75*
G02*
X41484500Y-138299000I0J-250000D01*
G01*
X41484500Y-139099000D01*
G75*
G02*
X41234500Y-139349000I-250000J0D01*
G01*
X39984500Y-139349000D01*
G75*
G02*
X39734500Y-139099000I0J250000D01*
G01*
X39734500Y-138299000D01*
G75*
G02*
X39984500Y-138049000I250000J0D01*
G01*
G37*
G36*
G01*
X39984500Y-134949000D02*
X41234500Y-134949000D01*
G75*
G02*
X41484500Y-135199000I0J-250000D01*
G01*
X41484500Y-135999000D01*
G75*
G02*
X41234500Y-136249000I-250000J0D01*
G01*
X39984500Y-136249000D01*
G75*
G02*
X39734500Y-135999000I0J250000D01*
G01*
X39734500Y-135199000D01*
G75*
G02*
X39984500Y-134949000I250000J0D01*
G01*
G37*
%TD*%
D10*
%TO.C,J2*%
X40609500Y-92709000D03*
X40609500Y-95249000D03*
X40609500Y-97789000D03*
X40609500Y-100329000D03*
X40609500Y-102869000D03*
X40609500Y-105409000D03*
X40609500Y-107949000D03*
X40609500Y-110489000D03*
X40609500Y-113029000D03*
X40609500Y-115569000D03*
X40609500Y-118109000D03*
X40609500Y-120649000D03*
X40609500Y-123189000D03*
X40609500Y-125729000D03*
X40609500Y-128269000D03*
X40609500Y-130809000D03*
G36*
G01*
X39759500Y-133949000D02*
X39759500Y-132749000D01*
G75*
G02*
X40009500Y-132499000I250000J0D01*
G01*
X41209500Y-132499000D01*
G75*
G02*
X41459500Y-132749000I0J-250000D01*
G01*
X41459500Y-133949000D01*
G75*
G02*
X41209500Y-134199000I-250000J0D01*
G01*
X40009500Y-134199000D01*
G75*
G02*
X39759500Y-133949000I0J250000D01*
G01*
G37*
G36*
G01*
X37219500Y-133949000D02*
X37219500Y-132749000D01*
G75*
G02*
X37469500Y-132499000I250000J0D01*
G01*
X38669500Y-132499000D01*
G75*
G02*
X38919500Y-132749000I0J-250000D01*
G01*
X38919500Y-133949000D01*
G75*
G02*
X38669500Y-134199000I-250000J0D01*
G01*
X37469500Y-134199000D01*
G75*
G02*
X37219500Y-133949000I0J250000D01*
G01*
G37*
X38069500Y-130809000D03*
X38069500Y-128269000D03*
X38069500Y-125729000D03*
X38069500Y-123189000D03*
X38069500Y-120649000D03*
X38069500Y-118109000D03*
X38069500Y-115569000D03*
X38069500Y-113029000D03*
X38069500Y-110489000D03*
X38069500Y-107949000D03*
X38069500Y-105409000D03*
X38069500Y-102869000D03*
X38069500Y-100329000D03*
X38069500Y-97789000D03*
X38069500Y-95249000D03*
X38069500Y-92709000D03*
%TD*%
%TO.C,R3*%
G36*
G01*
X37444500Y-138049000D02*
X38694500Y-138049000D01*
G75*
G02*
X38944500Y-138299000I0J-250000D01*
G01*
X38944500Y-139099000D01*
G75*
G02*
X38694500Y-139349000I-250000J0D01*
G01*
X37444500Y-139349000D01*
G75*
G02*
X37194500Y-139099000I0J250000D01*
G01*
X37194500Y-138299000D01*
G75*
G02*
X37444500Y-138049000I250000J0D01*
G01*
G37*
G36*
G01*
X37444500Y-134949000D02*
X38694500Y-134949000D01*
G75*
G02*
X38944500Y-135199000I0J-250000D01*
G01*
X38944500Y-135999000D01*
G75*
G02*
X38694500Y-136249000I-250000J0D01*
G01*
X37444500Y-136249000D01*
G75*
G02*
X37194500Y-135999000I0J250000D01*
G01*
X37194500Y-135199000D01*
G75*
G02*
X37444500Y-134949000I250000J0D01*
G01*
G37*
%TD*%
%TO.C,J1*%
X38069500Y-40650000D03*
X38069500Y-43190000D03*
X38069500Y-45730000D03*
X38069500Y-48270000D03*
X38069500Y-50810000D03*
X38069500Y-53350000D03*
X38069500Y-55890000D03*
X38069500Y-58430000D03*
X38069500Y-60970000D03*
X38069500Y-63510000D03*
X38069500Y-66050000D03*
X38069500Y-68590000D03*
X38069500Y-71130000D03*
X38069500Y-73670000D03*
X38069500Y-76210000D03*
X38069500Y-78750000D03*
G36*
G01*
X37219500Y-81890000D02*
X37219500Y-80690000D01*
G75*
G02*
X37469500Y-80440000I250000J0D01*
G01*
X38669500Y-80440000D01*
G75*
G02*
X38919500Y-80690000I0J-250000D01*
G01*
X38919500Y-81890000D01*
G75*
G02*
X38669500Y-82140000I-250000J0D01*
G01*
X37469500Y-82140000D01*
G75*
G02*
X37219500Y-81890000I0J250000D01*
G01*
G37*
G36*
G01*
X39759500Y-81890000D02*
X39759500Y-80690000D01*
G75*
G02*
X40009500Y-80440000I250000J0D01*
G01*
X41209500Y-80440000D01*
G75*
G02*
X41459500Y-80690000I0J-250000D01*
G01*
X41459500Y-81890000D01*
G75*
G02*
X41209500Y-82140000I-250000J0D01*
G01*
X40009500Y-82140000D01*
G75*
G02*
X39759500Y-81890000I0J250000D01*
G01*
G37*
X40609500Y-78750000D03*
X40609500Y-76210000D03*
X40609500Y-73670000D03*
X40609500Y-71130000D03*
X40609500Y-68590000D03*
X40609500Y-66050000D03*
X40609500Y-63510000D03*
X40609500Y-60970000D03*
X40609500Y-58430000D03*
X40609500Y-55890000D03*
X40609500Y-53350000D03*
X40609500Y-50810000D03*
X40609500Y-48270000D03*
X40609500Y-45730000D03*
X40609500Y-43190000D03*
X40609500Y-40650000D03*
%TD*%
%TO.C,R1*%
G36*
G01*
X37444500Y-85990000D02*
X38694500Y-85990000D01*
G75*
G02*
X38944500Y-86240000I0J-250000D01*
G01*
X38944500Y-87040000D01*
G75*
G02*
X38694500Y-87290000I-250000J0D01*
G01*
X37444500Y-87290000D01*
G75*
G02*
X37194500Y-87040000I0J250000D01*
G01*
X37194500Y-86240000D01*
G75*
G02*
X37444500Y-85990000I250000J0D01*
G01*
G37*
G36*
G01*
X37444500Y-82890000D02*
X38694500Y-82890000D01*
G75*
G02*
X38944500Y-83140000I0J-250000D01*
G01*
X38944500Y-83940000D01*
G75*
G02*
X38694500Y-84190000I-250000J0D01*
G01*
X37444500Y-84190000D01*
G75*
G02*
X37194500Y-83940000I0J250000D01*
G01*
X37194500Y-83140000D01*
G75*
G02*
X37444500Y-82890000I250000J0D01*
G01*
G37*
%TD*%
D11*
%TO.C,PMOD1*%
X70772000Y-46355000D03*
X70772000Y-48895000D03*
X70772000Y-51435000D03*
X70772000Y-53975000D03*
X70772000Y-56515000D03*
X70772000Y-59055000D03*
X68232000Y-46355000D03*
X68232000Y-48895000D03*
X68232000Y-51435000D03*
X68232000Y-53975000D03*
X68232000Y-56515000D03*
D12*
X68232000Y-59055000D03*
%TD*%
D11*
%TO.C,PMOD2*%
X70772000Y-69215000D03*
X70772000Y-71755000D03*
X70772000Y-74295000D03*
X70772000Y-76835000D03*
X70772000Y-79375000D03*
X70772000Y-81915000D03*
X68232000Y-69215000D03*
X68232000Y-71755000D03*
X68232000Y-74295000D03*
X68232000Y-76835000D03*
X68232000Y-79375000D03*
D12*
X68232000Y-81915000D03*
%TD*%
%TO.C,PMOD3*%
X68232000Y-104775000D03*
D11*
X68232000Y-102235000D03*
X68232000Y-99695000D03*
X68232000Y-97155000D03*
X68232000Y-94615000D03*
X68232000Y-92075000D03*
X70772000Y-104775000D03*
X70772000Y-102235000D03*
X70772000Y-99695000D03*
X70772000Y-97155000D03*
X70772000Y-94615000D03*
X70772000Y-92075000D03*
%TD*%
D12*
%TO.C,PMOD4*%
X68232000Y-127635000D03*
D11*
X68232000Y-125095000D03*
X68232000Y-122555000D03*
X68232000Y-120015000D03*
X68232000Y-117475000D03*
X68232000Y-114935000D03*
X70772000Y-127635000D03*
X70772000Y-125095000D03*
X70772000Y-122555000D03*
X70772000Y-120015000D03*
X70772000Y-117475000D03*
X70772000Y-114935000D03*
%TD*%
%TO.C,R2*%
G36*
G01*
X39984500Y-82890000D02*
X41234500Y-82890000D01*
G75*
G02*
X41484500Y-83140000I0J-250000D01*
G01*
X41484500Y-83940000D01*
G75*
G02*
X41234500Y-84190000I-250000J0D01*
G01*
X39984500Y-84190000D01*
G75*
G02*
X39734500Y-83940000I0J250000D01*
G01*
X39734500Y-83140000D01*
G75*
G02*
X39984500Y-82890000I250000J0D01*
G01*
G37*
G36*
G01*
X39984500Y-85990000D02*
X41234500Y-85990000D01*
G75*
G02*
X41484500Y-86240000I0J-250000D01*
G01*
X41484500Y-87040000D01*
G75*
G02*
X41234500Y-87290000I-250000J0D01*
G01*
X39984500Y-87290000D01*
G75*
G02*
X39734500Y-87040000I0J250000D01*
G01*
X39734500Y-86240000D01*
G75*
G02*
X39984500Y-85990000I250000J0D01*
G01*
G37*
%TD*%
M02*
