%TF.GenerationSoftware,KiCad,Pcbnew,9.0.0-9.0.0-2~ubuntu24.04.1*%
%TF.CreationDate,2025-03-20T00:33:01-04:00*%
%TF.ProjectId,LVDS-PMOD,4c564453-2d50-44d4-9f44-2e6b69636164,1*%
%TF.SameCoordinates,Original*%
%TF.FileFunction,Paste,Top*%
%TF.FilePolarity,Positive*%
%FSLAX46Y46*%
G04 Gerber Fmt 4.6, Leading zero omitted, Abs format (unit mm)*
G04 Created by KiCad (PCBNEW 9.0.0-9.0.0-2~ubuntu24.04.1) date 2025-03-20 00:33:01*
%MOMM*%
%LPD*%
G01*
G04 APERTURE LIST*
G04 APERTURE END LIST*
%TO.C,U5*%
G36*
G01*
X54809500Y-91589000D02*
X54809500Y-91289000D01*
G75*
G02*
X54959500Y-91139000I150000J0D01*
G01*
X56609500Y-91139000D01*
G75*
G02*
X56759500Y-91289000I0J-150000D01*
G01*
X56759500Y-91589000D01*
G75*
G02*
X56609500Y-91739000I-150000J0D01*
G01*
X54959500Y-91739000D01*
G75*
G02*
X54809500Y-91589000I0J150000D01*
G01*
G37*
G36*
G01*
X54809500Y-92859000D02*
X54809500Y-92559000D01*
G75*
G02*
X54959500Y-92409000I150000J0D01*
G01*
X56609500Y-92409000D01*
G75*
G02*
X56759500Y-92559000I0J-150000D01*
G01*
X56759500Y-92859000D01*
G75*
G02*
X56609500Y-93009000I-150000J0D01*
G01*
X54959500Y-93009000D01*
G75*
G02*
X54809500Y-92859000I0J150000D01*
G01*
G37*
G36*
G01*
X54809500Y-94129000D02*
X54809500Y-93829000D01*
G75*
G02*
X54959500Y-93679000I150000J0D01*
G01*
X56609500Y-93679000D01*
G75*
G02*
X56759500Y-93829000I0J-150000D01*
G01*
X56759500Y-94129000D01*
G75*
G02*
X56609500Y-94279000I-150000J0D01*
G01*
X54959500Y-94279000D01*
G75*
G02*
X54809500Y-94129000I0J150000D01*
G01*
G37*
G36*
G01*
X54809500Y-95399000D02*
X54809500Y-95099000D01*
G75*
G02*
X54959500Y-94949000I150000J0D01*
G01*
X56609500Y-94949000D01*
G75*
G02*
X56759500Y-95099000I0J-150000D01*
G01*
X56759500Y-95399000D01*
G75*
G02*
X56609500Y-95549000I-150000J0D01*
G01*
X54959500Y-95549000D01*
G75*
G02*
X54809500Y-95399000I0J150000D01*
G01*
G37*
G36*
G01*
X54809500Y-96669000D02*
X54809500Y-96369000D01*
G75*
G02*
X54959500Y-96219000I150000J0D01*
G01*
X56609500Y-96219000D01*
G75*
G02*
X56759500Y-96369000I0J-150000D01*
G01*
X56759500Y-96669000D01*
G75*
G02*
X56609500Y-96819000I-150000J0D01*
G01*
X54959500Y-96819000D01*
G75*
G02*
X54809500Y-96669000I0J150000D01*
G01*
G37*
G36*
G01*
X54809500Y-97939000D02*
X54809500Y-97639000D01*
G75*
G02*
X54959500Y-97489000I150000J0D01*
G01*
X56609500Y-97489000D01*
G75*
G02*
X56759500Y-97639000I0J-150000D01*
G01*
X56759500Y-97939000D01*
G75*
G02*
X56609500Y-98089000I-150000J0D01*
G01*
X54959500Y-98089000D01*
G75*
G02*
X54809500Y-97939000I0J150000D01*
G01*
G37*
G36*
G01*
X54809500Y-99209000D02*
X54809500Y-98909000D01*
G75*
G02*
X54959500Y-98759000I150000J0D01*
G01*
X56609500Y-98759000D01*
G75*
G02*
X56759500Y-98909000I0J-150000D01*
G01*
X56759500Y-99209000D01*
G75*
G02*
X56609500Y-99359000I-150000J0D01*
G01*
X54959500Y-99359000D01*
G75*
G02*
X54809500Y-99209000I0J150000D01*
G01*
G37*
G36*
G01*
X54809500Y-100479000D02*
X54809500Y-100179000D01*
G75*
G02*
X54959500Y-100029000I150000J0D01*
G01*
X56609500Y-100029000D01*
G75*
G02*
X56759500Y-100179000I0J-150000D01*
G01*
X56759500Y-100479000D01*
G75*
G02*
X56609500Y-100629000I-150000J0D01*
G01*
X54959500Y-100629000D01*
G75*
G02*
X54809500Y-100479000I0J150000D01*
G01*
G37*
G36*
G01*
X49859500Y-100479000D02*
X49859500Y-100179000D01*
G75*
G02*
X50009500Y-100029000I150000J0D01*
G01*
X51659500Y-100029000D01*
G75*
G02*
X51809500Y-100179000I0J-150000D01*
G01*
X51809500Y-100479000D01*
G75*
G02*
X51659500Y-100629000I-150000J0D01*
G01*
X50009500Y-100629000D01*
G75*
G02*
X49859500Y-100479000I0J150000D01*
G01*
G37*
G36*
G01*
X49859500Y-99209000D02*
X49859500Y-98909000D01*
G75*
G02*
X50009500Y-98759000I150000J0D01*
G01*
X51659500Y-98759000D01*
G75*
G02*
X51809500Y-98909000I0J-150000D01*
G01*
X51809500Y-99209000D01*
G75*
G02*
X51659500Y-99359000I-150000J0D01*
G01*
X50009500Y-99359000D01*
G75*
G02*
X49859500Y-99209000I0J150000D01*
G01*
G37*
G36*
G01*
X49859500Y-97939000D02*
X49859500Y-97639000D01*
G75*
G02*
X50009500Y-97489000I150000J0D01*
G01*
X51659500Y-97489000D01*
G75*
G02*
X51809500Y-97639000I0J-150000D01*
G01*
X51809500Y-97939000D01*
G75*
G02*
X51659500Y-98089000I-150000J0D01*
G01*
X50009500Y-98089000D01*
G75*
G02*
X49859500Y-97939000I0J150000D01*
G01*
G37*
G36*
G01*
X49859500Y-96669000D02*
X49859500Y-96369000D01*
G75*
G02*
X50009500Y-96219000I150000J0D01*
G01*
X51659500Y-96219000D01*
G75*
G02*
X51809500Y-96369000I0J-150000D01*
G01*
X51809500Y-96669000D01*
G75*
G02*
X51659500Y-96819000I-150000J0D01*
G01*
X50009500Y-96819000D01*
G75*
G02*
X49859500Y-96669000I0J150000D01*
G01*
G37*
G36*
G01*
X49859500Y-95399000D02*
X49859500Y-95099000D01*
G75*
G02*
X50009500Y-94949000I150000J0D01*
G01*
X51659500Y-94949000D01*
G75*
G02*
X51809500Y-95099000I0J-150000D01*
G01*
X51809500Y-95399000D01*
G75*
G02*
X51659500Y-95549000I-150000J0D01*
G01*
X50009500Y-95549000D01*
G75*
G02*
X49859500Y-95399000I0J150000D01*
G01*
G37*
G36*
G01*
X49859500Y-94129000D02*
X49859500Y-93829000D01*
G75*
G02*
X50009500Y-93679000I150000J0D01*
G01*
X51659500Y-93679000D01*
G75*
G02*
X51809500Y-93829000I0J-150000D01*
G01*
X51809500Y-94129000D01*
G75*
G02*
X51659500Y-94279000I-150000J0D01*
G01*
X50009500Y-94279000D01*
G75*
G02*
X49859500Y-94129000I0J150000D01*
G01*
G37*
G36*
G01*
X49859500Y-92859000D02*
X49859500Y-92559000D01*
G75*
G02*
X50009500Y-92409000I150000J0D01*
G01*
X51659500Y-92409000D01*
G75*
G02*
X51809500Y-92559000I0J-150000D01*
G01*
X51809500Y-92859000D01*
G75*
G02*
X51659500Y-93009000I-150000J0D01*
G01*
X50009500Y-93009000D01*
G75*
G02*
X49859500Y-92859000I0J150000D01*
G01*
G37*
G36*
G01*
X49859500Y-91589000D02*
X49859500Y-91289000D01*
G75*
G02*
X50009500Y-91139000I150000J0D01*
G01*
X51659500Y-91139000D01*
G75*
G02*
X51809500Y-91289000I0J-150000D01*
G01*
X51809500Y-91589000D01*
G75*
G02*
X51659500Y-91739000I-150000J0D01*
G01*
X50009500Y-91739000D01*
G75*
G02*
X49859500Y-91589000I0J150000D01*
G01*
G37*
%TD*%
%TO.C,U8*%
G36*
G01*
X54809500Y-123021500D02*
X54809500Y-122721500D01*
G75*
G02*
X54959500Y-122571500I150000J0D01*
G01*
X56609500Y-122571500D01*
G75*
G02*
X56759500Y-122721500I0J-150000D01*
G01*
X56759500Y-123021500D01*
G75*
G02*
X56609500Y-123171500I-150000J0D01*
G01*
X54959500Y-123171500D01*
G75*
G02*
X54809500Y-123021500I0J150000D01*
G01*
G37*
G36*
G01*
X54809500Y-124291500D02*
X54809500Y-123991500D01*
G75*
G02*
X54959500Y-123841500I150000J0D01*
G01*
X56609500Y-123841500D01*
G75*
G02*
X56759500Y-123991500I0J-150000D01*
G01*
X56759500Y-124291500D01*
G75*
G02*
X56609500Y-124441500I-150000J0D01*
G01*
X54959500Y-124441500D01*
G75*
G02*
X54809500Y-124291500I0J150000D01*
G01*
G37*
G36*
G01*
X54809500Y-125561500D02*
X54809500Y-125261500D01*
G75*
G02*
X54959500Y-125111500I150000J0D01*
G01*
X56609500Y-125111500D01*
G75*
G02*
X56759500Y-125261500I0J-150000D01*
G01*
X56759500Y-125561500D01*
G75*
G02*
X56609500Y-125711500I-150000J0D01*
G01*
X54959500Y-125711500D01*
G75*
G02*
X54809500Y-125561500I0J150000D01*
G01*
G37*
G36*
G01*
X54809500Y-126831500D02*
X54809500Y-126531500D01*
G75*
G02*
X54959500Y-126381500I150000J0D01*
G01*
X56609500Y-126381500D01*
G75*
G02*
X56759500Y-126531500I0J-150000D01*
G01*
X56759500Y-126831500D01*
G75*
G02*
X56609500Y-126981500I-150000J0D01*
G01*
X54959500Y-126981500D01*
G75*
G02*
X54809500Y-126831500I0J150000D01*
G01*
G37*
G36*
G01*
X54809500Y-128101500D02*
X54809500Y-127801500D01*
G75*
G02*
X54959500Y-127651500I150000J0D01*
G01*
X56609500Y-127651500D01*
G75*
G02*
X56759500Y-127801500I0J-150000D01*
G01*
X56759500Y-128101500D01*
G75*
G02*
X56609500Y-128251500I-150000J0D01*
G01*
X54959500Y-128251500D01*
G75*
G02*
X54809500Y-128101500I0J150000D01*
G01*
G37*
G36*
G01*
X54809500Y-129371500D02*
X54809500Y-129071500D01*
G75*
G02*
X54959500Y-128921500I150000J0D01*
G01*
X56609500Y-128921500D01*
G75*
G02*
X56759500Y-129071500I0J-150000D01*
G01*
X56759500Y-129371500D01*
G75*
G02*
X56609500Y-129521500I-150000J0D01*
G01*
X54959500Y-129521500D01*
G75*
G02*
X54809500Y-129371500I0J150000D01*
G01*
G37*
G36*
G01*
X54809500Y-130641500D02*
X54809500Y-130341500D01*
G75*
G02*
X54959500Y-130191500I150000J0D01*
G01*
X56609500Y-130191500D01*
G75*
G02*
X56759500Y-130341500I0J-150000D01*
G01*
X56759500Y-130641500D01*
G75*
G02*
X56609500Y-130791500I-150000J0D01*
G01*
X54959500Y-130791500D01*
G75*
G02*
X54809500Y-130641500I0J150000D01*
G01*
G37*
G36*
G01*
X54809500Y-131911500D02*
X54809500Y-131611500D01*
G75*
G02*
X54959500Y-131461500I150000J0D01*
G01*
X56609500Y-131461500D01*
G75*
G02*
X56759500Y-131611500I0J-150000D01*
G01*
X56759500Y-131911500D01*
G75*
G02*
X56609500Y-132061500I-150000J0D01*
G01*
X54959500Y-132061500D01*
G75*
G02*
X54809500Y-131911500I0J150000D01*
G01*
G37*
G36*
G01*
X49859500Y-131911500D02*
X49859500Y-131611500D01*
G75*
G02*
X50009500Y-131461500I150000J0D01*
G01*
X51659500Y-131461500D01*
G75*
G02*
X51809500Y-131611500I0J-150000D01*
G01*
X51809500Y-131911500D01*
G75*
G02*
X51659500Y-132061500I-150000J0D01*
G01*
X50009500Y-132061500D01*
G75*
G02*
X49859500Y-131911500I0J150000D01*
G01*
G37*
G36*
G01*
X49859500Y-130641500D02*
X49859500Y-130341500D01*
G75*
G02*
X50009500Y-130191500I150000J0D01*
G01*
X51659500Y-130191500D01*
G75*
G02*
X51809500Y-130341500I0J-150000D01*
G01*
X51809500Y-130641500D01*
G75*
G02*
X51659500Y-130791500I-150000J0D01*
G01*
X50009500Y-130791500D01*
G75*
G02*
X49859500Y-130641500I0J150000D01*
G01*
G37*
G36*
G01*
X49859500Y-129371500D02*
X49859500Y-129071500D01*
G75*
G02*
X50009500Y-128921500I150000J0D01*
G01*
X51659500Y-128921500D01*
G75*
G02*
X51809500Y-129071500I0J-150000D01*
G01*
X51809500Y-129371500D01*
G75*
G02*
X51659500Y-129521500I-150000J0D01*
G01*
X50009500Y-129521500D01*
G75*
G02*
X49859500Y-129371500I0J150000D01*
G01*
G37*
G36*
G01*
X49859500Y-128101500D02*
X49859500Y-127801500D01*
G75*
G02*
X50009500Y-127651500I150000J0D01*
G01*
X51659500Y-127651500D01*
G75*
G02*
X51809500Y-127801500I0J-150000D01*
G01*
X51809500Y-128101500D01*
G75*
G02*
X51659500Y-128251500I-150000J0D01*
G01*
X50009500Y-128251500D01*
G75*
G02*
X49859500Y-128101500I0J150000D01*
G01*
G37*
G36*
G01*
X49859500Y-126831500D02*
X49859500Y-126531500D01*
G75*
G02*
X50009500Y-126381500I150000J0D01*
G01*
X51659500Y-126381500D01*
G75*
G02*
X51809500Y-126531500I0J-150000D01*
G01*
X51809500Y-126831500D01*
G75*
G02*
X51659500Y-126981500I-150000J0D01*
G01*
X50009500Y-126981500D01*
G75*
G02*
X49859500Y-126831500I0J150000D01*
G01*
G37*
G36*
G01*
X49859500Y-125561500D02*
X49859500Y-125261500D01*
G75*
G02*
X50009500Y-125111500I150000J0D01*
G01*
X51659500Y-125111500D01*
G75*
G02*
X51809500Y-125261500I0J-150000D01*
G01*
X51809500Y-125561500D01*
G75*
G02*
X51659500Y-125711500I-150000J0D01*
G01*
X50009500Y-125711500D01*
G75*
G02*
X49859500Y-125561500I0J150000D01*
G01*
G37*
G36*
G01*
X49859500Y-124291500D02*
X49859500Y-123991500D01*
G75*
G02*
X50009500Y-123841500I150000J0D01*
G01*
X51659500Y-123841500D01*
G75*
G02*
X51809500Y-123991500I0J-150000D01*
G01*
X51809500Y-124291500D01*
G75*
G02*
X51659500Y-124441500I-150000J0D01*
G01*
X50009500Y-124441500D01*
G75*
G02*
X49859500Y-124291500I0J150000D01*
G01*
G37*
G36*
G01*
X49859500Y-123021500D02*
X49859500Y-122721500D01*
G75*
G02*
X50009500Y-122571500I150000J0D01*
G01*
X51659500Y-122571500D01*
G75*
G02*
X51809500Y-122721500I0J-150000D01*
G01*
X51809500Y-123021500D01*
G75*
G02*
X51659500Y-123171500I-150000J0D01*
G01*
X50009500Y-123171500D01*
G75*
G02*
X49859500Y-123021500I0J150000D01*
G01*
G37*
%TD*%
%TO.C,C7*%
G36*
G01*
X58234500Y-117039000D02*
X58544500Y-117039000D01*
G75*
G02*
X58699500Y-117194000I0J-155000D01*
G01*
X58699500Y-117619000D01*
G75*
G02*
X58544500Y-117774000I-155000J0D01*
G01*
X58234500Y-117774000D01*
G75*
G02*
X58079500Y-117619000I0J155000D01*
G01*
X58079500Y-117194000D01*
G75*
G02*
X58234500Y-117039000I155000J0D01*
G01*
G37*
G36*
G01*
X58234500Y-115904000D02*
X58544500Y-115904000D01*
G75*
G02*
X58699500Y-116059000I0J-155000D01*
G01*
X58699500Y-116484000D01*
G75*
G02*
X58544500Y-116639000I-155000J0D01*
G01*
X58234500Y-116639000D01*
G75*
G02*
X58079500Y-116484000I0J155000D01*
G01*
X58079500Y-116059000D01*
G75*
G02*
X58234500Y-115904000I155000J0D01*
G01*
G37*
%TD*%
%TO.C,C6*%
G36*
G01*
X58169500Y-106561500D02*
X58479500Y-106561500D01*
G75*
G02*
X58634500Y-106716500I0J-155000D01*
G01*
X58634500Y-107141500D01*
G75*
G02*
X58479500Y-107296500I-155000J0D01*
G01*
X58169500Y-107296500D01*
G75*
G02*
X58014500Y-107141500I0J155000D01*
G01*
X58014500Y-106716500D01*
G75*
G02*
X58169500Y-106561500I155000J0D01*
G01*
G37*
G36*
G01*
X58169500Y-105426500D02*
X58479500Y-105426500D01*
G75*
G02*
X58634500Y-105581500I0J-155000D01*
G01*
X58634500Y-106006500D01*
G75*
G02*
X58479500Y-106161500I-155000J0D01*
G01*
X58169500Y-106161500D01*
G75*
G02*
X58014500Y-106006500I0J155000D01*
G01*
X58014500Y-105581500D01*
G75*
G02*
X58169500Y-105426500I155000J0D01*
G01*
G37*
%TD*%
%TO.C,U7*%
G36*
G01*
X54809500Y-112544000D02*
X54809500Y-112244000D01*
G75*
G02*
X54959500Y-112094000I150000J0D01*
G01*
X56609500Y-112094000D01*
G75*
G02*
X56759500Y-112244000I0J-150000D01*
G01*
X56759500Y-112544000D01*
G75*
G02*
X56609500Y-112694000I-150000J0D01*
G01*
X54959500Y-112694000D01*
G75*
G02*
X54809500Y-112544000I0J150000D01*
G01*
G37*
G36*
G01*
X54809500Y-113814000D02*
X54809500Y-113514000D01*
G75*
G02*
X54959500Y-113364000I150000J0D01*
G01*
X56609500Y-113364000D01*
G75*
G02*
X56759500Y-113514000I0J-150000D01*
G01*
X56759500Y-113814000D01*
G75*
G02*
X56609500Y-113964000I-150000J0D01*
G01*
X54959500Y-113964000D01*
G75*
G02*
X54809500Y-113814000I0J150000D01*
G01*
G37*
G36*
G01*
X54809500Y-115084000D02*
X54809500Y-114784000D01*
G75*
G02*
X54959500Y-114634000I150000J0D01*
G01*
X56609500Y-114634000D01*
G75*
G02*
X56759500Y-114784000I0J-150000D01*
G01*
X56759500Y-115084000D01*
G75*
G02*
X56609500Y-115234000I-150000J0D01*
G01*
X54959500Y-115234000D01*
G75*
G02*
X54809500Y-115084000I0J150000D01*
G01*
G37*
G36*
G01*
X54809500Y-116354000D02*
X54809500Y-116054000D01*
G75*
G02*
X54959500Y-115904000I150000J0D01*
G01*
X56609500Y-115904000D01*
G75*
G02*
X56759500Y-116054000I0J-150000D01*
G01*
X56759500Y-116354000D01*
G75*
G02*
X56609500Y-116504000I-150000J0D01*
G01*
X54959500Y-116504000D01*
G75*
G02*
X54809500Y-116354000I0J150000D01*
G01*
G37*
G36*
G01*
X54809500Y-117624000D02*
X54809500Y-117324000D01*
G75*
G02*
X54959500Y-117174000I150000J0D01*
G01*
X56609500Y-117174000D01*
G75*
G02*
X56759500Y-117324000I0J-150000D01*
G01*
X56759500Y-117624000D01*
G75*
G02*
X56609500Y-117774000I-150000J0D01*
G01*
X54959500Y-117774000D01*
G75*
G02*
X54809500Y-117624000I0J150000D01*
G01*
G37*
G36*
G01*
X54809500Y-118894000D02*
X54809500Y-118594000D01*
G75*
G02*
X54959500Y-118444000I150000J0D01*
G01*
X56609500Y-118444000D01*
G75*
G02*
X56759500Y-118594000I0J-150000D01*
G01*
X56759500Y-118894000D01*
G75*
G02*
X56609500Y-119044000I-150000J0D01*
G01*
X54959500Y-119044000D01*
G75*
G02*
X54809500Y-118894000I0J150000D01*
G01*
G37*
G36*
G01*
X54809500Y-120164000D02*
X54809500Y-119864000D01*
G75*
G02*
X54959500Y-119714000I150000J0D01*
G01*
X56609500Y-119714000D01*
G75*
G02*
X56759500Y-119864000I0J-150000D01*
G01*
X56759500Y-120164000D01*
G75*
G02*
X56609500Y-120314000I-150000J0D01*
G01*
X54959500Y-120314000D01*
G75*
G02*
X54809500Y-120164000I0J150000D01*
G01*
G37*
G36*
G01*
X54809500Y-121434000D02*
X54809500Y-121134000D01*
G75*
G02*
X54959500Y-120984000I150000J0D01*
G01*
X56609500Y-120984000D01*
G75*
G02*
X56759500Y-121134000I0J-150000D01*
G01*
X56759500Y-121434000D01*
G75*
G02*
X56609500Y-121584000I-150000J0D01*
G01*
X54959500Y-121584000D01*
G75*
G02*
X54809500Y-121434000I0J150000D01*
G01*
G37*
G36*
G01*
X49859500Y-121434000D02*
X49859500Y-121134000D01*
G75*
G02*
X50009500Y-120984000I150000J0D01*
G01*
X51659500Y-120984000D01*
G75*
G02*
X51809500Y-121134000I0J-150000D01*
G01*
X51809500Y-121434000D01*
G75*
G02*
X51659500Y-121584000I-150000J0D01*
G01*
X50009500Y-121584000D01*
G75*
G02*
X49859500Y-121434000I0J150000D01*
G01*
G37*
G36*
G01*
X49859500Y-120164000D02*
X49859500Y-119864000D01*
G75*
G02*
X50009500Y-119714000I150000J0D01*
G01*
X51659500Y-119714000D01*
G75*
G02*
X51809500Y-119864000I0J-150000D01*
G01*
X51809500Y-120164000D01*
G75*
G02*
X51659500Y-120314000I-150000J0D01*
G01*
X50009500Y-120314000D01*
G75*
G02*
X49859500Y-120164000I0J150000D01*
G01*
G37*
G36*
G01*
X49859500Y-118894000D02*
X49859500Y-118594000D01*
G75*
G02*
X50009500Y-118444000I150000J0D01*
G01*
X51659500Y-118444000D01*
G75*
G02*
X51809500Y-118594000I0J-150000D01*
G01*
X51809500Y-118894000D01*
G75*
G02*
X51659500Y-119044000I-150000J0D01*
G01*
X50009500Y-119044000D01*
G75*
G02*
X49859500Y-118894000I0J150000D01*
G01*
G37*
G36*
G01*
X49859500Y-117624000D02*
X49859500Y-117324000D01*
G75*
G02*
X50009500Y-117174000I150000J0D01*
G01*
X51659500Y-117174000D01*
G75*
G02*
X51809500Y-117324000I0J-150000D01*
G01*
X51809500Y-117624000D01*
G75*
G02*
X51659500Y-117774000I-150000J0D01*
G01*
X50009500Y-117774000D01*
G75*
G02*
X49859500Y-117624000I0J150000D01*
G01*
G37*
G36*
G01*
X49859500Y-116354000D02*
X49859500Y-116054000D01*
G75*
G02*
X50009500Y-115904000I150000J0D01*
G01*
X51659500Y-115904000D01*
G75*
G02*
X51809500Y-116054000I0J-150000D01*
G01*
X51809500Y-116354000D01*
G75*
G02*
X51659500Y-116504000I-150000J0D01*
G01*
X50009500Y-116504000D01*
G75*
G02*
X49859500Y-116354000I0J150000D01*
G01*
G37*
G36*
G01*
X49859500Y-115084000D02*
X49859500Y-114784000D01*
G75*
G02*
X50009500Y-114634000I150000J0D01*
G01*
X51659500Y-114634000D01*
G75*
G02*
X51809500Y-114784000I0J-150000D01*
G01*
X51809500Y-115084000D01*
G75*
G02*
X51659500Y-115234000I-150000J0D01*
G01*
X50009500Y-115234000D01*
G75*
G02*
X49859500Y-115084000I0J150000D01*
G01*
G37*
G36*
G01*
X49859500Y-113814000D02*
X49859500Y-113514000D01*
G75*
G02*
X50009500Y-113364000I150000J0D01*
G01*
X51659500Y-113364000D01*
G75*
G02*
X51809500Y-113514000I0J-150000D01*
G01*
X51809500Y-113814000D01*
G75*
G02*
X51659500Y-113964000I-150000J0D01*
G01*
X50009500Y-113964000D01*
G75*
G02*
X49859500Y-113814000I0J150000D01*
G01*
G37*
G36*
G01*
X49859500Y-112544000D02*
X49859500Y-112244000D01*
G75*
G02*
X50009500Y-112094000I150000J0D01*
G01*
X51659500Y-112094000D01*
G75*
G02*
X51809500Y-112244000I0J-150000D01*
G01*
X51809500Y-112544000D01*
G75*
G02*
X51659500Y-112694000I-150000J0D01*
G01*
X50009500Y-112694000D01*
G75*
G02*
X49859500Y-112544000I0J150000D01*
G01*
G37*
%TD*%
%TO.C,C8*%
G36*
G01*
X58234500Y-127516500D02*
X58544500Y-127516500D01*
G75*
G02*
X58699500Y-127671500I0J-155000D01*
G01*
X58699500Y-128096500D01*
G75*
G02*
X58544500Y-128251500I-155000J0D01*
G01*
X58234500Y-128251500D01*
G75*
G02*
X58079500Y-128096500I0J155000D01*
G01*
X58079500Y-127671500D01*
G75*
G02*
X58234500Y-127516500I155000J0D01*
G01*
G37*
G36*
G01*
X58234500Y-126381500D02*
X58544500Y-126381500D01*
G75*
G02*
X58699500Y-126536500I0J-155000D01*
G01*
X58699500Y-126961500D01*
G75*
G02*
X58544500Y-127116500I-155000J0D01*
G01*
X58234500Y-127116500D01*
G75*
G02*
X58079500Y-126961500I0J155000D01*
G01*
X58079500Y-126536500D01*
G75*
G02*
X58234500Y-126381500I155000J0D01*
G01*
G37*
%TD*%
%TO.C,U6*%
G36*
G01*
X54809500Y-102066500D02*
X54809500Y-101766500D01*
G75*
G02*
X54959500Y-101616500I150000J0D01*
G01*
X56609500Y-101616500D01*
G75*
G02*
X56759500Y-101766500I0J-150000D01*
G01*
X56759500Y-102066500D01*
G75*
G02*
X56609500Y-102216500I-150000J0D01*
G01*
X54959500Y-102216500D01*
G75*
G02*
X54809500Y-102066500I0J150000D01*
G01*
G37*
G36*
G01*
X54809500Y-103336500D02*
X54809500Y-103036500D01*
G75*
G02*
X54959500Y-102886500I150000J0D01*
G01*
X56609500Y-102886500D01*
G75*
G02*
X56759500Y-103036500I0J-150000D01*
G01*
X56759500Y-103336500D01*
G75*
G02*
X56609500Y-103486500I-150000J0D01*
G01*
X54959500Y-103486500D01*
G75*
G02*
X54809500Y-103336500I0J150000D01*
G01*
G37*
G36*
G01*
X54809500Y-104606500D02*
X54809500Y-104306500D01*
G75*
G02*
X54959500Y-104156500I150000J0D01*
G01*
X56609500Y-104156500D01*
G75*
G02*
X56759500Y-104306500I0J-150000D01*
G01*
X56759500Y-104606500D01*
G75*
G02*
X56609500Y-104756500I-150000J0D01*
G01*
X54959500Y-104756500D01*
G75*
G02*
X54809500Y-104606500I0J150000D01*
G01*
G37*
G36*
G01*
X54809500Y-105876500D02*
X54809500Y-105576500D01*
G75*
G02*
X54959500Y-105426500I150000J0D01*
G01*
X56609500Y-105426500D01*
G75*
G02*
X56759500Y-105576500I0J-150000D01*
G01*
X56759500Y-105876500D01*
G75*
G02*
X56609500Y-106026500I-150000J0D01*
G01*
X54959500Y-106026500D01*
G75*
G02*
X54809500Y-105876500I0J150000D01*
G01*
G37*
G36*
G01*
X54809500Y-107146500D02*
X54809500Y-106846500D01*
G75*
G02*
X54959500Y-106696500I150000J0D01*
G01*
X56609500Y-106696500D01*
G75*
G02*
X56759500Y-106846500I0J-150000D01*
G01*
X56759500Y-107146500D01*
G75*
G02*
X56609500Y-107296500I-150000J0D01*
G01*
X54959500Y-107296500D01*
G75*
G02*
X54809500Y-107146500I0J150000D01*
G01*
G37*
G36*
G01*
X54809500Y-108416500D02*
X54809500Y-108116500D01*
G75*
G02*
X54959500Y-107966500I150000J0D01*
G01*
X56609500Y-107966500D01*
G75*
G02*
X56759500Y-108116500I0J-150000D01*
G01*
X56759500Y-108416500D01*
G75*
G02*
X56609500Y-108566500I-150000J0D01*
G01*
X54959500Y-108566500D01*
G75*
G02*
X54809500Y-108416500I0J150000D01*
G01*
G37*
G36*
G01*
X54809500Y-109686500D02*
X54809500Y-109386500D01*
G75*
G02*
X54959500Y-109236500I150000J0D01*
G01*
X56609500Y-109236500D01*
G75*
G02*
X56759500Y-109386500I0J-150000D01*
G01*
X56759500Y-109686500D01*
G75*
G02*
X56609500Y-109836500I-150000J0D01*
G01*
X54959500Y-109836500D01*
G75*
G02*
X54809500Y-109686500I0J150000D01*
G01*
G37*
G36*
G01*
X54809500Y-110956500D02*
X54809500Y-110656500D01*
G75*
G02*
X54959500Y-110506500I150000J0D01*
G01*
X56609500Y-110506500D01*
G75*
G02*
X56759500Y-110656500I0J-150000D01*
G01*
X56759500Y-110956500D01*
G75*
G02*
X56609500Y-111106500I-150000J0D01*
G01*
X54959500Y-111106500D01*
G75*
G02*
X54809500Y-110956500I0J150000D01*
G01*
G37*
G36*
G01*
X49859500Y-110956500D02*
X49859500Y-110656500D01*
G75*
G02*
X50009500Y-110506500I150000J0D01*
G01*
X51659500Y-110506500D01*
G75*
G02*
X51809500Y-110656500I0J-150000D01*
G01*
X51809500Y-110956500D01*
G75*
G02*
X51659500Y-111106500I-150000J0D01*
G01*
X50009500Y-111106500D01*
G75*
G02*
X49859500Y-110956500I0J150000D01*
G01*
G37*
G36*
G01*
X49859500Y-109686500D02*
X49859500Y-109386500D01*
G75*
G02*
X50009500Y-109236500I150000J0D01*
G01*
X51659500Y-109236500D01*
G75*
G02*
X51809500Y-109386500I0J-150000D01*
G01*
X51809500Y-109686500D01*
G75*
G02*
X51659500Y-109836500I-150000J0D01*
G01*
X50009500Y-109836500D01*
G75*
G02*
X49859500Y-109686500I0J150000D01*
G01*
G37*
G36*
G01*
X49859500Y-108416500D02*
X49859500Y-108116500D01*
G75*
G02*
X50009500Y-107966500I150000J0D01*
G01*
X51659500Y-107966500D01*
G75*
G02*
X51809500Y-108116500I0J-150000D01*
G01*
X51809500Y-108416500D01*
G75*
G02*
X51659500Y-108566500I-150000J0D01*
G01*
X50009500Y-108566500D01*
G75*
G02*
X49859500Y-108416500I0J150000D01*
G01*
G37*
G36*
G01*
X49859500Y-107146500D02*
X49859500Y-106846500D01*
G75*
G02*
X50009500Y-106696500I150000J0D01*
G01*
X51659500Y-106696500D01*
G75*
G02*
X51809500Y-106846500I0J-150000D01*
G01*
X51809500Y-107146500D01*
G75*
G02*
X51659500Y-107296500I-150000J0D01*
G01*
X50009500Y-107296500D01*
G75*
G02*
X49859500Y-107146500I0J150000D01*
G01*
G37*
G36*
G01*
X49859500Y-105876500D02*
X49859500Y-105576500D01*
G75*
G02*
X50009500Y-105426500I150000J0D01*
G01*
X51659500Y-105426500D01*
G75*
G02*
X51809500Y-105576500I0J-150000D01*
G01*
X51809500Y-105876500D01*
G75*
G02*
X51659500Y-106026500I-150000J0D01*
G01*
X50009500Y-106026500D01*
G75*
G02*
X49859500Y-105876500I0J150000D01*
G01*
G37*
G36*
G01*
X49859500Y-104606500D02*
X49859500Y-104306500D01*
G75*
G02*
X50009500Y-104156500I150000J0D01*
G01*
X51659500Y-104156500D01*
G75*
G02*
X51809500Y-104306500I0J-150000D01*
G01*
X51809500Y-104606500D01*
G75*
G02*
X51659500Y-104756500I-150000J0D01*
G01*
X50009500Y-104756500D01*
G75*
G02*
X49859500Y-104606500I0J150000D01*
G01*
G37*
G36*
G01*
X49859500Y-103336500D02*
X49859500Y-103036500D01*
G75*
G02*
X50009500Y-102886500I150000J0D01*
G01*
X51659500Y-102886500D01*
G75*
G02*
X51809500Y-103036500I0J-150000D01*
G01*
X51809500Y-103336500D01*
G75*
G02*
X51659500Y-103486500I-150000J0D01*
G01*
X50009500Y-103486500D01*
G75*
G02*
X49859500Y-103336500I0J150000D01*
G01*
G37*
G36*
G01*
X49859500Y-102066500D02*
X49859500Y-101766500D01*
G75*
G02*
X50009500Y-101616500I150000J0D01*
G01*
X51659500Y-101616500D01*
G75*
G02*
X51809500Y-101766500I0J-150000D01*
G01*
X51809500Y-102066500D01*
G75*
G02*
X51659500Y-102216500I-150000J0D01*
G01*
X50009500Y-102216500D01*
G75*
G02*
X49859500Y-102066500I0J150000D01*
G01*
G37*
%TD*%
%TO.C,C5*%
G36*
G01*
X58299500Y-96084000D02*
X58609500Y-96084000D01*
G75*
G02*
X58764500Y-96239000I0J-155000D01*
G01*
X58764500Y-96664000D01*
G75*
G02*
X58609500Y-96819000I-155000J0D01*
G01*
X58299500Y-96819000D01*
G75*
G02*
X58144500Y-96664000I0J155000D01*
G01*
X58144500Y-96239000D01*
G75*
G02*
X58299500Y-96084000I155000J0D01*
G01*
G37*
G36*
G01*
X58299500Y-94949000D02*
X58609500Y-94949000D01*
G75*
G02*
X58764500Y-95104000I0J-155000D01*
G01*
X58764500Y-95529000D01*
G75*
G02*
X58609500Y-95684000I-155000J0D01*
G01*
X58299500Y-95684000D01*
G75*
G02*
X58144500Y-95529000I0J155000D01*
G01*
X58144500Y-95104000D01*
G75*
G02*
X58299500Y-94949000I155000J0D01*
G01*
G37*
%TD*%
%TO.C,U1*%
G36*
G01*
X54809500Y-39530000D02*
X54809500Y-39230000D01*
G75*
G02*
X54959500Y-39080000I150000J0D01*
G01*
X56609500Y-39080000D01*
G75*
G02*
X56759500Y-39230000I0J-150000D01*
G01*
X56759500Y-39530000D01*
G75*
G02*
X56609500Y-39680000I-150000J0D01*
G01*
X54959500Y-39680000D01*
G75*
G02*
X54809500Y-39530000I0J150000D01*
G01*
G37*
G36*
G01*
X54809500Y-40800000D02*
X54809500Y-40500000D01*
G75*
G02*
X54959500Y-40350000I150000J0D01*
G01*
X56609500Y-40350000D01*
G75*
G02*
X56759500Y-40500000I0J-150000D01*
G01*
X56759500Y-40800000D01*
G75*
G02*
X56609500Y-40950000I-150000J0D01*
G01*
X54959500Y-40950000D01*
G75*
G02*
X54809500Y-40800000I0J150000D01*
G01*
G37*
G36*
G01*
X54809500Y-42070000D02*
X54809500Y-41770000D01*
G75*
G02*
X54959500Y-41620000I150000J0D01*
G01*
X56609500Y-41620000D01*
G75*
G02*
X56759500Y-41770000I0J-150000D01*
G01*
X56759500Y-42070000D01*
G75*
G02*
X56609500Y-42220000I-150000J0D01*
G01*
X54959500Y-42220000D01*
G75*
G02*
X54809500Y-42070000I0J150000D01*
G01*
G37*
G36*
G01*
X54809500Y-43340000D02*
X54809500Y-43040000D01*
G75*
G02*
X54959500Y-42890000I150000J0D01*
G01*
X56609500Y-42890000D01*
G75*
G02*
X56759500Y-43040000I0J-150000D01*
G01*
X56759500Y-43340000D01*
G75*
G02*
X56609500Y-43490000I-150000J0D01*
G01*
X54959500Y-43490000D01*
G75*
G02*
X54809500Y-43340000I0J150000D01*
G01*
G37*
G36*
G01*
X54809500Y-44610000D02*
X54809500Y-44310000D01*
G75*
G02*
X54959500Y-44160000I150000J0D01*
G01*
X56609500Y-44160000D01*
G75*
G02*
X56759500Y-44310000I0J-150000D01*
G01*
X56759500Y-44610000D01*
G75*
G02*
X56609500Y-44760000I-150000J0D01*
G01*
X54959500Y-44760000D01*
G75*
G02*
X54809500Y-44610000I0J150000D01*
G01*
G37*
G36*
G01*
X54809500Y-45880000D02*
X54809500Y-45580000D01*
G75*
G02*
X54959500Y-45430000I150000J0D01*
G01*
X56609500Y-45430000D01*
G75*
G02*
X56759500Y-45580000I0J-150000D01*
G01*
X56759500Y-45880000D01*
G75*
G02*
X56609500Y-46030000I-150000J0D01*
G01*
X54959500Y-46030000D01*
G75*
G02*
X54809500Y-45880000I0J150000D01*
G01*
G37*
G36*
G01*
X54809500Y-47150000D02*
X54809500Y-46850000D01*
G75*
G02*
X54959500Y-46700000I150000J0D01*
G01*
X56609500Y-46700000D01*
G75*
G02*
X56759500Y-46850000I0J-150000D01*
G01*
X56759500Y-47150000D01*
G75*
G02*
X56609500Y-47300000I-150000J0D01*
G01*
X54959500Y-47300000D01*
G75*
G02*
X54809500Y-47150000I0J150000D01*
G01*
G37*
G36*
G01*
X54809500Y-48420000D02*
X54809500Y-48120000D01*
G75*
G02*
X54959500Y-47970000I150000J0D01*
G01*
X56609500Y-47970000D01*
G75*
G02*
X56759500Y-48120000I0J-150000D01*
G01*
X56759500Y-48420000D01*
G75*
G02*
X56609500Y-48570000I-150000J0D01*
G01*
X54959500Y-48570000D01*
G75*
G02*
X54809500Y-48420000I0J150000D01*
G01*
G37*
G36*
G01*
X49859500Y-48420000D02*
X49859500Y-48120000D01*
G75*
G02*
X50009500Y-47970000I150000J0D01*
G01*
X51659500Y-47970000D01*
G75*
G02*
X51809500Y-48120000I0J-150000D01*
G01*
X51809500Y-48420000D01*
G75*
G02*
X51659500Y-48570000I-150000J0D01*
G01*
X50009500Y-48570000D01*
G75*
G02*
X49859500Y-48420000I0J150000D01*
G01*
G37*
G36*
G01*
X49859500Y-47150000D02*
X49859500Y-46850000D01*
G75*
G02*
X50009500Y-46700000I150000J0D01*
G01*
X51659500Y-46700000D01*
G75*
G02*
X51809500Y-46850000I0J-150000D01*
G01*
X51809500Y-47150000D01*
G75*
G02*
X51659500Y-47300000I-150000J0D01*
G01*
X50009500Y-47300000D01*
G75*
G02*
X49859500Y-47150000I0J150000D01*
G01*
G37*
G36*
G01*
X49859500Y-45880000D02*
X49859500Y-45580000D01*
G75*
G02*
X50009500Y-45430000I150000J0D01*
G01*
X51659500Y-45430000D01*
G75*
G02*
X51809500Y-45580000I0J-150000D01*
G01*
X51809500Y-45880000D01*
G75*
G02*
X51659500Y-46030000I-150000J0D01*
G01*
X50009500Y-46030000D01*
G75*
G02*
X49859500Y-45880000I0J150000D01*
G01*
G37*
G36*
G01*
X49859500Y-44610000D02*
X49859500Y-44310000D01*
G75*
G02*
X50009500Y-44160000I150000J0D01*
G01*
X51659500Y-44160000D01*
G75*
G02*
X51809500Y-44310000I0J-150000D01*
G01*
X51809500Y-44610000D01*
G75*
G02*
X51659500Y-44760000I-150000J0D01*
G01*
X50009500Y-44760000D01*
G75*
G02*
X49859500Y-44610000I0J150000D01*
G01*
G37*
G36*
G01*
X49859500Y-43340000D02*
X49859500Y-43040000D01*
G75*
G02*
X50009500Y-42890000I150000J0D01*
G01*
X51659500Y-42890000D01*
G75*
G02*
X51809500Y-43040000I0J-150000D01*
G01*
X51809500Y-43340000D01*
G75*
G02*
X51659500Y-43490000I-150000J0D01*
G01*
X50009500Y-43490000D01*
G75*
G02*
X49859500Y-43340000I0J150000D01*
G01*
G37*
G36*
G01*
X49859500Y-42070000D02*
X49859500Y-41770000D01*
G75*
G02*
X50009500Y-41620000I150000J0D01*
G01*
X51659500Y-41620000D01*
G75*
G02*
X51809500Y-41770000I0J-150000D01*
G01*
X51809500Y-42070000D01*
G75*
G02*
X51659500Y-42220000I-150000J0D01*
G01*
X50009500Y-42220000D01*
G75*
G02*
X49859500Y-42070000I0J150000D01*
G01*
G37*
G36*
G01*
X49859500Y-40800000D02*
X49859500Y-40500000D01*
G75*
G02*
X50009500Y-40350000I150000J0D01*
G01*
X51659500Y-40350000D01*
G75*
G02*
X51809500Y-40500000I0J-150000D01*
G01*
X51809500Y-40800000D01*
G75*
G02*
X51659500Y-40950000I-150000J0D01*
G01*
X50009500Y-40950000D01*
G75*
G02*
X49859500Y-40800000I0J150000D01*
G01*
G37*
G36*
G01*
X49859500Y-39530000D02*
X49859500Y-39230000D01*
G75*
G02*
X50009500Y-39080000I150000J0D01*
G01*
X51659500Y-39080000D01*
G75*
G02*
X51809500Y-39230000I0J-150000D01*
G01*
X51809500Y-39530000D01*
G75*
G02*
X51659500Y-39680000I-150000J0D01*
G01*
X50009500Y-39680000D01*
G75*
G02*
X49859500Y-39530000I0J150000D01*
G01*
G37*
%TD*%
%TO.C,U4*%
G36*
G01*
X49859500Y-70962500D02*
X49859500Y-70662500D01*
G75*
G02*
X50009500Y-70512500I150000J0D01*
G01*
X51659500Y-70512500D01*
G75*
G02*
X51809500Y-70662500I0J-150000D01*
G01*
X51809500Y-70962500D01*
G75*
G02*
X51659500Y-71112500I-150000J0D01*
G01*
X50009500Y-71112500D01*
G75*
G02*
X49859500Y-70962500I0J150000D01*
G01*
G37*
G36*
G01*
X49859500Y-72232500D02*
X49859500Y-71932500D01*
G75*
G02*
X50009500Y-71782500I150000J0D01*
G01*
X51659500Y-71782500D01*
G75*
G02*
X51809500Y-71932500I0J-150000D01*
G01*
X51809500Y-72232500D01*
G75*
G02*
X51659500Y-72382500I-150000J0D01*
G01*
X50009500Y-72382500D01*
G75*
G02*
X49859500Y-72232500I0J150000D01*
G01*
G37*
G36*
G01*
X49859500Y-73502500D02*
X49859500Y-73202500D01*
G75*
G02*
X50009500Y-73052500I150000J0D01*
G01*
X51659500Y-73052500D01*
G75*
G02*
X51809500Y-73202500I0J-150000D01*
G01*
X51809500Y-73502500D01*
G75*
G02*
X51659500Y-73652500I-150000J0D01*
G01*
X50009500Y-73652500D01*
G75*
G02*
X49859500Y-73502500I0J150000D01*
G01*
G37*
G36*
G01*
X49859500Y-74772500D02*
X49859500Y-74472500D01*
G75*
G02*
X50009500Y-74322500I150000J0D01*
G01*
X51659500Y-74322500D01*
G75*
G02*
X51809500Y-74472500I0J-150000D01*
G01*
X51809500Y-74772500D01*
G75*
G02*
X51659500Y-74922500I-150000J0D01*
G01*
X50009500Y-74922500D01*
G75*
G02*
X49859500Y-74772500I0J150000D01*
G01*
G37*
G36*
G01*
X49859500Y-76042500D02*
X49859500Y-75742500D01*
G75*
G02*
X50009500Y-75592500I150000J0D01*
G01*
X51659500Y-75592500D01*
G75*
G02*
X51809500Y-75742500I0J-150000D01*
G01*
X51809500Y-76042500D01*
G75*
G02*
X51659500Y-76192500I-150000J0D01*
G01*
X50009500Y-76192500D01*
G75*
G02*
X49859500Y-76042500I0J150000D01*
G01*
G37*
G36*
G01*
X49859500Y-77312500D02*
X49859500Y-77012500D01*
G75*
G02*
X50009500Y-76862500I150000J0D01*
G01*
X51659500Y-76862500D01*
G75*
G02*
X51809500Y-77012500I0J-150000D01*
G01*
X51809500Y-77312500D01*
G75*
G02*
X51659500Y-77462500I-150000J0D01*
G01*
X50009500Y-77462500D01*
G75*
G02*
X49859500Y-77312500I0J150000D01*
G01*
G37*
G36*
G01*
X49859500Y-78582500D02*
X49859500Y-78282500D01*
G75*
G02*
X50009500Y-78132500I150000J0D01*
G01*
X51659500Y-78132500D01*
G75*
G02*
X51809500Y-78282500I0J-150000D01*
G01*
X51809500Y-78582500D01*
G75*
G02*
X51659500Y-78732500I-150000J0D01*
G01*
X50009500Y-78732500D01*
G75*
G02*
X49859500Y-78582500I0J150000D01*
G01*
G37*
G36*
G01*
X49859500Y-79852500D02*
X49859500Y-79552500D01*
G75*
G02*
X50009500Y-79402500I150000J0D01*
G01*
X51659500Y-79402500D01*
G75*
G02*
X51809500Y-79552500I0J-150000D01*
G01*
X51809500Y-79852500D01*
G75*
G02*
X51659500Y-80002500I-150000J0D01*
G01*
X50009500Y-80002500D01*
G75*
G02*
X49859500Y-79852500I0J150000D01*
G01*
G37*
G36*
G01*
X54809500Y-79852500D02*
X54809500Y-79552500D01*
G75*
G02*
X54959500Y-79402500I150000J0D01*
G01*
X56609500Y-79402500D01*
G75*
G02*
X56759500Y-79552500I0J-150000D01*
G01*
X56759500Y-79852500D01*
G75*
G02*
X56609500Y-80002500I-150000J0D01*
G01*
X54959500Y-80002500D01*
G75*
G02*
X54809500Y-79852500I0J150000D01*
G01*
G37*
G36*
G01*
X54809500Y-78582500D02*
X54809500Y-78282500D01*
G75*
G02*
X54959500Y-78132500I150000J0D01*
G01*
X56609500Y-78132500D01*
G75*
G02*
X56759500Y-78282500I0J-150000D01*
G01*
X56759500Y-78582500D01*
G75*
G02*
X56609500Y-78732500I-150000J0D01*
G01*
X54959500Y-78732500D01*
G75*
G02*
X54809500Y-78582500I0J150000D01*
G01*
G37*
G36*
G01*
X54809500Y-77312500D02*
X54809500Y-77012500D01*
G75*
G02*
X54959500Y-76862500I150000J0D01*
G01*
X56609500Y-76862500D01*
G75*
G02*
X56759500Y-77012500I0J-150000D01*
G01*
X56759500Y-77312500D01*
G75*
G02*
X56609500Y-77462500I-150000J0D01*
G01*
X54959500Y-77462500D01*
G75*
G02*
X54809500Y-77312500I0J150000D01*
G01*
G37*
G36*
G01*
X54809500Y-76042500D02*
X54809500Y-75742500D01*
G75*
G02*
X54959500Y-75592500I150000J0D01*
G01*
X56609500Y-75592500D01*
G75*
G02*
X56759500Y-75742500I0J-150000D01*
G01*
X56759500Y-76042500D01*
G75*
G02*
X56609500Y-76192500I-150000J0D01*
G01*
X54959500Y-76192500D01*
G75*
G02*
X54809500Y-76042500I0J150000D01*
G01*
G37*
G36*
G01*
X54809500Y-74772500D02*
X54809500Y-74472500D01*
G75*
G02*
X54959500Y-74322500I150000J0D01*
G01*
X56609500Y-74322500D01*
G75*
G02*
X56759500Y-74472500I0J-150000D01*
G01*
X56759500Y-74772500D01*
G75*
G02*
X56609500Y-74922500I-150000J0D01*
G01*
X54959500Y-74922500D01*
G75*
G02*
X54809500Y-74772500I0J150000D01*
G01*
G37*
G36*
G01*
X54809500Y-73502500D02*
X54809500Y-73202500D01*
G75*
G02*
X54959500Y-73052500I150000J0D01*
G01*
X56609500Y-73052500D01*
G75*
G02*
X56759500Y-73202500I0J-150000D01*
G01*
X56759500Y-73502500D01*
G75*
G02*
X56609500Y-73652500I-150000J0D01*
G01*
X54959500Y-73652500D01*
G75*
G02*
X54809500Y-73502500I0J150000D01*
G01*
G37*
G36*
G01*
X54809500Y-72232500D02*
X54809500Y-71932500D01*
G75*
G02*
X54959500Y-71782500I150000J0D01*
G01*
X56609500Y-71782500D01*
G75*
G02*
X56759500Y-71932500I0J-150000D01*
G01*
X56759500Y-72232500D01*
G75*
G02*
X56609500Y-72382500I-150000J0D01*
G01*
X54959500Y-72382500D01*
G75*
G02*
X54809500Y-72232500I0J150000D01*
G01*
G37*
G36*
G01*
X54809500Y-70962500D02*
X54809500Y-70662500D01*
G75*
G02*
X54959500Y-70512500I150000J0D01*
G01*
X56609500Y-70512500D01*
G75*
G02*
X56759500Y-70662500I0J-150000D01*
G01*
X56759500Y-70962500D01*
G75*
G02*
X56609500Y-71112500I-150000J0D01*
G01*
X54959500Y-71112500D01*
G75*
G02*
X54809500Y-70962500I0J150000D01*
G01*
G37*
%TD*%
%TO.C,C4*%
G36*
G01*
X58234500Y-63845000D02*
X58544500Y-63845000D01*
G75*
G02*
X58699500Y-64000000I0J-155000D01*
G01*
X58699500Y-64425000D01*
G75*
G02*
X58544500Y-64580000I-155000J0D01*
G01*
X58234500Y-64580000D01*
G75*
G02*
X58079500Y-64425000I0J155000D01*
G01*
X58079500Y-64000000D01*
G75*
G02*
X58234500Y-63845000I155000J0D01*
G01*
G37*
G36*
G01*
X58234500Y-64980000D02*
X58544500Y-64980000D01*
G75*
G02*
X58699500Y-65135000I0J-155000D01*
G01*
X58699500Y-65560000D01*
G75*
G02*
X58544500Y-65715000I-155000J0D01*
G01*
X58234500Y-65715000D01*
G75*
G02*
X58079500Y-65560000I0J155000D01*
G01*
X58079500Y-65135000D01*
G75*
G02*
X58234500Y-64980000I155000J0D01*
G01*
G37*
%TD*%
%TO.C,C2*%
G36*
G01*
X58169500Y-54502500D02*
X58479500Y-54502500D01*
G75*
G02*
X58634500Y-54657500I0J-155000D01*
G01*
X58634500Y-55082500D01*
G75*
G02*
X58479500Y-55237500I-155000J0D01*
G01*
X58169500Y-55237500D01*
G75*
G02*
X58014500Y-55082500I0J155000D01*
G01*
X58014500Y-54657500D01*
G75*
G02*
X58169500Y-54502500I155000J0D01*
G01*
G37*
G36*
G01*
X58169500Y-53367500D02*
X58479500Y-53367500D01*
G75*
G02*
X58634500Y-53522500I0J-155000D01*
G01*
X58634500Y-53947500D01*
G75*
G02*
X58479500Y-54102500I-155000J0D01*
G01*
X58169500Y-54102500D01*
G75*
G02*
X58014500Y-53947500I0J155000D01*
G01*
X58014500Y-53522500D01*
G75*
G02*
X58169500Y-53367500I155000J0D01*
G01*
G37*
%TD*%
%TO.C,U3*%
G36*
G01*
X49859500Y-60485000D02*
X49859500Y-60185000D01*
G75*
G02*
X50009500Y-60035000I150000J0D01*
G01*
X51659500Y-60035000D01*
G75*
G02*
X51809500Y-60185000I0J-150000D01*
G01*
X51809500Y-60485000D01*
G75*
G02*
X51659500Y-60635000I-150000J0D01*
G01*
X50009500Y-60635000D01*
G75*
G02*
X49859500Y-60485000I0J150000D01*
G01*
G37*
G36*
G01*
X49859500Y-61755000D02*
X49859500Y-61455000D01*
G75*
G02*
X50009500Y-61305000I150000J0D01*
G01*
X51659500Y-61305000D01*
G75*
G02*
X51809500Y-61455000I0J-150000D01*
G01*
X51809500Y-61755000D01*
G75*
G02*
X51659500Y-61905000I-150000J0D01*
G01*
X50009500Y-61905000D01*
G75*
G02*
X49859500Y-61755000I0J150000D01*
G01*
G37*
G36*
G01*
X49859500Y-63025000D02*
X49859500Y-62725000D01*
G75*
G02*
X50009500Y-62575000I150000J0D01*
G01*
X51659500Y-62575000D01*
G75*
G02*
X51809500Y-62725000I0J-150000D01*
G01*
X51809500Y-63025000D01*
G75*
G02*
X51659500Y-63175000I-150000J0D01*
G01*
X50009500Y-63175000D01*
G75*
G02*
X49859500Y-63025000I0J150000D01*
G01*
G37*
G36*
G01*
X49859500Y-64295000D02*
X49859500Y-63995000D01*
G75*
G02*
X50009500Y-63845000I150000J0D01*
G01*
X51659500Y-63845000D01*
G75*
G02*
X51809500Y-63995000I0J-150000D01*
G01*
X51809500Y-64295000D01*
G75*
G02*
X51659500Y-64445000I-150000J0D01*
G01*
X50009500Y-64445000D01*
G75*
G02*
X49859500Y-64295000I0J150000D01*
G01*
G37*
G36*
G01*
X49859500Y-65565000D02*
X49859500Y-65265000D01*
G75*
G02*
X50009500Y-65115000I150000J0D01*
G01*
X51659500Y-65115000D01*
G75*
G02*
X51809500Y-65265000I0J-150000D01*
G01*
X51809500Y-65565000D01*
G75*
G02*
X51659500Y-65715000I-150000J0D01*
G01*
X50009500Y-65715000D01*
G75*
G02*
X49859500Y-65565000I0J150000D01*
G01*
G37*
G36*
G01*
X49859500Y-66835000D02*
X49859500Y-66535000D01*
G75*
G02*
X50009500Y-66385000I150000J0D01*
G01*
X51659500Y-66385000D01*
G75*
G02*
X51809500Y-66535000I0J-150000D01*
G01*
X51809500Y-66835000D01*
G75*
G02*
X51659500Y-66985000I-150000J0D01*
G01*
X50009500Y-66985000D01*
G75*
G02*
X49859500Y-66835000I0J150000D01*
G01*
G37*
G36*
G01*
X49859500Y-68105000D02*
X49859500Y-67805000D01*
G75*
G02*
X50009500Y-67655000I150000J0D01*
G01*
X51659500Y-67655000D01*
G75*
G02*
X51809500Y-67805000I0J-150000D01*
G01*
X51809500Y-68105000D01*
G75*
G02*
X51659500Y-68255000I-150000J0D01*
G01*
X50009500Y-68255000D01*
G75*
G02*
X49859500Y-68105000I0J150000D01*
G01*
G37*
G36*
G01*
X49859500Y-69375000D02*
X49859500Y-69075000D01*
G75*
G02*
X50009500Y-68925000I150000J0D01*
G01*
X51659500Y-68925000D01*
G75*
G02*
X51809500Y-69075000I0J-150000D01*
G01*
X51809500Y-69375000D01*
G75*
G02*
X51659500Y-69525000I-150000J0D01*
G01*
X50009500Y-69525000D01*
G75*
G02*
X49859500Y-69375000I0J150000D01*
G01*
G37*
G36*
G01*
X54809500Y-69375000D02*
X54809500Y-69075000D01*
G75*
G02*
X54959500Y-68925000I150000J0D01*
G01*
X56609500Y-68925000D01*
G75*
G02*
X56759500Y-69075000I0J-150000D01*
G01*
X56759500Y-69375000D01*
G75*
G02*
X56609500Y-69525000I-150000J0D01*
G01*
X54959500Y-69525000D01*
G75*
G02*
X54809500Y-69375000I0J150000D01*
G01*
G37*
G36*
G01*
X54809500Y-68105000D02*
X54809500Y-67805000D01*
G75*
G02*
X54959500Y-67655000I150000J0D01*
G01*
X56609500Y-67655000D01*
G75*
G02*
X56759500Y-67805000I0J-150000D01*
G01*
X56759500Y-68105000D01*
G75*
G02*
X56609500Y-68255000I-150000J0D01*
G01*
X54959500Y-68255000D01*
G75*
G02*
X54809500Y-68105000I0J150000D01*
G01*
G37*
G36*
G01*
X54809500Y-66835000D02*
X54809500Y-66535000D01*
G75*
G02*
X54959500Y-66385000I150000J0D01*
G01*
X56609500Y-66385000D01*
G75*
G02*
X56759500Y-66535000I0J-150000D01*
G01*
X56759500Y-66835000D01*
G75*
G02*
X56609500Y-66985000I-150000J0D01*
G01*
X54959500Y-66985000D01*
G75*
G02*
X54809500Y-66835000I0J150000D01*
G01*
G37*
G36*
G01*
X54809500Y-65565000D02*
X54809500Y-65265000D01*
G75*
G02*
X54959500Y-65115000I150000J0D01*
G01*
X56609500Y-65115000D01*
G75*
G02*
X56759500Y-65265000I0J-150000D01*
G01*
X56759500Y-65565000D01*
G75*
G02*
X56609500Y-65715000I-150000J0D01*
G01*
X54959500Y-65715000D01*
G75*
G02*
X54809500Y-65565000I0J150000D01*
G01*
G37*
G36*
G01*
X54809500Y-64295000D02*
X54809500Y-63995000D01*
G75*
G02*
X54959500Y-63845000I150000J0D01*
G01*
X56609500Y-63845000D01*
G75*
G02*
X56759500Y-63995000I0J-150000D01*
G01*
X56759500Y-64295000D01*
G75*
G02*
X56609500Y-64445000I-150000J0D01*
G01*
X54959500Y-64445000D01*
G75*
G02*
X54809500Y-64295000I0J150000D01*
G01*
G37*
G36*
G01*
X54809500Y-63025000D02*
X54809500Y-62725000D01*
G75*
G02*
X54959500Y-62575000I150000J0D01*
G01*
X56609500Y-62575000D01*
G75*
G02*
X56759500Y-62725000I0J-150000D01*
G01*
X56759500Y-63025000D01*
G75*
G02*
X56609500Y-63175000I-150000J0D01*
G01*
X54959500Y-63175000D01*
G75*
G02*
X54809500Y-63025000I0J150000D01*
G01*
G37*
G36*
G01*
X54809500Y-61755000D02*
X54809500Y-61455000D01*
G75*
G02*
X54959500Y-61305000I150000J0D01*
G01*
X56609500Y-61305000D01*
G75*
G02*
X56759500Y-61455000I0J-150000D01*
G01*
X56759500Y-61755000D01*
G75*
G02*
X56609500Y-61905000I-150000J0D01*
G01*
X54959500Y-61905000D01*
G75*
G02*
X54809500Y-61755000I0J150000D01*
G01*
G37*
G36*
G01*
X54809500Y-60485000D02*
X54809500Y-60185000D01*
G75*
G02*
X54959500Y-60035000I150000J0D01*
G01*
X56609500Y-60035000D01*
G75*
G02*
X56759500Y-60185000I0J-150000D01*
G01*
X56759500Y-60485000D01*
G75*
G02*
X56609500Y-60635000I-150000J0D01*
G01*
X54959500Y-60635000D01*
G75*
G02*
X54809500Y-60485000I0J150000D01*
G01*
G37*
%TD*%
%TO.C,C3*%
G36*
G01*
X58234500Y-74322500D02*
X58544500Y-74322500D01*
G75*
G02*
X58699500Y-74477500I0J-155000D01*
G01*
X58699500Y-74902500D01*
G75*
G02*
X58544500Y-75057500I-155000J0D01*
G01*
X58234500Y-75057500D01*
G75*
G02*
X58079500Y-74902500I0J155000D01*
G01*
X58079500Y-74477500D01*
G75*
G02*
X58234500Y-74322500I155000J0D01*
G01*
G37*
G36*
G01*
X58234500Y-75457500D02*
X58544500Y-75457500D01*
G75*
G02*
X58699500Y-75612500I0J-155000D01*
G01*
X58699500Y-76037500D01*
G75*
G02*
X58544500Y-76192500I-155000J0D01*
G01*
X58234500Y-76192500D01*
G75*
G02*
X58079500Y-76037500I0J155000D01*
G01*
X58079500Y-75612500D01*
G75*
G02*
X58234500Y-75457500I155000J0D01*
G01*
G37*
%TD*%
%TO.C,U2*%
G36*
G01*
X54809500Y-50007500D02*
X54809500Y-49707500D01*
G75*
G02*
X54959500Y-49557500I150000J0D01*
G01*
X56609500Y-49557500D01*
G75*
G02*
X56759500Y-49707500I0J-150000D01*
G01*
X56759500Y-50007500D01*
G75*
G02*
X56609500Y-50157500I-150000J0D01*
G01*
X54959500Y-50157500D01*
G75*
G02*
X54809500Y-50007500I0J150000D01*
G01*
G37*
G36*
G01*
X54809500Y-51277500D02*
X54809500Y-50977500D01*
G75*
G02*
X54959500Y-50827500I150000J0D01*
G01*
X56609500Y-50827500D01*
G75*
G02*
X56759500Y-50977500I0J-150000D01*
G01*
X56759500Y-51277500D01*
G75*
G02*
X56609500Y-51427500I-150000J0D01*
G01*
X54959500Y-51427500D01*
G75*
G02*
X54809500Y-51277500I0J150000D01*
G01*
G37*
G36*
G01*
X54809500Y-52547500D02*
X54809500Y-52247500D01*
G75*
G02*
X54959500Y-52097500I150000J0D01*
G01*
X56609500Y-52097500D01*
G75*
G02*
X56759500Y-52247500I0J-150000D01*
G01*
X56759500Y-52547500D01*
G75*
G02*
X56609500Y-52697500I-150000J0D01*
G01*
X54959500Y-52697500D01*
G75*
G02*
X54809500Y-52547500I0J150000D01*
G01*
G37*
G36*
G01*
X54809500Y-53817500D02*
X54809500Y-53517500D01*
G75*
G02*
X54959500Y-53367500I150000J0D01*
G01*
X56609500Y-53367500D01*
G75*
G02*
X56759500Y-53517500I0J-150000D01*
G01*
X56759500Y-53817500D01*
G75*
G02*
X56609500Y-53967500I-150000J0D01*
G01*
X54959500Y-53967500D01*
G75*
G02*
X54809500Y-53817500I0J150000D01*
G01*
G37*
G36*
G01*
X54809500Y-55087500D02*
X54809500Y-54787500D01*
G75*
G02*
X54959500Y-54637500I150000J0D01*
G01*
X56609500Y-54637500D01*
G75*
G02*
X56759500Y-54787500I0J-150000D01*
G01*
X56759500Y-55087500D01*
G75*
G02*
X56609500Y-55237500I-150000J0D01*
G01*
X54959500Y-55237500D01*
G75*
G02*
X54809500Y-55087500I0J150000D01*
G01*
G37*
G36*
G01*
X54809500Y-56357500D02*
X54809500Y-56057500D01*
G75*
G02*
X54959500Y-55907500I150000J0D01*
G01*
X56609500Y-55907500D01*
G75*
G02*
X56759500Y-56057500I0J-150000D01*
G01*
X56759500Y-56357500D01*
G75*
G02*
X56609500Y-56507500I-150000J0D01*
G01*
X54959500Y-56507500D01*
G75*
G02*
X54809500Y-56357500I0J150000D01*
G01*
G37*
G36*
G01*
X54809500Y-57627500D02*
X54809500Y-57327500D01*
G75*
G02*
X54959500Y-57177500I150000J0D01*
G01*
X56609500Y-57177500D01*
G75*
G02*
X56759500Y-57327500I0J-150000D01*
G01*
X56759500Y-57627500D01*
G75*
G02*
X56609500Y-57777500I-150000J0D01*
G01*
X54959500Y-57777500D01*
G75*
G02*
X54809500Y-57627500I0J150000D01*
G01*
G37*
G36*
G01*
X54809500Y-58897500D02*
X54809500Y-58597500D01*
G75*
G02*
X54959500Y-58447500I150000J0D01*
G01*
X56609500Y-58447500D01*
G75*
G02*
X56759500Y-58597500I0J-150000D01*
G01*
X56759500Y-58897500D01*
G75*
G02*
X56609500Y-59047500I-150000J0D01*
G01*
X54959500Y-59047500D01*
G75*
G02*
X54809500Y-58897500I0J150000D01*
G01*
G37*
G36*
G01*
X49859500Y-58897500D02*
X49859500Y-58597500D01*
G75*
G02*
X50009500Y-58447500I150000J0D01*
G01*
X51659500Y-58447500D01*
G75*
G02*
X51809500Y-58597500I0J-150000D01*
G01*
X51809500Y-58897500D01*
G75*
G02*
X51659500Y-59047500I-150000J0D01*
G01*
X50009500Y-59047500D01*
G75*
G02*
X49859500Y-58897500I0J150000D01*
G01*
G37*
G36*
G01*
X49859500Y-57627500D02*
X49859500Y-57327500D01*
G75*
G02*
X50009500Y-57177500I150000J0D01*
G01*
X51659500Y-57177500D01*
G75*
G02*
X51809500Y-57327500I0J-150000D01*
G01*
X51809500Y-57627500D01*
G75*
G02*
X51659500Y-57777500I-150000J0D01*
G01*
X50009500Y-57777500D01*
G75*
G02*
X49859500Y-57627500I0J150000D01*
G01*
G37*
G36*
G01*
X49859500Y-56357500D02*
X49859500Y-56057500D01*
G75*
G02*
X50009500Y-55907500I150000J0D01*
G01*
X51659500Y-55907500D01*
G75*
G02*
X51809500Y-56057500I0J-150000D01*
G01*
X51809500Y-56357500D01*
G75*
G02*
X51659500Y-56507500I-150000J0D01*
G01*
X50009500Y-56507500D01*
G75*
G02*
X49859500Y-56357500I0J150000D01*
G01*
G37*
G36*
G01*
X49859500Y-55087500D02*
X49859500Y-54787500D01*
G75*
G02*
X50009500Y-54637500I150000J0D01*
G01*
X51659500Y-54637500D01*
G75*
G02*
X51809500Y-54787500I0J-150000D01*
G01*
X51809500Y-55087500D01*
G75*
G02*
X51659500Y-55237500I-150000J0D01*
G01*
X50009500Y-55237500D01*
G75*
G02*
X49859500Y-55087500I0J150000D01*
G01*
G37*
G36*
G01*
X49859500Y-53817500D02*
X49859500Y-53517500D01*
G75*
G02*
X50009500Y-53367500I150000J0D01*
G01*
X51659500Y-53367500D01*
G75*
G02*
X51809500Y-53517500I0J-150000D01*
G01*
X51809500Y-53817500D01*
G75*
G02*
X51659500Y-53967500I-150000J0D01*
G01*
X50009500Y-53967500D01*
G75*
G02*
X49859500Y-53817500I0J150000D01*
G01*
G37*
G36*
G01*
X49859500Y-52547500D02*
X49859500Y-52247500D01*
G75*
G02*
X50009500Y-52097500I150000J0D01*
G01*
X51659500Y-52097500D01*
G75*
G02*
X51809500Y-52247500I0J-150000D01*
G01*
X51809500Y-52547500D01*
G75*
G02*
X51659500Y-52697500I-150000J0D01*
G01*
X50009500Y-52697500D01*
G75*
G02*
X49859500Y-52547500I0J150000D01*
G01*
G37*
G36*
G01*
X49859500Y-51277500D02*
X49859500Y-50977500D01*
G75*
G02*
X50009500Y-50827500I150000J0D01*
G01*
X51659500Y-50827500D01*
G75*
G02*
X51809500Y-50977500I0J-150000D01*
G01*
X51809500Y-51277500D01*
G75*
G02*
X51659500Y-51427500I-150000J0D01*
G01*
X50009500Y-51427500D01*
G75*
G02*
X49859500Y-51277500I0J150000D01*
G01*
G37*
G36*
G01*
X49859500Y-50007500D02*
X49859500Y-49707500D01*
G75*
G02*
X50009500Y-49557500I150000J0D01*
G01*
X51659500Y-49557500D01*
G75*
G02*
X51809500Y-49707500I0J-150000D01*
G01*
X51809500Y-50007500D01*
G75*
G02*
X51659500Y-50157500I-150000J0D01*
G01*
X50009500Y-50157500D01*
G75*
G02*
X49859500Y-50007500I0J150000D01*
G01*
G37*
%TD*%
%TO.C,C1*%
G36*
G01*
X58299500Y-44025000D02*
X58609500Y-44025000D01*
G75*
G02*
X58764500Y-44180000I0J-155000D01*
G01*
X58764500Y-44605000D01*
G75*
G02*
X58609500Y-44760000I-155000J0D01*
G01*
X58299500Y-44760000D01*
G75*
G02*
X58144500Y-44605000I0J155000D01*
G01*
X58144500Y-44180000D01*
G75*
G02*
X58299500Y-44025000I155000J0D01*
G01*
G37*
G36*
G01*
X58299500Y-42890000D02*
X58609500Y-42890000D01*
G75*
G02*
X58764500Y-43045000I0J-155000D01*
G01*
X58764500Y-43470000D01*
G75*
G02*
X58609500Y-43625000I-155000J0D01*
G01*
X58299500Y-43625000D01*
G75*
G02*
X58144500Y-43470000I0J155000D01*
G01*
X58144500Y-43045000D01*
G75*
G02*
X58299500Y-42890000I155000J0D01*
G01*
G37*
%TD*%
M02*
