%TF.GenerationSoftware,KiCad,Pcbnew,9.0.0-9.0.0-2~ubuntu24.04.1*%
%TF.CreationDate,2025-03-20T00:33:01-04:00*%
%TF.ProjectId,LVDS-PMOD,4c564453-2d50-44d4-9f44-2e6b69636164,1*%
%TF.SameCoordinates,Original*%
%TF.FileFunction,Copper,L2,Inr*%
%TF.FilePolarity,Positive*%
%FSLAX46Y46*%
G04 Gerber Fmt 4.6, Leading zero omitted, Abs format (unit mm)*
G04 Created by KiCad (PCBNEW 9.0.0-9.0.0-2~ubuntu24.04.1) date 2025-03-20 00:33:01*
%MOMM*%
%LPD*%
G01*
G04 APERTURE LIST*
%TA.AperFunction,ComponentPad*%
%ADD10C,1.700000*%
%TD*%
%TA.AperFunction,ComponentPad*%
%ADD11C,1.524000*%
%TD*%
%TA.AperFunction,ComponentPad*%
%ADD12R,1.524000X1.524000*%
%TD*%
%TA.AperFunction,ViaPad*%
%ADD13C,0.812800*%
%TD*%
G04 APERTURE END LIST*
D10*
%TO.N,/LVDS Port CD/IN1-*%
%TO.C,J2*%
X40609500Y-92709000D03*
%TO.N,/LVDS Port CD/IN2-*%
X40609500Y-95249000D03*
%TO.N,/LVDS Port CD/IN3-*%
X40609500Y-97789000D03*
%TO.N,/LVDS Port CD/IN4-*%
X40609500Y-100329000D03*
%TO.N,/LVDS Port CD/IN5-*%
X40609500Y-102869000D03*
%TO.N,/LVDS Port CD/IN6-*%
X40609500Y-105409000D03*
%TO.N,/LVDS Port CD/IN7-*%
X40609500Y-107949000D03*
%TO.N,/LVDS Port CD/IN8-*%
X40609500Y-110489000D03*
%TO.N,/LVDS Port CD/IN9-*%
X40609500Y-113029000D03*
%TO.N,/LVDS Port CD/IN10-*%
X40609500Y-115569000D03*
%TO.N,/LVDS Port CD/IN11-*%
X40609500Y-118109000D03*
%TO.N,/LVDS Port CD/IN12-*%
X40609500Y-120649000D03*
%TO.N,/LVDS Port CD/IN13-*%
X40609500Y-123189000D03*
%TO.N,/LVDS Port CD/IN14-*%
X40609500Y-125729000D03*
%TO.N,/LVDS Port CD/IN15-*%
X40609500Y-128269000D03*
%TO.N,/LVDS Port CD/IN16-*%
X40609500Y-130809000D03*
%TO.N,/LVDS Port CD/CONNGND*%
%TA.AperFunction,ComponentPad*%
G36*
G01*
X39759500Y-133949000D02*
X39759500Y-132749000D01*
G75*
G02*
X40009500Y-132499000I250000J0D01*
G01*
X41209500Y-132499000D01*
G75*
G02*
X41459500Y-132749000I0J-250000D01*
G01*
X41459500Y-133949000D01*
G75*
G02*
X41209500Y-134199000I-250000J0D01*
G01*
X40009500Y-134199000D01*
G75*
G02*
X39759500Y-133949000I0J250000D01*
G01*
G37*
%TD.AperFunction*%
%TA.AperFunction,ComponentPad*%
G36*
G01*
X37219500Y-133949000D02*
X37219500Y-132749000D01*
G75*
G02*
X37469500Y-132499000I250000J0D01*
G01*
X38669500Y-132499000D01*
G75*
G02*
X38919500Y-132749000I0J-250000D01*
G01*
X38919500Y-133949000D01*
G75*
G02*
X38669500Y-134199000I-250000J0D01*
G01*
X37469500Y-134199000D01*
G75*
G02*
X37219500Y-133949000I0J250000D01*
G01*
G37*
%TD.AperFunction*%
%TO.N,/LVDS Port CD/IN16+*%
X38069500Y-130809000D03*
%TO.N,/LVDS Port CD/IN15+*%
X38069500Y-128269000D03*
%TO.N,/LVDS Port CD/IN14+*%
X38069500Y-125729000D03*
%TO.N,/LVDS Port CD/IN13+*%
X38069500Y-123189000D03*
%TO.N,/LVDS Port CD/IN12+*%
X38069500Y-120649000D03*
%TO.N,/LVDS Port CD/IN11+*%
X38069500Y-118109000D03*
%TO.N,/LVDS Port CD/IN10+*%
X38069500Y-115569000D03*
%TO.N,/LVDS Port CD/IN9+*%
X38069500Y-113029000D03*
%TO.N,/LVDS Port CD/IN8+*%
X38069500Y-110489000D03*
%TO.N,/LVDS Port CD/IN7+*%
X38069500Y-107949000D03*
%TO.N,/LVDS Port CD/IN6+*%
X38069500Y-105409000D03*
%TO.N,/LVDS Port CD/IN5+*%
X38069500Y-102869000D03*
%TO.N,/LVDS Port CD/IN4+*%
X38069500Y-100329000D03*
%TO.N,/LVDS Port CD/IN3+*%
X38069500Y-97789000D03*
%TO.N,/LVDS Port CD/IN2+*%
X38069500Y-95249000D03*
%TO.N,/LVDS Port CD/IN1+*%
X38069500Y-92709000D03*
%TD*%
%TO.N,/LVDS Port AB/IN1+*%
%TO.C,J1*%
X38069500Y-40650000D03*
%TO.N,/LVDS Port AB/IN2+*%
X38069500Y-43190000D03*
%TO.N,/LVDS Port AB/IN3+*%
X38069500Y-45730000D03*
%TO.N,/LVDS Port AB/IN4+*%
X38069500Y-48270000D03*
%TO.N,/LVDS Port AB/IN5+*%
X38069500Y-50810000D03*
%TO.N,/LVDS Port AB/IN6+*%
X38069500Y-53350000D03*
%TO.N,/LVDS Port AB/IN7+*%
X38069500Y-55890000D03*
%TO.N,/LVDS Port AB/IN8+*%
X38069500Y-58430000D03*
%TO.N,/LVDS Port AB/IN9+*%
X38069500Y-60970000D03*
%TO.N,/LVDS Port AB/IN10+*%
X38069500Y-63510000D03*
%TO.N,/LVDS Port AB/IN11+*%
X38069500Y-66050000D03*
%TO.N,/LVDS Port AB/IN12+*%
X38069500Y-68590000D03*
%TO.N,/LVDS Port AB/IN13+*%
X38069500Y-71130000D03*
%TO.N,/LVDS Port AB/IN14+*%
X38069500Y-73670000D03*
%TO.N,/LVDS Port AB/IN15+*%
X38069500Y-76210000D03*
%TO.N,/LVDS Port AB/IN16+*%
X38069500Y-78750000D03*
%TO.N,/LVDS Port AB/CONNGND*%
%TA.AperFunction,ComponentPad*%
G36*
G01*
X37219500Y-81890000D02*
X37219500Y-80690000D01*
G75*
G02*
X37469500Y-80440000I250000J0D01*
G01*
X38669500Y-80440000D01*
G75*
G02*
X38919500Y-80690000I0J-250000D01*
G01*
X38919500Y-81890000D01*
G75*
G02*
X38669500Y-82140000I-250000J0D01*
G01*
X37469500Y-82140000D01*
G75*
G02*
X37219500Y-81890000I0J250000D01*
G01*
G37*
%TD.AperFunction*%
%TA.AperFunction,ComponentPad*%
G36*
G01*
X39759500Y-81890000D02*
X39759500Y-80690000D01*
G75*
G02*
X40009500Y-80440000I250000J0D01*
G01*
X41209500Y-80440000D01*
G75*
G02*
X41459500Y-80690000I0J-250000D01*
G01*
X41459500Y-81890000D01*
G75*
G02*
X41209500Y-82140000I-250000J0D01*
G01*
X40009500Y-82140000D01*
G75*
G02*
X39759500Y-81890000I0J250000D01*
G01*
G37*
%TD.AperFunction*%
%TO.N,/LVDS Port AB/IN16-*%
X40609500Y-78750000D03*
%TO.N,/LVDS Port AB/IN15-*%
X40609500Y-76210000D03*
%TO.N,/LVDS Port AB/IN14-*%
X40609500Y-73670000D03*
%TO.N,/LVDS Port AB/IN13-*%
X40609500Y-71130000D03*
%TO.N,/LVDS Port AB/IN12-*%
X40609500Y-68590000D03*
%TO.N,/LVDS Port AB/IN11-*%
X40609500Y-66050000D03*
%TO.N,/LVDS Port AB/IN10-*%
X40609500Y-63510000D03*
%TO.N,/LVDS Port AB/IN9-*%
X40609500Y-60970000D03*
%TO.N,/LVDS Port AB/IN8-*%
X40609500Y-58430000D03*
%TO.N,/LVDS Port AB/IN7-*%
X40609500Y-55890000D03*
%TO.N,/LVDS Port AB/IN6-*%
X40609500Y-53350000D03*
%TO.N,/LVDS Port AB/IN5-*%
X40609500Y-50810000D03*
%TO.N,/LVDS Port AB/IN4-*%
X40609500Y-48270000D03*
%TO.N,/LVDS Port AB/IN3-*%
X40609500Y-45730000D03*
%TO.N,/LVDS Port AB/IN2-*%
X40609500Y-43190000D03*
%TO.N,/LVDS Port AB/IN1-*%
X40609500Y-40650000D03*
%TD*%
D11*
%TO.N,+3V3A*%
%TO.C,PMOD1*%
X70772000Y-46355000D03*
%TO.N,GND*%
X70772000Y-48895000D03*
%TO.N,/LVDS Port AB/IN2*%
X70772000Y-51435000D03*
%TO.N,/LVDS Port AB/IN4*%
X70772000Y-53975000D03*
%TO.N,/LVDS Port AB/IN6*%
X70772000Y-56515000D03*
%TO.N,/LVDS Port AB/IN8*%
X70772000Y-59055000D03*
%TO.N,+3V3A*%
X68232000Y-46355000D03*
%TO.N,GND*%
X68232000Y-48895000D03*
%TO.N,/LVDS Port AB/IN1*%
X68232000Y-51435000D03*
%TO.N,/LVDS Port AB/IN3*%
X68232000Y-53975000D03*
%TO.N,/LVDS Port AB/IN5*%
X68232000Y-56515000D03*
D12*
%TO.N,/LVDS Port AB/IN7*%
X68232000Y-59055000D03*
%TD*%
D11*
%TO.N,+3V3B*%
%TO.C,PMOD2*%
X70772000Y-69215000D03*
%TO.N,GND*%
X70772000Y-71755000D03*
%TO.N,/LVDS Port AB/IN10*%
X70772000Y-74295000D03*
%TO.N,/LVDS Port AB/IN12*%
X70772000Y-76835000D03*
%TO.N,/LVDS Port AB/IN14*%
X70772000Y-79375000D03*
%TO.N,/LVDS Port AB/IN16*%
X70772000Y-81915000D03*
%TO.N,+3V3B*%
X68232000Y-69215000D03*
%TO.N,GND*%
X68232000Y-71755000D03*
%TO.N,/LVDS Port AB/IN9*%
X68232000Y-74295000D03*
%TO.N,/LVDS Port AB/IN11*%
X68232000Y-76835000D03*
%TO.N,/LVDS Port AB/IN13*%
X68232000Y-79375000D03*
D12*
%TO.N,/LVDS Port AB/IN15*%
X68232000Y-81915000D03*
%TD*%
%TO.N,/LVDS Port CD/IN7*%
%TO.C,PMOD3*%
X68232000Y-104775000D03*
D11*
%TO.N,/LVDS Port CD/IN5*%
X68232000Y-102235000D03*
%TO.N,/LVDS Port CD/IN3*%
X68232000Y-99695000D03*
%TO.N,/LVDS Port CD/IN1*%
X68232000Y-97155000D03*
%TO.N,GND*%
X68232000Y-94615000D03*
%TO.N,+3V3C*%
X68232000Y-92075000D03*
%TO.N,/LVDS Port CD/IN8*%
X70772000Y-104775000D03*
%TO.N,/LVDS Port CD/IN6*%
X70772000Y-102235000D03*
%TO.N,/LVDS Port CD/IN4*%
X70772000Y-99695000D03*
%TO.N,/LVDS Port CD/IN2*%
X70772000Y-97155000D03*
%TO.N,GND*%
X70772000Y-94615000D03*
%TO.N,+3V3C*%
X70772000Y-92075000D03*
%TD*%
D12*
%TO.N,/LVDS Port CD/IN15*%
%TO.C,PMOD4*%
X68232000Y-127635000D03*
D11*
%TO.N,/LVDS Port CD/IN13*%
X68232000Y-125095000D03*
%TO.N,/LVDS Port CD/IN11*%
X68232000Y-122555000D03*
%TO.N,/LVDS Port CD/IN9*%
X68232000Y-120015000D03*
%TO.N,GND*%
X68232000Y-117475000D03*
%TO.N,+3V3D*%
X68232000Y-114935000D03*
%TO.N,/LVDS Port CD/IN16*%
X70772000Y-127635000D03*
%TO.N,/LVDS Port CD/IN14*%
X70772000Y-125095000D03*
%TO.N,/LVDS Port CD/IN12*%
X70772000Y-122555000D03*
%TO.N,/LVDS Port CD/IN10*%
X70772000Y-120015000D03*
%TO.N,GND*%
X70772000Y-117475000D03*
%TO.N,+3V3D*%
X70772000Y-114935000D03*
%TD*%
D13*
%TO.N,+3V3C*%
X54009500Y-91439000D03*
%TO.N,GND*%
X57437000Y-106996500D03*
X53944500Y-121284000D03*
X53879500Y-110806500D03*
%TO.N,+3V3D*%
X53944500Y-112394000D03*
%TO.N,GND*%
X57437000Y-127951500D03*
X54009500Y-100329000D03*
%TO.N,+3V3C*%
X57502000Y-95249000D03*
%TO.N,+3V3D*%
X57437000Y-126749000D03*
%TO.N,GND*%
X53879500Y-131761500D03*
X57437000Y-117474000D03*
X57502000Y-96519000D03*
%TO.N,+3V3C*%
X57437000Y-105726500D03*
%TO.N,+3V3D*%
X57437000Y-116204000D03*
%TO.N,+3V3C*%
X53879500Y-101916500D03*
%TO.N,+3V3D*%
X53879500Y-122871500D03*
%TO.N,+3V3B*%
X53879500Y-70812500D03*
%TO.N,+3V3A*%
X53879500Y-49857500D03*
%TO.N,+3V3B*%
X57437000Y-64145000D03*
%TO.N,+3V3A*%
X57437000Y-53667500D03*
%TO.N,GND*%
X57502000Y-44460000D03*
X57437000Y-65415000D03*
X53879500Y-79702500D03*
%TO.N,+3V3B*%
X57437000Y-74690000D03*
%TO.N,+3V3A*%
X57502000Y-43190000D03*
%TO.N,GND*%
X54009500Y-48270000D03*
X57437000Y-75892500D03*
%TO.N,+3V3B*%
X53944500Y-60335000D03*
%TO.N,GND*%
X53879500Y-58747500D03*
X53944500Y-69225000D03*
X57437000Y-54937500D03*
%TO.N,+3V3A*%
X54009500Y-39380000D03*
%TD*%
%TA.AperFunction,Conductor*%
%TO.N,GND*%
G36*
X70298619Y-117671081D02*
G01*
X70365498Y-117786920D01*
X70460080Y-117881502D01*
X70575919Y-117948381D01*
X70636057Y-117964494D01*
X70073283Y-118527268D01*
X70073283Y-118527269D01*
X70110567Y-118554358D01*
X70267331Y-118634234D01*
X70318127Y-118682209D01*
X70334922Y-118750030D01*
X70312384Y-118816165D01*
X70267331Y-118855204D01*
X70110305Y-118935213D01*
X69949533Y-119052021D01*
X69809021Y-119192533D01*
X69692213Y-119353305D01*
X69612485Y-119509780D01*
X69564510Y-119560576D01*
X69496689Y-119577371D01*
X69430554Y-119554833D01*
X69391515Y-119509780D01*
X69327585Y-119384312D01*
X69311787Y-119353306D01*
X69194981Y-119192536D01*
X69054464Y-119052019D01*
X68893694Y-118935213D01*
X68736667Y-118855203D01*
X68685872Y-118807229D01*
X68669077Y-118739408D01*
X68691614Y-118673273D01*
X68736669Y-118634234D01*
X68893422Y-118554364D01*
X68930716Y-118527268D01*
X68367942Y-117964494D01*
X68428081Y-117948381D01*
X68543920Y-117881502D01*
X68638502Y-117786920D01*
X68705381Y-117671081D01*
X68721495Y-117610942D01*
X69284268Y-118173715D01*
X69311362Y-118136425D01*
X69391515Y-117979117D01*
X69439489Y-117928321D01*
X69507310Y-117911526D01*
X69573445Y-117934063D01*
X69612485Y-117979117D01*
X69692641Y-118136432D01*
X69719730Y-118173715D01*
X70282504Y-117610941D01*
X70298619Y-117671081D01*
G37*
%TD.AperFunction*%
%TA.AperFunction,Conductor*%
G36*
X69573446Y-115395165D02*
G01*
X69612484Y-115440218D01*
X69692213Y-115596694D01*
X69809019Y-115757464D01*
X69949536Y-115897981D01*
X70110306Y-116014787D01*
X70267332Y-116094796D01*
X70318127Y-116142769D01*
X70334922Y-116210590D01*
X70312385Y-116276725D01*
X70267332Y-116315764D01*
X70110566Y-116395641D01*
X70073283Y-116422729D01*
X70073282Y-116422730D01*
X70636058Y-116985504D01*
X70575919Y-117001619D01*
X70460080Y-117068498D01*
X70365498Y-117163080D01*
X70298619Y-117278919D01*
X70282504Y-117339057D01*
X69719730Y-116776282D01*
X69719729Y-116776283D01*
X69692643Y-116813564D01*
X69612485Y-116970882D01*
X69564510Y-117021678D01*
X69496689Y-117038473D01*
X69430554Y-117015935D01*
X69391515Y-116970882D01*
X69311358Y-116813567D01*
X69284268Y-116776283D01*
X68721494Y-117339057D01*
X68705381Y-117278919D01*
X68638502Y-117163080D01*
X68543920Y-117068498D01*
X68428081Y-117001619D01*
X68367942Y-116985504D01*
X68930716Y-116422731D01*
X68930715Y-116422730D01*
X68893432Y-116395641D01*
X68736668Y-116315765D01*
X68685872Y-116267790D01*
X68669077Y-116199969D01*
X68691615Y-116133834D01*
X68736667Y-116094796D01*
X68893694Y-116014787D01*
X69054464Y-115897981D01*
X69194981Y-115757464D01*
X69311787Y-115596694D01*
X69391515Y-115440218D01*
X69439490Y-115389423D01*
X69507311Y-115372628D01*
X69573446Y-115395165D01*
G37*
%TD.AperFunction*%
%TA.AperFunction,Conductor*%
G36*
X70298619Y-94811081D02*
G01*
X70365498Y-94926920D01*
X70460080Y-95021502D01*
X70575919Y-95088381D01*
X70636057Y-95104494D01*
X70073283Y-95667268D01*
X70073283Y-95667269D01*
X70110567Y-95694358D01*
X70267331Y-95774234D01*
X70318127Y-95822209D01*
X70334922Y-95890030D01*
X70312384Y-95956165D01*
X70267331Y-95995204D01*
X70110305Y-96075213D01*
X69949533Y-96192021D01*
X69809021Y-96332533D01*
X69692213Y-96493305D01*
X69612485Y-96649780D01*
X69564510Y-96700576D01*
X69496689Y-96717371D01*
X69430554Y-96694833D01*
X69391515Y-96649780D01*
X69327585Y-96524312D01*
X69311787Y-96493306D01*
X69194981Y-96332536D01*
X69054464Y-96192019D01*
X68893694Y-96075213D01*
X68736667Y-95995203D01*
X68685872Y-95947229D01*
X68669077Y-95879408D01*
X68691614Y-95813273D01*
X68736669Y-95774234D01*
X68893422Y-95694364D01*
X68930716Y-95667268D01*
X68367942Y-95104494D01*
X68428081Y-95088381D01*
X68543920Y-95021502D01*
X68638502Y-94926920D01*
X68705381Y-94811081D01*
X68721495Y-94750942D01*
X69284268Y-95313715D01*
X69311362Y-95276425D01*
X69391515Y-95119117D01*
X69439489Y-95068321D01*
X69507310Y-95051526D01*
X69573445Y-95074063D01*
X69612485Y-95119117D01*
X69692641Y-95276432D01*
X69719730Y-95313715D01*
X70282504Y-94750941D01*
X70298619Y-94811081D01*
G37*
%TD.AperFunction*%
%TA.AperFunction,Conductor*%
G36*
X69573446Y-92535165D02*
G01*
X69612484Y-92580218D01*
X69692213Y-92736694D01*
X69809019Y-92897464D01*
X69949536Y-93037981D01*
X70110306Y-93154787D01*
X70267332Y-93234796D01*
X70318127Y-93282769D01*
X70334922Y-93350590D01*
X70312385Y-93416725D01*
X70267332Y-93455764D01*
X70110566Y-93535641D01*
X70073283Y-93562729D01*
X70073282Y-93562730D01*
X70636058Y-94125504D01*
X70575919Y-94141619D01*
X70460080Y-94208498D01*
X70365498Y-94303080D01*
X70298619Y-94418919D01*
X70282504Y-94479057D01*
X69719730Y-93916282D01*
X69719729Y-93916283D01*
X69692643Y-93953564D01*
X69612485Y-94110882D01*
X69564510Y-94161678D01*
X69496689Y-94178473D01*
X69430554Y-94155935D01*
X69391515Y-94110882D01*
X69311358Y-93953567D01*
X69284268Y-93916283D01*
X68721494Y-94479057D01*
X68705381Y-94418919D01*
X68638502Y-94303080D01*
X68543920Y-94208498D01*
X68428081Y-94141619D01*
X68367942Y-94125504D01*
X68930716Y-93562731D01*
X68930715Y-93562730D01*
X68893432Y-93535641D01*
X68736668Y-93455765D01*
X68685872Y-93407790D01*
X68669077Y-93339969D01*
X68691615Y-93273834D01*
X68736667Y-93234796D01*
X68893694Y-93154787D01*
X69054464Y-93037981D01*
X69194981Y-92897464D01*
X69311787Y-92736694D01*
X69391515Y-92580218D01*
X69439490Y-92529423D01*
X69507311Y-92512628D01*
X69573446Y-92535165D01*
G37*
%TD.AperFunction*%
%TA.AperFunction,Conductor*%
G36*
X70298619Y-71951081D02*
G01*
X70365498Y-72066920D01*
X70460080Y-72161502D01*
X70575919Y-72228381D01*
X70636057Y-72244494D01*
X70073283Y-72807268D01*
X70073283Y-72807269D01*
X70110567Y-72834358D01*
X70267331Y-72914234D01*
X70318127Y-72962209D01*
X70334922Y-73030030D01*
X70312384Y-73096165D01*
X70267331Y-73135204D01*
X70110305Y-73215213D01*
X69949533Y-73332021D01*
X69809021Y-73472533D01*
X69692213Y-73633305D01*
X69612485Y-73789780D01*
X69564510Y-73840576D01*
X69496689Y-73857371D01*
X69430554Y-73834833D01*
X69391515Y-73789780D01*
X69311786Y-73633305D01*
X69194981Y-73472536D01*
X69054464Y-73332019D01*
X68893694Y-73215213D01*
X68736667Y-73135203D01*
X68685872Y-73087229D01*
X68669077Y-73019408D01*
X68691614Y-72953273D01*
X68736669Y-72914234D01*
X68893422Y-72834364D01*
X68930716Y-72807268D01*
X68367942Y-72244494D01*
X68428081Y-72228381D01*
X68543920Y-72161502D01*
X68638502Y-72066920D01*
X68705381Y-71951081D01*
X68721495Y-71890942D01*
X69284268Y-72453715D01*
X69311362Y-72416425D01*
X69391515Y-72259117D01*
X69439489Y-72208321D01*
X69507310Y-72191526D01*
X69573445Y-72214063D01*
X69612485Y-72259117D01*
X69692641Y-72416432D01*
X69719730Y-72453715D01*
X70282504Y-71890941D01*
X70298619Y-71951081D01*
G37*
%TD.AperFunction*%
%TA.AperFunction,Conductor*%
G36*
X69573446Y-69675165D02*
G01*
X69612484Y-69720218D01*
X69692213Y-69876694D01*
X69809019Y-70037464D01*
X69949536Y-70177981D01*
X70110306Y-70294787D01*
X70267332Y-70374796D01*
X70318127Y-70422769D01*
X70334922Y-70490590D01*
X70312385Y-70556725D01*
X70267332Y-70595764D01*
X70110566Y-70675641D01*
X70073283Y-70702729D01*
X70073282Y-70702730D01*
X70636058Y-71265504D01*
X70575919Y-71281619D01*
X70460080Y-71348498D01*
X70365498Y-71443080D01*
X70298619Y-71558919D01*
X70282504Y-71619057D01*
X69719730Y-71056282D01*
X69719729Y-71056283D01*
X69692643Y-71093564D01*
X69612485Y-71250882D01*
X69564510Y-71301678D01*
X69496689Y-71318473D01*
X69430554Y-71295935D01*
X69391515Y-71250882D01*
X69311358Y-71093567D01*
X69284268Y-71056283D01*
X68721494Y-71619057D01*
X68705381Y-71558919D01*
X68638502Y-71443080D01*
X68543920Y-71348498D01*
X68428081Y-71281619D01*
X68367942Y-71265504D01*
X68930716Y-70702731D01*
X68930715Y-70702730D01*
X68893432Y-70675641D01*
X68736668Y-70595765D01*
X68685872Y-70547790D01*
X68669077Y-70479969D01*
X68691615Y-70413834D01*
X68736667Y-70374796D01*
X68893694Y-70294787D01*
X69054464Y-70177981D01*
X69194981Y-70037464D01*
X69311787Y-69876694D01*
X69391515Y-69720218D01*
X69439490Y-69669423D01*
X69507311Y-69652628D01*
X69573446Y-69675165D01*
G37*
%TD.AperFunction*%
%TA.AperFunction,Conductor*%
G36*
X70298619Y-49091081D02*
G01*
X70365498Y-49206920D01*
X70460080Y-49301502D01*
X70575919Y-49368381D01*
X70636057Y-49384494D01*
X70073283Y-49947268D01*
X70073283Y-49947269D01*
X70110567Y-49974358D01*
X70267331Y-50054234D01*
X70318127Y-50102209D01*
X70334922Y-50170030D01*
X70312384Y-50236165D01*
X70267331Y-50275204D01*
X70110305Y-50355213D01*
X69949533Y-50472021D01*
X69809021Y-50612533D01*
X69692213Y-50773305D01*
X69612485Y-50929780D01*
X69564510Y-50980576D01*
X69496689Y-50997371D01*
X69430554Y-50974833D01*
X69391515Y-50929780D01*
X69311786Y-50773305D01*
X69305316Y-50764400D01*
X69194981Y-50612536D01*
X69054464Y-50472019D01*
X68893694Y-50355213D01*
X68736667Y-50275203D01*
X68685872Y-50227229D01*
X68669077Y-50159408D01*
X68691614Y-50093273D01*
X68736669Y-50054234D01*
X68893422Y-49974364D01*
X68930716Y-49947268D01*
X68367942Y-49384494D01*
X68428081Y-49368381D01*
X68543920Y-49301502D01*
X68638502Y-49206920D01*
X68705381Y-49091081D01*
X68721495Y-49030942D01*
X69284268Y-49593715D01*
X69311362Y-49556425D01*
X69391515Y-49399117D01*
X69439489Y-49348321D01*
X69507310Y-49331526D01*
X69573445Y-49354063D01*
X69612485Y-49399117D01*
X69692641Y-49556432D01*
X69719730Y-49593715D01*
X69719731Y-49593716D01*
X70282504Y-49030942D01*
X70298619Y-49091081D01*
G37*
%TD.AperFunction*%
%TA.AperFunction,Conductor*%
G36*
X69573446Y-46815165D02*
G01*
X69612484Y-46860218D01*
X69692213Y-47016694D01*
X69809019Y-47177464D01*
X69949536Y-47317981D01*
X70110306Y-47434787D01*
X70267332Y-47514796D01*
X70318127Y-47562769D01*
X70334922Y-47630590D01*
X70312385Y-47696725D01*
X70267332Y-47735764D01*
X70110566Y-47815641D01*
X70073283Y-47842729D01*
X70073282Y-47842730D01*
X70636058Y-48405504D01*
X70575919Y-48421619D01*
X70460080Y-48488498D01*
X70365498Y-48583080D01*
X70298619Y-48698919D01*
X70282504Y-48759057D01*
X69719730Y-48196282D01*
X69719729Y-48196283D01*
X69692643Y-48233564D01*
X69612485Y-48390882D01*
X69564510Y-48441678D01*
X69496689Y-48458473D01*
X69430554Y-48435935D01*
X69391515Y-48390882D01*
X69311358Y-48233567D01*
X69284268Y-48196283D01*
X68721494Y-48759057D01*
X68705381Y-48698919D01*
X68638502Y-48583080D01*
X68543920Y-48488498D01*
X68428081Y-48421619D01*
X68367942Y-48405504D01*
X68930716Y-47842731D01*
X68930715Y-47842730D01*
X68893432Y-47815641D01*
X68736668Y-47735765D01*
X68685872Y-47687790D01*
X68669077Y-47619969D01*
X68691615Y-47553834D01*
X68736667Y-47514796D01*
X68893694Y-47434787D01*
X69054464Y-47317981D01*
X69194981Y-47177464D01*
X69311787Y-47016694D01*
X69391515Y-46860218D01*
X69439490Y-46809423D01*
X69507311Y-46792628D01*
X69573446Y-46815165D01*
G37*
%TD.AperFunction*%
%TA.AperFunction,Conductor*%
G36*
X56958423Y-32151185D02*
G01*
X56984362Y-32173457D01*
X64557447Y-40756287D01*
X66324983Y-42759494D01*
X66338592Y-42778424D01*
X66339220Y-42779242D01*
X66339222Y-42779244D01*
X66339224Y-42779247D01*
X66366324Y-42806347D01*
X66391667Y-42835069D01*
X66401717Y-42841740D01*
X66410253Y-42850276D01*
X66443438Y-42869435D01*
X66475358Y-42890624D01*
X66486797Y-42894468D01*
X66497246Y-42900501D01*
X66530526Y-42909418D01*
X66537908Y-42911646D01*
X66570576Y-42922625D01*
X66572613Y-42922752D01*
X66582627Y-42923378D01*
X66594275Y-42926500D01*
X66632565Y-42926500D01*
X66636404Y-42926740D01*
X66636430Y-42926741D01*
X66638506Y-42926870D01*
X66670830Y-42928891D01*
X66670838Y-42928889D01*
X66671901Y-42928816D01*
X66695065Y-42926500D01*
X74076500Y-42926500D01*
X74143539Y-42946185D01*
X74189294Y-42998989D01*
X74200500Y-43050500D01*
X74200500Y-130939500D01*
X74180815Y-131006539D01*
X74128011Y-131052294D01*
X74076500Y-131063500D01*
X66682663Y-131063500D01*
X66670830Y-131061109D01*
X66632575Y-131063500D01*
X66594275Y-131063500D01*
X66593192Y-131063642D01*
X66571629Y-131067168D01*
X66570578Y-131067374D01*
X66537918Y-131078349D01*
X66534246Y-131079584D01*
X66497246Y-131089499D01*
X66486799Y-131095529D01*
X66475363Y-131099373D01*
X66475357Y-131099376D01*
X66446663Y-131118423D01*
X66440089Y-131122497D01*
X66410256Y-131139721D01*
X66410247Y-131139728D01*
X66401712Y-131148261D01*
X66391667Y-131154931D01*
X66366345Y-131183627D01*
X66363594Y-131186379D01*
X66363595Y-131186379D01*
X66339228Y-131210747D01*
X66338598Y-131211568D01*
X66324985Y-131230502D01*
X56984364Y-141816541D01*
X56925249Y-141853786D01*
X56891384Y-141858500D01*
X32225000Y-141858500D01*
X32157961Y-141838815D01*
X32112206Y-141786011D01*
X32101000Y-141734500D01*
X32101000Y-92602713D01*
X36719000Y-92602713D01*
X36719000Y-92815287D01*
X36752254Y-93025243D01*
X36794345Y-93154786D01*
X36817944Y-93227414D01*
X36914451Y-93416820D01*
X37039390Y-93588786D01*
X37189713Y-93739109D01*
X37361682Y-93864050D01*
X37370446Y-93868516D01*
X37421242Y-93916491D01*
X37438036Y-93984312D01*
X37415498Y-94050447D01*
X37370446Y-94089484D01*
X37361682Y-94093949D01*
X37189713Y-94218890D01*
X37039390Y-94369213D01*
X36914451Y-94541179D01*
X36817944Y-94730585D01*
X36752253Y-94932760D01*
X36729873Y-95074063D01*
X36719000Y-95142713D01*
X36719000Y-95355287D01*
X36752254Y-95565243D01*
X36794206Y-95694358D01*
X36817944Y-95767414D01*
X36914451Y-95956820D01*
X37039390Y-96128786D01*
X37189713Y-96279109D01*
X37361682Y-96404050D01*
X37370446Y-96408516D01*
X37421242Y-96456491D01*
X37438036Y-96524312D01*
X37415498Y-96590447D01*
X37370446Y-96629484D01*
X37361682Y-96633949D01*
X37189713Y-96758890D01*
X37039390Y-96909213D01*
X36914451Y-97081179D01*
X36817944Y-97270585D01*
X36752253Y-97472760D01*
X36725824Y-97639629D01*
X36719000Y-97682713D01*
X36719000Y-97895287D01*
X36752254Y-98105243D01*
X36794345Y-98234786D01*
X36817944Y-98307414D01*
X36914451Y-98496820D01*
X37039390Y-98668786D01*
X37189713Y-98819109D01*
X37361682Y-98944050D01*
X37370446Y-98948516D01*
X37421242Y-98996491D01*
X37438036Y-99064312D01*
X37415498Y-99130447D01*
X37370446Y-99169484D01*
X37361682Y-99173949D01*
X37189713Y-99298890D01*
X37039390Y-99449213D01*
X36914451Y-99621179D01*
X36817944Y-99810585D01*
X36752253Y-100012760D01*
X36728003Y-100165868D01*
X36719000Y-100222713D01*
X36719000Y-100435287D01*
X36752254Y-100645243D01*
X36794345Y-100774786D01*
X36817944Y-100847414D01*
X36914451Y-101036820D01*
X37039390Y-101208786D01*
X37189713Y-101359109D01*
X37361682Y-101484050D01*
X37370446Y-101488516D01*
X37421242Y-101536491D01*
X37438036Y-101604312D01*
X37415498Y-101670447D01*
X37370446Y-101709484D01*
X37361682Y-101713949D01*
X37189713Y-101838890D01*
X37039390Y-101989213D01*
X36914451Y-102161179D01*
X36817944Y-102350585D01*
X36752253Y-102552760D01*
X36725824Y-102719629D01*
X36719000Y-102762713D01*
X36719000Y-102975287D01*
X36752254Y-103185243D01*
X36794345Y-103314786D01*
X36817944Y-103387414D01*
X36914451Y-103576820D01*
X37039390Y-103748786D01*
X37189713Y-103899109D01*
X37361682Y-104024050D01*
X37370446Y-104028516D01*
X37421242Y-104076491D01*
X37438036Y-104144312D01*
X37415498Y-104210447D01*
X37370446Y-104249484D01*
X37361682Y-104253949D01*
X37189713Y-104378890D01*
X37039390Y-104529213D01*
X36914451Y-104701179D01*
X36817944Y-104890585D01*
X36752253Y-105092760D01*
X36719000Y-105302713D01*
X36719000Y-105515286D01*
X36739462Y-105644482D01*
X36752254Y-105725243D01*
X36807264Y-105894547D01*
X36817944Y-105927414D01*
X36914451Y-106116820D01*
X37039390Y-106288786D01*
X37189713Y-106439109D01*
X37361682Y-106564050D01*
X37370446Y-106568516D01*
X37421242Y-106616491D01*
X37438036Y-106684312D01*
X37415498Y-106750447D01*
X37370446Y-106789484D01*
X37361682Y-106793949D01*
X37189713Y-106918890D01*
X37039390Y-107069213D01*
X36914451Y-107241179D01*
X36817944Y-107430585D01*
X36752253Y-107632760D01*
X36719000Y-107842713D01*
X36719000Y-108055286D01*
X36752253Y-108265239D01*
X36817944Y-108467414D01*
X36914451Y-108656820D01*
X37039390Y-108828786D01*
X37189713Y-108979109D01*
X37361682Y-109104050D01*
X37370446Y-109108516D01*
X37421242Y-109156491D01*
X37438036Y-109224312D01*
X37415498Y-109290447D01*
X37370446Y-109329484D01*
X37361682Y-109333949D01*
X37189713Y-109458890D01*
X37039390Y-109609213D01*
X36914451Y-109781179D01*
X36817944Y-109970585D01*
X36752253Y-110172760D01*
X36719000Y-110382713D01*
X36719000Y-110595286D01*
X36752253Y-110805239D01*
X36817944Y-111007414D01*
X36914451Y-111196820D01*
X37039390Y-111368786D01*
X37189713Y-111519109D01*
X37361682Y-111644050D01*
X37370446Y-111648516D01*
X37421242Y-111696491D01*
X37438036Y-111764312D01*
X37415498Y-111830447D01*
X37370446Y-111869484D01*
X37361682Y-111873949D01*
X37189713Y-111998890D01*
X37039390Y-112149213D01*
X36914451Y-112321179D01*
X36817944Y-112510585D01*
X36752253Y-112712760D01*
X36719000Y-112922713D01*
X36719000Y-113135286D01*
X36752253Y-113345239D01*
X36817944Y-113547414D01*
X36914451Y-113736820D01*
X37039390Y-113908786D01*
X37189713Y-114059109D01*
X37361682Y-114184050D01*
X37370446Y-114188516D01*
X37421242Y-114236491D01*
X37438036Y-114304312D01*
X37415498Y-114370447D01*
X37370446Y-114409484D01*
X37361682Y-114413949D01*
X37189713Y-114538890D01*
X37039390Y-114689213D01*
X36914451Y-114861179D01*
X36817944Y-115050585D01*
X36752253Y-115252760D01*
X36719000Y-115462713D01*
X36719000Y-115675286D01*
X36734701Y-115774422D01*
X36752254Y-115885243D01*
X36794345Y-116014786D01*
X36817944Y-116087414D01*
X36914451Y-116276820D01*
X37039390Y-116448786D01*
X37189713Y-116599109D01*
X37361682Y-116724050D01*
X37370446Y-116728516D01*
X37421242Y-116776491D01*
X37438036Y-116844312D01*
X37415498Y-116910447D01*
X37370446Y-116949484D01*
X37361682Y-116953949D01*
X37189713Y-117078890D01*
X37039390Y-117229213D01*
X36914451Y-117401179D01*
X36817944Y-117590585D01*
X36752253Y-117792760D01*
X36729873Y-117934063D01*
X36719000Y-118002713D01*
X36719000Y-118215287D01*
X36752254Y-118425243D01*
X36794206Y-118554358D01*
X36817944Y-118627414D01*
X36914451Y-118816820D01*
X37039390Y-118988786D01*
X37189713Y-119139109D01*
X37361682Y-119264050D01*
X37370446Y-119268516D01*
X37421242Y-119316491D01*
X37438036Y-119384312D01*
X37415498Y-119450447D01*
X37370446Y-119489484D01*
X37361682Y-119493949D01*
X37189713Y-119618890D01*
X37039390Y-119769213D01*
X36914451Y-119941179D01*
X36817944Y-120130585D01*
X36752253Y-120332760D01*
X36728003Y-120485868D01*
X36719000Y-120542713D01*
X36719000Y-120755287D01*
X36752254Y-120965243D01*
X36794345Y-121094786D01*
X36817944Y-121167414D01*
X36914451Y-121356820D01*
X37039390Y-121528786D01*
X37189713Y-121679109D01*
X37361682Y-121804050D01*
X37370446Y-121808516D01*
X37421242Y-121856491D01*
X37438036Y-121924312D01*
X37415498Y-121990447D01*
X37370446Y-122029484D01*
X37361682Y-122033949D01*
X37189713Y-122158890D01*
X37039390Y-122309213D01*
X36914451Y-122481179D01*
X36817944Y-122670585D01*
X36752253Y-122872760D01*
X36725824Y-123039629D01*
X36719000Y-123082713D01*
X36719000Y-123295287D01*
X36752254Y-123505243D01*
X36807471Y-123675184D01*
X36817944Y-123707414D01*
X36914451Y-123896820D01*
X37039390Y-124068786D01*
X37189713Y-124219109D01*
X37361682Y-124344050D01*
X37370446Y-124348516D01*
X37421242Y-124396491D01*
X37438036Y-124464312D01*
X37415498Y-124530447D01*
X37370446Y-124569484D01*
X37361682Y-124573949D01*
X37189713Y-124698890D01*
X37039390Y-124849213D01*
X36914451Y-125021179D01*
X36817944Y-125210585D01*
X36752253Y-125412760D01*
X36719000Y-125622713D01*
X36719000Y-125835286D01*
X36752146Y-126044565D01*
X36752254Y-126045243D01*
X36794345Y-126174786D01*
X36817944Y-126247414D01*
X36914451Y-126436820D01*
X37039390Y-126608786D01*
X37189713Y-126759109D01*
X37361682Y-126884050D01*
X37370446Y-126888516D01*
X37421242Y-126936491D01*
X37438036Y-127004312D01*
X37415498Y-127070447D01*
X37370446Y-127109484D01*
X37361682Y-127113949D01*
X37189713Y-127238890D01*
X37039390Y-127389213D01*
X36914451Y-127561179D01*
X36817944Y-127750585D01*
X36752253Y-127952760D01*
X36719000Y-128162713D01*
X36719000Y-128375286D01*
X36739462Y-128504482D01*
X36752254Y-128585243D01*
X36807264Y-128754547D01*
X36817944Y-128787414D01*
X36914451Y-128976820D01*
X37039390Y-129148786D01*
X37189713Y-129299109D01*
X37361682Y-129424050D01*
X37370446Y-129428516D01*
X37421242Y-129476491D01*
X37438036Y-129544312D01*
X37415498Y-129610447D01*
X37370446Y-129649484D01*
X37361682Y-129653949D01*
X37189713Y-129778890D01*
X37039390Y-129929213D01*
X36914451Y-130101179D01*
X36817944Y-130290585D01*
X36752253Y-130492760D01*
X36719000Y-130702713D01*
X36719000Y-130915286D01*
X36751173Y-131118423D01*
X36752254Y-131125243D01*
X36783434Y-131221206D01*
X36817944Y-131327414D01*
X36914451Y-131516820D01*
X37039390Y-131688786D01*
X37189709Y-131839105D01*
X37194606Y-131842663D01*
X37237271Y-131897994D01*
X37243250Y-131967607D01*
X37210644Y-132029402D01*
X37160729Y-132060685D01*
X37150173Y-132064183D01*
X37150163Y-132064187D01*
X37000842Y-132156289D01*
X36876789Y-132280342D01*
X36784687Y-132429663D01*
X36784686Y-132429666D01*
X36729501Y-132596203D01*
X36729501Y-132596204D01*
X36729500Y-132596204D01*
X36719000Y-132698983D01*
X36719000Y-133999001D01*
X36719001Y-133999018D01*
X36729500Y-134101796D01*
X36729501Y-134101799D01*
X36784685Y-134268331D01*
X36784686Y-134268334D01*
X36876788Y-134417656D01*
X37000844Y-134541712D01*
X37150166Y-134633814D01*
X37316703Y-134688999D01*
X37419491Y-134699500D01*
X38719508Y-134699499D01*
X38822297Y-134688999D01*
X38988834Y-134633814D01*
X39138156Y-134541712D01*
X39251819Y-134428049D01*
X39313142Y-134394564D01*
X39382834Y-134399548D01*
X39427181Y-134428049D01*
X39540844Y-134541712D01*
X39690166Y-134633814D01*
X39856703Y-134688999D01*
X39959491Y-134699500D01*
X41259508Y-134699499D01*
X41362297Y-134688999D01*
X41528834Y-134633814D01*
X41678156Y-134541712D01*
X41802212Y-134417656D01*
X41894314Y-134268334D01*
X41949499Y-134101797D01*
X41960000Y-133999009D01*
X41959999Y-132698992D01*
X41949499Y-132596203D01*
X41894314Y-132429666D01*
X41802212Y-132280344D01*
X41678156Y-132156288D01*
X41528834Y-132064186D01*
X41528833Y-132064185D01*
X41528825Y-132064182D01*
X41518273Y-132060686D01*
X41460828Y-132020913D01*
X41434006Y-131956397D01*
X41446322Y-131887621D01*
X41484403Y-131842656D01*
X41489288Y-131839107D01*
X41489288Y-131839106D01*
X41489292Y-131839104D01*
X41639604Y-131688792D01*
X41639606Y-131688788D01*
X41639609Y-131688786D01*
X41764548Y-131516820D01*
X41764547Y-131516820D01*
X41764551Y-131516816D01*
X41861057Y-131327412D01*
X41926746Y-131125243D01*
X41960000Y-130915287D01*
X41960000Y-130702713D01*
X41926746Y-130492757D01*
X41861057Y-130290588D01*
X41764551Y-130101184D01*
X41764549Y-130101181D01*
X41764548Y-130101179D01*
X41639609Y-129929213D01*
X41489286Y-129778890D01*
X41317320Y-129653951D01*
X41316615Y-129653591D01*
X41308554Y-129649485D01*
X41257759Y-129601512D01*
X41240963Y-129533692D01*
X41263499Y-129467556D01*
X41308554Y-129428515D01*
X41317316Y-129424051D01*
X41339289Y-129408086D01*
X41489286Y-129299109D01*
X41489288Y-129299106D01*
X41489292Y-129299104D01*
X41639604Y-129148792D01*
X41639606Y-129148788D01*
X41639609Y-129148786D01*
X41764548Y-128976820D01*
X41764547Y-128976820D01*
X41764551Y-128976816D01*
X41861057Y-128787412D01*
X41926746Y-128585243D01*
X41960000Y-128375287D01*
X41960000Y-128162713D01*
X41926746Y-127952757D01*
X41861057Y-127750588D01*
X41764551Y-127561184D01*
X41764549Y-127561181D01*
X41764548Y-127561179D01*
X41639609Y-127389213D01*
X41489286Y-127238890D01*
X41317320Y-127113951D01*
X41316615Y-127113591D01*
X41308554Y-127109485D01*
X41257759Y-127061512D01*
X41240963Y-126993692D01*
X41263499Y-126927556D01*
X41308554Y-126888515D01*
X41317316Y-126884051D01*
X41380254Y-126838324D01*
X56530099Y-126838324D01*
X56564950Y-127013527D01*
X56564952Y-127013533D01*
X56633314Y-127178575D01*
X56633319Y-127178584D01*
X56732564Y-127327114D01*
X56732567Y-127327118D01*
X56858881Y-127453432D01*
X56858885Y-127453435D01*
X57007415Y-127552680D01*
X57007421Y-127552683D01*
X57007422Y-127552684D01*
X57172467Y-127621048D01*
X57172471Y-127621048D01*
X57172472Y-127621049D01*
X57347675Y-127655900D01*
X57347678Y-127655900D01*
X57526324Y-127655900D01*
X57644198Y-127632452D01*
X57701533Y-127621048D01*
X57866578Y-127552684D01*
X58015115Y-127453435D01*
X58141435Y-127327115D01*
X58240684Y-127178578D01*
X58309048Y-127013533D01*
X58334804Y-126884050D01*
X58343900Y-126838324D01*
X58343900Y-126659675D01*
X58309049Y-126484472D01*
X58309048Y-126484471D01*
X58309048Y-126484467D01*
X58254516Y-126352815D01*
X58240685Y-126319424D01*
X58240680Y-126319415D01*
X58141435Y-126170885D01*
X58141432Y-126170881D01*
X58015118Y-126044567D01*
X58015114Y-126044564D01*
X57866584Y-125945319D01*
X57866575Y-125945314D01*
X57701533Y-125876952D01*
X57701527Y-125876950D01*
X57526324Y-125842100D01*
X57526322Y-125842100D01*
X57347678Y-125842100D01*
X57347676Y-125842100D01*
X57172472Y-125876950D01*
X57172466Y-125876952D01*
X57007424Y-125945314D01*
X57007415Y-125945319D01*
X56858885Y-126044564D01*
X56858881Y-126044567D01*
X56732567Y-126170881D01*
X56732564Y-126170885D01*
X56633319Y-126319415D01*
X56633314Y-126319424D01*
X56564952Y-126484466D01*
X56564950Y-126484472D01*
X56530100Y-126659675D01*
X56530100Y-126659678D01*
X56530100Y-126838322D01*
X56530100Y-126838324D01*
X56530099Y-126838324D01*
X41380254Y-126838324D01*
X41380257Y-126838322D01*
X41489286Y-126759109D01*
X41489288Y-126759106D01*
X41489292Y-126759104D01*
X41639604Y-126608792D01*
X41764551Y-126436816D01*
X41861057Y-126247412D01*
X41926746Y-126045243D01*
X41960000Y-125835287D01*
X41960000Y-125622713D01*
X41926746Y-125412757D01*
X41861057Y-125210588D01*
X41764551Y-125021184D01*
X41764549Y-125021181D01*
X41764548Y-125021179D01*
X41639609Y-124849213D01*
X41489286Y-124698890D01*
X41317320Y-124573951D01*
X41316615Y-124573591D01*
X41308554Y-124569485D01*
X41257759Y-124521512D01*
X41240963Y-124453692D01*
X41263499Y-124387556D01*
X41308554Y-124348515D01*
X41317316Y-124344051D01*
X41415753Y-124272533D01*
X41489286Y-124219109D01*
X41489288Y-124219106D01*
X41489292Y-124219104D01*
X41639604Y-124068792D01*
X41639606Y-124068788D01*
X41639609Y-124068786D01*
X41764548Y-123896820D01*
X41764547Y-123896820D01*
X41764551Y-123896816D01*
X41861057Y-123707412D01*
X41926746Y-123505243D01*
X41960000Y-123295287D01*
X41960000Y-123082713D01*
X41940695Y-122960824D01*
X52972599Y-122960824D01*
X53007450Y-123136027D01*
X53007452Y-123136033D01*
X53075814Y-123301075D01*
X53075819Y-123301084D01*
X53175064Y-123449614D01*
X53175067Y-123449618D01*
X53301381Y-123575932D01*
X53301385Y-123575935D01*
X53449915Y-123675180D01*
X53449921Y-123675183D01*
X53449922Y-123675184D01*
X53614967Y-123743548D01*
X53614971Y-123743548D01*
X53614972Y-123743549D01*
X53790175Y-123778400D01*
X53790178Y-123778400D01*
X53968824Y-123778400D01*
X54093730Y-123753554D01*
X54144033Y-123743548D01*
X54309078Y-123675184D01*
X54457615Y-123575935D01*
X54583935Y-123449615D01*
X54683184Y-123301078D01*
X54751548Y-123136033D01*
X54770724Y-123039629D01*
X54786400Y-122960824D01*
X54786400Y-122782175D01*
X54751549Y-122606972D01*
X54751548Y-122606971D01*
X54751548Y-122606967D01*
X54683184Y-122441922D01*
X54683183Y-122441921D01*
X54683180Y-122441915D01*
X54583935Y-122293385D01*
X54583932Y-122293381D01*
X54457618Y-122167067D01*
X54457614Y-122167064D01*
X54309084Y-122067819D01*
X54309075Y-122067814D01*
X54144033Y-121999452D01*
X54144027Y-121999450D01*
X53968824Y-121964600D01*
X53968822Y-121964600D01*
X53790178Y-121964600D01*
X53790176Y-121964600D01*
X53614972Y-121999450D01*
X53614966Y-121999452D01*
X53449924Y-122067814D01*
X53449915Y-122067819D01*
X53301385Y-122167064D01*
X53301381Y-122167067D01*
X53175067Y-122293381D01*
X53175064Y-122293385D01*
X53075819Y-122441915D01*
X53075814Y-122441924D01*
X53007452Y-122606966D01*
X53007450Y-122606972D01*
X52972600Y-122782175D01*
X52972600Y-122782178D01*
X52972600Y-122960822D01*
X52972600Y-122960824D01*
X52972599Y-122960824D01*
X41940695Y-122960824D01*
X41926746Y-122872757D01*
X41861057Y-122670588D01*
X41861055Y-122670585D01*
X41861055Y-122670583D01*
X41794897Y-122540742D01*
X41764551Y-122481184D01*
X41764549Y-122481181D01*
X41764548Y-122481179D01*
X41639609Y-122309213D01*
X41489286Y-122158890D01*
X41317320Y-122033951D01*
X41316615Y-122033591D01*
X41308554Y-122029485D01*
X41257759Y-121981512D01*
X41240963Y-121913692D01*
X41263499Y-121847556D01*
X41308554Y-121808515D01*
X41317316Y-121804051D01*
X41415753Y-121732533D01*
X41489286Y-121679109D01*
X41489288Y-121679106D01*
X41489292Y-121679104D01*
X41639604Y-121528792D01*
X41639606Y-121528788D01*
X41639609Y-121528786D01*
X41764548Y-121356820D01*
X41764547Y-121356820D01*
X41764551Y-121356816D01*
X41861057Y-121167412D01*
X41926746Y-120965243D01*
X41960000Y-120755287D01*
X41960000Y-120542713D01*
X41926746Y-120332757D01*
X41861057Y-120130588D01*
X41764551Y-119941184D01*
X41764550Y-119941182D01*
X41639609Y-119769213D01*
X41489286Y-119618890D01*
X41317320Y-119493951D01*
X41316615Y-119493591D01*
X41308554Y-119489485D01*
X41257759Y-119441512D01*
X41240963Y-119373692D01*
X41263499Y-119307556D01*
X41308554Y-119268515D01*
X41317316Y-119264051D01*
X41415753Y-119192533D01*
X41489286Y-119139109D01*
X41489288Y-119139106D01*
X41489292Y-119139104D01*
X41639604Y-118988792D01*
X41639606Y-118988788D01*
X41639609Y-118988786D01*
X41764548Y-118816820D01*
X41764547Y-118816820D01*
X41764551Y-118816816D01*
X41861057Y-118627412D01*
X41926746Y-118425243D01*
X41960000Y-118215287D01*
X41960000Y-118002713D01*
X41926746Y-117792757D01*
X41861057Y-117590588D01*
X41764551Y-117401184D01*
X41764550Y-117401182D01*
X41639609Y-117229213D01*
X41489286Y-117078890D01*
X41317320Y-116953951D01*
X41316615Y-116953591D01*
X41308554Y-116949485D01*
X41257759Y-116901512D01*
X41240963Y-116833692D01*
X41263499Y-116767556D01*
X41308554Y-116728515D01*
X41317316Y-116724051D01*
X41339289Y-116708086D01*
X41489286Y-116599109D01*
X41489288Y-116599106D01*
X41489292Y-116599104D01*
X41639604Y-116448792D01*
X41639606Y-116448788D01*
X41639609Y-116448786D01*
X41752557Y-116293324D01*
X56530099Y-116293324D01*
X56564950Y-116468527D01*
X56564952Y-116468533D01*
X56633314Y-116633575D01*
X56633319Y-116633584D01*
X56732564Y-116782114D01*
X56732567Y-116782118D01*
X56858881Y-116908432D01*
X56858885Y-116908435D01*
X57007415Y-117007680D01*
X57007424Y-117007685D01*
X57041206Y-117021678D01*
X57172467Y-117076048D01*
X57172471Y-117076048D01*
X57172472Y-117076049D01*
X57347675Y-117110900D01*
X57347678Y-117110900D01*
X57526324Y-117110900D01*
X57687245Y-117078890D01*
X57701533Y-117076048D01*
X57866578Y-117007684D01*
X58015115Y-116908435D01*
X58141435Y-116782115D01*
X58240684Y-116633578D01*
X58309048Y-116468533D01*
X58343900Y-116293322D01*
X58343900Y-116114678D01*
X58343900Y-116114675D01*
X58309049Y-115939472D01*
X58309048Y-115939471D01*
X58309048Y-115939467D01*
X58240684Y-115774422D01*
X58240683Y-115774421D01*
X58240680Y-115774415D01*
X58141435Y-115625885D01*
X58141432Y-115625881D01*
X58015118Y-115499567D01*
X58015114Y-115499564D01*
X57866584Y-115400319D01*
X57866575Y-115400314D01*
X57701533Y-115331952D01*
X57701527Y-115331950D01*
X57526324Y-115297100D01*
X57526322Y-115297100D01*
X57347678Y-115297100D01*
X57347676Y-115297100D01*
X57172472Y-115331950D01*
X57172466Y-115331952D01*
X57007424Y-115400314D01*
X57007415Y-115400319D01*
X56858885Y-115499564D01*
X56858881Y-115499567D01*
X56732567Y-115625881D01*
X56732564Y-115625885D01*
X56633319Y-115774415D01*
X56633314Y-115774424D01*
X56564952Y-115939466D01*
X56564950Y-115939472D01*
X56530100Y-116114675D01*
X56530100Y-116114678D01*
X56530100Y-116293322D01*
X56530100Y-116293324D01*
X56530099Y-116293324D01*
X41752557Y-116293324D01*
X41764548Y-116276820D01*
X41764547Y-116276820D01*
X41764551Y-116276816D01*
X41861057Y-116087412D01*
X41926746Y-115885243D01*
X41960000Y-115675287D01*
X41960000Y-115462713D01*
X41926746Y-115252757D01*
X41861057Y-115050588D01*
X41764551Y-114861184D01*
X41764550Y-114861182D01*
X41745992Y-114835639D01*
X66969500Y-114835639D01*
X66969500Y-115034360D01*
X67000587Y-115230637D01*
X67061993Y-115419629D01*
X67061994Y-115419632D01*
X67102723Y-115499565D01*
X67152213Y-115596694D01*
X67269019Y-115757464D01*
X67409536Y-115897981D01*
X67570306Y-116014787D01*
X67727332Y-116094796D01*
X67778127Y-116142769D01*
X67794922Y-116210590D01*
X67772385Y-116276725D01*
X67727332Y-116315764D01*
X67570566Y-116395641D01*
X67533283Y-116422729D01*
X67533282Y-116422730D01*
X68096058Y-116985504D01*
X68035919Y-117001619D01*
X67920080Y-117068498D01*
X67825498Y-117163080D01*
X67758619Y-117278919D01*
X67742504Y-117339057D01*
X67179730Y-116776282D01*
X67179729Y-116776283D01*
X67152643Y-116813564D01*
X67062457Y-116990562D01*
X67001075Y-117179476D01*
X67001075Y-117179479D01*
X66970000Y-117375678D01*
X66970000Y-117574321D01*
X67001075Y-117770520D01*
X67001075Y-117770523D01*
X67062457Y-117959437D01*
X67152641Y-118136432D01*
X67179730Y-118173715D01*
X67179731Y-118173716D01*
X67742504Y-117610942D01*
X67758619Y-117671081D01*
X67825498Y-117786920D01*
X67920080Y-117881502D01*
X68035919Y-117948381D01*
X68096057Y-117964494D01*
X67533283Y-118527268D01*
X67533283Y-118527269D01*
X67570567Y-118554358D01*
X67727331Y-118634234D01*
X67778127Y-118682209D01*
X67794922Y-118750030D01*
X67772384Y-118816165D01*
X67727331Y-118855204D01*
X67570305Y-118935213D01*
X67409533Y-119052021D01*
X67269021Y-119192533D01*
X67152213Y-119353305D01*
X67061994Y-119530367D01*
X67061993Y-119530370D01*
X67000587Y-119719362D01*
X66969500Y-119915639D01*
X66969500Y-120114360D01*
X67000587Y-120310637D01*
X67061993Y-120499629D01*
X67061994Y-120499632D01*
X67152213Y-120676694D01*
X67269019Y-120837464D01*
X67409536Y-120977981D01*
X67570306Y-121094787D01*
X67601439Y-121110650D01*
X67726780Y-121174515D01*
X67777576Y-121222490D01*
X67794371Y-121290311D01*
X67771833Y-121356446D01*
X67726780Y-121395485D01*
X67570305Y-121475213D01*
X67409533Y-121592021D01*
X67269021Y-121732533D01*
X67152213Y-121893305D01*
X67061994Y-122070367D01*
X67061993Y-122070370D01*
X67000587Y-122259362D01*
X66969500Y-122455639D01*
X66969500Y-122654360D01*
X67000587Y-122850637D01*
X67061993Y-123039629D01*
X67061994Y-123039632D01*
X67111114Y-123136033D01*
X67152213Y-123216694D01*
X67269019Y-123377464D01*
X67409536Y-123517981D01*
X67570306Y-123634787D01*
X67688832Y-123695179D01*
X67726780Y-123714515D01*
X67777576Y-123762490D01*
X67794371Y-123830311D01*
X67771833Y-123896446D01*
X67726780Y-123935485D01*
X67570305Y-124015213D01*
X67409533Y-124132021D01*
X67269021Y-124272533D01*
X67152213Y-124433305D01*
X67061994Y-124610367D01*
X67061993Y-124610370D01*
X67000587Y-124799362D01*
X66969500Y-124995639D01*
X66969500Y-125194360D01*
X67000587Y-125390637D01*
X67061993Y-125579629D01*
X67061994Y-125579632D01*
X67152213Y-125756694D01*
X67269019Y-125917464D01*
X67409536Y-126057981D01*
X67409539Y-126057983D01*
X67533687Y-126148182D01*
X67576353Y-126203512D01*
X67582332Y-126273125D01*
X67549726Y-126334920D01*
X67488888Y-126369277D01*
X67460805Y-126372500D01*
X67422131Y-126372500D01*
X67422123Y-126372501D01*
X67362516Y-126378908D01*
X67227671Y-126429202D01*
X67227664Y-126429206D01*
X67112455Y-126515452D01*
X67112452Y-126515455D01*
X67026206Y-126630664D01*
X67026202Y-126630671D01*
X66975908Y-126765517D01*
X66969501Y-126825116D01*
X66969501Y-126825123D01*
X66969500Y-126825135D01*
X66969500Y-128444870D01*
X66969501Y-128444876D01*
X66975908Y-128504483D01*
X67026202Y-128639328D01*
X67026206Y-128639335D01*
X67112452Y-128754544D01*
X67112455Y-128754547D01*
X67227664Y-128840793D01*
X67227671Y-128840797D01*
X67362517Y-128891091D01*
X67362516Y-128891091D01*
X67369444Y-128891835D01*
X67422127Y-128897500D01*
X69041872Y-128897499D01*
X69101483Y-128891091D01*
X69236331Y-128840796D01*
X69351546Y-128754546D01*
X69437796Y-128639331D01*
X69488091Y-128504483D01*
X69494500Y-128444873D01*
X69494499Y-128406197D01*
X69514182Y-128339161D01*
X69566985Y-128293405D01*
X69636143Y-128283460D01*
X69699699Y-128312483D01*
X69718817Y-128333312D01*
X69809019Y-128457464D01*
X69949536Y-128597981D01*
X70110306Y-128714787D01*
X70141439Y-128730650D01*
X70287367Y-128805005D01*
X70287370Y-128805006D01*
X70381866Y-128835709D01*
X70476364Y-128866413D01*
X70672639Y-128897500D01*
X70672640Y-128897500D01*
X70871360Y-128897500D01*
X70871361Y-128897500D01*
X71067636Y-128866413D01*
X71256632Y-128805005D01*
X71433694Y-128714787D01*
X71594464Y-128597981D01*
X71734981Y-128457464D01*
X71851787Y-128296694D01*
X71942005Y-128119632D01*
X72003413Y-127930636D01*
X72034500Y-127734361D01*
X72034500Y-127535639D01*
X72003413Y-127339364D01*
X71942005Y-127150368D01*
X71942005Y-127150367D01*
X71872284Y-127013533D01*
X71851787Y-126973306D01*
X71734981Y-126812536D01*
X71594464Y-126672019D01*
X71433694Y-126555213D01*
X71277218Y-126475484D01*
X71226423Y-126427510D01*
X71209628Y-126359689D01*
X71232165Y-126293554D01*
X71277218Y-126254515D01*
X71433694Y-126174787D01*
X71594464Y-126057981D01*
X71734981Y-125917464D01*
X71851787Y-125756694D01*
X71942005Y-125579632D01*
X72003413Y-125390636D01*
X72034500Y-125194361D01*
X72034500Y-124995639D01*
X72003413Y-124799364D01*
X71942005Y-124610368D01*
X71942005Y-124610367D01*
X71867585Y-124464312D01*
X71851787Y-124433306D01*
X71734981Y-124272536D01*
X71594464Y-124132019D01*
X71433694Y-124015213D01*
X71277218Y-123935484D01*
X71226423Y-123887510D01*
X71209628Y-123819689D01*
X71232165Y-123753554D01*
X71277218Y-123714515D01*
X71433694Y-123634787D01*
X71594464Y-123517981D01*
X71734981Y-123377464D01*
X71851787Y-123216694D01*
X71942005Y-123039632D01*
X72003413Y-122850636D01*
X72034500Y-122654361D01*
X72034500Y-122455639D01*
X72003413Y-122259364D01*
X71942005Y-122070368D01*
X71942005Y-122070367D01*
X71867585Y-121924312D01*
X71851787Y-121893306D01*
X71734981Y-121732536D01*
X71594464Y-121592019D01*
X71433694Y-121475213D01*
X71277218Y-121395484D01*
X71226423Y-121347510D01*
X71209628Y-121279689D01*
X71232165Y-121213554D01*
X71277218Y-121174515D01*
X71433694Y-121094787D01*
X71594464Y-120977981D01*
X71734981Y-120837464D01*
X71851787Y-120676694D01*
X71942005Y-120499632D01*
X72003413Y-120310636D01*
X72034500Y-120114361D01*
X72034500Y-119915639D01*
X72003413Y-119719364D01*
X71942005Y-119530368D01*
X71942005Y-119530367D01*
X71867585Y-119384312D01*
X71851787Y-119353306D01*
X71734981Y-119192536D01*
X71594464Y-119052019D01*
X71433694Y-118935213D01*
X71276667Y-118855203D01*
X71225872Y-118807229D01*
X71209077Y-118739408D01*
X71231614Y-118673273D01*
X71276669Y-118634234D01*
X71433422Y-118554364D01*
X71470716Y-118527268D01*
X70907942Y-117964494D01*
X70968081Y-117948381D01*
X71083920Y-117881502D01*
X71178502Y-117786920D01*
X71245381Y-117671081D01*
X71261495Y-117610942D01*
X71824268Y-118173715D01*
X71851362Y-118136425D01*
X71941542Y-117959437D01*
X72002924Y-117770523D01*
X72002924Y-117770520D01*
X72034000Y-117574321D01*
X72034000Y-117375678D01*
X72002924Y-117179479D01*
X72002924Y-117179476D01*
X71941542Y-116990562D01*
X71851358Y-116813567D01*
X71824268Y-116776283D01*
X71261494Y-117339057D01*
X71245381Y-117278919D01*
X71178502Y-117163080D01*
X71083920Y-117068498D01*
X70968081Y-117001619D01*
X70907942Y-116985504D01*
X71470716Y-116422731D01*
X71470715Y-116422730D01*
X71433432Y-116395641D01*
X71276668Y-116315765D01*
X71225872Y-116267790D01*
X71209077Y-116199969D01*
X71231615Y-116133834D01*
X71276667Y-116094796D01*
X71433694Y-116014787D01*
X71594464Y-115897981D01*
X71734981Y-115757464D01*
X71851787Y-115596694D01*
X71942005Y-115419632D01*
X72003413Y-115230636D01*
X72034500Y-115034361D01*
X72034500Y-114835639D01*
X72003413Y-114639364D01*
X71942005Y-114450368D01*
X71942005Y-114450367D01*
X71867585Y-114304312D01*
X71851787Y-114273306D01*
X71734981Y-114112536D01*
X71594464Y-113972019D01*
X71433694Y-113855213D01*
X71256632Y-113764994D01*
X71256629Y-113764993D01*
X71067637Y-113703587D01*
X70937649Y-113682999D01*
X70871361Y-113672500D01*
X70672639Y-113672500D01*
X70642592Y-113677259D01*
X70476362Y-113703587D01*
X70287370Y-113764993D01*
X70287367Y-113764994D01*
X70110305Y-113855213D01*
X69949533Y-113972021D01*
X69809021Y-114112533D01*
X69692213Y-114273305D01*
X69612485Y-114429780D01*
X69564510Y-114480576D01*
X69496689Y-114497371D01*
X69430554Y-114474833D01*
X69391515Y-114429780D01*
X69327585Y-114304312D01*
X69311787Y-114273306D01*
X69194981Y-114112536D01*
X69054464Y-113972019D01*
X68893694Y-113855213D01*
X68716632Y-113764994D01*
X68716629Y-113764993D01*
X68527637Y-113703587D01*
X68397649Y-113682999D01*
X68331361Y-113672500D01*
X68132639Y-113672500D01*
X68102592Y-113677259D01*
X67936362Y-113703587D01*
X67747370Y-113764993D01*
X67747367Y-113764994D01*
X67570305Y-113855213D01*
X67409533Y-113972021D01*
X67269021Y-114112533D01*
X67152213Y-114273305D01*
X67061994Y-114450367D01*
X67061993Y-114450370D01*
X67000587Y-114639362D01*
X66969500Y-114835639D01*
X41745992Y-114835639D01*
X41639609Y-114689213D01*
X41489286Y-114538890D01*
X41317320Y-114413951D01*
X41316615Y-114413591D01*
X41308554Y-114409485D01*
X41257759Y-114361512D01*
X41240963Y-114293692D01*
X41263499Y-114227556D01*
X41308554Y-114188515D01*
X41317316Y-114184051D01*
X41415753Y-114112533D01*
X41489286Y-114059109D01*
X41489288Y-114059106D01*
X41489292Y-114059104D01*
X41639604Y-113908792D01*
X41639606Y-113908788D01*
X41639609Y-113908786D01*
X41764548Y-113736820D01*
X41764547Y-113736820D01*
X41764551Y-113736816D01*
X41861057Y-113547412D01*
X41926746Y-113345243D01*
X41960000Y-113135287D01*
X41960000Y-112922713D01*
X41926746Y-112712757D01*
X41861057Y-112510588D01*
X41847165Y-112483324D01*
X53037599Y-112483324D01*
X53072450Y-112658527D01*
X53072452Y-112658533D01*
X53140814Y-112823575D01*
X53140819Y-112823584D01*
X53240064Y-112972114D01*
X53240067Y-112972118D01*
X53366381Y-113098432D01*
X53366385Y-113098435D01*
X53514915Y-113197680D01*
X53514921Y-113197683D01*
X53514922Y-113197684D01*
X53679967Y-113266048D01*
X53679971Y-113266048D01*
X53679972Y-113266049D01*
X53855175Y-113300900D01*
X53855178Y-113300900D01*
X54033824Y-113300900D01*
X54151698Y-113277452D01*
X54209033Y-113266048D01*
X54374078Y-113197684D01*
X54522615Y-113098435D01*
X54648935Y-112972115D01*
X54748184Y-112823578D01*
X54816548Y-112658533D01*
X54834686Y-112567349D01*
X54851400Y-112483324D01*
X54851400Y-112304675D01*
X54816549Y-112129472D01*
X54816548Y-112129471D01*
X54816548Y-112129467D01*
X54748184Y-111964422D01*
X54748183Y-111964421D01*
X54748180Y-111964415D01*
X54648935Y-111815885D01*
X54648932Y-111815881D01*
X54522618Y-111689567D01*
X54522614Y-111689564D01*
X54374084Y-111590319D01*
X54374075Y-111590314D01*
X54209033Y-111521952D01*
X54209027Y-111521950D01*
X54033824Y-111487100D01*
X54033822Y-111487100D01*
X53855178Y-111487100D01*
X53855176Y-111487100D01*
X53679972Y-111521950D01*
X53679966Y-111521952D01*
X53514924Y-111590314D01*
X53514915Y-111590319D01*
X53366385Y-111689564D01*
X53366381Y-111689567D01*
X53240067Y-111815881D01*
X53240064Y-111815885D01*
X53140819Y-111964415D01*
X53140814Y-111964424D01*
X53072452Y-112129466D01*
X53072450Y-112129472D01*
X53037600Y-112304675D01*
X53037600Y-112304678D01*
X53037600Y-112483322D01*
X53037600Y-112483324D01*
X53037599Y-112483324D01*
X41847165Y-112483324D01*
X41764551Y-112321184D01*
X41764550Y-112321182D01*
X41639609Y-112149213D01*
X41489286Y-111998890D01*
X41317320Y-111873951D01*
X41316615Y-111873591D01*
X41308554Y-111869485D01*
X41257759Y-111821512D01*
X41240963Y-111753692D01*
X41263499Y-111687556D01*
X41308554Y-111648515D01*
X41317316Y-111644051D01*
X41339289Y-111628086D01*
X41489286Y-111519109D01*
X41489288Y-111519106D01*
X41489292Y-111519104D01*
X41639604Y-111368792D01*
X41639606Y-111368788D01*
X41639609Y-111368786D01*
X41764548Y-111196820D01*
X41764547Y-111196820D01*
X41764551Y-111196816D01*
X41861057Y-111007412D01*
X41926746Y-110805243D01*
X41960000Y-110595287D01*
X41960000Y-110382713D01*
X41926746Y-110172757D01*
X41861057Y-109970588D01*
X41764551Y-109781184D01*
X41764549Y-109781181D01*
X41764548Y-109781179D01*
X41639609Y-109609213D01*
X41489286Y-109458890D01*
X41317320Y-109333951D01*
X41316615Y-109333591D01*
X41308554Y-109329485D01*
X41257759Y-109281512D01*
X41240963Y-109213692D01*
X41263499Y-109147556D01*
X41308554Y-109108515D01*
X41317316Y-109104051D01*
X41339289Y-109088086D01*
X41489286Y-108979109D01*
X41489288Y-108979106D01*
X41489292Y-108979104D01*
X41639604Y-108828792D01*
X41639606Y-108828788D01*
X41639609Y-108828786D01*
X41764548Y-108656820D01*
X41764547Y-108656820D01*
X41764551Y-108656816D01*
X41861057Y-108467412D01*
X41926746Y-108265243D01*
X41960000Y-108055287D01*
X41960000Y-107842713D01*
X41926746Y-107632757D01*
X41861057Y-107430588D01*
X41764551Y-107241184D01*
X41764549Y-107241181D01*
X41764548Y-107241179D01*
X41639609Y-107069213D01*
X41489286Y-106918890D01*
X41317320Y-106793951D01*
X41316615Y-106793591D01*
X41308554Y-106789485D01*
X41257759Y-106741512D01*
X41240963Y-106673692D01*
X41263499Y-106607556D01*
X41308554Y-106568515D01*
X41317316Y-106564051D01*
X41363936Y-106530180D01*
X41489286Y-106439109D01*
X41489288Y-106439106D01*
X41489292Y-106439104D01*
X41639604Y-106288792D01*
X41639606Y-106288788D01*
X41639609Y-106288786D01*
X41764548Y-106116820D01*
X41764547Y-106116820D01*
X41764551Y-106116816D01*
X41861057Y-105927412D01*
X41897314Y-105815824D01*
X56530099Y-105815824D01*
X56564950Y-105991027D01*
X56564952Y-105991033D01*
X56633314Y-106156075D01*
X56633319Y-106156084D01*
X56732564Y-106304614D01*
X56732567Y-106304618D01*
X56858881Y-106430932D01*
X56858885Y-106430935D01*
X57007415Y-106530180D01*
X57007421Y-106530183D01*
X57007422Y-106530184D01*
X57172467Y-106598548D01*
X57172471Y-106598548D01*
X57172472Y-106598549D01*
X57347675Y-106633400D01*
X57347678Y-106633400D01*
X57526324Y-106633400D01*
X57656247Y-106607556D01*
X57701533Y-106598548D01*
X57866578Y-106530184D01*
X58015115Y-106430935D01*
X58141435Y-106304615D01*
X58240684Y-106156078D01*
X58309048Y-105991033D01*
X58321703Y-105927412D01*
X58343900Y-105815824D01*
X58343900Y-105637175D01*
X58309049Y-105461972D01*
X58309048Y-105461971D01*
X58309048Y-105461967D01*
X58240684Y-105296922D01*
X58240683Y-105296921D01*
X58240680Y-105296915D01*
X58141435Y-105148385D01*
X58141432Y-105148381D01*
X58015118Y-105022067D01*
X58015114Y-105022064D01*
X57866584Y-104922819D01*
X57866575Y-104922814D01*
X57701533Y-104854452D01*
X57701527Y-104854450D01*
X57526324Y-104819600D01*
X57526322Y-104819600D01*
X57347678Y-104819600D01*
X57347676Y-104819600D01*
X57172472Y-104854450D01*
X57172466Y-104854452D01*
X57007424Y-104922814D01*
X57007415Y-104922819D01*
X56858885Y-105022064D01*
X56858881Y-105022067D01*
X56732567Y-105148381D01*
X56732564Y-105148385D01*
X56633319Y-105296915D01*
X56633314Y-105296924D01*
X56564952Y-105461966D01*
X56564950Y-105461972D01*
X56530100Y-105637175D01*
X56530100Y-105637178D01*
X56530100Y-105815822D01*
X56530100Y-105815824D01*
X56530099Y-105815824D01*
X41897314Y-105815824D01*
X41926746Y-105725243D01*
X41960000Y-105515287D01*
X41960000Y-105302713D01*
X41926746Y-105092757D01*
X41861057Y-104890588D01*
X41764551Y-104701184D01*
X41764549Y-104701181D01*
X41764548Y-104701179D01*
X41639609Y-104529213D01*
X41489286Y-104378890D01*
X41317320Y-104253951D01*
X41316615Y-104253591D01*
X41308554Y-104249485D01*
X41257759Y-104201512D01*
X41240963Y-104133692D01*
X41263499Y-104067556D01*
X41308554Y-104028515D01*
X41317316Y-104024051D01*
X41345187Y-104003802D01*
X41489286Y-103899109D01*
X41489288Y-103899106D01*
X41489292Y-103899104D01*
X41639604Y-103748792D01*
X41639606Y-103748788D01*
X41639609Y-103748786D01*
X41764548Y-103576820D01*
X41764547Y-103576820D01*
X41764551Y-103576816D01*
X41861057Y-103387412D01*
X41926746Y-103185243D01*
X41960000Y-102975287D01*
X41960000Y-102762713D01*
X41926746Y-102552757D01*
X41861057Y-102350588D01*
X41764551Y-102161184D01*
X41764549Y-102161181D01*
X41764548Y-102161179D01*
X41651677Y-102005824D01*
X52972599Y-102005824D01*
X53007450Y-102181027D01*
X53007452Y-102181033D01*
X53075814Y-102346075D01*
X53075819Y-102346084D01*
X53175064Y-102494614D01*
X53175067Y-102494618D01*
X53301381Y-102620932D01*
X53301385Y-102620935D01*
X53449915Y-102720180D01*
X53449921Y-102720183D01*
X53449922Y-102720184D01*
X53614967Y-102788548D01*
X53614971Y-102788548D01*
X53614972Y-102788549D01*
X53790175Y-102823400D01*
X53790178Y-102823400D01*
X53968824Y-102823400D01*
X54086698Y-102799952D01*
X54144033Y-102788548D01*
X54309078Y-102720184D01*
X54457615Y-102620935D01*
X54583935Y-102494615D01*
X54683184Y-102346078D01*
X54751548Y-102181033D01*
X54786400Y-102005822D01*
X54786400Y-101827178D01*
X54786400Y-101827175D01*
X54751549Y-101651972D01*
X54751548Y-101651971D01*
X54751548Y-101651967D01*
X54683844Y-101488516D01*
X54683185Y-101486924D01*
X54683180Y-101486915D01*
X54583935Y-101338385D01*
X54583932Y-101338381D01*
X54457618Y-101212067D01*
X54457614Y-101212064D01*
X54309084Y-101112819D01*
X54309075Y-101112814D01*
X54144033Y-101044452D01*
X54144027Y-101044450D01*
X53968824Y-101009600D01*
X53968822Y-101009600D01*
X53790178Y-101009600D01*
X53790176Y-101009600D01*
X53614972Y-101044450D01*
X53614966Y-101044452D01*
X53449924Y-101112814D01*
X53449915Y-101112819D01*
X53301385Y-101212064D01*
X53301381Y-101212067D01*
X53175067Y-101338381D01*
X53175064Y-101338385D01*
X53075819Y-101486915D01*
X53075814Y-101486924D01*
X53007452Y-101651966D01*
X53007450Y-101651972D01*
X52972600Y-101827175D01*
X52972600Y-101827178D01*
X52972600Y-102005822D01*
X52972600Y-102005824D01*
X52972599Y-102005824D01*
X41651677Y-102005824D01*
X41639609Y-101989213D01*
X41489286Y-101838890D01*
X41317320Y-101713951D01*
X41316615Y-101713591D01*
X41308554Y-101709485D01*
X41257759Y-101661512D01*
X41240963Y-101593692D01*
X41263499Y-101527556D01*
X41308554Y-101488515D01*
X41317316Y-101484051D01*
X41415753Y-101412533D01*
X41489286Y-101359109D01*
X41489288Y-101359106D01*
X41489292Y-101359104D01*
X41639604Y-101208792D01*
X41639606Y-101208788D01*
X41639609Y-101208786D01*
X41764548Y-101036820D01*
X41764547Y-101036820D01*
X41764551Y-101036816D01*
X41861057Y-100847412D01*
X41926746Y-100645243D01*
X41960000Y-100435287D01*
X41960000Y-100222713D01*
X41926746Y-100012757D01*
X41861057Y-99810588D01*
X41764551Y-99621184D01*
X41764549Y-99621181D01*
X41764548Y-99621179D01*
X41639609Y-99449213D01*
X41489286Y-99298890D01*
X41317320Y-99173951D01*
X41316615Y-99173591D01*
X41308554Y-99169485D01*
X41257759Y-99121512D01*
X41240963Y-99053692D01*
X41263499Y-98987556D01*
X41308554Y-98948515D01*
X41317316Y-98944051D01*
X41415753Y-98872533D01*
X41489286Y-98819109D01*
X41489288Y-98819106D01*
X41489292Y-98819104D01*
X41639604Y-98668792D01*
X41639606Y-98668788D01*
X41639609Y-98668786D01*
X41764548Y-98496820D01*
X41764547Y-98496820D01*
X41764551Y-98496816D01*
X41861057Y-98307412D01*
X41926746Y-98105243D01*
X41960000Y-97895287D01*
X41960000Y-97682713D01*
X41926746Y-97472757D01*
X41861057Y-97270588D01*
X41764551Y-97081184D01*
X41764550Y-97081182D01*
X41639609Y-96909213D01*
X41489286Y-96758890D01*
X41317320Y-96633951D01*
X41316615Y-96633591D01*
X41308554Y-96629485D01*
X41257759Y-96581512D01*
X41240963Y-96513692D01*
X41263499Y-96447556D01*
X41308554Y-96408515D01*
X41317316Y-96404051D01*
X41415753Y-96332533D01*
X41489286Y-96279109D01*
X41489288Y-96279106D01*
X41489292Y-96279104D01*
X41639604Y-96128792D01*
X41639606Y-96128788D01*
X41639609Y-96128786D01*
X41764548Y-95956820D01*
X41764547Y-95956820D01*
X41764551Y-95956816D01*
X41861057Y-95767412D01*
X41926746Y-95565243D01*
X41960000Y-95355287D01*
X41960000Y-95338324D01*
X56595099Y-95338324D01*
X56629950Y-95513527D01*
X56629952Y-95513533D01*
X56698314Y-95678575D01*
X56698319Y-95678584D01*
X56797564Y-95827114D01*
X56797567Y-95827118D01*
X56923881Y-95953432D01*
X56923885Y-95953435D01*
X57072415Y-96052680D01*
X57072421Y-96052683D01*
X57072422Y-96052684D01*
X57237467Y-96121048D01*
X57237471Y-96121048D01*
X57237472Y-96121049D01*
X57412675Y-96155900D01*
X57412678Y-96155900D01*
X57591324Y-96155900D01*
X57709198Y-96132452D01*
X57766533Y-96121048D01*
X57931578Y-96052684D01*
X58080115Y-95953435D01*
X58206435Y-95827115D01*
X58305684Y-95678578D01*
X58374048Y-95513533D01*
X58385452Y-95456198D01*
X58408900Y-95338324D01*
X58408900Y-95159675D01*
X58374049Y-94984472D01*
X58374048Y-94984471D01*
X58374048Y-94984467D01*
X58305684Y-94819422D01*
X58305683Y-94819421D01*
X58305680Y-94819415D01*
X58206435Y-94670885D01*
X58206432Y-94670881D01*
X58080118Y-94544567D01*
X58080114Y-94544564D01*
X57931584Y-94445319D01*
X57931575Y-94445314D01*
X57766533Y-94376952D01*
X57766527Y-94376950D01*
X57591324Y-94342100D01*
X57591322Y-94342100D01*
X57412678Y-94342100D01*
X57412676Y-94342100D01*
X57237472Y-94376950D01*
X57237466Y-94376952D01*
X57072424Y-94445314D01*
X57072415Y-94445319D01*
X56923885Y-94544564D01*
X56923881Y-94544567D01*
X56797567Y-94670881D01*
X56797564Y-94670885D01*
X56698319Y-94819415D01*
X56698314Y-94819424D01*
X56629952Y-94984466D01*
X56629950Y-94984472D01*
X56595100Y-95159675D01*
X56595100Y-95159678D01*
X56595100Y-95338322D01*
X56595100Y-95338324D01*
X56595099Y-95338324D01*
X41960000Y-95338324D01*
X41960000Y-95142713D01*
X41926746Y-94932757D01*
X41861057Y-94730588D01*
X41764551Y-94541184D01*
X41764549Y-94541181D01*
X41764548Y-94541179D01*
X41639609Y-94369213D01*
X41489286Y-94218890D01*
X41317320Y-94093951D01*
X41316615Y-94093591D01*
X41308554Y-94089485D01*
X41257759Y-94041512D01*
X41240963Y-93973692D01*
X41263499Y-93907556D01*
X41308554Y-93868515D01*
X41317316Y-93864051D01*
X41339289Y-93848086D01*
X41489286Y-93739109D01*
X41489288Y-93739106D01*
X41489292Y-93739104D01*
X41639604Y-93588792D01*
X41639606Y-93588788D01*
X41639609Y-93588786D01*
X41764548Y-93416820D01*
X41764547Y-93416820D01*
X41764551Y-93416816D01*
X41861057Y-93227412D01*
X41926746Y-93025243D01*
X41960000Y-92815287D01*
X41960000Y-92602713D01*
X41926746Y-92392757D01*
X41861057Y-92190588D01*
X41764551Y-92001184D01*
X41764549Y-92001181D01*
X41764548Y-92001179D01*
X41639609Y-91829213D01*
X41489286Y-91678890D01*
X41317320Y-91553951D01*
X41267024Y-91528324D01*
X53102599Y-91528324D01*
X53137450Y-91703527D01*
X53137452Y-91703533D01*
X53205814Y-91868575D01*
X53205819Y-91868584D01*
X53305064Y-92017114D01*
X53305067Y-92017118D01*
X53431381Y-92143432D01*
X53431385Y-92143435D01*
X53579915Y-92242680D01*
X53579921Y-92242683D01*
X53579922Y-92242684D01*
X53744967Y-92311048D01*
X53744971Y-92311048D01*
X53744972Y-92311049D01*
X53920175Y-92345900D01*
X53920178Y-92345900D01*
X54098824Y-92345900D01*
X54216698Y-92322452D01*
X54274033Y-92311048D01*
X54439078Y-92242684D01*
X54587615Y-92143435D01*
X54713935Y-92017115D01*
X54741647Y-91975639D01*
X66969500Y-91975639D01*
X66969500Y-92174361D01*
X66981060Y-92247349D01*
X67000587Y-92370637D01*
X67061993Y-92559629D01*
X67061994Y-92559632D01*
X67152213Y-92736694D01*
X67269019Y-92897464D01*
X67409536Y-93037981D01*
X67570306Y-93154787D01*
X67727332Y-93234796D01*
X67778127Y-93282769D01*
X67794922Y-93350590D01*
X67772385Y-93416725D01*
X67727332Y-93455764D01*
X67570566Y-93535641D01*
X67533283Y-93562729D01*
X67533282Y-93562730D01*
X68096058Y-94125504D01*
X68035919Y-94141619D01*
X67920080Y-94208498D01*
X67825498Y-94303080D01*
X67758619Y-94418919D01*
X67742504Y-94479057D01*
X67179730Y-93916282D01*
X67179729Y-93916283D01*
X67152643Y-93953564D01*
X67062457Y-94130562D01*
X67001075Y-94319476D01*
X67001075Y-94319479D01*
X66970000Y-94515678D01*
X66970000Y-94714321D01*
X67001075Y-94910520D01*
X67001075Y-94910523D01*
X67062457Y-95099437D01*
X67152641Y-95276432D01*
X67179730Y-95313715D01*
X67179731Y-95313716D01*
X67742504Y-94750942D01*
X67758619Y-94811081D01*
X67825498Y-94926920D01*
X67920080Y-95021502D01*
X68035919Y-95088381D01*
X68096057Y-95104494D01*
X67533283Y-95667268D01*
X67533283Y-95667269D01*
X67570567Y-95694358D01*
X67727331Y-95774234D01*
X67778127Y-95822209D01*
X67794922Y-95890030D01*
X67772384Y-95956165D01*
X67727331Y-95995204D01*
X67570305Y-96075213D01*
X67409533Y-96192021D01*
X67269021Y-96332533D01*
X67152213Y-96493305D01*
X67061994Y-96670367D01*
X67061993Y-96670370D01*
X67000587Y-96859362D01*
X66969500Y-97055639D01*
X66969500Y-97254360D01*
X67000587Y-97450637D01*
X67061993Y-97639629D01*
X67061994Y-97639632D01*
X67152213Y-97816694D01*
X67269019Y-97977464D01*
X67409536Y-98117981D01*
X67570306Y-98234787D01*
X67601439Y-98250650D01*
X67726780Y-98314515D01*
X67777576Y-98362490D01*
X67794371Y-98430311D01*
X67771833Y-98496446D01*
X67726780Y-98535485D01*
X67570305Y-98615213D01*
X67409533Y-98732021D01*
X67269021Y-98872533D01*
X67152213Y-99033305D01*
X67061994Y-99210367D01*
X67061993Y-99210370D01*
X67000587Y-99399362D01*
X66969500Y-99595639D01*
X66969500Y-99794360D01*
X67000587Y-99990637D01*
X67061993Y-100179629D01*
X67061994Y-100179632D01*
X67152213Y-100356694D01*
X67269019Y-100517464D01*
X67409536Y-100657981D01*
X67570306Y-100774787D01*
X67601439Y-100790650D01*
X67726780Y-100854515D01*
X67777576Y-100902490D01*
X67794371Y-100970311D01*
X67771833Y-101036446D01*
X67726780Y-101075485D01*
X67570305Y-101155213D01*
X67409533Y-101272021D01*
X67269021Y-101412533D01*
X67152213Y-101573305D01*
X67061994Y-101750367D01*
X67061993Y-101750370D01*
X67000587Y-101939362D01*
X66969500Y-102135639D01*
X66969500Y-102334360D01*
X67000587Y-102530637D01*
X67061993Y-102719629D01*
X67061994Y-102719632D01*
X67152213Y-102896694D01*
X67269019Y-103057464D01*
X67409536Y-103197981D01*
X67409539Y-103197983D01*
X67533687Y-103288182D01*
X67576353Y-103343512D01*
X67582332Y-103413125D01*
X67549726Y-103474920D01*
X67488888Y-103509277D01*
X67460805Y-103512500D01*
X67422131Y-103512500D01*
X67422123Y-103512501D01*
X67362516Y-103518908D01*
X67227671Y-103569202D01*
X67227664Y-103569206D01*
X67112455Y-103655452D01*
X67112452Y-103655455D01*
X67026206Y-103770664D01*
X67026202Y-103770671D01*
X66975908Y-103905517D01*
X66969501Y-103965116D01*
X66969501Y-103965123D01*
X66969500Y-103965135D01*
X66969500Y-105584870D01*
X66969501Y-105584876D01*
X66975908Y-105644483D01*
X67026202Y-105779328D01*
X67026206Y-105779335D01*
X67112452Y-105894544D01*
X67112455Y-105894547D01*
X67227664Y-105980793D01*
X67227671Y-105980797D01*
X67362517Y-106031091D01*
X67362516Y-106031091D01*
X67369444Y-106031835D01*
X67422127Y-106037500D01*
X69041872Y-106037499D01*
X69101483Y-106031091D01*
X69236331Y-105980796D01*
X69351546Y-105894546D01*
X69437796Y-105779331D01*
X69488091Y-105644483D01*
X69494500Y-105584873D01*
X69494499Y-105546197D01*
X69514182Y-105479161D01*
X69566985Y-105433405D01*
X69636143Y-105423460D01*
X69699699Y-105452483D01*
X69718817Y-105473312D01*
X69809019Y-105597464D01*
X69949536Y-105737981D01*
X70110306Y-105854787D01*
X70141439Y-105870650D01*
X70287367Y-105945005D01*
X70287370Y-105945006D01*
X70381866Y-105975709D01*
X70476364Y-106006413D01*
X70672639Y-106037500D01*
X70672640Y-106037500D01*
X70871360Y-106037500D01*
X70871361Y-106037500D01*
X71067636Y-106006413D01*
X71256632Y-105945005D01*
X71433694Y-105854787D01*
X71594464Y-105737981D01*
X71734981Y-105597464D01*
X71851787Y-105436694D01*
X71942005Y-105259632D01*
X72003413Y-105070636D01*
X72034500Y-104874361D01*
X72034500Y-104675639D01*
X72003413Y-104479364D01*
X71942005Y-104290368D01*
X71942005Y-104290367D01*
X71867585Y-104144312D01*
X71851787Y-104113306D01*
X71734981Y-103952536D01*
X71594464Y-103812019D01*
X71433694Y-103695213D01*
X71277218Y-103615484D01*
X71226423Y-103567510D01*
X71209628Y-103499689D01*
X71232165Y-103433554D01*
X71277218Y-103394515D01*
X71433694Y-103314787D01*
X71594464Y-103197981D01*
X71734981Y-103057464D01*
X71851787Y-102896694D01*
X71942005Y-102719632D01*
X72003413Y-102530636D01*
X72034500Y-102334361D01*
X72034500Y-102135639D01*
X72003413Y-101939364D01*
X71942005Y-101750368D01*
X71942005Y-101750367D01*
X71896035Y-101660149D01*
X71851787Y-101573306D01*
X71734981Y-101412536D01*
X71594464Y-101272019D01*
X71433694Y-101155213D01*
X71277218Y-101075484D01*
X71226423Y-101027510D01*
X71209628Y-100959689D01*
X71232165Y-100893554D01*
X71277218Y-100854515D01*
X71433694Y-100774787D01*
X71594464Y-100657981D01*
X71734981Y-100517464D01*
X71851787Y-100356694D01*
X71942005Y-100179632D01*
X72003413Y-99990636D01*
X72034500Y-99794361D01*
X72034500Y-99595639D01*
X72003413Y-99399364D01*
X71942005Y-99210368D01*
X71942005Y-99210367D01*
X71867585Y-99064312D01*
X71851787Y-99033306D01*
X71734981Y-98872536D01*
X71594464Y-98732019D01*
X71433694Y-98615213D01*
X71277218Y-98535484D01*
X71226423Y-98487510D01*
X71209628Y-98419689D01*
X71232165Y-98353554D01*
X71277218Y-98314515D01*
X71433694Y-98234787D01*
X71594464Y-98117981D01*
X71734981Y-97977464D01*
X71851787Y-97816694D01*
X71942005Y-97639632D01*
X72003413Y-97450636D01*
X72034500Y-97254361D01*
X72034500Y-97055639D01*
X72003413Y-96859364D01*
X71942005Y-96670368D01*
X71942005Y-96670367D01*
X71867585Y-96524312D01*
X71851787Y-96493306D01*
X71734981Y-96332536D01*
X71594464Y-96192019D01*
X71433694Y-96075213D01*
X71276667Y-95995203D01*
X71225872Y-95947229D01*
X71209077Y-95879408D01*
X71231614Y-95813273D01*
X71276669Y-95774234D01*
X71433422Y-95694364D01*
X71470716Y-95667268D01*
X70907942Y-95104494D01*
X70968081Y-95088381D01*
X71083920Y-95021502D01*
X71178502Y-94926920D01*
X71245381Y-94811081D01*
X71261495Y-94750942D01*
X71824268Y-95313715D01*
X71851362Y-95276425D01*
X71941542Y-95099437D01*
X72002924Y-94910523D01*
X72002924Y-94910520D01*
X72034000Y-94714321D01*
X72034000Y-94515678D01*
X72002924Y-94319479D01*
X72002924Y-94319476D01*
X71941542Y-94130562D01*
X71851358Y-93953567D01*
X71824268Y-93916283D01*
X71261494Y-94479057D01*
X71245381Y-94418919D01*
X71178502Y-94303080D01*
X71083920Y-94208498D01*
X70968081Y-94141619D01*
X70907942Y-94125504D01*
X71470716Y-93562731D01*
X71470715Y-93562730D01*
X71433432Y-93535641D01*
X71276668Y-93455765D01*
X71225872Y-93407790D01*
X71209077Y-93339969D01*
X71231615Y-93273834D01*
X71276667Y-93234796D01*
X71433694Y-93154787D01*
X71594464Y-93037981D01*
X71734981Y-92897464D01*
X71851787Y-92736694D01*
X71942005Y-92559632D01*
X72003413Y-92370636D01*
X72034500Y-92174361D01*
X72034500Y-91975639D01*
X72003413Y-91779364D01*
X71942005Y-91590368D01*
X71942005Y-91590367D01*
X71874277Y-91457445D01*
X71851787Y-91413306D01*
X71734981Y-91252536D01*
X71594464Y-91112019D01*
X71433694Y-90995213D01*
X71256632Y-90904994D01*
X71256629Y-90904993D01*
X71067637Y-90843587D01*
X70969498Y-90828043D01*
X70871361Y-90812500D01*
X70672639Y-90812500D01*
X70607214Y-90822862D01*
X70476362Y-90843587D01*
X70287370Y-90904993D01*
X70287367Y-90904994D01*
X70110305Y-90995213D01*
X69949533Y-91112021D01*
X69809021Y-91252533D01*
X69692213Y-91413305D01*
X69612485Y-91569780D01*
X69564510Y-91620576D01*
X69496689Y-91637371D01*
X69430554Y-91614833D01*
X69391515Y-91569780D01*
X69334277Y-91457445D01*
X69311787Y-91413306D01*
X69194981Y-91252536D01*
X69054464Y-91112019D01*
X68893694Y-90995213D01*
X68716632Y-90904994D01*
X68716629Y-90904993D01*
X68527637Y-90843587D01*
X68429498Y-90828043D01*
X68331361Y-90812500D01*
X68132639Y-90812500D01*
X68067214Y-90822862D01*
X67936362Y-90843587D01*
X67747370Y-90904993D01*
X67747367Y-90904994D01*
X67570305Y-90995213D01*
X67409533Y-91112021D01*
X67269021Y-91252533D01*
X67152213Y-91413305D01*
X67061994Y-91590367D01*
X67061993Y-91590370D01*
X67000587Y-91779362D01*
X66986457Y-91868575D01*
X66969500Y-91975639D01*
X54741647Y-91975639D01*
X54745609Y-91969710D01*
X54790936Y-91901876D01*
X54813181Y-91868582D01*
X54813184Y-91868578D01*
X54881548Y-91703533D01*
X54904058Y-91590368D01*
X54916400Y-91528324D01*
X54916400Y-91349675D01*
X54881549Y-91174472D01*
X54881548Y-91174471D01*
X54881548Y-91174467D01*
X54813184Y-91009422D01*
X54813183Y-91009421D01*
X54813180Y-91009415D01*
X54713935Y-90860885D01*
X54713932Y-90860881D01*
X54587618Y-90734567D01*
X54587614Y-90734564D01*
X54439084Y-90635319D01*
X54439075Y-90635314D01*
X54274033Y-90566952D01*
X54274027Y-90566950D01*
X54098824Y-90532100D01*
X54098822Y-90532100D01*
X53920178Y-90532100D01*
X53920176Y-90532100D01*
X53744972Y-90566950D01*
X53744966Y-90566952D01*
X53579924Y-90635314D01*
X53579915Y-90635319D01*
X53431385Y-90734564D01*
X53431381Y-90734567D01*
X53305067Y-90860881D01*
X53305064Y-90860885D01*
X53205819Y-91009415D01*
X53205814Y-91009424D01*
X53137452Y-91174466D01*
X53137450Y-91174472D01*
X53102600Y-91349675D01*
X53102600Y-91349678D01*
X53102600Y-91528322D01*
X53102600Y-91528324D01*
X53102599Y-91528324D01*
X41267024Y-91528324D01*
X41127916Y-91457445D01*
X41127912Y-91457443D01*
X40925743Y-91391754D01*
X40925741Y-91391753D01*
X40925740Y-91391753D01*
X40764457Y-91366208D01*
X40715787Y-91358500D01*
X40503213Y-91358500D01*
X40454542Y-91366208D01*
X40293260Y-91391753D01*
X40091085Y-91457444D01*
X39901679Y-91553951D01*
X39729713Y-91678890D01*
X39579390Y-91829213D01*
X39454449Y-92001182D01*
X39449984Y-92009946D01*
X39402009Y-92060742D01*
X39334188Y-92077536D01*
X39268053Y-92054998D01*
X39229016Y-92009946D01*
X39224550Y-92001182D01*
X39099609Y-91829213D01*
X38949286Y-91678890D01*
X38777320Y-91553951D01*
X38587914Y-91457444D01*
X38587913Y-91457443D01*
X38587912Y-91457443D01*
X38385743Y-91391754D01*
X38385741Y-91391753D01*
X38385740Y-91391753D01*
X38224457Y-91366208D01*
X38175787Y-91358500D01*
X37963213Y-91358500D01*
X37914542Y-91366208D01*
X37753260Y-91391753D01*
X37551085Y-91457444D01*
X37361679Y-91553951D01*
X37189713Y-91678890D01*
X37039390Y-91829213D01*
X36914451Y-92001179D01*
X36817944Y-92190585D01*
X36752253Y-92392760D01*
X36725824Y-92559629D01*
X36719000Y-92602713D01*
X32101000Y-92602713D01*
X32101000Y-40543713D01*
X36719000Y-40543713D01*
X36719000Y-40756286D01*
X36752253Y-40966239D01*
X36817944Y-41168414D01*
X36914451Y-41357820D01*
X37039390Y-41529786D01*
X37189713Y-41680109D01*
X37361682Y-41805050D01*
X37370446Y-41809516D01*
X37421242Y-41857491D01*
X37438036Y-41925312D01*
X37415498Y-41991447D01*
X37370446Y-42030484D01*
X37361682Y-42034949D01*
X37189713Y-42159890D01*
X37039390Y-42310213D01*
X36914451Y-42482179D01*
X36817944Y-42671585D01*
X36752253Y-42873760D01*
X36719000Y-43083713D01*
X36719000Y-43296286D01*
X36752253Y-43506239D01*
X36817944Y-43708414D01*
X36914451Y-43897820D01*
X37039390Y-44069786D01*
X37189713Y-44220109D01*
X37361682Y-44345050D01*
X37370446Y-44349516D01*
X37421242Y-44397491D01*
X37438036Y-44465312D01*
X37415498Y-44531447D01*
X37370446Y-44570484D01*
X37361682Y-44574949D01*
X37189713Y-44699890D01*
X37039390Y-44850213D01*
X36914451Y-45022179D01*
X36817944Y-45211585D01*
X36752253Y-45413760D01*
X36719000Y-45623713D01*
X36719000Y-45836286D01*
X36752253Y-46046239D01*
X36752253Y-46046241D01*
X36752254Y-46046243D01*
X36806257Y-46212447D01*
X36817944Y-46248414D01*
X36914451Y-46437820D01*
X37039390Y-46609786D01*
X37189713Y-46760109D01*
X37361682Y-46885050D01*
X37370446Y-46889516D01*
X37421242Y-46937491D01*
X37438036Y-47005312D01*
X37415498Y-47071447D01*
X37370446Y-47110484D01*
X37361682Y-47114949D01*
X37189713Y-47239890D01*
X37039390Y-47390213D01*
X36914451Y-47562179D01*
X36817944Y-47751585D01*
X36752253Y-47953760D01*
X36719000Y-48163713D01*
X36719000Y-48376286D01*
X36752253Y-48586239D01*
X36817944Y-48788414D01*
X36914451Y-48977820D01*
X37039390Y-49149786D01*
X37189713Y-49300109D01*
X37361682Y-49425050D01*
X37370446Y-49429516D01*
X37421242Y-49477491D01*
X37438036Y-49545312D01*
X37415498Y-49611447D01*
X37370446Y-49650484D01*
X37361682Y-49654949D01*
X37189713Y-49779890D01*
X37039390Y-49930213D01*
X36914451Y-50102179D01*
X36817944Y-50291585D01*
X36752253Y-50493760D01*
X36719000Y-50703713D01*
X36719000Y-50916286D01*
X36752253Y-51126239D01*
X36752253Y-51126241D01*
X36752254Y-51126243D01*
X36806257Y-51292447D01*
X36817944Y-51328414D01*
X36914451Y-51517820D01*
X37039390Y-51689786D01*
X37189713Y-51840109D01*
X37361682Y-51965050D01*
X37370446Y-51969516D01*
X37421242Y-52017491D01*
X37438036Y-52085312D01*
X37415498Y-52151447D01*
X37370446Y-52190484D01*
X37361682Y-52194949D01*
X37189713Y-52319890D01*
X37039390Y-52470213D01*
X36914451Y-52642179D01*
X36817944Y-52831585D01*
X36752253Y-53033760D01*
X36719000Y-53243713D01*
X36719000Y-53456286D01*
X36734268Y-53552688D01*
X36752254Y-53666243D01*
X36756517Y-53679364D01*
X36817944Y-53868414D01*
X36914451Y-54057820D01*
X37039390Y-54229786D01*
X37189713Y-54380109D01*
X37361682Y-54505050D01*
X37370446Y-54509516D01*
X37421242Y-54557491D01*
X37438036Y-54625312D01*
X37415498Y-54691447D01*
X37370446Y-54730484D01*
X37361682Y-54734949D01*
X37189713Y-54859890D01*
X37039390Y-55010213D01*
X36914451Y-55182179D01*
X36817944Y-55371585D01*
X36752253Y-55573760D01*
X36719000Y-55783713D01*
X36719000Y-55996286D01*
X36731842Y-56077371D01*
X36752254Y-56206243D01*
X36756517Y-56219364D01*
X36817944Y-56408414D01*
X36914451Y-56597820D01*
X37039390Y-56769786D01*
X37189713Y-56920109D01*
X37361682Y-57045050D01*
X37370446Y-57049516D01*
X37421242Y-57097491D01*
X37438036Y-57165312D01*
X37415498Y-57231447D01*
X37370446Y-57270484D01*
X37361682Y-57274949D01*
X37189713Y-57399890D01*
X37039390Y-57550213D01*
X36914451Y-57722179D01*
X36817944Y-57911585D01*
X36752253Y-58113760D01*
X36725321Y-58283802D01*
X36719000Y-58323713D01*
X36719000Y-58536287D01*
X36752254Y-58746243D01*
X36756517Y-58759364D01*
X36817944Y-58948414D01*
X36914451Y-59137820D01*
X37039390Y-59309786D01*
X37189713Y-59460109D01*
X37361682Y-59585050D01*
X37370446Y-59589516D01*
X37421242Y-59637491D01*
X37438036Y-59705312D01*
X37415498Y-59771447D01*
X37370446Y-59810484D01*
X37361682Y-59814949D01*
X37189713Y-59939890D01*
X37039390Y-60090213D01*
X36914451Y-60262179D01*
X36817944Y-60451585D01*
X36752253Y-60653760D01*
X36719000Y-60863713D01*
X36719000Y-61076286D01*
X36752253Y-61286239D01*
X36817944Y-61488414D01*
X36914451Y-61677820D01*
X37039390Y-61849786D01*
X37189713Y-62000109D01*
X37361682Y-62125050D01*
X37370446Y-62129516D01*
X37421242Y-62177491D01*
X37438036Y-62245312D01*
X37415498Y-62311447D01*
X37370446Y-62350484D01*
X37361682Y-62354949D01*
X37189713Y-62479890D01*
X37039390Y-62630213D01*
X36914451Y-62802179D01*
X36817944Y-62991585D01*
X36752253Y-63193760D01*
X36719000Y-63403713D01*
X36719000Y-63616286D01*
X36734701Y-63715422D01*
X36752254Y-63826243D01*
X36769872Y-63880466D01*
X36817944Y-64028414D01*
X36914451Y-64217820D01*
X37039390Y-64389786D01*
X37189713Y-64540109D01*
X37361682Y-64665050D01*
X37370446Y-64669516D01*
X37421242Y-64717491D01*
X37438036Y-64785312D01*
X37415498Y-64851447D01*
X37370446Y-64890484D01*
X37361682Y-64894949D01*
X37189713Y-65019890D01*
X37039390Y-65170213D01*
X36914451Y-65342179D01*
X36817944Y-65531585D01*
X36752253Y-65733760D01*
X36719000Y-65943713D01*
X36719000Y-66156286D01*
X36752253Y-66366239D01*
X36817944Y-66568414D01*
X36914451Y-66757820D01*
X37039390Y-66929786D01*
X37189713Y-67080109D01*
X37361682Y-67205050D01*
X37370446Y-67209516D01*
X37421242Y-67257491D01*
X37438036Y-67325312D01*
X37415498Y-67391447D01*
X37370446Y-67430484D01*
X37361682Y-67434949D01*
X37189713Y-67559890D01*
X37039390Y-67710213D01*
X36914451Y-67882179D01*
X36817944Y-68071585D01*
X36752253Y-68273760D01*
X36719000Y-68483713D01*
X36719000Y-68696286D01*
X36752253Y-68906239D01*
X36752253Y-68906241D01*
X36752254Y-68906243D01*
X36806257Y-69072447D01*
X36817944Y-69108414D01*
X36914451Y-69297820D01*
X37039390Y-69469786D01*
X37189713Y-69620109D01*
X37361682Y-69745050D01*
X37370446Y-69749516D01*
X37421242Y-69797491D01*
X37438036Y-69865312D01*
X37415498Y-69931447D01*
X37370446Y-69970484D01*
X37361682Y-69974949D01*
X37189713Y-70099890D01*
X37039390Y-70250213D01*
X36914451Y-70422179D01*
X36817944Y-70611585D01*
X36752253Y-70813760D01*
X36719000Y-71023713D01*
X36719000Y-71236286D01*
X36736772Y-71348498D01*
X36752254Y-71446243D01*
X36807471Y-71616184D01*
X36817944Y-71648414D01*
X36914451Y-71837820D01*
X37039390Y-72009786D01*
X37189713Y-72160109D01*
X37361682Y-72285050D01*
X37370446Y-72289516D01*
X37421242Y-72337491D01*
X37438036Y-72405312D01*
X37415498Y-72471447D01*
X37370446Y-72510484D01*
X37361682Y-72514949D01*
X37189713Y-72639890D01*
X37039390Y-72790213D01*
X36914451Y-72962179D01*
X36817944Y-73151585D01*
X36752253Y-73353760D01*
X36719000Y-73563713D01*
X36719000Y-73776286D01*
X36752146Y-73985565D01*
X36752254Y-73986243D01*
X36793076Y-74111881D01*
X36817944Y-74188414D01*
X36914451Y-74377820D01*
X37039390Y-74549786D01*
X37189713Y-74700109D01*
X37361682Y-74825050D01*
X37370446Y-74829516D01*
X37421242Y-74877491D01*
X37438036Y-74945312D01*
X37415498Y-75011447D01*
X37370446Y-75050484D01*
X37361682Y-75054949D01*
X37189713Y-75179890D01*
X37039390Y-75330213D01*
X36914451Y-75502179D01*
X36817944Y-75691585D01*
X36752253Y-75893760D01*
X36719000Y-76103713D01*
X36719000Y-76316286D01*
X36731842Y-76397371D01*
X36752254Y-76526243D01*
X36756517Y-76539364D01*
X36817944Y-76728414D01*
X36914451Y-76917820D01*
X37039390Y-77089786D01*
X37189713Y-77240109D01*
X37361682Y-77365050D01*
X37370446Y-77369516D01*
X37421242Y-77417491D01*
X37438036Y-77485312D01*
X37415498Y-77551447D01*
X37370446Y-77590484D01*
X37361682Y-77594949D01*
X37189713Y-77719890D01*
X37039390Y-77870213D01*
X36914451Y-78042179D01*
X36817944Y-78231585D01*
X36752253Y-78433760D01*
X36719000Y-78643713D01*
X36719000Y-78856286D01*
X36731842Y-78937371D01*
X36752254Y-79066243D01*
X36756517Y-79079364D01*
X36817944Y-79268414D01*
X36914451Y-79457820D01*
X37039390Y-79629786D01*
X37189709Y-79780105D01*
X37194606Y-79783663D01*
X37237271Y-79838994D01*
X37243250Y-79908607D01*
X37210644Y-79970402D01*
X37160729Y-80001685D01*
X37150173Y-80005183D01*
X37150163Y-80005187D01*
X37000842Y-80097289D01*
X36876789Y-80221342D01*
X36784687Y-80370663D01*
X36784686Y-80370666D01*
X36729501Y-80537203D01*
X36729501Y-80537204D01*
X36729500Y-80537204D01*
X36719000Y-80639983D01*
X36719000Y-81940001D01*
X36719001Y-81940018D01*
X36729500Y-82042796D01*
X36729501Y-82042799D01*
X36784685Y-82209331D01*
X36784687Y-82209336D01*
X36799500Y-82233351D01*
X36876788Y-82358656D01*
X37000844Y-82482712D01*
X37150166Y-82574814D01*
X37316703Y-82629999D01*
X37419491Y-82640500D01*
X38719508Y-82640499D01*
X38822297Y-82629999D01*
X38988834Y-82574814D01*
X39138156Y-82482712D01*
X39251819Y-82369049D01*
X39313142Y-82335564D01*
X39382834Y-82340548D01*
X39427181Y-82369049D01*
X39540844Y-82482712D01*
X39690166Y-82574814D01*
X39856703Y-82629999D01*
X39959491Y-82640500D01*
X41259508Y-82640499D01*
X41362297Y-82629999D01*
X41528834Y-82574814D01*
X41678156Y-82482712D01*
X41802212Y-82358656D01*
X41894314Y-82209334D01*
X41949499Y-82042797D01*
X41960000Y-81940009D01*
X41959999Y-80639992D01*
X41959744Y-80637500D01*
X41949499Y-80537203D01*
X41949498Y-80537200D01*
X41940767Y-80510853D01*
X41894314Y-80370666D01*
X41802212Y-80221344D01*
X41678156Y-80097288D01*
X41528834Y-80005186D01*
X41528833Y-80005185D01*
X41528825Y-80005182D01*
X41518273Y-80001686D01*
X41460828Y-79961913D01*
X41434006Y-79897397D01*
X41446322Y-79828621D01*
X41484403Y-79783656D01*
X41489288Y-79780107D01*
X41489288Y-79780106D01*
X41489292Y-79780104D01*
X41639604Y-79629792D01*
X41639606Y-79629788D01*
X41639609Y-79629786D01*
X41764548Y-79457820D01*
X41764547Y-79457820D01*
X41764551Y-79457816D01*
X41861057Y-79268412D01*
X41926746Y-79066243D01*
X41960000Y-78856287D01*
X41960000Y-78643713D01*
X41926746Y-78433757D01*
X41861057Y-78231588D01*
X41764551Y-78042184D01*
X41764549Y-78042181D01*
X41764548Y-78042179D01*
X41639609Y-77870213D01*
X41489286Y-77719890D01*
X41317320Y-77594951D01*
X41316615Y-77594591D01*
X41308554Y-77590485D01*
X41257759Y-77542512D01*
X41240963Y-77474692D01*
X41263499Y-77408556D01*
X41308554Y-77369515D01*
X41317316Y-77365051D01*
X41351495Y-77340219D01*
X41489286Y-77240109D01*
X41489288Y-77240106D01*
X41489292Y-77240104D01*
X41639604Y-77089792D01*
X41639606Y-77089788D01*
X41639609Y-77089786D01*
X41764548Y-76917820D01*
X41764547Y-76917820D01*
X41764551Y-76917816D01*
X41861057Y-76728412D01*
X41926746Y-76526243D01*
X41960000Y-76316287D01*
X41960000Y-76103713D01*
X41926746Y-75893757D01*
X41861057Y-75691588D01*
X41764551Y-75502184D01*
X41764549Y-75502181D01*
X41764548Y-75502179D01*
X41639609Y-75330213D01*
X41489286Y-75179890D01*
X41317320Y-75054951D01*
X41316615Y-75054591D01*
X41308554Y-75050485D01*
X41257759Y-75002512D01*
X41240963Y-74934692D01*
X41263499Y-74868556D01*
X41308554Y-74829515D01*
X41317316Y-74825051D01*
X41364094Y-74791065D01*
X41380254Y-74779324D01*
X56530099Y-74779324D01*
X56564950Y-74954527D01*
X56564952Y-74954533D01*
X56633314Y-75119575D01*
X56633319Y-75119584D01*
X56732564Y-75268114D01*
X56732567Y-75268118D01*
X56858881Y-75394432D01*
X56858885Y-75394435D01*
X57007415Y-75493680D01*
X57007424Y-75493685D01*
X57044812Y-75509171D01*
X57172467Y-75562048D01*
X57172471Y-75562048D01*
X57172472Y-75562049D01*
X57347675Y-75596900D01*
X57347678Y-75596900D01*
X57526324Y-75596900D01*
X57648988Y-75572500D01*
X57701533Y-75562048D01*
X57866578Y-75493684D01*
X58015115Y-75394435D01*
X58141435Y-75268115D01*
X58240684Y-75119578D01*
X58309048Y-74954533D01*
X58334804Y-74825050D01*
X58343900Y-74779324D01*
X58343900Y-74600675D01*
X58309049Y-74425472D01*
X58309048Y-74425471D01*
X58309048Y-74425467D01*
X58240684Y-74260422D01*
X58197397Y-74195639D01*
X58141435Y-74111885D01*
X58141432Y-74111881D01*
X58015118Y-73985567D01*
X58015114Y-73985564D01*
X57866584Y-73886319D01*
X57866575Y-73886314D01*
X57701533Y-73817952D01*
X57701527Y-73817950D01*
X57526324Y-73783100D01*
X57526322Y-73783100D01*
X57347678Y-73783100D01*
X57347676Y-73783100D01*
X57172472Y-73817950D01*
X57172466Y-73817952D01*
X57007424Y-73886314D01*
X57007415Y-73886319D01*
X56858885Y-73985564D01*
X56858881Y-73985567D01*
X56732567Y-74111881D01*
X56732564Y-74111885D01*
X56633319Y-74260415D01*
X56633314Y-74260424D01*
X56564952Y-74425466D01*
X56564950Y-74425472D01*
X56530100Y-74600675D01*
X56530100Y-74600678D01*
X56530100Y-74779322D01*
X56530100Y-74779324D01*
X56530099Y-74779324D01*
X41380254Y-74779324D01*
X41489286Y-74700109D01*
X41489288Y-74700106D01*
X41489292Y-74700104D01*
X41639604Y-74549792D01*
X41764551Y-74377816D01*
X41861057Y-74188412D01*
X41926746Y-73986243D01*
X41960000Y-73776287D01*
X41960000Y-73563713D01*
X41926746Y-73353757D01*
X41861057Y-73151588D01*
X41764551Y-72962184D01*
X41764549Y-72962181D01*
X41764548Y-72962179D01*
X41639609Y-72790213D01*
X41489286Y-72639890D01*
X41317320Y-72514951D01*
X41316615Y-72514591D01*
X41308554Y-72510485D01*
X41257759Y-72462512D01*
X41240963Y-72394692D01*
X41263499Y-72328556D01*
X41308554Y-72289515D01*
X41317316Y-72285051D01*
X41395316Y-72228381D01*
X41489286Y-72160109D01*
X41489288Y-72160106D01*
X41489292Y-72160104D01*
X41639604Y-72009792D01*
X41639606Y-72009788D01*
X41639609Y-72009786D01*
X41764548Y-71837820D01*
X41764547Y-71837820D01*
X41764551Y-71837816D01*
X41861057Y-71648412D01*
X41926746Y-71446243D01*
X41960000Y-71236287D01*
X41960000Y-71023713D01*
X41940695Y-70901824D01*
X52972599Y-70901824D01*
X53007450Y-71077027D01*
X53007452Y-71077033D01*
X53075814Y-71242075D01*
X53075819Y-71242084D01*
X53175064Y-71390614D01*
X53175067Y-71390618D01*
X53301381Y-71516932D01*
X53301385Y-71516935D01*
X53449915Y-71616180D01*
X53449921Y-71616183D01*
X53449922Y-71616184D01*
X53614967Y-71684548D01*
X53614971Y-71684548D01*
X53614972Y-71684549D01*
X53790175Y-71719400D01*
X53790178Y-71719400D01*
X53968824Y-71719400D01*
X54086698Y-71695952D01*
X54144033Y-71684548D01*
X54309078Y-71616184D01*
X54457615Y-71516935D01*
X54583935Y-71390615D01*
X54683184Y-71242078D01*
X54751548Y-71077033D01*
X54786400Y-70901822D01*
X54786400Y-70723178D01*
X54786400Y-70723175D01*
X54751549Y-70547972D01*
X54751548Y-70547971D01*
X54751548Y-70547967D01*
X54683184Y-70382922D01*
X54683183Y-70382921D01*
X54683180Y-70382915D01*
X54583935Y-70234385D01*
X54583932Y-70234381D01*
X54457618Y-70108067D01*
X54457614Y-70108064D01*
X54309084Y-70008819D01*
X54309075Y-70008814D01*
X54144033Y-69940452D01*
X54144027Y-69940450D01*
X53968824Y-69905600D01*
X53968822Y-69905600D01*
X53790178Y-69905600D01*
X53790176Y-69905600D01*
X53614972Y-69940450D01*
X53614966Y-69940452D01*
X53449924Y-70008814D01*
X53449915Y-70008819D01*
X53301385Y-70108064D01*
X53301381Y-70108067D01*
X53175067Y-70234381D01*
X53175064Y-70234385D01*
X53075819Y-70382915D01*
X53075814Y-70382924D01*
X53007452Y-70547966D01*
X53007450Y-70547972D01*
X52972600Y-70723175D01*
X52972600Y-70723178D01*
X52972600Y-70901822D01*
X52972600Y-70901824D01*
X52972599Y-70901824D01*
X41940695Y-70901824D01*
X41926746Y-70813757D01*
X41861057Y-70611588D01*
X41861055Y-70611585D01*
X41861055Y-70611583D01*
X41803454Y-70498536D01*
X41764551Y-70422184D01*
X41764549Y-70422181D01*
X41764548Y-70422179D01*
X41639609Y-70250213D01*
X41489286Y-70099890D01*
X41317320Y-69974951D01*
X41316615Y-69974591D01*
X41308554Y-69970485D01*
X41257759Y-69922512D01*
X41240963Y-69854692D01*
X41263499Y-69788556D01*
X41308554Y-69749515D01*
X41317316Y-69745051D01*
X41351495Y-69720219D01*
X41489286Y-69620109D01*
X41489288Y-69620106D01*
X41489292Y-69620104D01*
X41639604Y-69469792D01*
X41639606Y-69469788D01*
X41639609Y-69469786D01*
X41764548Y-69297820D01*
X41764547Y-69297820D01*
X41764551Y-69297816D01*
X41857375Y-69115639D01*
X66969500Y-69115639D01*
X66969500Y-69314360D01*
X67000587Y-69510637D01*
X67061993Y-69699629D01*
X67061994Y-69699632D01*
X67152213Y-69876694D01*
X67269019Y-70037464D01*
X67409536Y-70177981D01*
X67570306Y-70294787D01*
X67727332Y-70374796D01*
X67778127Y-70422769D01*
X67794922Y-70490590D01*
X67772385Y-70556725D01*
X67727332Y-70595764D01*
X67570566Y-70675641D01*
X67533283Y-70702729D01*
X67533282Y-70702730D01*
X68096058Y-71265504D01*
X68035919Y-71281619D01*
X67920080Y-71348498D01*
X67825498Y-71443080D01*
X67758619Y-71558919D01*
X67742504Y-71619057D01*
X67179730Y-71056282D01*
X67179729Y-71056283D01*
X67152643Y-71093564D01*
X67062457Y-71270562D01*
X67001075Y-71459476D01*
X67001075Y-71459479D01*
X66970000Y-71655678D01*
X66970000Y-71854321D01*
X67001075Y-72050520D01*
X67001075Y-72050523D01*
X67062457Y-72239437D01*
X67152641Y-72416432D01*
X67179730Y-72453715D01*
X67179731Y-72453716D01*
X67742504Y-71890942D01*
X67758619Y-71951081D01*
X67825498Y-72066920D01*
X67920080Y-72161502D01*
X68035919Y-72228381D01*
X68096057Y-72244494D01*
X67533283Y-72807268D01*
X67533283Y-72807269D01*
X67570567Y-72834358D01*
X67727331Y-72914234D01*
X67778127Y-72962209D01*
X67794922Y-73030030D01*
X67772384Y-73096165D01*
X67727331Y-73135204D01*
X67570305Y-73215213D01*
X67409533Y-73332021D01*
X67269021Y-73472533D01*
X67152213Y-73633305D01*
X67061994Y-73810367D01*
X67061993Y-73810370D01*
X67000587Y-73999362D01*
X66969500Y-74195639D01*
X66969500Y-74394360D01*
X67000587Y-74590637D01*
X67061993Y-74779629D01*
X67061994Y-74779632D01*
X67151109Y-74954527D01*
X67152213Y-74956694D01*
X67269019Y-75117464D01*
X67409536Y-75257981D01*
X67570306Y-75374787D01*
X67688832Y-75435179D01*
X67726780Y-75454515D01*
X67777576Y-75502490D01*
X67794371Y-75570311D01*
X67771833Y-75636446D01*
X67726780Y-75675485D01*
X67570305Y-75755213D01*
X67409533Y-75872021D01*
X67269021Y-76012533D01*
X67152213Y-76173305D01*
X67061994Y-76350367D01*
X67061993Y-76350370D01*
X67000587Y-76539362D01*
X66969500Y-76735639D01*
X66969500Y-76934360D01*
X67000587Y-77130637D01*
X67061993Y-77319629D01*
X67061994Y-77319632D01*
X67152213Y-77496694D01*
X67269019Y-77657464D01*
X67409536Y-77797981D01*
X67570306Y-77914787D01*
X67688832Y-77975179D01*
X67726780Y-77994515D01*
X67777576Y-78042490D01*
X67794371Y-78110311D01*
X67771833Y-78176446D01*
X67726780Y-78215485D01*
X67570305Y-78295213D01*
X67409533Y-78412021D01*
X67269021Y-78552533D01*
X67152213Y-78713305D01*
X67061994Y-78890367D01*
X67061993Y-78890370D01*
X67000587Y-79079362D01*
X66969500Y-79275639D01*
X66969500Y-79474360D01*
X67000587Y-79670637D01*
X67061993Y-79859629D01*
X67061994Y-79859632D01*
X67114110Y-79961913D01*
X67152213Y-80036694D01*
X67269019Y-80197464D01*
X67409536Y-80337981D01*
X67409539Y-80337983D01*
X67533687Y-80428182D01*
X67576353Y-80483512D01*
X67582332Y-80553125D01*
X67549726Y-80614920D01*
X67488888Y-80649277D01*
X67460805Y-80652500D01*
X67422131Y-80652500D01*
X67422123Y-80652501D01*
X67362516Y-80658908D01*
X67227671Y-80709202D01*
X67227664Y-80709206D01*
X67112455Y-80795452D01*
X67112452Y-80795455D01*
X67026206Y-80910664D01*
X67026202Y-80910671D01*
X66975908Y-81045517D01*
X66969501Y-81105116D01*
X66969501Y-81105123D01*
X66969500Y-81105135D01*
X66969500Y-82724870D01*
X66969501Y-82724876D01*
X66975908Y-82784483D01*
X67026202Y-82919328D01*
X67026206Y-82919335D01*
X67112452Y-83034544D01*
X67112455Y-83034547D01*
X67227664Y-83120793D01*
X67227671Y-83120797D01*
X67362517Y-83171091D01*
X67362516Y-83171091D01*
X67369444Y-83171835D01*
X67422127Y-83177500D01*
X69041872Y-83177499D01*
X69101483Y-83171091D01*
X69236331Y-83120796D01*
X69351546Y-83034546D01*
X69437796Y-82919331D01*
X69488091Y-82784483D01*
X69494500Y-82724873D01*
X69494499Y-82686197D01*
X69514182Y-82619161D01*
X69566985Y-82573405D01*
X69636143Y-82563460D01*
X69699699Y-82592483D01*
X69718817Y-82613312D01*
X69730941Y-82629999D01*
X69809019Y-82737464D01*
X69949536Y-82877981D01*
X70110306Y-82994787D01*
X70188333Y-83034544D01*
X70287367Y-83085005D01*
X70287370Y-83085006D01*
X70381866Y-83115709D01*
X70476364Y-83146413D01*
X70672639Y-83177500D01*
X70672640Y-83177500D01*
X70871360Y-83177500D01*
X70871361Y-83177500D01*
X71067636Y-83146413D01*
X71256632Y-83085005D01*
X71433694Y-82994787D01*
X71594464Y-82877981D01*
X71734981Y-82737464D01*
X71851787Y-82576694D01*
X71942005Y-82399632D01*
X72003413Y-82210636D01*
X72034500Y-82014361D01*
X72034500Y-81815639D01*
X72003413Y-81619364D01*
X71942005Y-81430368D01*
X71942005Y-81430367D01*
X71896035Y-81340149D01*
X71851787Y-81253306D01*
X71734981Y-81092536D01*
X71594464Y-80952019D01*
X71433694Y-80835213D01*
X71277218Y-80755484D01*
X71226423Y-80707510D01*
X71209628Y-80639689D01*
X71232165Y-80573554D01*
X71277218Y-80534515D01*
X71433694Y-80454787D01*
X71594464Y-80337981D01*
X71734981Y-80197464D01*
X71851787Y-80036694D01*
X71942005Y-79859632D01*
X72003413Y-79670636D01*
X72034500Y-79474361D01*
X72034500Y-79275639D01*
X72003413Y-79079364D01*
X71942005Y-78890368D01*
X71942005Y-78890367D01*
X71851786Y-78713305D01*
X71734981Y-78552536D01*
X71594464Y-78412019D01*
X71433694Y-78295213D01*
X71277218Y-78215484D01*
X71226423Y-78167510D01*
X71209628Y-78099689D01*
X71232165Y-78033554D01*
X71277218Y-77994515D01*
X71433694Y-77914787D01*
X71594464Y-77797981D01*
X71734981Y-77657464D01*
X71851787Y-77496694D01*
X71942005Y-77319632D01*
X72003413Y-77130636D01*
X72034500Y-76934361D01*
X72034500Y-76735639D01*
X72003413Y-76539364D01*
X71942005Y-76350368D01*
X71942005Y-76350367D01*
X71851786Y-76173305D01*
X71734981Y-76012536D01*
X71594464Y-75872019D01*
X71433694Y-75755213D01*
X71277218Y-75675484D01*
X71226423Y-75627510D01*
X71209628Y-75559689D01*
X71232165Y-75493554D01*
X71277218Y-75454515D01*
X71433694Y-75374787D01*
X71594464Y-75257981D01*
X71734981Y-75117464D01*
X71851787Y-74956694D01*
X71942005Y-74779632D01*
X72003413Y-74590636D01*
X72034500Y-74394361D01*
X72034500Y-74195639D01*
X72003413Y-73999364D01*
X71942005Y-73810368D01*
X71942005Y-73810367D01*
X71851786Y-73633305D01*
X71734981Y-73472536D01*
X71594464Y-73332019D01*
X71433694Y-73215213D01*
X71276667Y-73135203D01*
X71225872Y-73087229D01*
X71209077Y-73019408D01*
X71231614Y-72953273D01*
X71276669Y-72914234D01*
X71433422Y-72834364D01*
X71470716Y-72807268D01*
X70907942Y-72244494D01*
X70968081Y-72228381D01*
X71083920Y-72161502D01*
X71178502Y-72066920D01*
X71245381Y-71951081D01*
X71261495Y-71890942D01*
X71824268Y-72453715D01*
X71851362Y-72416425D01*
X71941542Y-72239437D01*
X72002924Y-72050523D01*
X72002924Y-72050520D01*
X72034000Y-71854321D01*
X72034000Y-71655678D01*
X72002924Y-71459479D01*
X72002924Y-71459476D01*
X71941542Y-71270562D01*
X71851358Y-71093567D01*
X71824268Y-71056283D01*
X71261494Y-71619057D01*
X71245381Y-71558919D01*
X71178502Y-71443080D01*
X71083920Y-71348498D01*
X70968081Y-71281619D01*
X70907942Y-71265504D01*
X71470716Y-70702731D01*
X71470715Y-70702730D01*
X71433432Y-70675641D01*
X71276668Y-70595765D01*
X71225872Y-70547790D01*
X71209077Y-70479969D01*
X71231615Y-70413834D01*
X71276667Y-70374796D01*
X71433694Y-70294787D01*
X71594464Y-70177981D01*
X71734981Y-70037464D01*
X71851787Y-69876694D01*
X71942005Y-69699632D01*
X72003413Y-69510636D01*
X72034500Y-69314361D01*
X72034500Y-69115639D01*
X72003413Y-68919364D01*
X71942005Y-68730368D01*
X71942005Y-68730367D01*
X71851786Y-68553305D01*
X71734981Y-68392536D01*
X71594464Y-68252019D01*
X71433694Y-68135213D01*
X71420223Y-68128349D01*
X71256632Y-68044994D01*
X71256629Y-68044993D01*
X71067637Y-67983587D01*
X70969498Y-67968043D01*
X70871361Y-67952500D01*
X70672639Y-67952500D01*
X70607214Y-67962862D01*
X70476362Y-67983587D01*
X70287370Y-68044993D01*
X70287367Y-68044994D01*
X70110305Y-68135213D01*
X69949533Y-68252021D01*
X69809021Y-68392533D01*
X69692213Y-68553305D01*
X69612485Y-68709780D01*
X69564510Y-68760576D01*
X69496689Y-68777371D01*
X69430554Y-68754833D01*
X69391515Y-68709780D01*
X69311786Y-68553305D01*
X69194981Y-68392536D01*
X69054464Y-68252019D01*
X68893694Y-68135213D01*
X68880223Y-68128349D01*
X68716632Y-68044994D01*
X68716629Y-68044993D01*
X68527637Y-67983587D01*
X68429498Y-67968043D01*
X68331361Y-67952500D01*
X68132639Y-67952500D01*
X68067214Y-67962862D01*
X67936362Y-67983587D01*
X67747370Y-68044993D01*
X67747367Y-68044994D01*
X67570305Y-68135213D01*
X67409533Y-68252021D01*
X67269021Y-68392533D01*
X67152213Y-68553305D01*
X67061994Y-68730367D01*
X67061993Y-68730370D01*
X67000587Y-68919362D01*
X66969500Y-69115639D01*
X41857375Y-69115639D01*
X41861057Y-69108412D01*
X41926746Y-68906243D01*
X41960000Y-68696287D01*
X41960000Y-68483713D01*
X41926746Y-68273757D01*
X41861057Y-68071588D01*
X41764551Y-67882184D01*
X41764549Y-67882181D01*
X41764548Y-67882179D01*
X41639609Y-67710213D01*
X41489286Y-67559890D01*
X41317320Y-67434951D01*
X41316615Y-67434591D01*
X41308554Y-67430485D01*
X41257759Y-67382512D01*
X41240963Y-67314692D01*
X41263499Y-67248556D01*
X41308554Y-67209515D01*
X41317316Y-67205051D01*
X41339289Y-67189086D01*
X41489286Y-67080109D01*
X41489288Y-67080106D01*
X41489292Y-67080104D01*
X41639604Y-66929792D01*
X41639606Y-66929788D01*
X41639609Y-66929786D01*
X41764548Y-66757820D01*
X41764547Y-66757820D01*
X41764551Y-66757816D01*
X41861057Y-66568412D01*
X41926746Y-66366243D01*
X41960000Y-66156287D01*
X41960000Y-65943713D01*
X41926746Y-65733757D01*
X41861057Y-65531588D01*
X41764551Y-65342184D01*
X41764549Y-65342181D01*
X41764548Y-65342179D01*
X41639609Y-65170213D01*
X41489286Y-65019890D01*
X41317320Y-64894951D01*
X41316615Y-64894591D01*
X41308554Y-64890485D01*
X41257759Y-64842512D01*
X41240963Y-64774692D01*
X41263499Y-64708556D01*
X41308554Y-64669515D01*
X41317316Y-64665051D01*
X41339289Y-64649086D01*
X41489286Y-64540109D01*
X41489288Y-64540106D01*
X41489292Y-64540104D01*
X41639604Y-64389792D01*
X41639606Y-64389788D01*
X41639609Y-64389786D01*
X41752557Y-64234324D01*
X56530099Y-64234324D01*
X56564950Y-64409527D01*
X56564952Y-64409533D01*
X56633314Y-64574575D01*
X56633319Y-64574584D01*
X56732564Y-64723114D01*
X56732567Y-64723118D01*
X56858881Y-64849432D01*
X56858885Y-64849435D01*
X57007415Y-64948680D01*
X57007421Y-64948683D01*
X57007422Y-64948684D01*
X57172467Y-65017048D01*
X57172471Y-65017048D01*
X57172472Y-65017049D01*
X57347675Y-65051900D01*
X57347678Y-65051900D01*
X57526324Y-65051900D01*
X57687245Y-65019890D01*
X57701533Y-65017048D01*
X57866578Y-64948684D01*
X58015115Y-64849435D01*
X58141435Y-64723115D01*
X58240684Y-64574578D01*
X58309048Y-64409533D01*
X58343900Y-64234322D01*
X58343900Y-64055678D01*
X58343900Y-64055675D01*
X58309049Y-63880472D01*
X58309048Y-63880471D01*
X58309048Y-63880467D01*
X58240684Y-63715422D01*
X58240683Y-63715421D01*
X58240680Y-63715415D01*
X58141435Y-63566885D01*
X58141432Y-63566881D01*
X58015118Y-63440567D01*
X58015114Y-63440564D01*
X57866584Y-63341319D01*
X57866575Y-63341314D01*
X57701533Y-63272952D01*
X57701527Y-63272950D01*
X57526324Y-63238100D01*
X57526322Y-63238100D01*
X57347678Y-63238100D01*
X57347676Y-63238100D01*
X57172472Y-63272950D01*
X57172466Y-63272952D01*
X57007424Y-63341314D01*
X57007415Y-63341319D01*
X56858885Y-63440564D01*
X56858881Y-63440567D01*
X56732567Y-63566881D01*
X56732564Y-63566885D01*
X56633319Y-63715415D01*
X56633314Y-63715424D01*
X56564952Y-63880466D01*
X56564950Y-63880472D01*
X56530100Y-64055675D01*
X56530100Y-64055678D01*
X56530100Y-64234322D01*
X56530100Y-64234324D01*
X56530099Y-64234324D01*
X41752557Y-64234324D01*
X41764548Y-64217820D01*
X41764547Y-64217820D01*
X41764551Y-64217816D01*
X41861057Y-64028412D01*
X41926746Y-63826243D01*
X41960000Y-63616287D01*
X41960000Y-63403713D01*
X41926746Y-63193757D01*
X41861057Y-62991588D01*
X41764551Y-62802184D01*
X41764549Y-62802181D01*
X41764548Y-62802179D01*
X41639609Y-62630213D01*
X41489286Y-62479890D01*
X41317320Y-62354951D01*
X41316615Y-62354591D01*
X41308554Y-62350485D01*
X41257759Y-62302512D01*
X41240963Y-62234692D01*
X41263499Y-62168556D01*
X41308554Y-62129515D01*
X41317316Y-62125051D01*
X41339289Y-62109086D01*
X41489286Y-62000109D01*
X41489288Y-62000106D01*
X41489292Y-62000104D01*
X41639604Y-61849792D01*
X41639606Y-61849788D01*
X41639609Y-61849786D01*
X41764548Y-61677820D01*
X41764547Y-61677820D01*
X41764551Y-61677816D01*
X41861057Y-61488412D01*
X41926746Y-61286243D01*
X41960000Y-61076287D01*
X41960000Y-60863713D01*
X41926746Y-60653757D01*
X41861057Y-60451588D01*
X41847165Y-60424324D01*
X53037599Y-60424324D01*
X53072450Y-60599527D01*
X53072452Y-60599533D01*
X53140814Y-60764575D01*
X53140819Y-60764584D01*
X53240064Y-60913114D01*
X53240067Y-60913118D01*
X53366381Y-61039432D01*
X53366385Y-61039435D01*
X53514915Y-61138680D01*
X53514921Y-61138683D01*
X53514922Y-61138684D01*
X53679967Y-61207048D01*
X53679971Y-61207048D01*
X53679972Y-61207049D01*
X53855175Y-61241900D01*
X53855178Y-61241900D01*
X54033824Y-61241900D01*
X54151698Y-61218452D01*
X54209033Y-61207048D01*
X54374078Y-61138684D01*
X54522615Y-61039435D01*
X54648935Y-60913115D01*
X54748184Y-60764578D01*
X54816548Y-60599533D01*
X54834686Y-60508349D01*
X54851400Y-60424324D01*
X54851400Y-60245675D01*
X54816549Y-60070472D01*
X54816548Y-60070471D01*
X54816548Y-60070467D01*
X54748184Y-59905422D01*
X54748183Y-59905421D01*
X54748180Y-59905415D01*
X54648935Y-59756885D01*
X54648932Y-59756881D01*
X54522618Y-59630567D01*
X54522614Y-59630564D01*
X54374084Y-59531319D01*
X54374075Y-59531314D01*
X54209033Y-59462952D01*
X54209027Y-59462950D01*
X54033824Y-59428100D01*
X54033822Y-59428100D01*
X53855178Y-59428100D01*
X53855176Y-59428100D01*
X53679972Y-59462950D01*
X53679966Y-59462952D01*
X53514924Y-59531314D01*
X53514915Y-59531319D01*
X53366385Y-59630564D01*
X53366381Y-59630567D01*
X53240067Y-59756881D01*
X53240064Y-59756885D01*
X53140819Y-59905415D01*
X53140814Y-59905424D01*
X53072452Y-60070466D01*
X53072450Y-60070472D01*
X53037600Y-60245675D01*
X53037600Y-60245678D01*
X53037600Y-60424322D01*
X53037600Y-60424324D01*
X53037599Y-60424324D01*
X41847165Y-60424324D01*
X41764551Y-60262184D01*
X41764550Y-60262182D01*
X41639609Y-60090213D01*
X41489286Y-59939890D01*
X41317320Y-59814951D01*
X41316615Y-59814591D01*
X41308554Y-59810485D01*
X41257759Y-59762512D01*
X41240963Y-59694692D01*
X41263499Y-59628556D01*
X41308554Y-59589515D01*
X41317316Y-59585051D01*
X41339289Y-59569086D01*
X41489286Y-59460109D01*
X41489288Y-59460106D01*
X41489292Y-59460104D01*
X41639604Y-59309792D01*
X41639606Y-59309788D01*
X41639609Y-59309786D01*
X41764548Y-59137820D01*
X41764547Y-59137820D01*
X41764551Y-59137816D01*
X41861057Y-58948412D01*
X41926746Y-58746243D01*
X41960000Y-58536287D01*
X41960000Y-58323713D01*
X41926746Y-58113757D01*
X41861057Y-57911588D01*
X41764551Y-57722184D01*
X41764549Y-57722181D01*
X41764548Y-57722179D01*
X41639609Y-57550213D01*
X41489286Y-57399890D01*
X41317320Y-57274951D01*
X41316615Y-57274591D01*
X41308554Y-57270485D01*
X41257759Y-57222512D01*
X41240963Y-57154692D01*
X41263499Y-57088556D01*
X41308554Y-57049515D01*
X41317316Y-57045051D01*
X41364094Y-57011065D01*
X41489286Y-56920109D01*
X41489288Y-56920106D01*
X41489292Y-56920104D01*
X41639604Y-56769792D01*
X41639606Y-56769788D01*
X41639609Y-56769786D01*
X41764548Y-56597820D01*
X41764547Y-56597820D01*
X41764551Y-56597816D01*
X41861057Y-56408412D01*
X41926746Y-56206243D01*
X41960000Y-55996287D01*
X41960000Y-55783713D01*
X41926746Y-55573757D01*
X41861057Y-55371588D01*
X41764551Y-55182184D01*
X41764549Y-55182181D01*
X41764548Y-55182179D01*
X41639609Y-55010213D01*
X41489286Y-54859890D01*
X41317320Y-54734951D01*
X41316615Y-54734591D01*
X41308554Y-54730485D01*
X41257759Y-54682512D01*
X41240963Y-54614692D01*
X41263499Y-54548556D01*
X41308554Y-54509515D01*
X41317316Y-54505051D01*
X41363936Y-54471180D01*
X41489286Y-54380109D01*
X41489288Y-54380106D01*
X41489292Y-54380104D01*
X41639604Y-54229792D01*
X41639606Y-54229788D01*
X41639609Y-54229786D01*
X41764548Y-54057820D01*
X41764547Y-54057820D01*
X41764551Y-54057816D01*
X41861057Y-53868412D01*
X41897314Y-53756824D01*
X56530099Y-53756824D01*
X56564950Y-53932027D01*
X56564952Y-53932033D01*
X56633314Y-54097075D01*
X56633319Y-54097084D01*
X56732564Y-54245614D01*
X56732567Y-54245618D01*
X56858881Y-54371932D01*
X56858885Y-54371935D01*
X57007415Y-54471180D01*
X57007421Y-54471183D01*
X57007422Y-54471184D01*
X57172467Y-54539548D01*
X57172471Y-54539548D01*
X57172472Y-54539549D01*
X57347675Y-54574400D01*
X57347678Y-54574400D01*
X57526324Y-54574400D01*
X57656247Y-54548556D01*
X57701533Y-54539548D01*
X57866578Y-54471184D01*
X58015115Y-54371935D01*
X58141435Y-54245615D01*
X58240684Y-54097078D01*
X58309048Y-53932033D01*
X58343900Y-53756822D01*
X58343900Y-53578178D01*
X58343900Y-53578175D01*
X58309049Y-53402972D01*
X58309048Y-53402971D01*
X58309048Y-53402967D01*
X58240684Y-53237922D01*
X58240683Y-53237921D01*
X58240680Y-53237915D01*
X58141435Y-53089385D01*
X58141432Y-53089381D01*
X58015118Y-52963067D01*
X58015114Y-52963064D01*
X57866584Y-52863819D01*
X57866575Y-52863814D01*
X57701533Y-52795452D01*
X57701527Y-52795450D01*
X57526324Y-52760600D01*
X57526322Y-52760600D01*
X57347678Y-52760600D01*
X57347676Y-52760600D01*
X57172472Y-52795450D01*
X57172466Y-52795452D01*
X57007424Y-52863814D01*
X57007415Y-52863819D01*
X56858885Y-52963064D01*
X56858881Y-52963067D01*
X56732567Y-53089381D01*
X56732564Y-53089385D01*
X56633319Y-53237915D01*
X56633314Y-53237924D01*
X56564952Y-53402966D01*
X56564950Y-53402972D01*
X56530100Y-53578175D01*
X56530100Y-53578178D01*
X56530100Y-53756822D01*
X56530100Y-53756824D01*
X56530099Y-53756824D01*
X41897314Y-53756824D01*
X41926746Y-53666243D01*
X41960000Y-53456287D01*
X41960000Y-53243713D01*
X41926746Y-53033757D01*
X41861057Y-52831588D01*
X41764551Y-52642184D01*
X41764549Y-52642181D01*
X41764548Y-52642179D01*
X41639609Y-52470213D01*
X41489286Y-52319890D01*
X41317320Y-52194951D01*
X41316615Y-52194591D01*
X41308554Y-52190485D01*
X41257759Y-52142512D01*
X41240963Y-52074692D01*
X41263499Y-52008556D01*
X41308554Y-51969515D01*
X41317316Y-51965051D01*
X41364094Y-51931065D01*
X41489286Y-51840109D01*
X41489288Y-51840106D01*
X41489292Y-51840104D01*
X41639604Y-51689792D01*
X41639606Y-51689788D01*
X41639609Y-51689786D01*
X41764548Y-51517820D01*
X41764547Y-51517820D01*
X41764551Y-51517816D01*
X41861057Y-51328412D01*
X41926746Y-51126243D01*
X41960000Y-50916287D01*
X41960000Y-50703713D01*
X41926746Y-50493757D01*
X41861057Y-50291588D01*
X41764551Y-50102184D01*
X41764549Y-50102181D01*
X41764548Y-50102179D01*
X41651677Y-49946824D01*
X52972599Y-49946824D01*
X53007450Y-50122027D01*
X53007452Y-50122033D01*
X53075814Y-50287075D01*
X53075819Y-50287084D01*
X53175064Y-50435614D01*
X53175067Y-50435618D01*
X53301381Y-50561932D01*
X53301385Y-50561935D01*
X53449915Y-50661180D01*
X53449921Y-50661183D01*
X53449922Y-50661184D01*
X53614967Y-50729548D01*
X53614971Y-50729548D01*
X53614972Y-50729549D01*
X53790175Y-50764400D01*
X53790178Y-50764400D01*
X53968824Y-50764400D01*
X54086698Y-50740952D01*
X54144033Y-50729548D01*
X54309078Y-50661184D01*
X54457615Y-50561935D01*
X54583935Y-50435615D01*
X54683184Y-50287078D01*
X54751548Y-50122033D01*
X54765034Y-50054234D01*
X54786400Y-49946824D01*
X54786400Y-49768175D01*
X54751549Y-49592972D01*
X54751548Y-49592971D01*
X54751548Y-49592967D01*
X54683844Y-49429516D01*
X54683185Y-49427924D01*
X54683180Y-49427915D01*
X54583935Y-49279385D01*
X54583932Y-49279381D01*
X54457618Y-49153067D01*
X54457614Y-49153064D01*
X54309084Y-49053819D01*
X54309075Y-49053814D01*
X54144033Y-48985452D01*
X54144027Y-48985450D01*
X53968824Y-48950600D01*
X53968822Y-48950600D01*
X53790178Y-48950600D01*
X53790176Y-48950600D01*
X53614972Y-48985450D01*
X53614966Y-48985452D01*
X53449924Y-49053814D01*
X53449915Y-49053819D01*
X53301385Y-49153064D01*
X53301381Y-49153067D01*
X53175067Y-49279381D01*
X53175064Y-49279385D01*
X53075819Y-49427915D01*
X53075814Y-49427924D01*
X53007452Y-49592966D01*
X53007450Y-49592972D01*
X52972600Y-49768175D01*
X52972600Y-49768178D01*
X52972600Y-49946822D01*
X52972600Y-49946824D01*
X52972599Y-49946824D01*
X41651677Y-49946824D01*
X41639609Y-49930213D01*
X41489286Y-49779890D01*
X41317320Y-49654951D01*
X41316615Y-49654591D01*
X41308554Y-49650485D01*
X41257759Y-49602512D01*
X41240963Y-49534692D01*
X41263499Y-49468556D01*
X41308554Y-49429515D01*
X41317316Y-49425051D01*
X41395316Y-49368381D01*
X41489286Y-49300109D01*
X41489288Y-49300106D01*
X41489292Y-49300104D01*
X41639604Y-49149792D01*
X41639606Y-49149788D01*
X41639609Y-49149786D01*
X41764548Y-48977820D01*
X41764547Y-48977820D01*
X41764551Y-48977816D01*
X41861057Y-48788412D01*
X41926746Y-48586243D01*
X41960000Y-48376287D01*
X41960000Y-48163713D01*
X41926746Y-47953757D01*
X41861057Y-47751588D01*
X41764551Y-47562184D01*
X41764549Y-47562181D01*
X41764548Y-47562179D01*
X41639609Y-47390213D01*
X41489286Y-47239890D01*
X41317320Y-47114951D01*
X41316615Y-47114591D01*
X41308554Y-47110485D01*
X41257759Y-47062512D01*
X41240963Y-46994692D01*
X41263499Y-46928556D01*
X41308554Y-46889515D01*
X41317316Y-46885051D01*
X41351495Y-46860219D01*
X41489286Y-46760109D01*
X41489288Y-46760106D01*
X41489292Y-46760104D01*
X41639604Y-46609792D01*
X41639606Y-46609788D01*
X41639609Y-46609786D01*
X41764548Y-46437820D01*
X41764547Y-46437820D01*
X41764551Y-46437816D01*
X41857375Y-46255639D01*
X66969500Y-46255639D01*
X66969500Y-46454360D01*
X67000587Y-46650637D01*
X67061993Y-46839629D01*
X67061994Y-46839632D01*
X67152213Y-47016694D01*
X67269019Y-47177464D01*
X67409536Y-47317981D01*
X67570306Y-47434787D01*
X67727332Y-47514796D01*
X67778127Y-47562769D01*
X67794922Y-47630590D01*
X67772385Y-47696725D01*
X67727332Y-47735764D01*
X67570566Y-47815641D01*
X67533283Y-47842729D01*
X67533282Y-47842730D01*
X68096058Y-48405504D01*
X68035919Y-48421619D01*
X67920080Y-48488498D01*
X67825498Y-48583080D01*
X67758619Y-48698919D01*
X67742504Y-48759057D01*
X67179730Y-48196282D01*
X67179729Y-48196283D01*
X67152643Y-48233564D01*
X67062457Y-48410562D01*
X67001075Y-48599476D01*
X67001075Y-48599479D01*
X66970000Y-48795678D01*
X66970000Y-48994321D01*
X67001075Y-49190520D01*
X67001075Y-49190523D01*
X67062457Y-49379437D01*
X67152641Y-49556432D01*
X67179730Y-49593715D01*
X67179731Y-49593716D01*
X67742504Y-49030942D01*
X67758619Y-49091081D01*
X67825498Y-49206920D01*
X67920080Y-49301502D01*
X68035919Y-49368381D01*
X68096057Y-49384494D01*
X67533283Y-49947268D01*
X67533283Y-49947269D01*
X67570567Y-49974358D01*
X67727331Y-50054234D01*
X67778127Y-50102209D01*
X67794922Y-50170030D01*
X67772384Y-50236165D01*
X67727331Y-50275204D01*
X67570305Y-50355213D01*
X67409533Y-50472021D01*
X67269021Y-50612533D01*
X67152213Y-50773305D01*
X67061994Y-50950367D01*
X67061993Y-50950370D01*
X67000587Y-51139362D01*
X66969500Y-51335639D01*
X66969500Y-51534360D01*
X67000587Y-51730637D01*
X67061993Y-51919629D01*
X67061994Y-51919632D01*
X67152213Y-52096694D01*
X67269019Y-52257464D01*
X67409536Y-52397981D01*
X67570306Y-52514787D01*
X67688832Y-52575179D01*
X67726780Y-52594515D01*
X67777576Y-52642490D01*
X67794371Y-52710311D01*
X67771833Y-52776446D01*
X67726780Y-52815485D01*
X67570305Y-52895213D01*
X67409533Y-53012021D01*
X67269021Y-53152533D01*
X67152213Y-53313305D01*
X67061994Y-53490367D01*
X67061993Y-53490370D01*
X67000587Y-53679362D01*
X66969500Y-53875639D01*
X66969500Y-54074360D01*
X67000587Y-54270637D01*
X67061993Y-54459629D01*
X67061994Y-54459632D01*
X67152213Y-54636694D01*
X67269019Y-54797464D01*
X67409536Y-54937981D01*
X67570306Y-55054787D01*
X67688832Y-55115179D01*
X67726780Y-55134515D01*
X67777576Y-55182490D01*
X67794371Y-55250311D01*
X67771833Y-55316446D01*
X67726780Y-55355485D01*
X67570305Y-55435213D01*
X67409533Y-55552021D01*
X67269021Y-55692533D01*
X67152213Y-55853305D01*
X67061994Y-56030367D01*
X67061993Y-56030370D01*
X67000587Y-56219362D01*
X66969500Y-56415639D01*
X66969500Y-56614360D01*
X67000587Y-56810637D01*
X67061993Y-56999629D01*
X67061994Y-56999632D01*
X67152213Y-57176694D01*
X67269019Y-57337464D01*
X67409536Y-57477981D01*
X67409539Y-57477983D01*
X67533687Y-57568182D01*
X67576353Y-57623512D01*
X67582332Y-57693125D01*
X67549726Y-57754920D01*
X67488888Y-57789277D01*
X67460805Y-57792500D01*
X67422131Y-57792500D01*
X67422123Y-57792501D01*
X67362516Y-57798908D01*
X67227671Y-57849202D01*
X67227664Y-57849206D01*
X67112455Y-57935452D01*
X67112452Y-57935455D01*
X67026206Y-58050664D01*
X67026202Y-58050671D01*
X66975908Y-58185517D01*
X66969501Y-58245116D01*
X66969501Y-58245123D01*
X66969500Y-58245135D01*
X66969500Y-59864870D01*
X66969501Y-59864876D01*
X66975908Y-59924483D01*
X67026202Y-60059328D01*
X67026206Y-60059335D01*
X67112452Y-60174544D01*
X67112455Y-60174547D01*
X67227664Y-60260793D01*
X67227671Y-60260797D01*
X67362517Y-60311091D01*
X67362516Y-60311091D01*
X67369444Y-60311835D01*
X67422127Y-60317500D01*
X69041872Y-60317499D01*
X69101483Y-60311091D01*
X69236331Y-60260796D01*
X69351546Y-60174546D01*
X69437796Y-60059331D01*
X69488091Y-59924483D01*
X69494500Y-59864873D01*
X69494499Y-59826197D01*
X69514182Y-59759161D01*
X69566985Y-59713405D01*
X69636143Y-59703460D01*
X69699699Y-59732483D01*
X69718817Y-59753312D01*
X69731993Y-59771447D01*
X69809019Y-59877464D01*
X69949536Y-60017981D01*
X70110306Y-60134787D01*
X70188333Y-60174544D01*
X70287367Y-60225005D01*
X70287370Y-60225006D01*
X70350984Y-60245675D01*
X70476364Y-60286413D01*
X70672639Y-60317500D01*
X70672640Y-60317500D01*
X70871360Y-60317500D01*
X70871361Y-60317500D01*
X71067636Y-60286413D01*
X71256632Y-60225005D01*
X71433694Y-60134787D01*
X71594464Y-60017981D01*
X71734981Y-59877464D01*
X71851787Y-59716694D01*
X71942005Y-59539632D01*
X72003413Y-59350636D01*
X72034500Y-59154361D01*
X72034500Y-58955639D01*
X72003413Y-58759364D01*
X71942005Y-58570368D01*
X71942005Y-58570367D01*
X71896035Y-58480149D01*
X71851787Y-58393306D01*
X71734981Y-58232536D01*
X71594464Y-58092019D01*
X71433694Y-57975213D01*
X71277218Y-57895484D01*
X71226423Y-57847510D01*
X71209628Y-57779689D01*
X71232165Y-57713554D01*
X71277218Y-57674515D01*
X71433694Y-57594787D01*
X71594464Y-57477981D01*
X71734981Y-57337464D01*
X71851787Y-57176694D01*
X71942005Y-56999632D01*
X72003413Y-56810636D01*
X72034500Y-56614361D01*
X72034500Y-56415639D01*
X72003413Y-56219364D01*
X71942005Y-56030368D01*
X71942005Y-56030367D01*
X71851786Y-55853305D01*
X71734981Y-55692536D01*
X71594464Y-55552019D01*
X71433694Y-55435213D01*
X71277218Y-55355484D01*
X71226423Y-55307510D01*
X71209628Y-55239689D01*
X71232165Y-55173554D01*
X71277218Y-55134515D01*
X71433694Y-55054787D01*
X71594464Y-54937981D01*
X71734981Y-54797464D01*
X71851787Y-54636694D01*
X71942005Y-54459632D01*
X72003413Y-54270636D01*
X72034500Y-54074361D01*
X72034500Y-53875639D01*
X72003413Y-53679364D01*
X71942005Y-53490368D01*
X71942005Y-53490367D01*
X71851786Y-53313305D01*
X71734981Y-53152536D01*
X71594464Y-53012019D01*
X71433694Y-52895213D01*
X71277218Y-52815484D01*
X71226423Y-52767510D01*
X71209628Y-52699689D01*
X71232165Y-52633554D01*
X71277218Y-52594515D01*
X71433694Y-52514787D01*
X71594464Y-52397981D01*
X71734981Y-52257464D01*
X71851787Y-52096694D01*
X71942005Y-51919632D01*
X72003413Y-51730636D01*
X72034500Y-51534361D01*
X72034500Y-51335639D01*
X72003413Y-51139364D01*
X71942005Y-50950368D01*
X71942005Y-50950367D01*
X71851786Y-50773305D01*
X71845316Y-50764400D01*
X71734981Y-50612536D01*
X71594464Y-50472019D01*
X71433694Y-50355213D01*
X71276667Y-50275203D01*
X71225872Y-50227229D01*
X71209077Y-50159408D01*
X71231614Y-50093273D01*
X71276669Y-50054234D01*
X71433422Y-49974364D01*
X71470715Y-49947268D01*
X70907942Y-49384494D01*
X70968081Y-49368381D01*
X71083920Y-49301502D01*
X71178502Y-49206920D01*
X71245381Y-49091081D01*
X71261495Y-49030942D01*
X71824268Y-49593715D01*
X71851362Y-49556425D01*
X71941542Y-49379437D01*
X72002924Y-49190523D01*
X72002924Y-49190520D01*
X72034000Y-48994321D01*
X72034000Y-48795678D01*
X72002924Y-48599479D01*
X72002924Y-48599476D01*
X71941542Y-48410562D01*
X71851358Y-48233567D01*
X71824268Y-48196283D01*
X71261494Y-48759057D01*
X71245381Y-48698919D01*
X71178502Y-48583080D01*
X71083920Y-48488498D01*
X70968081Y-48421619D01*
X70907942Y-48405504D01*
X71470716Y-47842731D01*
X71470715Y-47842730D01*
X71433432Y-47815641D01*
X71276668Y-47735765D01*
X71225872Y-47687790D01*
X71209077Y-47619969D01*
X71231615Y-47553834D01*
X71276667Y-47514796D01*
X71433694Y-47434787D01*
X71594464Y-47317981D01*
X71734981Y-47177464D01*
X71851787Y-47016694D01*
X71942005Y-46839632D01*
X72003413Y-46650636D01*
X72034500Y-46454361D01*
X72034500Y-46255639D01*
X72003413Y-46059364D01*
X71942005Y-45870368D01*
X71942005Y-45870367D01*
X71851786Y-45693305D01*
X71734981Y-45532536D01*
X71594464Y-45392019D01*
X71433694Y-45275213D01*
X71420223Y-45268349D01*
X71256632Y-45184994D01*
X71256629Y-45184993D01*
X71067637Y-45123587D01*
X70969498Y-45108043D01*
X70871361Y-45092500D01*
X70672639Y-45092500D01*
X70607214Y-45102862D01*
X70476362Y-45123587D01*
X70287370Y-45184993D01*
X70287367Y-45184994D01*
X70110305Y-45275213D01*
X69949533Y-45392021D01*
X69809021Y-45532533D01*
X69692213Y-45693305D01*
X69612485Y-45849780D01*
X69564510Y-45900576D01*
X69496689Y-45917371D01*
X69430554Y-45894833D01*
X69391515Y-45849780D01*
X69311786Y-45693305D01*
X69194981Y-45532536D01*
X69054464Y-45392019D01*
X68893694Y-45275213D01*
X68880223Y-45268349D01*
X68716632Y-45184994D01*
X68716629Y-45184993D01*
X68527637Y-45123587D01*
X68429498Y-45108043D01*
X68331361Y-45092500D01*
X68132639Y-45092500D01*
X68067214Y-45102862D01*
X67936362Y-45123587D01*
X67747370Y-45184993D01*
X67747367Y-45184994D01*
X67570305Y-45275213D01*
X67409533Y-45392021D01*
X67269021Y-45532533D01*
X67152213Y-45693305D01*
X67061994Y-45870367D01*
X67061993Y-45870370D01*
X67000587Y-46059362D01*
X66969500Y-46255639D01*
X41857375Y-46255639D01*
X41861057Y-46248412D01*
X41926746Y-46046243D01*
X41960000Y-45836287D01*
X41960000Y-45623713D01*
X41926746Y-45413757D01*
X41861057Y-45211588D01*
X41764551Y-45022184D01*
X41764549Y-45022181D01*
X41764548Y-45022179D01*
X41639609Y-44850213D01*
X41489286Y-44699890D01*
X41317320Y-44574951D01*
X41316615Y-44574591D01*
X41308554Y-44570485D01*
X41257759Y-44522512D01*
X41240963Y-44454692D01*
X41263499Y-44388556D01*
X41308554Y-44349515D01*
X41317316Y-44345051D01*
X41339289Y-44329086D01*
X41489286Y-44220109D01*
X41489288Y-44220106D01*
X41489292Y-44220104D01*
X41639604Y-44069792D01*
X41639606Y-44069788D01*
X41639609Y-44069786D01*
X41764548Y-43897820D01*
X41764547Y-43897820D01*
X41764551Y-43897816D01*
X41861057Y-43708412D01*
X41926746Y-43506243D01*
X41960000Y-43296287D01*
X41960000Y-43279324D01*
X56595099Y-43279324D01*
X56629950Y-43454527D01*
X56629952Y-43454533D01*
X56698314Y-43619575D01*
X56698319Y-43619584D01*
X56797564Y-43768114D01*
X56797567Y-43768118D01*
X56923881Y-43894432D01*
X56923885Y-43894435D01*
X57072415Y-43993680D01*
X57072421Y-43993683D01*
X57072422Y-43993684D01*
X57237467Y-44062048D01*
X57237471Y-44062048D01*
X57237472Y-44062049D01*
X57412675Y-44096900D01*
X57412678Y-44096900D01*
X57591324Y-44096900D01*
X57709198Y-44073452D01*
X57766533Y-44062048D01*
X57931578Y-43993684D01*
X58080115Y-43894435D01*
X58206435Y-43768115D01*
X58305684Y-43619578D01*
X58374048Y-43454533D01*
X58385452Y-43397198D01*
X58408900Y-43279324D01*
X58408900Y-43100675D01*
X58374049Y-42925472D01*
X58374048Y-42925471D01*
X58374048Y-42925467D01*
X58313141Y-42778424D01*
X58305685Y-42760424D01*
X58305680Y-42760415D01*
X58206435Y-42611885D01*
X58206432Y-42611881D01*
X58080118Y-42485567D01*
X58080114Y-42485564D01*
X57931584Y-42386319D01*
X57931575Y-42386314D01*
X57766533Y-42317952D01*
X57766527Y-42317950D01*
X57591324Y-42283100D01*
X57591322Y-42283100D01*
X57412678Y-42283100D01*
X57412676Y-42283100D01*
X57237472Y-42317950D01*
X57237466Y-42317952D01*
X57072424Y-42386314D01*
X57072415Y-42386319D01*
X56923885Y-42485564D01*
X56923881Y-42485567D01*
X56797567Y-42611881D01*
X56797564Y-42611885D01*
X56698319Y-42760415D01*
X56698314Y-42760424D01*
X56629952Y-42925466D01*
X56629950Y-42925472D01*
X56595100Y-43100675D01*
X56595100Y-43100678D01*
X56595100Y-43279322D01*
X56595100Y-43279324D01*
X56595099Y-43279324D01*
X41960000Y-43279324D01*
X41960000Y-43083713D01*
X41926746Y-42873757D01*
X41861057Y-42671588D01*
X41764551Y-42482184D01*
X41764549Y-42482181D01*
X41764548Y-42482179D01*
X41639609Y-42310213D01*
X41489286Y-42159890D01*
X41317320Y-42034951D01*
X41316615Y-42034591D01*
X41308554Y-42030485D01*
X41257759Y-41982512D01*
X41240963Y-41914692D01*
X41263499Y-41848556D01*
X41308554Y-41809515D01*
X41317316Y-41805051D01*
X41339289Y-41789086D01*
X41489286Y-41680109D01*
X41489288Y-41680106D01*
X41489292Y-41680104D01*
X41639604Y-41529792D01*
X41639606Y-41529788D01*
X41639609Y-41529786D01*
X41764548Y-41357820D01*
X41764547Y-41357820D01*
X41764551Y-41357816D01*
X41861057Y-41168412D01*
X41926746Y-40966243D01*
X41960000Y-40756287D01*
X41960000Y-40543713D01*
X41926746Y-40333757D01*
X41861057Y-40131588D01*
X41764551Y-39942184D01*
X41764549Y-39942181D01*
X41764548Y-39942179D01*
X41639609Y-39770213D01*
X41489286Y-39619890D01*
X41317320Y-39494951D01*
X41267024Y-39469324D01*
X53102599Y-39469324D01*
X53137450Y-39644527D01*
X53137452Y-39644533D01*
X53205814Y-39809575D01*
X53205819Y-39809584D01*
X53305064Y-39958114D01*
X53305067Y-39958118D01*
X53431381Y-40084432D01*
X53431385Y-40084435D01*
X53579915Y-40183680D01*
X53579921Y-40183683D01*
X53579922Y-40183684D01*
X53744967Y-40252048D01*
X53744971Y-40252048D01*
X53744972Y-40252049D01*
X53920175Y-40286900D01*
X53920178Y-40286900D01*
X54098824Y-40286900D01*
X54216698Y-40263452D01*
X54274033Y-40252048D01*
X54439078Y-40183684D01*
X54587615Y-40084435D01*
X54713935Y-39958115D01*
X54813184Y-39809578D01*
X54881548Y-39644533D01*
X54911302Y-39494951D01*
X54916400Y-39469324D01*
X54916400Y-39290675D01*
X54881549Y-39115472D01*
X54881548Y-39115471D01*
X54881548Y-39115467D01*
X54813184Y-38950422D01*
X54813183Y-38950421D01*
X54813180Y-38950415D01*
X54713935Y-38801885D01*
X54713932Y-38801881D01*
X54587618Y-38675567D01*
X54587614Y-38675564D01*
X54439084Y-38576319D01*
X54439075Y-38576314D01*
X54274033Y-38507952D01*
X54274027Y-38507950D01*
X54098824Y-38473100D01*
X54098822Y-38473100D01*
X53920178Y-38473100D01*
X53920176Y-38473100D01*
X53744972Y-38507950D01*
X53744966Y-38507952D01*
X53579924Y-38576314D01*
X53579915Y-38576319D01*
X53431385Y-38675564D01*
X53431381Y-38675567D01*
X53305067Y-38801881D01*
X53305064Y-38801885D01*
X53205819Y-38950415D01*
X53205814Y-38950424D01*
X53137452Y-39115466D01*
X53137450Y-39115472D01*
X53102600Y-39290675D01*
X53102600Y-39290678D01*
X53102600Y-39469322D01*
X53102600Y-39469324D01*
X53102599Y-39469324D01*
X41267024Y-39469324D01*
X41127916Y-39398445D01*
X41127912Y-39398443D01*
X40925743Y-39332754D01*
X40925741Y-39332753D01*
X40925740Y-39332753D01*
X40764457Y-39307208D01*
X40715787Y-39299500D01*
X40503213Y-39299500D01*
X40454542Y-39307208D01*
X40293260Y-39332753D01*
X40091085Y-39398444D01*
X39901679Y-39494951D01*
X39729713Y-39619890D01*
X39579390Y-39770213D01*
X39454449Y-39942182D01*
X39449984Y-39950946D01*
X39402009Y-40001742D01*
X39334188Y-40018536D01*
X39268053Y-39995998D01*
X39229016Y-39950946D01*
X39224550Y-39942182D01*
X39099609Y-39770213D01*
X38949286Y-39619890D01*
X38777320Y-39494951D01*
X38587914Y-39398444D01*
X38587913Y-39398443D01*
X38587912Y-39398443D01*
X38385743Y-39332754D01*
X38385741Y-39332753D01*
X38385740Y-39332753D01*
X38224457Y-39307208D01*
X38175787Y-39299500D01*
X37963213Y-39299500D01*
X37914542Y-39307208D01*
X37753260Y-39332753D01*
X37551085Y-39398444D01*
X37361679Y-39494951D01*
X37189713Y-39619890D01*
X37039390Y-39770213D01*
X36914451Y-39942179D01*
X36817944Y-40131585D01*
X36752253Y-40333760D01*
X36719000Y-40543713D01*
X32101000Y-40543713D01*
X32101000Y-32255500D01*
X32120685Y-32188461D01*
X32173489Y-32142706D01*
X32225000Y-32131500D01*
X56891384Y-32131500D01*
X56958423Y-32151185D01*
G37*
%TD.AperFunction*%
%TD*%
M02*
