%TF.GenerationSoftware,KiCad,Pcbnew,9.0.0-9.0.0-2~ubuntu24.04.1*%
%TF.CreationDate,2025-03-20T00:33:01-04:00*%
%TF.ProjectId,LVDS-PMOD,4c564453-2d50-44d4-9f44-2e6b69636164,1*%
%TF.SameCoordinates,Original*%
%TF.FileFunction,Legend,Top*%
%TF.FilePolarity,Positive*%
%FSLAX46Y46*%
G04 Gerber Fmt 4.6, Leading zero omitted, Abs format (unit mm)*
G04 Created by KiCad (PCBNEW 9.0.0-9.0.0-2~ubuntu24.04.1) date 2025-03-20 00:33:01*
%MOMM*%
%LPD*%
G01*
G04 APERTURE LIST*
%ADD10C,0.177800*%
%ADD11C,0.150000*%
%ADD12C,0.200000*%
%ADD13C,0.250000*%
%ADD14C,0.254000*%
%ADD15C,0.120000*%
%ADD16C,0.500000*%
%ADD17C,0.304800*%
G04 APERTURE END LIST*
D10*
X46264285Y-86233466D02*
X45659523Y-86233466D01*
X45659523Y-86233466D02*
X45659523Y-84963466D01*
X46506190Y-84963466D02*
X46929523Y-86233466D01*
X46929523Y-86233466D02*
X47352857Y-84963466D01*
X47776189Y-86233466D02*
X47776189Y-84963466D01*
X47776189Y-84963466D02*
X48078570Y-84963466D01*
X48078570Y-84963466D02*
X48259999Y-85023942D01*
X48259999Y-85023942D02*
X48380951Y-85144894D01*
X48380951Y-85144894D02*
X48441428Y-85265847D01*
X48441428Y-85265847D02*
X48501904Y-85507751D01*
X48501904Y-85507751D02*
X48501904Y-85689180D01*
X48501904Y-85689180D02*
X48441428Y-85931085D01*
X48441428Y-85931085D02*
X48380951Y-86052037D01*
X48380951Y-86052037D02*
X48259999Y-86172990D01*
X48259999Y-86172990D02*
X48078570Y-86233466D01*
X48078570Y-86233466D02*
X47776189Y-86233466D01*
X48985713Y-86172990D02*
X49167142Y-86233466D01*
X49167142Y-86233466D02*
X49469523Y-86233466D01*
X49469523Y-86233466D02*
X49590475Y-86172990D01*
X49590475Y-86172990D02*
X49650951Y-86112513D01*
X49650951Y-86112513D02*
X49711428Y-85991561D01*
X49711428Y-85991561D02*
X49711428Y-85870609D01*
X49711428Y-85870609D02*
X49650951Y-85749656D01*
X49650951Y-85749656D02*
X49590475Y-85689180D01*
X49590475Y-85689180D02*
X49469523Y-85628704D01*
X49469523Y-85628704D02*
X49227618Y-85568228D01*
X49227618Y-85568228D02*
X49106666Y-85507751D01*
X49106666Y-85507751D02*
X49046189Y-85447275D01*
X49046189Y-85447275D02*
X48985713Y-85326323D01*
X48985713Y-85326323D02*
X48985713Y-85205370D01*
X48985713Y-85205370D02*
X49046189Y-85084418D01*
X49046189Y-85084418D02*
X49106666Y-85023942D01*
X49106666Y-85023942D02*
X49227618Y-84963466D01*
X49227618Y-84963466D02*
X49529999Y-84963466D01*
X49529999Y-84963466D02*
X49711428Y-85023942D01*
X52069999Y-86354418D02*
X51949047Y-86293942D01*
X51949047Y-86293942D02*
X51828094Y-86172990D01*
X51828094Y-86172990D02*
X51646666Y-85991561D01*
X51646666Y-85991561D02*
X51525713Y-85931085D01*
X51525713Y-85931085D02*
X51404761Y-85931085D01*
X51465237Y-86233466D02*
X51344285Y-86172990D01*
X51344285Y-86172990D02*
X51223332Y-86052037D01*
X51223332Y-86052037D02*
X51162856Y-85810132D01*
X51162856Y-85810132D02*
X51162856Y-85386799D01*
X51162856Y-85386799D02*
X51223332Y-85144894D01*
X51223332Y-85144894D02*
X51344285Y-85023942D01*
X51344285Y-85023942D02*
X51465237Y-84963466D01*
X51465237Y-84963466D02*
X51707142Y-84963466D01*
X51707142Y-84963466D02*
X51828094Y-85023942D01*
X51828094Y-85023942D02*
X51949047Y-85144894D01*
X51949047Y-85144894D02*
X52009523Y-85386799D01*
X52009523Y-85386799D02*
X52009523Y-85810132D01*
X52009523Y-85810132D02*
X51949047Y-86052037D01*
X51949047Y-86052037D02*
X51828094Y-86172990D01*
X51828094Y-86172990D02*
X51707142Y-86233466D01*
X51707142Y-86233466D02*
X51465237Y-86233466D01*
X53098094Y-85386799D02*
X53098094Y-86233466D01*
X52553808Y-85386799D02*
X52553808Y-86052037D01*
X52553808Y-86052037D02*
X52614285Y-86172990D01*
X52614285Y-86172990D02*
X52735237Y-86233466D01*
X52735237Y-86233466D02*
X52916666Y-86233466D01*
X52916666Y-86233466D02*
X53037618Y-86172990D01*
X53037618Y-86172990D02*
X53098094Y-86112513D01*
X54247142Y-86233466D02*
X54247142Y-85568228D01*
X54247142Y-85568228D02*
X54186666Y-85447275D01*
X54186666Y-85447275D02*
X54065714Y-85386799D01*
X54065714Y-85386799D02*
X53823809Y-85386799D01*
X53823809Y-85386799D02*
X53702856Y-85447275D01*
X54247142Y-86172990D02*
X54126190Y-86233466D01*
X54126190Y-86233466D02*
X53823809Y-86233466D01*
X53823809Y-86233466D02*
X53702856Y-86172990D01*
X53702856Y-86172990D02*
X53642380Y-86052037D01*
X53642380Y-86052037D02*
X53642380Y-85931085D01*
X53642380Y-85931085D02*
X53702856Y-85810132D01*
X53702856Y-85810132D02*
X53823809Y-85749656D01*
X53823809Y-85749656D02*
X54126190Y-85749656D01*
X54126190Y-85749656D02*
X54247142Y-85689180D01*
X55396190Y-86233466D02*
X55396190Y-84963466D01*
X55396190Y-86172990D02*
X55275238Y-86233466D01*
X55275238Y-86233466D02*
X55033333Y-86233466D01*
X55033333Y-86233466D02*
X54912381Y-86172990D01*
X54912381Y-86172990D02*
X54851904Y-86112513D01*
X54851904Y-86112513D02*
X54791428Y-85991561D01*
X54791428Y-85991561D02*
X54791428Y-85628704D01*
X54791428Y-85628704D02*
X54851904Y-85507751D01*
X54851904Y-85507751D02*
X54912381Y-85447275D01*
X54912381Y-85447275D02*
X55033333Y-85386799D01*
X55033333Y-85386799D02*
X55275238Y-85386799D01*
X55275238Y-85386799D02*
X55396190Y-85447275D01*
X56968571Y-86233466D02*
X56968571Y-84963466D01*
X56968571Y-84963466D02*
X57452381Y-84963466D01*
X57452381Y-84963466D02*
X57573333Y-85023942D01*
X57573333Y-85023942D02*
X57633810Y-85084418D01*
X57633810Y-85084418D02*
X57694286Y-85205370D01*
X57694286Y-85205370D02*
X57694286Y-85386799D01*
X57694286Y-85386799D02*
X57633810Y-85507751D01*
X57633810Y-85507751D02*
X57573333Y-85568228D01*
X57573333Y-85568228D02*
X57452381Y-85628704D01*
X57452381Y-85628704D02*
X56968571Y-85628704D01*
X58238571Y-86233466D02*
X58238571Y-84963466D01*
X58238571Y-84963466D02*
X58661905Y-85870609D01*
X58661905Y-85870609D02*
X59085238Y-84963466D01*
X59085238Y-84963466D02*
X59085238Y-86233466D01*
X59931905Y-84963466D02*
X60173810Y-84963466D01*
X60173810Y-84963466D02*
X60294762Y-85023942D01*
X60294762Y-85023942D02*
X60415715Y-85144894D01*
X60415715Y-85144894D02*
X60476191Y-85386799D01*
X60476191Y-85386799D02*
X60476191Y-85810132D01*
X60476191Y-85810132D02*
X60415715Y-86052037D01*
X60415715Y-86052037D02*
X60294762Y-86172990D01*
X60294762Y-86172990D02*
X60173810Y-86233466D01*
X60173810Y-86233466D02*
X59931905Y-86233466D01*
X59931905Y-86233466D02*
X59810953Y-86172990D01*
X59810953Y-86172990D02*
X59690000Y-86052037D01*
X59690000Y-86052037D02*
X59629524Y-85810132D01*
X59629524Y-85810132D02*
X59629524Y-85386799D01*
X59629524Y-85386799D02*
X59690000Y-85144894D01*
X59690000Y-85144894D02*
X59810953Y-85023942D01*
X59810953Y-85023942D02*
X59931905Y-84963466D01*
X61020476Y-86233466D02*
X61020476Y-84963466D01*
X61020476Y-84963466D02*
X61322857Y-84963466D01*
X61322857Y-84963466D02*
X61504286Y-85023942D01*
X61504286Y-85023942D02*
X61625238Y-85144894D01*
X61625238Y-85144894D02*
X61685715Y-85265847D01*
X61685715Y-85265847D02*
X61746191Y-85507751D01*
X61746191Y-85507751D02*
X61746191Y-85689180D01*
X61746191Y-85689180D02*
X61685715Y-85931085D01*
X61685715Y-85931085D02*
X61625238Y-86052037D01*
X61625238Y-86052037D02*
X61504286Y-86172990D01*
X61504286Y-86172990D02*
X61322857Y-86233466D01*
X61322857Y-86233466D02*
X61020476Y-86233466D01*
X63137143Y-85386799D02*
X63439524Y-86233466D01*
X63439524Y-86233466D02*
X63741905Y-85386799D01*
X64890953Y-86233466D02*
X64165238Y-86233466D01*
X64528095Y-86233466D02*
X64528095Y-84963466D01*
X64528095Y-84963466D02*
X64407143Y-85144894D01*
X64407143Y-85144894D02*
X64286191Y-85265847D01*
X64286191Y-85265847D02*
X64165238Y-85326323D01*
X48532141Y-88278095D02*
X48532141Y-87008095D01*
X48532141Y-87008095D02*
X49257856Y-88278095D01*
X49257856Y-88278095D02*
X49257856Y-87008095D01*
X50044046Y-88278095D02*
X49923094Y-88217619D01*
X49923094Y-88217619D02*
X49862617Y-88157142D01*
X49862617Y-88157142D02*
X49802141Y-88036190D01*
X49802141Y-88036190D02*
X49802141Y-87673333D01*
X49802141Y-87673333D02*
X49862617Y-87552380D01*
X49862617Y-87552380D02*
X49923094Y-87491904D01*
X49923094Y-87491904D02*
X50044046Y-87431428D01*
X50044046Y-87431428D02*
X50225475Y-87431428D01*
X50225475Y-87431428D02*
X50346427Y-87491904D01*
X50346427Y-87491904D02*
X50406903Y-87552380D01*
X50406903Y-87552380D02*
X50467379Y-87673333D01*
X50467379Y-87673333D02*
X50467379Y-88036190D01*
X50467379Y-88036190D02*
X50406903Y-88157142D01*
X50406903Y-88157142D02*
X50346427Y-88217619D01*
X50346427Y-88217619D02*
X50225475Y-88278095D01*
X50225475Y-88278095D02*
X50044046Y-88278095D01*
X51555951Y-88278095D02*
X51555951Y-87612857D01*
X51555951Y-87612857D02*
X51495475Y-87491904D01*
X51495475Y-87491904D02*
X51374523Y-87431428D01*
X51374523Y-87431428D02*
X51132618Y-87431428D01*
X51132618Y-87431428D02*
X51011665Y-87491904D01*
X51555951Y-88217619D02*
X51434999Y-88278095D01*
X51434999Y-88278095D02*
X51132618Y-88278095D01*
X51132618Y-88278095D02*
X51011665Y-88217619D01*
X51011665Y-88217619D02*
X50951189Y-88096666D01*
X50951189Y-88096666D02*
X50951189Y-87975714D01*
X50951189Y-87975714D02*
X51011665Y-87854761D01*
X51011665Y-87854761D02*
X51132618Y-87794285D01*
X51132618Y-87794285D02*
X51434999Y-87794285D01*
X51434999Y-87794285D02*
X51555951Y-87733809D01*
X52160713Y-88278095D02*
X52160713Y-87008095D01*
X52704999Y-88278095D02*
X52704999Y-87612857D01*
X52704999Y-87612857D02*
X52644523Y-87491904D01*
X52644523Y-87491904D02*
X52523571Y-87431428D01*
X52523571Y-87431428D02*
X52342142Y-87431428D01*
X52342142Y-87431428D02*
X52221190Y-87491904D01*
X52221190Y-87491904D02*
X52160713Y-87552380D01*
X54277380Y-88278095D02*
X54277380Y-87008095D01*
X54277380Y-87008095D02*
X54761190Y-87008095D01*
X54761190Y-87008095D02*
X54882142Y-87068571D01*
X54882142Y-87068571D02*
X54942619Y-87129047D01*
X54942619Y-87129047D02*
X55003095Y-87249999D01*
X55003095Y-87249999D02*
X55003095Y-87431428D01*
X55003095Y-87431428D02*
X54942619Y-87552380D01*
X54942619Y-87552380D02*
X54882142Y-87612857D01*
X54882142Y-87612857D02*
X54761190Y-87673333D01*
X54761190Y-87673333D02*
X54277380Y-87673333D01*
X56091666Y-88278095D02*
X56091666Y-87612857D01*
X56091666Y-87612857D02*
X56031190Y-87491904D01*
X56031190Y-87491904D02*
X55910238Y-87431428D01*
X55910238Y-87431428D02*
X55668333Y-87431428D01*
X55668333Y-87431428D02*
X55547380Y-87491904D01*
X56091666Y-88217619D02*
X55970714Y-88278095D01*
X55970714Y-88278095D02*
X55668333Y-88278095D01*
X55668333Y-88278095D02*
X55547380Y-88217619D01*
X55547380Y-88217619D02*
X55486904Y-88096666D01*
X55486904Y-88096666D02*
X55486904Y-87975714D01*
X55486904Y-87975714D02*
X55547380Y-87854761D01*
X55547380Y-87854761D02*
X55668333Y-87794285D01*
X55668333Y-87794285D02*
X55970714Y-87794285D01*
X55970714Y-87794285D02*
X56091666Y-87733809D01*
X56877857Y-88278095D02*
X56756905Y-88217619D01*
X56756905Y-88217619D02*
X56696428Y-88096666D01*
X56696428Y-88096666D02*
X56696428Y-87008095D01*
X57905952Y-88278095D02*
X57905952Y-87612857D01*
X57905952Y-87612857D02*
X57845476Y-87491904D01*
X57845476Y-87491904D02*
X57724524Y-87431428D01*
X57724524Y-87431428D02*
X57482619Y-87431428D01*
X57482619Y-87431428D02*
X57361666Y-87491904D01*
X57905952Y-88217619D02*
X57785000Y-88278095D01*
X57785000Y-88278095D02*
X57482619Y-88278095D01*
X57482619Y-88278095D02*
X57361666Y-88217619D01*
X57361666Y-88217619D02*
X57301190Y-88096666D01*
X57301190Y-88096666D02*
X57301190Y-87975714D01*
X57301190Y-87975714D02*
X57361666Y-87854761D01*
X57361666Y-87854761D02*
X57482619Y-87794285D01*
X57482619Y-87794285D02*
X57785000Y-87794285D01*
X57785000Y-87794285D02*
X57905952Y-87733809D01*
X59055000Y-88278095D02*
X59055000Y-87008095D01*
X59055000Y-88217619D02*
X58934048Y-88278095D01*
X58934048Y-88278095D02*
X58692143Y-88278095D01*
X58692143Y-88278095D02*
X58571191Y-88217619D01*
X58571191Y-88217619D02*
X58510714Y-88157142D01*
X58510714Y-88157142D02*
X58450238Y-88036190D01*
X58450238Y-88036190D02*
X58450238Y-87673333D01*
X58450238Y-87673333D02*
X58510714Y-87552380D01*
X58510714Y-87552380D02*
X58571191Y-87491904D01*
X58571191Y-87491904D02*
X58692143Y-87431428D01*
X58692143Y-87431428D02*
X58934048Y-87431428D01*
X58934048Y-87431428D02*
X59055000Y-87491904D01*
X59659762Y-88278095D02*
X59659762Y-87431428D01*
X59659762Y-87008095D02*
X59599286Y-87068571D01*
X59599286Y-87068571D02*
X59659762Y-87129047D01*
X59659762Y-87129047D02*
X59720239Y-87068571D01*
X59720239Y-87068571D02*
X59659762Y-87008095D01*
X59659762Y-87008095D02*
X59659762Y-87129047D01*
X60264524Y-87431428D02*
X60264524Y-88278095D01*
X60264524Y-87552380D02*
X60325001Y-87491904D01*
X60325001Y-87491904D02*
X60445953Y-87431428D01*
X60445953Y-87431428D02*
X60627382Y-87431428D01*
X60627382Y-87431428D02*
X60748334Y-87491904D01*
X60748334Y-87491904D02*
X60808810Y-87612857D01*
X60808810Y-87612857D02*
X60808810Y-88278095D01*
X61595001Y-88278095D02*
X61474049Y-88217619D01*
X61474049Y-88217619D02*
X61413572Y-88157142D01*
X61413572Y-88157142D02*
X61353096Y-88036190D01*
X61353096Y-88036190D02*
X61353096Y-87673333D01*
X61353096Y-87673333D02*
X61413572Y-87552380D01*
X61413572Y-87552380D02*
X61474049Y-87491904D01*
X61474049Y-87491904D02*
X61595001Y-87431428D01*
X61595001Y-87431428D02*
X61776430Y-87431428D01*
X61776430Y-87431428D02*
X61897382Y-87491904D01*
X61897382Y-87491904D02*
X61957858Y-87552380D01*
X61957858Y-87552380D02*
X62018334Y-87673333D01*
X62018334Y-87673333D02*
X62018334Y-88036190D01*
X62018334Y-88036190D02*
X61957858Y-88157142D01*
X61957858Y-88157142D02*
X61897382Y-88217619D01*
X61897382Y-88217619D02*
X61776430Y-88278095D01*
X61776430Y-88278095D02*
X61595001Y-88278095D01*
D11*
X47785095Y-90893819D02*
X47785095Y-91703342D01*
X47785095Y-91703342D02*
X47832714Y-91798580D01*
X47832714Y-91798580D02*
X47880333Y-91846200D01*
X47880333Y-91846200D02*
X47975571Y-91893819D01*
X47975571Y-91893819D02*
X48166047Y-91893819D01*
X48166047Y-91893819D02*
X48261285Y-91846200D01*
X48261285Y-91846200D02*
X48308904Y-91798580D01*
X48308904Y-91798580D02*
X48356523Y-91703342D01*
X48356523Y-91703342D02*
X48356523Y-90893819D01*
X49308904Y-90893819D02*
X48832714Y-90893819D01*
X48832714Y-90893819D02*
X48785095Y-91370009D01*
X48785095Y-91370009D02*
X48832714Y-91322390D01*
X48832714Y-91322390D02*
X48927952Y-91274771D01*
X48927952Y-91274771D02*
X49166047Y-91274771D01*
X49166047Y-91274771D02*
X49261285Y-91322390D01*
X49261285Y-91322390D02*
X49308904Y-91370009D01*
X49308904Y-91370009D02*
X49356523Y-91465247D01*
X49356523Y-91465247D02*
X49356523Y-91703342D01*
X49356523Y-91703342D02*
X49308904Y-91798580D01*
X49308904Y-91798580D02*
X49261285Y-91846200D01*
X49261285Y-91846200D02*
X49166047Y-91893819D01*
X49166047Y-91893819D02*
X48927952Y-91893819D01*
X48927952Y-91893819D02*
X48832714Y-91846200D01*
X48832714Y-91846200D02*
X48785095Y-91798580D01*
X47785095Y-122326319D02*
X47785095Y-123135842D01*
X47785095Y-123135842D02*
X47832714Y-123231080D01*
X47832714Y-123231080D02*
X47880333Y-123278700D01*
X47880333Y-123278700D02*
X47975571Y-123326319D01*
X47975571Y-123326319D02*
X48166047Y-123326319D01*
X48166047Y-123326319D02*
X48261285Y-123278700D01*
X48261285Y-123278700D02*
X48308904Y-123231080D01*
X48308904Y-123231080D02*
X48356523Y-123135842D01*
X48356523Y-123135842D02*
X48356523Y-122326319D01*
X48975571Y-122754890D02*
X48880333Y-122707271D01*
X48880333Y-122707271D02*
X48832714Y-122659652D01*
X48832714Y-122659652D02*
X48785095Y-122564414D01*
X48785095Y-122564414D02*
X48785095Y-122516795D01*
X48785095Y-122516795D02*
X48832714Y-122421557D01*
X48832714Y-122421557D02*
X48880333Y-122373938D01*
X48880333Y-122373938D02*
X48975571Y-122326319D01*
X48975571Y-122326319D02*
X49166047Y-122326319D01*
X49166047Y-122326319D02*
X49261285Y-122373938D01*
X49261285Y-122373938D02*
X49308904Y-122421557D01*
X49308904Y-122421557D02*
X49356523Y-122516795D01*
X49356523Y-122516795D02*
X49356523Y-122564414D01*
X49356523Y-122564414D02*
X49308904Y-122659652D01*
X49308904Y-122659652D02*
X49261285Y-122707271D01*
X49261285Y-122707271D02*
X49166047Y-122754890D01*
X49166047Y-122754890D02*
X48975571Y-122754890D01*
X48975571Y-122754890D02*
X48880333Y-122802509D01*
X48880333Y-122802509D02*
X48832714Y-122850128D01*
X48832714Y-122850128D02*
X48785095Y-122945366D01*
X48785095Y-122945366D02*
X48785095Y-123135842D01*
X48785095Y-123135842D02*
X48832714Y-123231080D01*
X48832714Y-123231080D02*
X48880333Y-123278700D01*
X48880333Y-123278700D02*
X48975571Y-123326319D01*
X48975571Y-123326319D02*
X49166047Y-123326319D01*
X49166047Y-123326319D02*
X49261285Y-123278700D01*
X49261285Y-123278700D02*
X49308904Y-123231080D01*
X49308904Y-123231080D02*
X49356523Y-123135842D01*
X49356523Y-123135842D02*
X49356523Y-122945366D01*
X49356523Y-122945366D02*
X49308904Y-122850128D01*
X49308904Y-122850128D02*
X49261285Y-122802509D01*
X49261285Y-122802509D02*
X49166047Y-122754890D01*
D12*
X39006166Y-139469719D02*
X39006166Y-140184004D01*
X39006166Y-140184004D02*
X38958547Y-140326861D01*
X38958547Y-140326861D02*
X38863309Y-140422100D01*
X38863309Y-140422100D02*
X38720452Y-140469719D01*
X38720452Y-140469719D02*
X38625214Y-140469719D01*
X39434738Y-139564957D02*
X39482357Y-139517338D01*
X39482357Y-139517338D02*
X39577595Y-139469719D01*
X39577595Y-139469719D02*
X39815690Y-139469719D01*
X39815690Y-139469719D02*
X39910928Y-139517338D01*
X39910928Y-139517338D02*
X39958547Y-139564957D01*
X39958547Y-139564957D02*
X40006166Y-139660195D01*
X40006166Y-139660195D02*
X40006166Y-139755433D01*
X40006166Y-139755433D02*
X39958547Y-139898290D01*
X39958547Y-139898290D02*
X39387119Y-140469719D01*
X39387119Y-140469719D02*
X40006166Y-140469719D01*
X45312982Y-131261219D02*
X44741554Y-131261219D01*
X45027268Y-131261219D02*
X45027268Y-130261219D01*
X45027268Y-130261219D02*
X44932030Y-130404076D01*
X44932030Y-130404076D02*
X44836792Y-130499314D01*
X44836792Y-130499314D02*
X44741554Y-130546933D01*
X46170125Y-130261219D02*
X45979649Y-130261219D01*
X45979649Y-130261219D02*
X45884411Y-130308838D01*
X45884411Y-130308838D02*
X45836792Y-130356457D01*
X45836792Y-130356457D02*
X45741554Y-130499314D01*
X45741554Y-130499314D02*
X45693935Y-130689790D01*
X45693935Y-130689790D02*
X45693935Y-131070742D01*
X45693935Y-131070742D02*
X45741554Y-131165980D01*
X45741554Y-131165980D02*
X45789173Y-131213600D01*
X45789173Y-131213600D02*
X45884411Y-131261219D01*
X45884411Y-131261219D02*
X46074887Y-131261219D01*
X46074887Y-131261219D02*
X46170125Y-131213600D01*
X46170125Y-131213600D02*
X46217744Y-131165980D01*
X46217744Y-131165980D02*
X46265363Y-131070742D01*
X46265363Y-131070742D02*
X46265363Y-130832647D01*
X46265363Y-130832647D02*
X46217744Y-130737409D01*
X46217744Y-130737409D02*
X46170125Y-130689790D01*
X46170125Y-130689790D02*
X46074887Y-130642171D01*
X46074887Y-130642171D02*
X45884411Y-130642171D01*
X45884411Y-130642171D02*
X45789173Y-130689790D01*
X45789173Y-130689790D02*
X45741554Y-130737409D01*
X45741554Y-130737409D02*
X45693935Y-130832647D01*
X45312982Y-93161219D02*
X44741554Y-93161219D01*
X45027268Y-93161219D02*
X45027268Y-92161219D01*
X45027268Y-92161219D02*
X44932030Y-92304076D01*
X44932030Y-92304076D02*
X44836792Y-92399314D01*
X44836792Y-92399314D02*
X44741554Y-92446933D01*
D13*
X32841027Y-113097666D02*
X33602932Y-113097666D01*
X33221979Y-113478619D02*
X33221979Y-112716714D01*
D12*
X33937445Y-93161219D02*
X33366017Y-93161219D01*
X33651731Y-93161219D02*
X33651731Y-92161219D01*
X33651731Y-92161219D02*
X33556493Y-92304076D01*
X33556493Y-92304076D02*
X33461255Y-92399314D01*
X33461255Y-92399314D02*
X33366017Y-92446933D01*
X32985064Y-131261219D02*
X32413636Y-131261219D01*
X32699350Y-131261219D02*
X32699350Y-130261219D01*
X32699350Y-130261219D02*
X32604112Y-130404076D01*
X32604112Y-130404076D02*
X32508874Y-130499314D01*
X32508874Y-130499314D02*
X32413636Y-130546933D01*
X33842207Y-130261219D02*
X33651731Y-130261219D01*
X33651731Y-130261219D02*
X33556493Y-130308838D01*
X33556493Y-130308838D02*
X33508874Y-130356457D01*
X33508874Y-130356457D02*
X33413636Y-130499314D01*
X33413636Y-130499314D02*
X33366017Y-130689790D01*
X33366017Y-130689790D02*
X33366017Y-131070742D01*
X33366017Y-131070742D02*
X33413636Y-131165980D01*
X33413636Y-131165980D02*
X33461255Y-131213600D01*
X33461255Y-131213600D02*
X33556493Y-131261219D01*
X33556493Y-131261219D02*
X33746969Y-131261219D01*
X33746969Y-131261219D02*
X33842207Y-131213600D01*
X33842207Y-131213600D02*
X33889826Y-131165980D01*
X33889826Y-131165980D02*
X33937445Y-131070742D01*
X33937445Y-131070742D02*
X33937445Y-130832647D01*
X33937445Y-130832647D02*
X33889826Y-130737409D01*
X33889826Y-130737409D02*
X33842207Y-130689790D01*
X33842207Y-130689790D02*
X33746969Y-130642171D01*
X33746969Y-130642171D02*
X33556493Y-130642171D01*
X33556493Y-130642171D02*
X33461255Y-130689790D01*
X33461255Y-130689790D02*
X33413636Y-130737409D01*
X33413636Y-130737409D02*
X33366017Y-130832647D01*
D13*
X45076068Y-113097666D02*
X45837973Y-113097666D01*
D11*
X59909080Y-117005666D02*
X59956700Y-117053285D01*
X59956700Y-117053285D02*
X60004319Y-117196142D01*
X60004319Y-117196142D02*
X60004319Y-117291380D01*
X60004319Y-117291380D02*
X59956700Y-117434237D01*
X59956700Y-117434237D02*
X59861461Y-117529475D01*
X59861461Y-117529475D02*
X59766223Y-117577094D01*
X59766223Y-117577094D02*
X59575747Y-117624713D01*
X59575747Y-117624713D02*
X59432890Y-117624713D01*
X59432890Y-117624713D02*
X59242414Y-117577094D01*
X59242414Y-117577094D02*
X59147176Y-117529475D01*
X59147176Y-117529475D02*
X59051938Y-117434237D01*
X59051938Y-117434237D02*
X59004319Y-117291380D01*
X59004319Y-117291380D02*
X59004319Y-117196142D01*
X59004319Y-117196142D02*
X59051938Y-117053285D01*
X59051938Y-117053285D02*
X59099557Y-117005666D01*
X59004319Y-116672332D02*
X59004319Y-116005666D01*
X59004319Y-116005666D02*
X60004319Y-116434237D01*
X59844080Y-106528166D02*
X59891700Y-106575785D01*
X59891700Y-106575785D02*
X59939319Y-106718642D01*
X59939319Y-106718642D02*
X59939319Y-106813880D01*
X59939319Y-106813880D02*
X59891700Y-106956737D01*
X59891700Y-106956737D02*
X59796461Y-107051975D01*
X59796461Y-107051975D02*
X59701223Y-107099594D01*
X59701223Y-107099594D02*
X59510747Y-107147213D01*
X59510747Y-107147213D02*
X59367890Y-107147213D01*
X59367890Y-107147213D02*
X59177414Y-107099594D01*
X59177414Y-107099594D02*
X59082176Y-107051975D01*
X59082176Y-107051975D02*
X58986938Y-106956737D01*
X58986938Y-106956737D02*
X58939319Y-106813880D01*
X58939319Y-106813880D02*
X58939319Y-106718642D01*
X58939319Y-106718642D02*
X58986938Y-106575785D01*
X58986938Y-106575785D02*
X59034557Y-106528166D01*
X58939319Y-105671023D02*
X58939319Y-105861499D01*
X58939319Y-105861499D02*
X58986938Y-105956737D01*
X58986938Y-105956737D02*
X59034557Y-106004356D01*
X59034557Y-106004356D02*
X59177414Y-106099594D01*
X59177414Y-106099594D02*
X59367890Y-106147213D01*
X59367890Y-106147213D02*
X59748842Y-106147213D01*
X59748842Y-106147213D02*
X59844080Y-106099594D01*
X59844080Y-106099594D02*
X59891700Y-106051975D01*
X59891700Y-106051975D02*
X59939319Y-105956737D01*
X59939319Y-105956737D02*
X59939319Y-105766261D01*
X59939319Y-105766261D02*
X59891700Y-105671023D01*
X59891700Y-105671023D02*
X59844080Y-105623404D01*
X59844080Y-105623404D02*
X59748842Y-105575785D01*
X59748842Y-105575785D02*
X59510747Y-105575785D01*
X59510747Y-105575785D02*
X59415509Y-105623404D01*
X59415509Y-105623404D02*
X59367890Y-105671023D01*
X59367890Y-105671023D02*
X59320271Y-105766261D01*
X59320271Y-105766261D02*
X59320271Y-105956737D01*
X59320271Y-105956737D02*
X59367890Y-106051975D01*
X59367890Y-106051975D02*
X59415509Y-106099594D01*
X59415509Y-106099594D02*
X59510747Y-106147213D01*
X47785095Y-111848819D02*
X47785095Y-112658342D01*
X47785095Y-112658342D02*
X47832714Y-112753580D01*
X47832714Y-112753580D02*
X47880333Y-112801200D01*
X47880333Y-112801200D02*
X47975571Y-112848819D01*
X47975571Y-112848819D02*
X48166047Y-112848819D01*
X48166047Y-112848819D02*
X48261285Y-112801200D01*
X48261285Y-112801200D02*
X48308904Y-112753580D01*
X48308904Y-112753580D02*
X48356523Y-112658342D01*
X48356523Y-112658342D02*
X48356523Y-111848819D01*
X48737476Y-111848819D02*
X49404142Y-111848819D01*
X49404142Y-111848819D02*
X48975571Y-112848819D01*
X59909080Y-127483166D02*
X59956700Y-127530785D01*
X59956700Y-127530785D02*
X60004319Y-127673642D01*
X60004319Y-127673642D02*
X60004319Y-127768880D01*
X60004319Y-127768880D02*
X59956700Y-127911737D01*
X59956700Y-127911737D02*
X59861461Y-128006975D01*
X59861461Y-128006975D02*
X59766223Y-128054594D01*
X59766223Y-128054594D02*
X59575747Y-128102213D01*
X59575747Y-128102213D02*
X59432890Y-128102213D01*
X59432890Y-128102213D02*
X59242414Y-128054594D01*
X59242414Y-128054594D02*
X59147176Y-128006975D01*
X59147176Y-128006975D02*
X59051938Y-127911737D01*
X59051938Y-127911737D02*
X59004319Y-127768880D01*
X59004319Y-127768880D02*
X59004319Y-127673642D01*
X59004319Y-127673642D02*
X59051938Y-127530785D01*
X59051938Y-127530785D02*
X59099557Y-127483166D01*
X59432890Y-126911737D02*
X59385271Y-127006975D01*
X59385271Y-127006975D02*
X59337652Y-127054594D01*
X59337652Y-127054594D02*
X59242414Y-127102213D01*
X59242414Y-127102213D02*
X59194795Y-127102213D01*
X59194795Y-127102213D02*
X59099557Y-127054594D01*
X59099557Y-127054594D02*
X59051938Y-127006975D01*
X59051938Y-127006975D02*
X59004319Y-126911737D01*
X59004319Y-126911737D02*
X59004319Y-126721261D01*
X59004319Y-126721261D02*
X59051938Y-126626023D01*
X59051938Y-126626023D02*
X59099557Y-126578404D01*
X59099557Y-126578404D02*
X59194795Y-126530785D01*
X59194795Y-126530785D02*
X59242414Y-126530785D01*
X59242414Y-126530785D02*
X59337652Y-126578404D01*
X59337652Y-126578404D02*
X59385271Y-126626023D01*
X59385271Y-126626023D02*
X59432890Y-126721261D01*
X59432890Y-126721261D02*
X59432890Y-126911737D01*
X59432890Y-126911737D02*
X59480509Y-127006975D01*
X59480509Y-127006975D02*
X59528128Y-127054594D01*
X59528128Y-127054594D02*
X59623366Y-127102213D01*
X59623366Y-127102213D02*
X59813842Y-127102213D01*
X59813842Y-127102213D02*
X59909080Y-127054594D01*
X59909080Y-127054594D02*
X59956700Y-127006975D01*
X59956700Y-127006975D02*
X60004319Y-126911737D01*
X60004319Y-126911737D02*
X60004319Y-126721261D01*
X60004319Y-126721261D02*
X59956700Y-126626023D01*
X59956700Y-126626023D02*
X59909080Y-126578404D01*
X59909080Y-126578404D02*
X59813842Y-126530785D01*
X59813842Y-126530785D02*
X59623366Y-126530785D01*
X59623366Y-126530785D02*
X59528128Y-126578404D01*
X59528128Y-126578404D02*
X59480509Y-126626023D01*
X59480509Y-126626023D02*
X59432890Y-126721261D01*
X47467595Y-101371319D02*
X47467595Y-102180842D01*
X47467595Y-102180842D02*
X47515214Y-102276080D01*
X47515214Y-102276080D02*
X47562833Y-102323700D01*
X47562833Y-102323700D02*
X47658071Y-102371319D01*
X47658071Y-102371319D02*
X47848547Y-102371319D01*
X47848547Y-102371319D02*
X47943785Y-102323700D01*
X47943785Y-102323700D02*
X47991404Y-102276080D01*
X47991404Y-102276080D02*
X48039023Y-102180842D01*
X48039023Y-102180842D02*
X48039023Y-101371319D01*
X48943785Y-101371319D02*
X48753309Y-101371319D01*
X48753309Y-101371319D02*
X48658071Y-101418938D01*
X48658071Y-101418938D02*
X48610452Y-101466557D01*
X48610452Y-101466557D02*
X48515214Y-101609414D01*
X48515214Y-101609414D02*
X48467595Y-101799890D01*
X48467595Y-101799890D02*
X48467595Y-102180842D01*
X48467595Y-102180842D02*
X48515214Y-102276080D01*
X48515214Y-102276080D02*
X48562833Y-102323700D01*
X48562833Y-102323700D02*
X48658071Y-102371319D01*
X48658071Y-102371319D02*
X48848547Y-102371319D01*
X48848547Y-102371319D02*
X48943785Y-102323700D01*
X48943785Y-102323700D02*
X48991404Y-102276080D01*
X48991404Y-102276080D02*
X49039023Y-102180842D01*
X49039023Y-102180842D02*
X49039023Y-101942747D01*
X49039023Y-101942747D02*
X48991404Y-101847509D01*
X48991404Y-101847509D02*
X48943785Y-101799890D01*
X48943785Y-101799890D02*
X48848547Y-101752271D01*
X48848547Y-101752271D02*
X48658071Y-101752271D01*
X48658071Y-101752271D02*
X48562833Y-101799890D01*
X48562833Y-101799890D02*
X48515214Y-101847509D01*
X48515214Y-101847509D02*
X48467595Y-101942747D01*
X59974080Y-96050666D02*
X60021700Y-96098285D01*
X60021700Y-96098285D02*
X60069319Y-96241142D01*
X60069319Y-96241142D02*
X60069319Y-96336380D01*
X60069319Y-96336380D02*
X60021700Y-96479237D01*
X60021700Y-96479237D02*
X59926461Y-96574475D01*
X59926461Y-96574475D02*
X59831223Y-96622094D01*
X59831223Y-96622094D02*
X59640747Y-96669713D01*
X59640747Y-96669713D02*
X59497890Y-96669713D01*
X59497890Y-96669713D02*
X59307414Y-96622094D01*
X59307414Y-96622094D02*
X59212176Y-96574475D01*
X59212176Y-96574475D02*
X59116938Y-96479237D01*
X59116938Y-96479237D02*
X59069319Y-96336380D01*
X59069319Y-96336380D02*
X59069319Y-96241142D01*
X59069319Y-96241142D02*
X59116938Y-96098285D01*
X59116938Y-96098285D02*
X59164557Y-96050666D01*
X59069319Y-95145904D02*
X59069319Y-95622094D01*
X59069319Y-95622094D02*
X59545509Y-95669713D01*
X59545509Y-95669713D02*
X59497890Y-95622094D01*
X59497890Y-95622094D02*
X59450271Y-95526856D01*
X59450271Y-95526856D02*
X59450271Y-95288761D01*
X59450271Y-95288761D02*
X59497890Y-95193523D01*
X59497890Y-95193523D02*
X59545509Y-95145904D01*
X59545509Y-95145904D02*
X59640747Y-95098285D01*
X59640747Y-95098285D02*
X59878842Y-95098285D01*
X59878842Y-95098285D02*
X59974080Y-95145904D01*
X59974080Y-95145904D02*
X60021700Y-95193523D01*
X60021700Y-95193523D02*
X60069319Y-95288761D01*
X60069319Y-95288761D02*
X60069319Y-95526856D01*
X60069319Y-95526856D02*
X60021700Y-95622094D01*
X60021700Y-95622094D02*
X59974080Y-95669713D01*
D12*
X39006166Y-33244219D02*
X39006166Y-33958504D01*
X39006166Y-33958504D02*
X38958547Y-34101361D01*
X38958547Y-34101361D02*
X38863309Y-34196600D01*
X38863309Y-34196600D02*
X38720452Y-34244219D01*
X38720452Y-34244219D02*
X38625214Y-34244219D01*
X40006166Y-34244219D02*
X39434738Y-34244219D01*
X39720452Y-34244219D02*
X39720452Y-33244219D01*
X39720452Y-33244219D02*
X39625214Y-33387076D01*
X39625214Y-33387076D02*
X39529976Y-33482314D01*
X39529976Y-33482314D02*
X39434738Y-33529933D01*
D13*
X45076068Y-61038666D02*
X45837973Y-61038666D01*
D12*
X32985064Y-79202219D02*
X32413636Y-79202219D01*
X32699350Y-79202219D02*
X32699350Y-78202219D01*
X32699350Y-78202219D02*
X32604112Y-78345076D01*
X32604112Y-78345076D02*
X32508874Y-78440314D01*
X32508874Y-78440314D02*
X32413636Y-78487933D01*
X33842207Y-78202219D02*
X33651731Y-78202219D01*
X33651731Y-78202219D02*
X33556493Y-78249838D01*
X33556493Y-78249838D02*
X33508874Y-78297457D01*
X33508874Y-78297457D02*
X33413636Y-78440314D01*
X33413636Y-78440314D02*
X33366017Y-78630790D01*
X33366017Y-78630790D02*
X33366017Y-79011742D01*
X33366017Y-79011742D02*
X33413636Y-79106980D01*
X33413636Y-79106980D02*
X33461255Y-79154600D01*
X33461255Y-79154600D02*
X33556493Y-79202219D01*
X33556493Y-79202219D02*
X33746969Y-79202219D01*
X33746969Y-79202219D02*
X33842207Y-79154600D01*
X33842207Y-79154600D02*
X33889826Y-79106980D01*
X33889826Y-79106980D02*
X33937445Y-79011742D01*
X33937445Y-79011742D02*
X33937445Y-78773647D01*
X33937445Y-78773647D02*
X33889826Y-78678409D01*
X33889826Y-78678409D02*
X33842207Y-78630790D01*
X33842207Y-78630790D02*
X33746969Y-78583171D01*
X33746969Y-78583171D02*
X33556493Y-78583171D01*
X33556493Y-78583171D02*
X33461255Y-78630790D01*
X33461255Y-78630790D02*
X33413636Y-78678409D01*
X33413636Y-78678409D02*
X33366017Y-78773647D01*
X33937445Y-41102219D02*
X33366017Y-41102219D01*
X33651731Y-41102219D02*
X33651731Y-40102219D01*
X33651731Y-40102219D02*
X33556493Y-40245076D01*
X33556493Y-40245076D02*
X33461255Y-40340314D01*
X33461255Y-40340314D02*
X33366017Y-40387933D01*
D13*
X32841027Y-61038666D02*
X33602932Y-61038666D01*
X33221979Y-61419619D02*
X33221979Y-60657714D01*
D12*
X45312982Y-41102219D02*
X44741554Y-41102219D01*
X45027268Y-41102219D02*
X45027268Y-40102219D01*
X45027268Y-40102219D02*
X44932030Y-40245076D01*
X44932030Y-40245076D02*
X44836792Y-40340314D01*
X44836792Y-40340314D02*
X44741554Y-40387933D01*
X45312982Y-79202219D02*
X44741554Y-79202219D01*
X45027268Y-79202219D02*
X45027268Y-78202219D01*
X45027268Y-78202219D02*
X44932030Y-78345076D01*
X44932030Y-78345076D02*
X44836792Y-78440314D01*
X44836792Y-78440314D02*
X44741554Y-78487933D01*
X46170125Y-78202219D02*
X45979649Y-78202219D01*
X45979649Y-78202219D02*
X45884411Y-78249838D01*
X45884411Y-78249838D02*
X45836792Y-78297457D01*
X45836792Y-78297457D02*
X45741554Y-78440314D01*
X45741554Y-78440314D02*
X45693935Y-78630790D01*
X45693935Y-78630790D02*
X45693935Y-79011742D01*
X45693935Y-79011742D02*
X45741554Y-79106980D01*
X45741554Y-79106980D02*
X45789173Y-79154600D01*
X45789173Y-79154600D02*
X45884411Y-79202219D01*
X45884411Y-79202219D02*
X46074887Y-79202219D01*
X46074887Y-79202219D02*
X46170125Y-79154600D01*
X46170125Y-79154600D02*
X46217744Y-79106980D01*
X46217744Y-79106980D02*
X46265363Y-79011742D01*
X46265363Y-79011742D02*
X46265363Y-78773647D01*
X46265363Y-78773647D02*
X46217744Y-78678409D01*
X46217744Y-78678409D02*
X46170125Y-78630790D01*
X46170125Y-78630790D02*
X46074887Y-78583171D01*
X46074887Y-78583171D02*
X45884411Y-78583171D01*
X45884411Y-78583171D02*
X45789173Y-78630790D01*
X45789173Y-78630790D02*
X45741554Y-78678409D01*
X45741554Y-78678409D02*
X45693935Y-78773647D01*
D11*
X47785095Y-38834819D02*
X47785095Y-39644342D01*
X47785095Y-39644342D02*
X47832714Y-39739580D01*
X47832714Y-39739580D02*
X47880333Y-39787200D01*
X47880333Y-39787200D02*
X47975571Y-39834819D01*
X47975571Y-39834819D02*
X48166047Y-39834819D01*
X48166047Y-39834819D02*
X48261285Y-39787200D01*
X48261285Y-39787200D02*
X48308904Y-39739580D01*
X48308904Y-39739580D02*
X48356523Y-39644342D01*
X48356523Y-39644342D02*
X48356523Y-38834819D01*
X49356523Y-39834819D02*
X48785095Y-39834819D01*
X49070809Y-39834819D02*
X49070809Y-38834819D01*
X49070809Y-38834819D02*
X48975571Y-38977676D01*
X48975571Y-38977676D02*
X48880333Y-39072914D01*
X48880333Y-39072914D02*
X48785095Y-39120533D01*
X47785095Y-70267319D02*
X47785095Y-71076842D01*
X47785095Y-71076842D02*
X47832714Y-71172080D01*
X47832714Y-71172080D02*
X47880333Y-71219700D01*
X47880333Y-71219700D02*
X47975571Y-71267319D01*
X47975571Y-71267319D02*
X48166047Y-71267319D01*
X48166047Y-71267319D02*
X48261285Y-71219700D01*
X48261285Y-71219700D02*
X48308904Y-71172080D01*
X48308904Y-71172080D02*
X48356523Y-71076842D01*
X48356523Y-71076842D02*
X48356523Y-70267319D01*
X49261285Y-70600652D02*
X49261285Y-71267319D01*
X49023190Y-70219700D02*
X48785095Y-70933985D01*
X48785095Y-70933985D02*
X49404142Y-70933985D01*
X59909080Y-64946666D02*
X59956700Y-64994285D01*
X59956700Y-64994285D02*
X60004319Y-65137142D01*
X60004319Y-65137142D02*
X60004319Y-65232380D01*
X60004319Y-65232380D02*
X59956700Y-65375237D01*
X59956700Y-65375237D02*
X59861461Y-65470475D01*
X59861461Y-65470475D02*
X59766223Y-65518094D01*
X59766223Y-65518094D02*
X59575747Y-65565713D01*
X59575747Y-65565713D02*
X59432890Y-65565713D01*
X59432890Y-65565713D02*
X59242414Y-65518094D01*
X59242414Y-65518094D02*
X59147176Y-65470475D01*
X59147176Y-65470475D02*
X59051938Y-65375237D01*
X59051938Y-65375237D02*
X59004319Y-65232380D01*
X59004319Y-65232380D02*
X59004319Y-65137142D01*
X59004319Y-65137142D02*
X59051938Y-64994285D01*
X59051938Y-64994285D02*
X59099557Y-64946666D01*
X59337652Y-64089523D02*
X60004319Y-64089523D01*
X58956700Y-64327618D02*
X59670985Y-64565713D01*
X59670985Y-64565713D02*
X59670985Y-63946666D01*
X59844080Y-54469166D02*
X59891700Y-54516785D01*
X59891700Y-54516785D02*
X59939319Y-54659642D01*
X59939319Y-54659642D02*
X59939319Y-54754880D01*
X59939319Y-54754880D02*
X59891700Y-54897737D01*
X59891700Y-54897737D02*
X59796461Y-54992975D01*
X59796461Y-54992975D02*
X59701223Y-55040594D01*
X59701223Y-55040594D02*
X59510747Y-55088213D01*
X59510747Y-55088213D02*
X59367890Y-55088213D01*
X59367890Y-55088213D02*
X59177414Y-55040594D01*
X59177414Y-55040594D02*
X59082176Y-54992975D01*
X59082176Y-54992975D02*
X58986938Y-54897737D01*
X58986938Y-54897737D02*
X58939319Y-54754880D01*
X58939319Y-54754880D02*
X58939319Y-54659642D01*
X58939319Y-54659642D02*
X58986938Y-54516785D01*
X58986938Y-54516785D02*
X59034557Y-54469166D01*
X59034557Y-54088213D02*
X58986938Y-54040594D01*
X58986938Y-54040594D02*
X58939319Y-53945356D01*
X58939319Y-53945356D02*
X58939319Y-53707261D01*
X58939319Y-53707261D02*
X58986938Y-53612023D01*
X58986938Y-53612023D02*
X59034557Y-53564404D01*
X59034557Y-53564404D02*
X59129795Y-53516785D01*
X59129795Y-53516785D02*
X59225033Y-53516785D01*
X59225033Y-53516785D02*
X59367890Y-53564404D01*
X59367890Y-53564404D02*
X59939319Y-54135832D01*
X59939319Y-54135832D02*
X59939319Y-53516785D01*
X47785095Y-59789819D02*
X47785095Y-60599342D01*
X47785095Y-60599342D02*
X47832714Y-60694580D01*
X47832714Y-60694580D02*
X47880333Y-60742200D01*
X47880333Y-60742200D02*
X47975571Y-60789819D01*
X47975571Y-60789819D02*
X48166047Y-60789819D01*
X48166047Y-60789819D02*
X48261285Y-60742200D01*
X48261285Y-60742200D02*
X48308904Y-60694580D01*
X48308904Y-60694580D02*
X48356523Y-60599342D01*
X48356523Y-60599342D02*
X48356523Y-59789819D01*
X48737476Y-59789819D02*
X49356523Y-59789819D01*
X49356523Y-59789819D02*
X49023190Y-60170771D01*
X49023190Y-60170771D02*
X49166047Y-60170771D01*
X49166047Y-60170771D02*
X49261285Y-60218390D01*
X49261285Y-60218390D02*
X49308904Y-60266009D01*
X49308904Y-60266009D02*
X49356523Y-60361247D01*
X49356523Y-60361247D02*
X49356523Y-60599342D01*
X49356523Y-60599342D02*
X49308904Y-60694580D01*
X49308904Y-60694580D02*
X49261285Y-60742200D01*
X49261285Y-60742200D02*
X49166047Y-60789819D01*
X49166047Y-60789819D02*
X48880333Y-60789819D01*
X48880333Y-60789819D02*
X48785095Y-60742200D01*
X48785095Y-60742200D02*
X48737476Y-60694580D01*
X59909080Y-75424166D02*
X59956700Y-75471785D01*
X59956700Y-75471785D02*
X60004319Y-75614642D01*
X60004319Y-75614642D02*
X60004319Y-75709880D01*
X60004319Y-75709880D02*
X59956700Y-75852737D01*
X59956700Y-75852737D02*
X59861461Y-75947975D01*
X59861461Y-75947975D02*
X59766223Y-75995594D01*
X59766223Y-75995594D02*
X59575747Y-76043213D01*
X59575747Y-76043213D02*
X59432890Y-76043213D01*
X59432890Y-76043213D02*
X59242414Y-75995594D01*
X59242414Y-75995594D02*
X59147176Y-75947975D01*
X59147176Y-75947975D02*
X59051938Y-75852737D01*
X59051938Y-75852737D02*
X59004319Y-75709880D01*
X59004319Y-75709880D02*
X59004319Y-75614642D01*
X59004319Y-75614642D02*
X59051938Y-75471785D01*
X59051938Y-75471785D02*
X59099557Y-75424166D01*
X59004319Y-75090832D02*
X59004319Y-74471785D01*
X59004319Y-74471785D02*
X59385271Y-74805118D01*
X59385271Y-74805118D02*
X59385271Y-74662261D01*
X59385271Y-74662261D02*
X59432890Y-74567023D01*
X59432890Y-74567023D02*
X59480509Y-74519404D01*
X59480509Y-74519404D02*
X59575747Y-74471785D01*
X59575747Y-74471785D02*
X59813842Y-74471785D01*
X59813842Y-74471785D02*
X59909080Y-74519404D01*
X59909080Y-74519404D02*
X59956700Y-74567023D01*
X59956700Y-74567023D02*
X60004319Y-74662261D01*
X60004319Y-74662261D02*
X60004319Y-74947975D01*
X60004319Y-74947975D02*
X59956700Y-75043213D01*
X59956700Y-75043213D02*
X59909080Y-75090832D01*
X47467595Y-49312319D02*
X47467595Y-50121842D01*
X47467595Y-50121842D02*
X47515214Y-50217080D01*
X47515214Y-50217080D02*
X47562833Y-50264700D01*
X47562833Y-50264700D02*
X47658071Y-50312319D01*
X47658071Y-50312319D02*
X47848547Y-50312319D01*
X47848547Y-50312319D02*
X47943785Y-50264700D01*
X47943785Y-50264700D02*
X47991404Y-50217080D01*
X47991404Y-50217080D02*
X48039023Y-50121842D01*
X48039023Y-50121842D02*
X48039023Y-49312319D01*
X48467595Y-49407557D02*
X48515214Y-49359938D01*
X48515214Y-49359938D02*
X48610452Y-49312319D01*
X48610452Y-49312319D02*
X48848547Y-49312319D01*
X48848547Y-49312319D02*
X48943785Y-49359938D01*
X48943785Y-49359938D02*
X48991404Y-49407557D01*
X48991404Y-49407557D02*
X49039023Y-49502795D01*
X49039023Y-49502795D02*
X49039023Y-49598033D01*
X49039023Y-49598033D02*
X48991404Y-49740890D01*
X48991404Y-49740890D02*
X48419976Y-50312319D01*
X48419976Y-50312319D02*
X49039023Y-50312319D01*
X59974080Y-43991666D02*
X60021700Y-44039285D01*
X60021700Y-44039285D02*
X60069319Y-44182142D01*
X60069319Y-44182142D02*
X60069319Y-44277380D01*
X60069319Y-44277380D02*
X60021700Y-44420237D01*
X60021700Y-44420237D02*
X59926461Y-44515475D01*
X59926461Y-44515475D02*
X59831223Y-44563094D01*
X59831223Y-44563094D02*
X59640747Y-44610713D01*
X59640747Y-44610713D02*
X59497890Y-44610713D01*
X59497890Y-44610713D02*
X59307414Y-44563094D01*
X59307414Y-44563094D02*
X59212176Y-44515475D01*
X59212176Y-44515475D02*
X59116938Y-44420237D01*
X59116938Y-44420237D02*
X59069319Y-44277380D01*
X59069319Y-44277380D02*
X59069319Y-44182142D01*
X59069319Y-44182142D02*
X59116938Y-44039285D01*
X59116938Y-44039285D02*
X59164557Y-43991666D01*
X60069319Y-43039285D02*
X60069319Y-43610713D01*
X60069319Y-43324999D02*
X59069319Y-43324999D01*
X59069319Y-43324999D02*
X59212176Y-43420237D01*
X59212176Y-43420237D02*
X59307414Y-43515475D01*
X59307414Y-43515475D02*
X59355033Y-43610713D01*
D14*
X67893333Y-61797812D02*
X67893333Y-60781812D01*
X67893333Y-60781812D02*
X68280381Y-60781812D01*
X68280381Y-60781812D02*
X68377143Y-60830193D01*
X68377143Y-60830193D02*
X68425524Y-60878574D01*
X68425524Y-60878574D02*
X68473905Y-60975336D01*
X68473905Y-60975336D02*
X68473905Y-61120479D01*
X68473905Y-61120479D02*
X68425524Y-61217241D01*
X68425524Y-61217241D02*
X68377143Y-61265622D01*
X68377143Y-61265622D02*
X68280381Y-61314003D01*
X68280381Y-61314003D02*
X67893333Y-61314003D01*
X68909333Y-61797812D02*
X68909333Y-60781812D01*
X68909333Y-60781812D02*
X69248000Y-61507527D01*
X69248000Y-61507527D02*
X69586667Y-60781812D01*
X69586667Y-60781812D02*
X69586667Y-61797812D01*
X70264000Y-60781812D02*
X70457524Y-60781812D01*
X70457524Y-60781812D02*
X70554286Y-60830193D01*
X70554286Y-60830193D02*
X70651048Y-60926955D01*
X70651048Y-60926955D02*
X70699429Y-61120479D01*
X70699429Y-61120479D02*
X70699429Y-61459146D01*
X70699429Y-61459146D02*
X70651048Y-61652670D01*
X70651048Y-61652670D02*
X70554286Y-61749432D01*
X70554286Y-61749432D02*
X70457524Y-61797812D01*
X70457524Y-61797812D02*
X70264000Y-61797812D01*
X70264000Y-61797812D02*
X70167238Y-61749432D01*
X70167238Y-61749432D02*
X70070476Y-61652670D01*
X70070476Y-61652670D02*
X70022095Y-61459146D01*
X70022095Y-61459146D02*
X70022095Y-61120479D01*
X70022095Y-61120479D02*
X70070476Y-60926955D01*
X70070476Y-60926955D02*
X70167238Y-60830193D01*
X70167238Y-60830193D02*
X70264000Y-60781812D01*
X71134857Y-61797812D02*
X71134857Y-60781812D01*
X71134857Y-60781812D02*
X71376762Y-60781812D01*
X71376762Y-60781812D02*
X71521905Y-60830193D01*
X71521905Y-60830193D02*
X71618667Y-60926955D01*
X71618667Y-60926955D02*
X71667048Y-61023717D01*
X71667048Y-61023717D02*
X71715429Y-61217241D01*
X71715429Y-61217241D02*
X71715429Y-61362384D01*
X71715429Y-61362384D02*
X71667048Y-61555908D01*
X71667048Y-61555908D02*
X71618667Y-61652670D01*
X71618667Y-61652670D02*
X71521905Y-61749432D01*
X71521905Y-61749432D02*
X71376762Y-61797812D01*
X71376762Y-61797812D02*
X71134857Y-61797812D01*
X72683048Y-61797812D02*
X72102476Y-61797812D01*
X72392762Y-61797812D02*
X72392762Y-60781812D01*
X72392762Y-60781812D02*
X72296000Y-60926955D01*
X72296000Y-60926955D02*
X72199238Y-61023717D01*
X72199238Y-61023717D02*
X72102476Y-61072098D01*
D11*
X63850667Y-45809819D02*
X64184000Y-46809819D01*
X64184000Y-46809819D02*
X64517333Y-45809819D01*
X65422095Y-46714580D02*
X65374476Y-46762200D01*
X65374476Y-46762200D02*
X65231619Y-46809819D01*
X65231619Y-46809819D02*
X65136381Y-46809819D01*
X65136381Y-46809819D02*
X64993524Y-46762200D01*
X64993524Y-46762200D02*
X64898286Y-46666961D01*
X64898286Y-46666961D02*
X64850667Y-46571723D01*
X64850667Y-46571723D02*
X64803048Y-46381247D01*
X64803048Y-46381247D02*
X64803048Y-46238390D01*
X64803048Y-46238390D02*
X64850667Y-46047914D01*
X64850667Y-46047914D02*
X64898286Y-45952676D01*
X64898286Y-45952676D02*
X64993524Y-45857438D01*
X64993524Y-45857438D02*
X65136381Y-45809819D01*
X65136381Y-45809819D02*
X65231619Y-45809819D01*
X65231619Y-45809819D02*
X65374476Y-45857438D01*
X65374476Y-45857438D02*
X65422095Y-45905057D01*
X66422095Y-46714580D02*
X66374476Y-46762200D01*
X66374476Y-46762200D02*
X66231619Y-46809819D01*
X66231619Y-46809819D02*
X66136381Y-46809819D01*
X66136381Y-46809819D02*
X65993524Y-46762200D01*
X65993524Y-46762200D02*
X65898286Y-46666961D01*
X65898286Y-46666961D02*
X65850667Y-46571723D01*
X65850667Y-46571723D02*
X65803048Y-46381247D01*
X65803048Y-46381247D02*
X65803048Y-46238390D01*
X65803048Y-46238390D02*
X65850667Y-46047914D01*
X65850667Y-46047914D02*
X65898286Y-45952676D01*
X65898286Y-45952676D02*
X65993524Y-45857438D01*
X65993524Y-45857438D02*
X66136381Y-45809819D01*
X66136381Y-45809819D02*
X66231619Y-45809819D01*
X66231619Y-45809819D02*
X66374476Y-45857438D01*
X66374476Y-45857438D02*
X66422095Y-45905057D01*
X64422095Y-48397438D02*
X64326857Y-48349819D01*
X64326857Y-48349819D02*
X64184000Y-48349819D01*
X64184000Y-48349819D02*
X64041143Y-48397438D01*
X64041143Y-48397438D02*
X63945905Y-48492676D01*
X63945905Y-48492676D02*
X63898286Y-48587914D01*
X63898286Y-48587914D02*
X63850667Y-48778390D01*
X63850667Y-48778390D02*
X63850667Y-48921247D01*
X63850667Y-48921247D02*
X63898286Y-49111723D01*
X63898286Y-49111723D02*
X63945905Y-49206961D01*
X63945905Y-49206961D02*
X64041143Y-49302200D01*
X64041143Y-49302200D02*
X64184000Y-49349819D01*
X64184000Y-49349819D02*
X64279238Y-49349819D01*
X64279238Y-49349819D02*
X64422095Y-49302200D01*
X64422095Y-49302200D02*
X64469714Y-49254580D01*
X64469714Y-49254580D02*
X64469714Y-48921247D01*
X64469714Y-48921247D02*
X64279238Y-48921247D01*
X64898286Y-49349819D02*
X64898286Y-48349819D01*
X64898286Y-48349819D02*
X65469714Y-49349819D01*
X65469714Y-49349819D02*
X65469714Y-48349819D01*
X65945905Y-49349819D02*
X65945905Y-48349819D01*
X65945905Y-48349819D02*
X66184000Y-48349819D01*
X66184000Y-48349819D02*
X66326857Y-48397438D01*
X66326857Y-48397438D02*
X66422095Y-48492676D01*
X66422095Y-48492676D02*
X66469714Y-48587914D01*
X66469714Y-48587914D02*
X66517333Y-48778390D01*
X66517333Y-48778390D02*
X66517333Y-48921247D01*
X66517333Y-48921247D02*
X66469714Y-49111723D01*
X66469714Y-49111723D02*
X66422095Y-49206961D01*
X66422095Y-49206961D02*
X66326857Y-49302200D01*
X66326857Y-49302200D02*
X66184000Y-49349819D01*
X66184000Y-49349819D02*
X65945905Y-49349819D01*
X66231714Y-59509819D02*
X65660286Y-59509819D01*
X65946000Y-59509819D02*
X65946000Y-58509819D01*
X65946000Y-58509819D02*
X65850762Y-58652676D01*
X65850762Y-58652676D02*
X65755524Y-58747914D01*
X65755524Y-58747914D02*
X65660286Y-58795533D01*
D14*
X67893333Y-84657812D02*
X67893333Y-83641812D01*
X67893333Y-83641812D02*
X68280381Y-83641812D01*
X68280381Y-83641812D02*
X68377143Y-83690193D01*
X68377143Y-83690193D02*
X68425524Y-83738574D01*
X68425524Y-83738574D02*
X68473905Y-83835336D01*
X68473905Y-83835336D02*
X68473905Y-83980479D01*
X68473905Y-83980479D02*
X68425524Y-84077241D01*
X68425524Y-84077241D02*
X68377143Y-84125622D01*
X68377143Y-84125622D02*
X68280381Y-84174003D01*
X68280381Y-84174003D02*
X67893333Y-84174003D01*
X68909333Y-84657812D02*
X68909333Y-83641812D01*
X68909333Y-83641812D02*
X69248000Y-84367527D01*
X69248000Y-84367527D02*
X69586667Y-83641812D01*
X69586667Y-83641812D02*
X69586667Y-84657812D01*
X70264000Y-83641812D02*
X70457524Y-83641812D01*
X70457524Y-83641812D02*
X70554286Y-83690193D01*
X70554286Y-83690193D02*
X70651048Y-83786955D01*
X70651048Y-83786955D02*
X70699429Y-83980479D01*
X70699429Y-83980479D02*
X70699429Y-84319146D01*
X70699429Y-84319146D02*
X70651048Y-84512670D01*
X70651048Y-84512670D02*
X70554286Y-84609432D01*
X70554286Y-84609432D02*
X70457524Y-84657812D01*
X70457524Y-84657812D02*
X70264000Y-84657812D01*
X70264000Y-84657812D02*
X70167238Y-84609432D01*
X70167238Y-84609432D02*
X70070476Y-84512670D01*
X70070476Y-84512670D02*
X70022095Y-84319146D01*
X70022095Y-84319146D02*
X70022095Y-83980479D01*
X70022095Y-83980479D02*
X70070476Y-83786955D01*
X70070476Y-83786955D02*
X70167238Y-83690193D01*
X70167238Y-83690193D02*
X70264000Y-83641812D01*
X71134857Y-84657812D02*
X71134857Y-83641812D01*
X71134857Y-83641812D02*
X71376762Y-83641812D01*
X71376762Y-83641812D02*
X71521905Y-83690193D01*
X71521905Y-83690193D02*
X71618667Y-83786955D01*
X71618667Y-83786955D02*
X71667048Y-83883717D01*
X71667048Y-83883717D02*
X71715429Y-84077241D01*
X71715429Y-84077241D02*
X71715429Y-84222384D01*
X71715429Y-84222384D02*
X71667048Y-84415908D01*
X71667048Y-84415908D02*
X71618667Y-84512670D01*
X71618667Y-84512670D02*
X71521905Y-84609432D01*
X71521905Y-84609432D02*
X71376762Y-84657812D01*
X71376762Y-84657812D02*
X71134857Y-84657812D01*
X72102476Y-83738574D02*
X72150857Y-83690193D01*
X72150857Y-83690193D02*
X72247619Y-83641812D01*
X72247619Y-83641812D02*
X72489524Y-83641812D01*
X72489524Y-83641812D02*
X72586286Y-83690193D01*
X72586286Y-83690193D02*
X72634667Y-83738574D01*
X72634667Y-83738574D02*
X72683048Y-83835336D01*
X72683048Y-83835336D02*
X72683048Y-83932098D01*
X72683048Y-83932098D02*
X72634667Y-84077241D01*
X72634667Y-84077241D02*
X72054095Y-84657812D01*
X72054095Y-84657812D02*
X72683048Y-84657812D01*
D11*
X63850667Y-68669819D02*
X64184000Y-69669819D01*
X64184000Y-69669819D02*
X64517333Y-68669819D01*
X65422095Y-69574580D02*
X65374476Y-69622200D01*
X65374476Y-69622200D02*
X65231619Y-69669819D01*
X65231619Y-69669819D02*
X65136381Y-69669819D01*
X65136381Y-69669819D02*
X64993524Y-69622200D01*
X64993524Y-69622200D02*
X64898286Y-69526961D01*
X64898286Y-69526961D02*
X64850667Y-69431723D01*
X64850667Y-69431723D02*
X64803048Y-69241247D01*
X64803048Y-69241247D02*
X64803048Y-69098390D01*
X64803048Y-69098390D02*
X64850667Y-68907914D01*
X64850667Y-68907914D02*
X64898286Y-68812676D01*
X64898286Y-68812676D02*
X64993524Y-68717438D01*
X64993524Y-68717438D02*
X65136381Y-68669819D01*
X65136381Y-68669819D02*
X65231619Y-68669819D01*
X65231619Y-68669819D02*
X65374476Y-68717438D01*
X65374476Y-68717438D02*
X65422095Y-68765057D01*
X66422095Y-69574580D02*
X66374476Y-69622200D01*
X66374476Y-69622200D02*
X66231619Y-69669819D01*
X66231619Y-69669819D02*
X66136381Y-69669819D01*
X66136381Y-69669819D02*
X65993524Y-69622200D01*
X65993524Y-69622200D02*
X65898286Y-69526961D01*
X65898286Y-69526961D02*
X65850667Y-69431723D01*
X65850667Y-69431723D02*
X65803048Y-69241247D01*
X65803048Y-69241247D02*
X65803048Y-69098390D01*
X65803048Y-69098390D02*
X65850667Y-68907914D01*
X65850667Y-68907914D02*
X65898286Y-68812676D01*
X65898286Y-68812676D02*
X65993524Y-68717438D01*
X65993524Y-68717438D02*
X66136381Y-68669819D01*
X66136381Y-68669819D02*
X66231619Y-68669819D01*
X66231619Y-68669819D02*
X66374476Y-68717438D01*
X66374476Y-68717438D02*
X66422095Y-68765057D01*
X66231714Y-82369819D02*
X65660286Y-82369819D01*
X65946000Y-82369819D02*
X65946000Y-81369819D01*
X65946000Y-81369819D02*
X65850762Y-81512676D01*
X65850762Y-81512676D02*
X65755524Y-81607914D01*
X65755524Y-81607914D02*
X65660286Y-81655533D01*
X64422095Y-71257438D02*
X64326857Y-71209819D01*
X64326857Y-71209819D02*
X64184000Y-71209819D01*
X64184000Y-71209819D02*
X64041143Y-71257438D01*
X64041143Y-71257438D02*
X63945905Y-71352676D01*
X63945905Y-71352676D02*
X63898286Y-71447914D01*
X63898286Y-71447914D02*
X63850667Y-71638390D01*
X63850667Y-71638390D02*
X63850667Y-71781247D01*
X63850667Y-71781247D02*
X63898286Y-71971723D01*
X63898286Y-71971723D02*
X63945905Y-72066961D01*
X63945905Y-72066961D02*
X64041143Y-72162200D01*
X64041143Y-72162200D02*
X64184000Y-72209819D01*
X64184000Y-72209819D02*
X64279238Y-72209819D01*
X64279238Y-72209819D02*
X64422095Y-72162200D01*
X64422095Y-72162200D02*
X64469714Y-72114580D01*
X64469714Y-72114580D02*
X64469714Y-71781247D01*
X64469714Y-71781247D02*
X64279238Y-71781247D01*
X64898286Y-72209819D02*
X64898286Y-71209819D01*
X64898286Y-71209819D02*
X65469714Y-72209819D01*
X65469714Y-72209819D02*
X65469714Y-71209819D01*
X65945905Y-72209819D02*
X65945905Y-71209819D01*
X65945905Y-71209819D02*
X66184000Y-71209819D01*
X66184000Y-71209819D02*
X66326857Y-71257438D01*
X66326857Y-71257438D02*
X66422095Y-71352676D01*
X66422095Y-71352676D02*
X66469714Y-71447914D01*
X66469714Y-71447914D02*
X66517333Y-71638390D01*
X66517333Y-71638390D02*
X66517333Y-71781247D01*
X66517333Y-71781247D02*
X66469714Y-71971723D01*
X66469714Y-71971723D02*
X66422095Y-72066961D01*
X66422095Y-72066961D02*
X66326857Y-72162200D01*
X66326857Y-72162200D02*
X66184000Y-72209819D01*
X66184000Y-72209819D02*
X65945905Y-72209819D01*
D14*
X67893333Y-107517812D02*
X67893333Y-106501812D01*
X67893333Y-106501812D02*
X68280381Y-106501812D01*
X68280381Y-106501812D02*
X68377143Y-106550193D01*
X68377143Y-106550193D02*
X68425524Y-106598574D01*
X68425524Y-106598574D02*
X68473905Y-106695336D01*
X68473905Y-106695336D02*
X68473905Y-106840479D01*
X68473905Y-106840479D02*
X68425524Y-106937241D01*
X68425524Y-106937241D02*
X68377143Y-106985622D01*
X68377143Y-106985622D02*
X68280381Y-107034003D01*
X68280381Y-107034003D02*
X67893333Y-107034003D01*
X68909333Y-107517812D02*
X68909333Y-106501812D01*
X68909333Y-106501812D02*
X69248000Y-107227527D01*
X69248000Y-107227527D02*
X69586667Y-106501812D01*
X69586667Y-106501812D02*
X69586667Y-107517812D01*
X70264000Y-106501812D02*
X70457524Y-106501812D01*
X70457524Y-106501812D02*
X70554286Y-106550193D01*
X70554286Y-106550193D02*
X70651048Y-106646955D01*
X70651048Y-106646955D02*
X70699429Y-106840479D01*
X70699429Y-106840479D02*
X70699429Y-107179146D01*
X70699429Y-107179146D02*
X70651048Y-107372670D01*
X70651048Y-107372670D02*
X70554286Y-107469432D01*
X70554286Y-107469432D02*
X70457524Y-107517812D01*
X70457524Y-107517812D02*
X70264000Y-107517812D01*
X70264000Y-107517812D02*
X70167238Y-107469432D01*
X70167238Y-107469432D02*
X70070476Y-107372670D01*
X70070476Y-107372670D02*
X70022095Y-107179146D01*
X70022095Y-107179146D02*
X70022095Y-106840479D01*
X70022095Y-106840479D02*
X70070476Y-106646955D01*
X70070476Y-106646955D02*
X70167238Y-106550193D01*
X70167238Y-106550193D02*
X70264000Y-106501812D01*
X71134857Y-107517812D02*
X71134857Y-106501812D01*
X71134857Y-106501812D02*
X71376762Y-106501812D01*
X71376762Y-106501812D02*
X71521905Y-106550193D01*
X71521905Y-106550193D02*
X71618667Y-106646955D01*
X71618667Y-106646955D02*
X71667048Y-106743717D01*
X71667048Y-106743717D02*
X71715429Y-106937241D01*
X71715429Y-106937241D02*
X71715429Y-107082384D01*
X71715429Y-107082384D02*
X71667048Y-107275908D01*
X71667048Y-107275908D02*
X71618667Y-107372670D01*
X71618667Y-107372670D02*
X71521905Y-107469432D01*
X71521905Y-107469432D02*
X71376762Y-107517812D01*
X71376762Y-107517812D02*
X71134857Y-107517812D01*
X72054095Y-106501812D02*
X72683048Y-106501812D01*
X72683048Y-106501812D02*
X72344381Y-106888860D01*
X72344381Y-106888860D02*
X72489524Y-106888860D01*
X72489524Y-106888860D02*
X72586286Y-106937241D01*
X72586286Y-106937241D02*
X72634667Y-106985622D01*
X72634667Y-106985622D02*
X72683048Y-107082384D01*
X72683048Y-107082384D02*
X72683048Y-107324289D01*
X72683048Y-107324289D02*
X72634667Y-107421051D01*
X72634667Y-107421051D02*
X72586286Y-107469432D01*
X72586286Y-107469432D02*
X72489524Y-107517812D01*
X72489524Y-107517812D02*
X72199238Y-107517812D01*
X72199238Y-107517812D02*
X72102476Y-107469432D01*
X72102476Y-107469432D02*
X72054095Y-107421051D01*
D11*
X64422095Y-94117438D02*
X64326857Y-94069819D01*
X64326857Y-94069819D02*
X64184000Y-94069819D01*
X64184000Y-94069819D02*
X64041143Y-94117438D01*
X64041143Y-94117438D02*
X63945905Y-94212676D01*
X63945905Y-94212676D02*
X63898286Y-94307914D01*
X63898286Y-94307914D02*
X63850667Y-94498390D01*
X63850667Y-94498390D02*
X63850667Y-94641247D01*
X63850667Y-94641247D02*
X63898286Y-94831723D01*
X63898286Y-94831723D02*
X63945905Y-94926961D01*
X63945905Y-94926961D02*
X64041143Y-95022200D01*
X64041143Y-95022200D02*
X64184000Y-95069819D01*
X64184000Y-95069819D02*
X64279238Y-95069819D01*
X64279238Y-95069819D02*
X64422095Y-95022200D01*
X64422095Y-95022200D02*
X64469714Y-94974580D01*
X64469714Y-94974580D02*
X64469714Y-94641247D01*
X64469714Y-94641247D02*
X64279238Y-94641247D01*
X64898286Y-95069819D02*
X64898286Y-94069819D01*
X64898286Y-94069819D02*
X65469714Y-95069819D01*
X65469714Y-95069819D02*
X65469714Y-94069819D01*
X65945905Y-95069819D02*
X65945905Y-94069819D01*
X65945905Y-94069819D02*
X66184000Y-94069819D01*
X66184000Y-94069819D02*
X66326857Y-94117438D01*
X66326857Y-94117438D02*
X66422095Y-94212676D01*
X66422095Y-94212676D02*
X66469714Y-94307914D01*
X66469714Y-94307914D02*
X66517333Y-94498390D01*
X66517333Y-94498390D02*
X66517333Y-94641247D01*
X66517333Y-94641247D02*
X66469714Y-94831723D01*
X66469714Y-94831723D02*
X66422095Y-94926961D01*
X66422095Y-94926961D02*
X66326857Y-95022200D01*
X66326857Y-95022200D02*
X66184000Y-95069819D01*
X66184000Y-95069819D02*
X65945905Y-95069819D01*
X66231714Y-105229819D02*
X65660286Y-105229819D01*
X65946000Y-105229819D02*
X65946000Y-104229819D01*
X65946000Y-104229819D02*
X65850762Y-104372676D01*
X65850762Y-104372676D02*
X65755524Y-104467914D01*
X65755524Y-104467914D02*
X65660286Y-104515533D01*
X63850667Y-91529819D02*
X64184000Y-92529819D01*
X64184000Y-92529819D02*
X64517333Y-91529819D01*
X65422095Y-92434580D02*
X65374476Y-92482200D01*
X65374476Y-92482200D02*
X65231619Y-92529819D01*
X65231619Y-92529819D02*
X65136381Y-92529819D01*
X65136381Y-92529819D02*
X64993524Y-92482200D01*
X64993524Y-92482200D02*
X64898286Y-92386961D01*
X64898286Y-92386961D02*
X64850667Y-92291723D01*
X64850667Y-92291723D02*
X64803048Y-92101247D01*
X64803048Y-92101247D02*
X64803048Y-91958390D01*
X64803048Y-91958390D02*
X64850667Y-91767914D01*
X64850667Y-91767914D02*
X64898286Y-91672676D01*
X64898286Y-91672676D02*
X64993524Y-91577438D01*
X64993524Y-91577438D02*
X65136381Y-91529819D01*
X65136381Y-91529819D02*
X65231619Y-91529819D01*
X65231619Y-91529819D02*
X65374476Y-91577438D01*
X65374476Y-91577438D02*
X65422095Y-91625057D01*
X66422095Y-92434580D02*
X66374476Y-92482200D01*
X66374476Y-92482200D02*
X66231619Y-92529819D01*
X66231619Y-92529819D02*
X66136381Y-92529819D01*
X66136381Y-92529819D02*
X65993524Y-92482200D01*
X65993524Y-92482200D02*
X65898286Y-92386961D01*
X65898286Y-92386961D02*
X65850667Y-92291723D01*
X65850667Y-92291723D02*
X65803048Y-92101247D01*
X65803048Y-92101247D02*
X65803048Y-91958390D01*
X65803048Y-91958390D02*
X65850667Y-91767914D01*
X65850667Y-91767914D02*
X65898286Y-91672676D01*
X65898286Y-91672676D02*
X65993524Y-91577438D01*
X65993524Y-91577438D02*
X66136381Y-91529819D01*
X66136381Y-91529819D02*
X66231619Y-91529819D01*
X66231619Y-91529819D02*
X66374476Y-91577438D01*
X66374476Y-91577438D02*
X66422095Y-91625057D01*
D14*
X67893333Y-130377812D02*
X67893333Y-129361812D01*
X67893333Y-129361812D02*
X68280381Y-129361812D01*
X68280381Y-129361812D02*
X68377143Y-129410193D01*
X68377143Y-129410193D02*
X68425524Y-129458574D01*
X68425524Y-129458574D02*
X68473905Y-129555336D01*
X68473905Y-129555336D02*
X68473905Y-129700479D01*
X68473905Y-129700479D02*
X68425524Y-129797241D01*
X68425524Y-129797241D02*
X68377143Y-129845622D01*
X68377143Y-129845622D02*
X68280381Y-129894003D01*
X68280381Y-129894003D02*
X67893333Y-129894003D01*
X68909333Y-130377812D02*
X68909333Y-129361812D01*
X68909333Y-129361812D02*
X69248000Y-130087527D01*
X69248000Y-130087527D02*
X69586667Y-129361812D01*
X69586667Y-129361812D02*
X69586667Y-130377812D01*
X70264000Y-129361812D02*
X70457524Y-129361812D01*
X70457524Y-129361812D02*
X70554286Y-129410193D01*
X70554286Y-129410193D02*
X70651048Y-129506955D01*
X70651048Y-129506955D02*
X70699429Y-129700479D01*
X70699429Y-129700479D02*
X70699429Y-130039146D01*
X70699429Y-130039146D02*
X70651048Y-130232670D01*
X70651048Y-130232670D02*
X70554286Y-130329432D01*
X70554286Y-130329432D02*
X70457524Y-130377812D01*
X70457524Y-130377812D02*
X70264000Y-130377812D01*
X70264000Y-130377812D02*
X70167238Y-130329432D01*
X70167238Y-130329432D02*
X70070476Y-130232670D01*
X70070476Y-130232670D02*
X70022095Y-130039146D01*
X70022095Y-130039146D02*
X70022095Y-129700479D01*
X70022095Y-129700479D02*
X70070476Y-129506955D01*
X70070476Y-129506955D02*
X70167238Y-129410193D01*
X70167238Y-129410193D02*
X70264000Y-129361812D01*
X71134857Y-130377812D02*
X71134857Y-129361812D01*
X71134857Y-129361812D02*
X71376762Y-129361812D01*
X71376762Y-129361812D02*
X71521905Y-129410193D01*
X71521905Y-129410193D02*
X71618667Y-129506955D01*
X71618667Y-129506955D02*
X71667048Y-129603717D01*
X71667048Y-129603717D02*
X71715429Y-129797241D01*
X71715429Y-129797241D02*
X71715429Y-129942384D01*
X71715429Y-129942384D02*
X71667048Y-130135908D01*
X71667048Y-130135908D02*
X71618667Y-130232670D01*
X71618667Y-130232670D02*
X71521905Y-130329432D01*
X71521905Y-130329432D02*
X71376762Y-130377812D01*
X71376762Y-130377812D02*
X71134857Y-130377812D01*
X72586286Y-129700479D02*
X72586286Y-130377812D01*
X72344381Y-129313432D02*
X72102476Y-130039146D01*
X72102476Y-130039146D02*
X72731429Y-130039146D01*
D11*
X63850667Y-114389819D02*
X64184000Y-115389819D01*
X64184000Y-115389819D02*
X64517333Y-114389819D01*
X65422095Y-115294580D02*
X65374476Y-115342200D01*
X65374476Y-115342200D02*
X65231619Y-115389819D01*
X65231619Y-115389819D02*
X65136381Y-115389819D01*
X65136381Y-115389819D02*
X64993524Y-115342200D01*
X64993524Y-115342200D02*
X64898286Y-115246961D01*
X64898286Y-115246961D02*
X64850667Y-115151723D01*
X64850667Y-115151723D02*
X64803048Y-114961247D01*
X64803048Y-114961247D02*
X64803048Y-114818390D01*
X64803048Y-114818390D02*
X64850667Y-114627914D01*
X64850667Y-114627914D02*
X64898286Y-114532676D01*
X64898286Y-114532676D02*
X64993524Y-114437438D01*
X64993524Y-114437438D02*
X65136381Y-114389819D01*
X65136381Y-114389819D02*
X65231619Y-114389819D01*
X65231619Y-114389819D02*
X65374476Y-114437438D01*
X65374476Y-114437438D02*
X65422095Y-114485057D01*
X66422095Y-115294580D02*
X66374476Y-115342200D01*
X66374476Y-115342200D02*
X66231619Y-115389819D01*
X66231619Y-115389819D02*
X66136381Y-115389819D01*
X66136381Y-115389819D02*
X65993524Y-115342200D01*
X65993524Y-115342200D02*
X65898286Y-115246961D01*
X65898286Y-115246961D02*
X65850667Y-115151723D01*
X65850667Y-115151723D02*
X65803048Y-114961247D01*
X65803048Y-114961247D02*
X65803048Y-114818390D01*
X65803048Y-114818390D02*
X65850667Y-114627914D01*
X65850667Y-114627914D02*
X65898286Y-114532676D01*
X65898286Y-114532676D02*
X65993524Y-114437438D01*
X65993524Y-114437438D02*
X66136381Y-114389819D01*
X66136381Y-114389819D02*
X66231619Y-114389819D01*
X66231619Y-114389819D02*
X66374476Y-114437438D01*
X66374476Y-114437438D02*
X66422095Y-114485057D01*
X66231714Y-128089819D02*
X65660286Y-128089819D01*
X65946000Y-128089819D02*
X65946000Y-127089819D01*
X65946000Y-127089819D02*
X65850762Y-127232676D01*
X65850762Y-127232676D02*
X65755524Y-127327914D01*
X65755524Y-127327914D02*
X65660286Y-127375533D01*
X64422095Y-116977438D02*
X64326857Y-116929819D01*
X64326857Y-116929819D02*
X64184000Y-116929819D01*
X64184000Y-116929819D02*
X64041143Y-116977438D01*
X64041143Y-116977438D02*
X63945905Y-117072676D01*
X63945905Y-117072676D02*
X63898286Y-117167914D01*
X63898286Y-117167914D02*
X63850667Y-117358390D01*
X63850667Y-117358390D02*
X63850667Y-117501247D01*
X63850667Y-117501247D02*
X63898286Y-117691723D01*
X63898286Y-117691723D02*
X63945905Y-117786961D01*
X63945905Y-117786961D02*
X64041143Y-117882200D01*
X64041143Y-117882200D02*
X64184000Y-117929819D01*
X64184000Y-117929819D02*
X64279238Y-117929819D01*
X64279238Y-117929819D02*
X64422095Y-117882200D01*
X64422095Y-117882200D02*
X64469714Y-117834580D01*
X64469714Y-117834580D02*
X64469714Y-117501247D01*
X64469714Y-117501247D02*
X64279238Y-117501247D01*
X64898286Y-117929819D02*
X64898286Y-116929819D01*
X64898286Y-116929819D02*
X65469714Y-117929819D01*
X65469714Y-117929819D02*
X65469714Y-116929819D01*
X65945905Y-117929819D02*
X65945905Y-116929819D01*
X65945905Y-116929819D02*
X66184000Y-116929819D01*
X66184000Y-116929819D02*
X66326857Y-116977438D01*
X66326857Y-116977438D02*
X66422095Y-117072676D01*
X66422095Y-117072676D02*
X66469714Y-117167914D01*
X66469714Y-117167914D02*
X66517333Y-117358390D01*
X66517333Y-117358390D02*
X66517333Y-117501247D01*
X66517333Y-117501247D02*
X66469714Y-117691723D01*
X66469714Y-117691723D02*
X66422095Y-117786961D01*
X66422095Y-117786961D02*
X66326857Y-117882200D01*
X66326857Y-117882200D02*
X66184000Y-117929819D01*
X66184000Y-117929819D02*
X65945905Y-117929819D01*
D15*
%TO.C,U5*%
X50609500Y-90879000D02*
X50369500Y-90549000D01*
X50849500Y-90549000D01*
X50609500Y-90879000D01*
G36*
X50609500Y-90879000D02*
G01*
X50369500Y-90549000D01*
X50849500Y-90549000D01*
X50609500Y-90879000D01*
G37*
X53309500Y-100944000D02*
X55259500Y-100944000D01*
X53309500Y-100944000D02*
X51359500Y-100944000D01*
X53309500Y-90824000D02*
X55259500Y-90824000D01*
X53309500Y-90824000D02*
X51359500Y-90824000D01*
%TO.C,U8*%
X50609500Y-122311500D02*
X50369500Y-121981500D01*
X50849500Y-121981500D01*
X50609500Y-122311500D01*
G36*
X50609500Y-122311500D02*
G01*
X50369500Y-121981500D01*
X50849500Y-121981500D01*
X50609500Y-122311500D01*
G37*
X53309500Y-132376500D02*
X55259500Y-132376500D01*
X53309500Y-132376500D02*
X51359500Y-132376500D01*
X53309500Y-122256500D02*
X55259500Y-122256500D01*
X53309500Y-122256500D02*
X51359500Y-122256500D01*
D16*
%TO.C,J2*%
X43889500Y-138439000D02*
X34789500Y-138439000D01*
X43889500Y-87599000D02*
X43889500Y-138439000D01*
X34789500Y-138439000D02*
X34767500Y-115569000D01*
X34789500Y-87599000D02*
X43889500Y-87599000D01*
X34767500Y-110489000D02*
X34789500Y-87599000D01*
D15*
%TO.C,C7*%
X58029500Y-116723165D02*
X58029500Y-116954835D01*
X58749500Y-116723165D02*
X58749500Y-116954835D01*
%TO.C,C6*%
X57964500Y-106245665D02*
X57964500Y-106477335D01*
X58684500Y-106245665D02*
X58684500Y-106477335D01*
%TO.C,U7*%
X50609500Y-111834000D02*
X50369500Y-111504000D01*
X50849500Y-111504000D01*
X50609500Y-111834000D01*
G36*
X50609500Y-111834000D02*
G01*
X50369500Y-111504000D01*
X50849500Y-111504000D01*
X50609500Y-111834000D01*
G37*
X53309500Y-121899000D02*
X55259500Y-121899000D01*
X53309500Y-121899000D02*
X51359500Y-121899000D01*
X53309500Y-111779000D02*
X55259500Y-111779000D01*
X53309500Y-111779000D02*
X51359500Y-111779000D01*
%TO.C,C8*%
X58029500Y-127200665D02*
X58029500Y-127432335D01*
X58749500Y-127200665D02*
X58749500Y-127432335D01*
%TO.C,U6*%
X50609500Y-101356500D02*
X50369500Y-101026500D01*
X50849500Y-101026500D01*
X50609500Y-101356500D01*
G36*
X50609500Y-101356500D02*
G01*
X50369500Y-101026500D01*
X50849500Y-101026500D01*
X50609500Y-101356500D01*
G37*
X53309500Y-111421500D02*
X55259500Y-111421500D01*
X53309500Y-111421500D02*
X51359500Y-111421500D01*
X53309500Y-101301500D02*
X55259500Y-101301500D01*
X53309500Y-101301500D02*
X51359500Y-101301500D01*
%TO.C,C5*%
X58094500Y-95768165D02*
X58094500Y-95999835D01*
X58814500Y-95768165D02*
X58814500Y-95999835D01*
D16*
%TO.C,J1*%
X34767500Y-58430000D02*
X34789500Y-35540000D01*
X34789500Y-35540000D02*
X43889500Y-35540000D01*
X34789500Y-86380000D02*
X34767500Y-63510000D01*
X43889500Y-35540000D02*
X43889500Y-86380000D01*
X43889500Y-86380000D02*
X34789500Y-86380000D01*
D15*
%TO.C,U1*%
X50609500Y-38820000D02*
X50369500Y-38490000D01*
X50849500Y-38490000D01*
X50609500Y-38820000D01*
G36*
X50609500Y-38820000D02*
G01*
X50369500Y-38490000D01*
X50849500Y-38490000D01*
X50609500Y-38820000D01*
G37*
X53309500Y-48885000D02*
X55259500Y-48885000D01*
X53309500Y-48885000D02*
X51359500Y-48885000D01*
X53309500Y-38765000D02*
X55259500Y-38765000D01*
X53309500Y-38765000D02*
X51359500Y-38765000D01*
%TO.C,U4*%
X53309500Y-70197500D02*
X51359500Y-70197500D01*
X53309500Y-70197500D02*
X55259500Y-70197500D01*
X53309500Y-80317500D02*
X51359500Y-80317500D01*
X53309500Y-80317500D02*
X55259500Y-80317500D01*
X50609500Y-70252500D02*
X50369500Y-69922500D01*
X50849500Y-69922500D01*
X50609500Y-70252500D01*
G36*
X50609500Y-70252500D02*
G01*
X50369500Y-69922500D01*
X50849500Y-69922500D01*
X50609500Y-70252500D01*
G37*
%TO.C,C4*%
X58749500Y-64664165D02*
X58749500Y-64895835D01*
X58029500Y-64664165D02*
X58029500Y-64895835D01*
%TO.C,C2*%
X57964500Y-54186665D02*
X57964500Y-54418335D01*
X58684500Y-54186665D02*
X58684500Y-54418335D01*
%TO.C,U3*%
X53309500Y-59720000D02*
X51359500Y-59720000D01*
X53309500Y-59720000D02*
X55259500Y-59720000D01*
X53309500Y-69840000D02*
X51359500Y-69840000D01*
X53309500Y-69840000D02*
X55259500Y-69840000D01*
X50609500Y-59775000D02*
X50369500Y-59445000D01*
X50849500Y-59445000D01*
X50609500Y-59775000D01*
G36*
X50609500Y-59775000D02*
G01*
X50369500Y-59445000D01*
X50849500Y-59445000D01*
X50609500Y-59775000D01*
G37*
%TO.C,C3*%
X58749500Y-75141665D02*
X58749500Y-75373335D01*
X58029500Y-75141665D02*
X58029500Y-75373335D01*
%TO.C,U2*%
X50609500Y-49297500D02*
X50369500Y-48967500D01*
X50849500Y-48967500D01*
X50609500Y-49297500D01*
G36*
X50609500Y-49297500D02*
G01*
X50369500Y-48967500D01*
X50849500Y-48967500D01*
X50609500Y-49297500D01*
G37*
X53309500Y-59362500D02*
X55259500Y-59362500D01*
X53309500Y-59362500D02*
X51359500Y-59362500D01*
X53309500Y-49242500D02*
X55259500Y-49242500D01*
X53309500Y-49242500D02*
X51359500Y-49242500D01*
%TO.C,C1*%
X58094500Y-43709165D02*
X58094500Y-43940835D01*
X58814500Y-43709165D02*
X58814500Y-43940835D01*
D17*
%TO.C,PMOD1*%
X72042000Y-60325000D02*
X72042000Y-45085000D01*
X72042000Y-45085000D02*
X66962000Y-45085000D01*
X66962000Y-60325000D02*
X72042000Y-60325000D01*
X66962000Y-50165000D02*
X72042000Y-50165000D01*
X66962000Y-45085000D02*
X66962000Y-60325000D01*
%TO.C,PMOD2*%
X72042000Y-83185000D02*
X72042000Y-67945000D01*
X72042000Y-67945000D02*
X66962000Y-67945000D01*
X66962000Y-83185000D02*
X72042000Y-83185000D01*
X66962000Y-73025000D02*
X72042000Y-73025000D01*
X66962000Y-67945000D02*
X66962000Y-83185000D01*
%TO.C,PMOD3*%
X66962000Y-90805000D02*
X66962000Y-106045000D01*
X66962000Y-95885000D02*
X72042000Y-95885000D01*
X66962000Y-106045000D02*
X72042000Y-106045000D01*
X72042000Y-90805000D02*
X66962000Y-90805000D01*
X72042000Y-106045000D02*
X72042000Y-90805000D01*
%TO.C,PMOD4*%
X66962000Y-113665000D02*
X66962000Y-128905000D01*
X66962000Y-118745000D02*
X72042000Y-118745000D01*
X66962000Y-128905000D02*
X72042000Y-128905000D01*
X72042000Y-113665000D02*
X66962000Y-113665000D01*
X72042000Y-128905000D02*
X72042000Y-113665000D01*
%TD*%
M02*
