%TF.GenerationSoftware,KiCad,Pcbnew,9.0.0-9.0.0-2~ubuntu24.04.1*%
%TF.CreationDate,2025-03-20T00:33:01-04:00*%
%TF.ProjectId,LVDS-PMOD,4c564453-2d50-44d4-9f44-2e6b69636164,1*%
%TF.SameCoordinates,Original*%
%TF.FileFunction,Copper,L3,Inr*%
%TF.FilePolarity,Positive*%
%FSLAX46Y46*%
G04 Gerber Fmt 4.6, Leading zero omitted, Abs format (unit mm)*
G04 Created by KiCad (PCBNEW 9.0.0-9.0.0-2~ubuntu24.04.1) date 2025-03-20 00:33:01*
%MOMM*%
%LPD*%
G01*
G04 APERTURE LIST*
%TA.AperFunction,ComponentPad*%
%ADD10C,1.700000*%
%TD*%
%TA.AperFunction,ComponentPad*%
%ADD11C,1.524000*%
%TD*%
%TA.AperFunction,ComponentPad*%
%ADD12R,1.524000X1.524000*%
%TD*%
%TA.AperFunction,ViaPad*%
%ADD13C,0.812800*%
%TD*%
G04 APERTURE END LIST*
D10*
%TO.N,/LVDS Port CD/IN1-*%
%TO.C,J2*%
X40609500Y-92709000D03*
%TO.N,/LVDS Port CD/IN2-*%
X40609500Y-95249000D03*
%TO.N,/LVDS Port CD/IN3-*%
X40609500Y-97789000D03*
%TO.N,/LVDS Port CD/IN4-*%
X40609500Y-100329000D03*
%TO.N,/LVDS Port CD/IN5-*%
X40609500Y-102869000D03*
%TO.N,/LVDS Port CD/IN6-*%
X40609500Y-105409000D03*
%TO.N,/LVDS Port CD/IN7-*%
X40609500Y-107949000D03*
%TO.N,/LVDS Port CD/IN8-*%
X40609500Y-110489000D03*
%TO.N,/LVDS Port CD/IN9-*%
X40609500Y-113029000D03*
%TO.N,/LVDS Port CD/IN10-*%
X40609500Y-115569000D03*
%TO.N,/LVDS Port CD/IN11-*%
X40609500Y-118109000D03*
%TO.N,/LVDS Port CD/IN12-*%
X40609500Y-120649000D03*
%TO.N,/LVDS Port CD/IN13-*%
X40609500Y-123189000D03*
%TO.N,/LVDS Port CD/IN14-*%
X40609500Y-125729000D03*
%TO.N,/LVDS Port CD/IN15-*%
X40609500Y-128269000D03*
%TO.N,/LVDS Port CD/IN16-*%
X40609500Y-130809000D03*
%TO.N,/LVDS Port CD/CONNGND*%
%TA.AperFunction,ComponentPad*%
G36*
G01*
X39759500Y-133949000D02*
X39759500Y-132749000D01*
G75*
G02*
X40009500Y-132499000I250000J0D01*
G01*
X41209500Y-132499000D01*
G75*
G02*
X41459500Y-132749000I0J-250000D01*
G01*
X41459500Y-133949000D01*
G75*
G02*
X41209500Y-134199000I-250000J0D01*
G01*
X40009500Y-134199000D01*
G75*
G02*
X39759500Y-133949000I0J250000D01*
G01*
G37*
%TD.AperFunction*%
%TA.AperFunction,ComponentPad*%
G36*
G01*
X37219500Y-133949000D02*
X37219500Y-132749000D01*
G75*
G02*
X37469500Y-132499000I250000J0D01*
G01*
X38669500Y-132499000D01*
G75*
G02*
X38919500Y-132749000I0J-250000D01*
G01*
X38919500Y-133949000D01*
G75*
G02*
X38669500Y-134199000I-250000J0D01*
G01*
X37469500Y-134199000D01*
G75*
G02*
X37219500Y-133949000I0J250000D01*
G01*
G37*
%TD.AperFunction*%
%TO.N,/LVDS Port CD/IN16+*%
X38069500Y-130809000D03*
%TO.N,/LVDS Port CD/IN15+*%
X38069500Y-128269000D03*
%TO.N,/LVDS Port CD/IN14+*%
X38069500Y-125729000D03*
%TO.N,/LVDS Port CD/IN13+*%
X38069500Y-123189000D03*
%TO.N,/LVDS Port CD/IN12+*%
X38069500Y-120649000D03*
%TO.N,/LVDS Port CD/IN11+*%
X38069500Y-118109000D03*
%TO.N,/LVDS Port CD/IN10+*%
X38069500Y-115569000D03*
%TO.N,/LVDS Port CD/IN9+*%
X38069500Y-113029000D03*
%TO.N,/LVDS Port CD/IN8+*%
X38069500Y-110489000D03*
%TO.N,/LVDS Port CD/IN7+*%
X38069500Y-107949000D03*
%TO.N,/LVDS Port CD/IN6+*%
X38069500Y-105409000D03*
%TO.N,/LVDS Port CD/IN5+*%
X38069500Y-102869000D03*
%TO.N,/LVDS Port CD/IN4+*%
X38069500Y-100329000D03*
%TO.N,/LVDS Port CD/IN3+*%
X38069500Y-97789000D03*
%TO.N,/LVDS Port CD/IN2+*%
X38069500Y-95249000D03*
%TO.N,/LVDS Port CD/IN1+*%
X38069500Y-92709000D03*
%TD*%
%TO.N,/LVDS Port AB/IN1+*%
%TO.C,J1*%
X38069500Y-40650000D03*
%TO.N,/LVDS Port AB/IN2+*%
X38069500Y-43190000D03*
%TO.N,/LVDS Port AB/IN3+*%
X38069500Y-45730000D03*
%TO.N,/LVDS Port AB/IN4+*%
X38069500Y-48270000D03*
%TO.N,/LVDS Port AB/IN5+*%
X38069500Y-50810000D03*
%TO.N,/LVDS Port AB/IN6+*%
X38069500Y-53350000D03*
%TO.N,/LVDS Port AB/IN7+*%
X38069500Y-55890000D03*
%TO.N,/LVDS Port AB/IN8+*%
X38069500Y-58430000D03*
%TO.N,/LVDS Port AB/IN9+*%
X38069500Y-60970000D03*
%TO.N,/LVDS Port AB/IN10+*%
X38069500Y-63510000D03*
%TO.N,/LVDS Port AB/IN11+*%
X38069500Y-66050000D03*
%TO.N,/LVDS Port AB/IN12+*%
X38069500Y-68590000D03*
%TO.N,/LVDS Port AB/IN13+*%
X38069500Y-71130000D03*
%TO.N,/LVDS Port AB/IN14+*%
X38069500Y-73670000D03*
%TO.N,/LVDS Port AB/IN15+*%
X38069500Y-76210000D03*
%TO.N,/LVDS Port AB/IN16+*%
X38069500Y-78750000D03*
%TO.N,/LVDS Port AB/CONNGND*%
%TA.AperFunction,ComponentPad*%
G36*
G01*
X37219500Y-81890000D02*
X37219500Y-80690000D01*
G75*
G02*
X37469500Y-80440000I250000J0D01*
G01*
X38669500Y-80440000D01*
G75*
G02*
X38919500Y-80690000I0J-250000D01*
G01*
X38919500Y-81890000D01*
G75*
G02*
X38669500Y-82140000I-250000J0D01*
G01*
X37469500Y-82140000D01*
G75*
G02*
X37219500Y-81890000I0J250000D01*
G01*
G37*
%TD.AperFunction*%
%TA.AperFunction,ComponentPad*%
G36*
G01*
X39759500Y-81890000D02*
X39759500Y-80690000D01*
G75*
G02*
X40009500Y-80440000I250000J0D01*
G01*
X41209500Y-80440000D01*
G75*
G02*
X41459500Y-80690000I0J-250000D01*
G01*
X41459500Y-81890000D01*
G75*
G02*
X41209500Y-82140000I-250000J0D01*
G01*
X40009500Y-82140000D01*
G75*
G02*
X39759500Y-81890000I0J250000D01*
G01*
G37*
%TD.AperFunction*%
%TO.N,/LVDS Port AB/IN16-*%
X40609500Y-78750000D03*
%TO.N,/LVDS Port AB/IN15-*%
X40609500Y-76210000D03*
%TO.N,/LVDS Port AB/IN14-*%
X40609500Y-73670000D03*
%TO.N,/LVDS Port AB/IN13-*%
X40609500Y-71130000D03*
%TO.N,/LVDS Port AB/IN12-*%
X40609500Y-68590000D03*
%TO.N,/LVDS Port AB/IN11-*%
X40609500Y-66050000D03*
%TO.N,/LVDS Port AB/IN10-*%
X40609500Y-63510000D03*
%TO.N,/LVDS Port AB/IN9-*%
X40609500Y-60970000D03*
%TO.N,/LVDS Port AB/IN8-*%
X40609500Y-58430000D03*
%TO.N,/LVDS Port AB/IN7-*%
X40609500Y-55890000D03*
%TO.N,/LVDS Port AB/IN6-*%
X40609500Y-53350000D03*
%TO.N,/LVDS Port AB/IN5-*%
X40609500Y-50810000D03*
%TO.N,/LVDS Port AB/IN4-*%
X40609500Y-48270000D03*
%TO.N,/LVDS Port AB/IN3-*%
X40609500Y-45730000D03*
%TO.N,/LVDS Port AB/IN2-*%
X40609500Y-43190000D03*
%TO.N,/LVDS Port AB/IN1-*%
X40609500Y-40650000D03*
%TD*%
D11*
%TO.N,+3V3A*%
%TO.C,PMOD1*%
X70772000Y-46355000D03*
%TO.N,GND*%
X70772000Y-48895000D03*
%TO.N,/LVDS Port AB/IN2*%
X70772000Y-51435000D03*
%TO.N,/LVDS Port AB/IN4*%
X70772000Y-53975000D03*
%TO.N,/LVDS Port AB/IN6*%
X70772000Y-56515000D03*
%TO.N,/LVDS Port AB/IN8*%
X70772000Y-59055000D03*
%TO.N,+3V3A*%
X68232000Y-46355000D03*
%TO.N,GND*%
X68232000Y-48895000D03*
%TO.N,/LVDS Port AB/IN1*%
X68232000Y-51435000D03*
%TO.N,/LVDS Port AB/IN3*%
X68232000Y-53975000D03*
%TO.N,/LVDS Port AB/IN5*%
X68232000Y-56515000D03*
D12*
%TO.N,/LVDS Port AB/IN7*%
X68232000Y-59055000D03*
%TD*%
D11*
%TO.N,+3V3B*%
%TO.C,PMOD2*%
X70772000Y-69215000D03*
%TO.N,GND*%
X70772000Y-71755000D03*
%TO.N,/LVDS Port AB/IN10*%
X70772000Y-74295000D03*
%TO.N,/LVDS Port AB/IN12*%
X70772000Y-76835000D03*
%TO.N,/LVDS Port AB/IN14*%
X70772000Y-79375000D03*
%TO.N,/LVDS Port AB/IN16*%
X70772000Y-81915000D03*
%TO.N,+3V3B*%
X68232000Y-69215000D03*
%TO.N,GND*%
X68232000Y-71755000D03*
%TO.N,/LVDS Port AB/IN9*%
X68232000Y-74295000D03*
%TO.N,/LVDS Port AB/IN11*%
X68232000Y-76835000D03*
%TO.N,/LVDS Port AB/IN13*%
X68232000Y-79375000D03*
D12*
%TO.N,/LVDS Port AB/IN15*%
X68232000Y-81915000D03*
%TD*%
%TO.N,/LVDS Port CD/IN7*%
%TO.C,PMOD3*%
X68232000Y-104775000D03*
D11*
%TO.N,/LVDS Port CD/IN5*%
X68232000Y-102235000D03*
%TO.N,/LVDS Port CD/IN3*%
X68232000Y-99695000D03*
%TO.N,/LVDS Port CD/IN1*%
X68232000Y-97155000D03*
%TO.N,GND*%
X68232000Y-94615000D03*
%TO.N,+3V3C*%
X68232000Y-92075000D03*
%TO.N,/LVDS Port CD/IN8*%
X70772000Y-104775000D03*
%TO.N,/LVDS Port CD/IN6*%
X70772000Y-102235000D03*
%TO.N,/LVDS Port CD/IN4*%
X70772000Y-99695000D03*
%TO.N,/LVDS Port CD/IN2*%
X70772000Y-97155000D03*
%TO.N,GND*%
X70772000Y-94615000D03*
%TO.N,+3V3C*%
X70772000Y-92075000D03*
%TD*%
D12*
%TO.N,/LVDS Port CD/IN15*%
%TO.C,PMOD4*%
X68232000Y-127635000D03*
D11*
%TO.N,/LVDS Port CD/IN13*%
X68232000Y-125095000D03*
%TO.N,/LVDS Port CD/IN11*%
X68232000Y-122555000D03*
%TO.N,/LVDS Port CD/IN9*%
X68232000Y-120015000D03*
%TO.N,GND*%
X68232000Y-117475000D03*
%TO.N,+3V3D*%
X68232000Y-114935000D03*
%TO.N,/LVDS Port CD/IN16*%
X70772000Y-127635000D03*
%TO.N,/LVDS Port CD/IN14*%
X70772000Y-125095000D03*
%TO.N,/LVDS Port CD/IN12*%
X70772000Y-122555000D03*
%TO.N,/LVDS Port CD/IN10*%
X70772000Y-120015000D03*
%TO.N,GND*%
X70772000Y-117475000D03*
%TO.N,+3V3D*%
X70772000Y-114935000D03*
%TD*%
D13*
%TO.N,+3V3C*%
X54009500Y-91439000D03*
%TO.N,GND*%
X57437000Y-106996500D03*
X53944500Y-121284000D03*
X53879500Y-110806500D03*
%TO.N,+3V3D*%
X53944500Y-112394000D03*
%TO.N,GND*%
X57437000Y-127951500D03*
X54009500Y-100329000D03*
%TO.N,+3V3C*%
X57502000Y-95249000D03*
%TO.N,+3V3D*%
X57437000Y-126749000D03*
%TO.N,GND*%
X53879500Y-131761500D03*
X57437000Y-117474000D03*
X57502000Y-96519000D03*
%TO.N,+3V3C*%
X57437000Y-105726500D03*
%TO.N,+3V3D*%
X57437000Y-116204000D03*
%TO.N,+3V3C*%
X53879500Y-101916500D03*
%TO.N,+3V3D*%
X53879500Y-122871500D03*
%TO.N,+3V3B*%
X53879500Y-70812500D03*
%TO.N,+3V3A*%
X53879500Y-49857500D03*
%TO.N,+3V3B*%
X57437000Y-64145000D03*
%TO.N,+3V3A*%
X57437000Y-53667500D03*
%TO.N,GND*%
X57502000Y-44460000D03*
X57437000Y-65415000D03*
X53879500Y-79702500D03*
%TO.N,+3V3B*%
X57437000Y-74690000D03*
%TO.N,+3V3A*%
X57502000Y-43190000D03*
%TO.N,GND*%
X54009500Y-48270000D03*
X57437000Y-75892500D03*
%TO.N,+3V3B*%
X53944500Y-60335000D03*
%TO.N,GND*%
X53879500Y-58747500D03*
X53944500Y-69225000D03*
X57437000Y-54937500D03*
%TO.N,+3V3A*%
X54009500Y-39380000D03*
%TD*%
%TA.AperFunction,Conductor*%
%TO.N,+3V3A*%
G36*
X56958423Y-32151185D02*
G01*
X56984362Y-32173457D01*
X64557447Y-40756287D01*
X66324983Y-42759494D01*
X66338592Y-42778424D01*
X66339220Y-42779242D01*
X66339222Y-42779244D01*
X66339224Y-42779247D01*
X66366324Y-42806347D01*
X66391667Y-42835069D01*
X66401717Y-42841740D01*
X66410253Y-42850276D01*
X66443438Y-42869435D01*
X66475358Y-42890624D01*
X66486797Y-42894468D01*
X66497246Y-42900501D01*
X66530526Y-42909418D01*
X66537908Y-42911646D01*
X66570576Y-42922625D01*
X66572613Y-42922752D01*
X66582627Y-42923378D01*
X66594275Y-42926500D01*
X66632565Y-42926500D01*
X66636404Y-42926740D01*
X66636430Y-42926741D01*
X66638506Y-42926870D01*
X66670830Y-42928891D01*
X66670838Y-42928889D01*
X66671901Y-42928816D01*
X66695065Y-42926500D01*
X74076500Y-42926500D01*
X74143539Y-42946185D01*
X74189294Y-42998989D01*
X74200500Y-43050500D01*
X74200500Y-59060500D01*
X74180815Y-59127539D01*
X74128011Y-59173294D01*
X74076500Y-59184500D01*
X72158500Y-59184500D01*
X72091461Y-59164815D01*
X72045706Y-59112011D01*
X72034500Y-59060500D01*
X72034500Y-58955639D01*
X72015681Y-58836822D01*
X72003413Y-58759364D01*
X71942005Y-58570368D01*
X71942005Y-58570367D01*
X71896035Y-58480149D01*
X71851787Y-58393306D01*
X71734981Y-58232536D01*
X71594464Y-58092019D01*
X71433694Y-57975213D01*
X71277218Y-57895484D01*
X71226423Y-57847510D01*
X71209628Y-57779689D01*
X71232165Y-57713554D01*
X71277218Y-57674515D01*
X71433694Y-57594787D01*
X71594464Y-57477981D01*
X71734981Y-57337464D01*
X71851787Y-57176694D01*
X71942005Y-56999632D01*
X72003413Y-56810636D01*
X72034500Y-56614361D01*
X72034500Y-56415639D01*
X72003413Y-56219364D01*
X71942005Y-56030368D01*
X71942005Y-56030367D01*
X71851786Y-55853305D01*
X71845316Y-55844400D01*
X71734981Y-55692536D01*
X71594464Y-55552019D01*
X71433694Y-55435213D01*
X71277218Y-55355484D01*
X71226423Y-55307510D01*
X71209628Y-55239689D01*
X71232165Y-55173554D01*
X71277218Y-55134515D01*
X71433694Y-55054787D01*
X71594464Y-54937981D01*
X71734981Y-54797464D01*
X71851787Y-54636694D01*
X71942005Y-54459632D01*
X72003413Y-54270636D01*
X72034500Y-54074361D01*
X72034500Y-53875639D01*
X72003413Y-53679364D01*
X71942005Y-53490368D01*
X71942005Y-53490367D01*
X71851786Y-53313305D01*
X71734981Y-53152536D01*
X71594464Y-53012019D01*
X71433694Y-52895213D01*
X71277218Y-52815484D01*
X71226423Y-52767510D01*
X71209628Y-52699689D01*
X71232165Y-52633554D01*
X71277218Y-52594515D01*
X71433694Y-52514787D01*
X71594464Y-52397981D01*
X71734981Y-52257464D01*
X71851787Y-52096694D01*
X71942005Y-51919632D01*
X72003413Y-51730636D01*
X72034500Y-51534361D01*
X72034500Y-51335639D01*
X72003413Y-51139364D01*
X71942005Y-50950368D01*
X71942005Y-50950367D01*
X71851786Y-50773305D01*
X71734981Y-50612536D01*
X71594464Y-50472019D01*
X71433694Y-50355213D01*
X71277218Y-50275484D01*
X71226423Y-50227510D01*
X71209628Y-50159689D01*
X71232165Y-50093554D01*
X71277218Y-50054515D01*
X71433694Y-49974787D01*
X71594464Y-49857981D01*
X71734981Y-49717464D01*
X71851787Y-49556694D01*
X71942005Y-49379632D01*
X72003413Y-49190636D01*
X72034500Y-48994361D01*
X72034500Y-48795639D01*
X72003413Y-48599364D01*
X71942005Y-48410368D01*
X71942005Y-48410367D01*
X71851786Y-48233305D01*
X71734981Y-48072536D01*
X71594464Y-47932019D01*
X71433694Y-47815213D01*
X71276667Y-47735203D01*
X71225872Y-47687229D01*
X71209077Y-47619408D01*
X71231614Y-47553273D01*
X71276669Y-47514234D01*
X71433422Y-47434364D01*
X71470716Y-47407268D01*
X70907942Y-46844494D01*
X70968081Y-46828381D01*
X71083920Y-46761502D01*
X71178502Y-46666920D01*
X71245381Y-46551081D01*
X71261495Y-46490942D01*
X71824268Y-47053715D01*
X71851362Y-47016425D01*
X71941542Y-46839437D01*
X72002924Y-46650523D01*
X72002924Y-46650520D01*
X72034000Y-46454321D01*
X72034000Y-46255678D01*
X72002924Y-46059479D01*
X72002924Y-46059476D01*
X71941542Y-45870562D01*
X71851358Y-45693567D01*
X71824268Y-45656283D01*
X71261494Y-46219057D01*
X71245381Y-46158919D01*
X71178502Y-46043080D01*
X71083920Y-45948498D01*
X70968081Y-45881619D01*
X70907942Y-45865504D01*
X71470716Y-45302731D01*
X71470715Y-45302730D01*
X71433432Y-45275641D01*
X71256437Y-45185457D01*
X71067522Y-45124075D01*
X70871321Y-45093000D01*
X70672679Y-45093000D01*
X70476479Y-45124075D01*
X70476476Y-45124075D01*
X70287562Y-45185457D01*
X70110564Y-45275643D01*
X70073283Y-45302729D01*
X70073282Y-45302730D01*
X70636058Y-45865504D01*
X70575919Y-45881619D01*
X70460080Y-45948498D01*
X70365498Y-46043080D01*
X70298619Y-46158919D01*
X70282504Y-46219057D01*
X69719730Y-45656282D01*
X69719729Y-45656283D01*
X69692643Y-45693564D01*
X69612485Y-45850882D01*
X69564510Y-45901678D01*
X69496689Y-45918473D01*
X69430554Y-45895935D01*
X69391515Y-45850882D01*
X69311358Y-45693567D01*
X69284268Y-45656283D01*
X68721494Y-46219057D01*
X68705381Y-46158919D01*
X68638502Y-46043080D01*
X68543920Y-45948498D01*
X68428081Y-45881619D01*
X68367942Y-45865504D01*
X68930716Y-45302731D01*
X68930715Y-45302730D01*
X68893432Y-45275641D01*
X68716437Y-45185457D01*
X68527522Y-45124075D01*
X68331321Y-45093000D01*
X68132679Y-45093000D01*
X67936479Y-45124075D01*
X67936476Y-45124075D01*
X67747562Y-45185457D01*
X67570564Y-45275643D01*
X67533283Y-45302729D01*
X67533282Y-45302730D01*
X68096058Y-45865504D01*
X68035919Y-45881619D01*
X67920080Y-45948498D01*
X67825498Y-46043080D01*
X67758619Y-46158919D01*
X67742504Y-46219057D01*
X67179730Y-45656282D01*
X67179729Y-45656283D01*
X67152643Y-45693564D01*
X67062457Y-45870562D01*
X67001075Y-46059476D01*
X67001075Y-46059479D01*
X66970000Y-46255678D01*
X66970000Y-46454321D01*
X67001075Y-46650520D01*
X67001075Y-46650523D01*
X67062457Y-46839437D01*
X67152641Y-47016432D01*
X67179730Y-47053715D01*
X67179731Y-47053716D01*
X67742504Y-46490942D01*
X67758619Y-46551081D01*
X67825498Y-46666920D01*
X67920080Y-46761502D01*
X68035919Y-46828381D01*
X68096057Y-46844494D01*
X67533283Y-47407268D01*
X67533283Y-47407269D01*
X67570567Y-47434358D01*
X67727331Y-47514234D01*
X67778127Y-47562209D01*
X67794922Y-47630030D01*
X67772384Y-47696165D01*
X67727331Y-47735204D01*
X67570305Y-47815213D01*
X67409533Y-47932021D01*
X67269021Y-48072533D01*
X67152213Y-48233305D01*
X67061994Y-48410367D01*
X67061993Y-48410370D01*
X67000587Y-48599362D01*
X66969500Y-48795639D01*
X66969500Y-48994360D01*
X67000587Y-49190637D01*
X67061993Y-49379629D01*
X67061994Y-49379632D01*
X67152213Y-49556694D01*
X67269019Y-49717464D01*
X67409536Y-49857981D01*
X67570306Y-49974787D01*
X67688832Y-50035179D01*
X67726780Y-50054515D01*
X67777576Y-50102490D01*
X67794371Y-50170311D01*
X67771833Y-50236446D01*
X67726780Y-50275485D01*
X67570305Y-50355213D01*
X67409533Y-50472021D01*
X67269021Y-50612533D01*
X67152213Y-50773305D01*
X67061994Y-50950367D01*
X67061993Y-50950370D01*
X67000587Y-51139362D01*
X66969500Y-51335639D01*
X66969500Y-51534360D01*
X67000587Y-51730637D01*
X67061993Y-51919629D01*
X67061994Y-51919632D01*
X67152213Y-52096694D01*
X67269019Y-52257464D01*
X67409536Y-52397981D01*
X67570306Y-52514787D01*
X67688832Y-52575179D01*
X67726780Y-52594515D01*
X67777576Y-52642490D01*
X67794371Y-52710311D01*
X67771833Y-52776446D01*
X67726780Y-52815485D01*
X67570305Y-52895213D01*
X67409533Y-53012021D01*
X67269021Y-53152533D01*
X67152213Y-53313305D01*
X67061994Y-53490367D01*
X67061993Y-53490370D01*
X67000587Y-53679362D01*
X67000587Y-53679364D01*
X66969500Y-53875639D01*
X66969500Y-54074361D01*
X66978917Y-54133816D01*
X67000587Y-54270637D01*
X67061993Y-54459629D01*
X67061994Y-54459632D01*
X67152213Y-54636694D01*
X67269019Y-54797464D01*
X67409536Y-54937981D01*
X67570306Y-55054787D01*
X67688832Y-55115179D01*
X67726780Y-55134515D01*
X67777576Y-55182490D01*
X67794371Y-55250311D01*
X67771833Y-55316446D01*
X67726780Y-55355485D01*
X67570305Y-55435213D01*
X67409533Y-55552021D01*
X67269021Y-55692533D01*
X67152213Y-55853305D01*
X67061994Y-56030367D01*
X67061993Y-56030370D01*
X67000587Y-56219362D01*
X66969500Y-56415639D01*
X66969500Y-56614360D01*
X67000587Y-56810637D01*
X67061993Y-56999629D01*
X67061994Y-56999632D01*
X67152213Y-57176694D01*
X67269019Y-57337464D01*
X67409536Y-57477981D01*
X67409539Y-57477983D01*
X67533687Y-57568182D01*
X67576353Y-57623512D01*
X67582332Y-57693125D01*
X67549726Y-57754920D01*
X67488888Y-57789277D01*
X67460805Y-57792500D01*
X67422131Y-57792500D01*
X67422123Y-57792501D01*
X67362516Y-57798908D01*
X67227671Y-57849202D01*
X67227664Y-57849206D01*
X67112455Y-57935452D01*
X67112452Y-57935455D01*
X67026206Y-58050664D01*
X67026202Y-58050671D01*
X66975908Y-58185517D01*
X66969501Y-58245116D01*
X66969501Y-58245123D01*
X66969500Y-58245135D01*
X66969500Y-59060500D01*
X66949815Y-59127539D01*
X66897011Y-59173294D01*
X66845500Y-59184500D01*
X54865689Y-59184500D01*
X54798650Y-59164815D01*
X54752895Y-59112011D01*
X54742951Y-59042853D01*
X54749805Y-59017867D01*
X54749780Y-59017860D01*
X54750066Y-59016914D01*
X54751127Y-59013050D01*
X54751546Y-59012037D01*
X54751548Y-59012033D01*
X54786400Y-58836822D01*
X54786400Y-58658178D01*
X54786400Y-58658175D01*
X54751549Y-58482972D01*
X54751548Y-58482971D01*
X54751548Y-58482967D01*
X54683184Y-58317922D01*
X54683183Y-58317921D01*
X54683180Y-58317915D01*
X54583935Y-58169385D01*
X54583932Y-58169381D01*
X54457618Y-58043067D01*
X54457614Y-58043064D01*
X54309084Y-57943819D01*
X54309075Y-57943814D01*
X54144033Y-57875452D01*
X54144027Y-57875450D01*
X53968824Y-57840600D01*
X53968822Y-57840600D01*
X53790178Y-57840600D01*
X53790176Y-57840600D01*
X53614972Y-57875450D01*
X53614966Y-57875452D01*
X53449924Y-57943814D01*
X53449915Y-57943819D01*
X53301385Y-58043064D01*
X53301381Y-58043067D01*
X53175067Y-58169381D01*
X53175064Y-58169385D01*
X53075819Y-58317915D01*
X53075814Y-58317924D01*
X53007452Y-58482966D01*
X53007450Y-58482972D01*
X52972600Y-58658175D01*
X52972600Y-58658178D01*
X52972600Y-58836822D01*
X52972600Y-58836824D01*
X52972599Y-58836824D01*
X53007450Y-59012027D01*
X53007453Y-59012037D01*
X53007873Y-59013050D01*
X53007934Y-59013622D01*
X53009220Y-59017860D01*
X53008416Y-59018103D01*
X53015340Y-59082520D01*
X52984064Y-59144998D01*
X52923974Y-59180649D01*
X52893311Y-59184500D01*
X41943114Y-59184500D01*
X41876075Y-59164815D01*
X41830320Y-59112011D01*
X41820376Y-59042853D01*
X41832629Y-59004205D01*
X41861057Y-58948412D01*
X41926746Y-58746243D01*
X41960000Y-58536287D01*
X41960000Y-58323713D01*
X41926746Y-58113757D01*
X41861057Y-57911588D01*
X41764551Y-57722184D01*
X41764549Y-57722181D01*
X41764548Y-57722179D01*
X41639609Y-57550213D01*
X41489286Y-57399890D01*
X41317320Y-57274951D01*
X41316615Y-57274591D01*
X41308554Y-57270485D01*
X41257759Y-57222512D01*
X41240963Y-57154692D01*
X41263499Y-57088556D01*
X41308554Y-57049515D01*
X41317316Y-57045051D01*
X41351495Y-57020219D01*
X41489286Y-56920109D01*
X41489288Y-56920106D01*
X41489292Y-56920104D01*
X41639604Y-56769792D01*
X41639606Y-56769788D01*
X41639609Y-56769786D01*
X41764548Y-56597820D01*
X41764547Y-56597820D01*
X41764551Y-56597816D01*
X41861057Y-56408412D01*
X41926746Y-56206243D01*
X41960000Y-55996287D01*
X41960000Y-55783713D01*
X41926746Y-55573757D01*
X41861057Y-55371588D01*
X41764551Y-55182184D01*
X41764549Y-55182181D01*
X41764548Y-55182179D01*
X41651677Y-55026824D01*
X56530099Y-55026824D01*
X56564950Y-55202027D01*
X56564952Y-55202033D01*
X56633314Y-55367075D01*
X56633319Y-55367084D01*
X56732564Y-55515614D01*
X56732567Y-55515618D01*
X56858881Y-55641932D01*
X56858885Y-55641935D01*
X57007415Y-55741180D01*
X57007421Y-55741183D01*
X57007422Y-55741184D01*
X57172467Y-55809548D01*
X57172471Y-55809548D01*
X57172472Y-55809549D01*
X57347675Y-55844400D01*
X57347678Y-55844400D01*
X57526324Y-55844400D01*
X57644198Y-55820952D01*
X57701533Y-55809548D01*
X57866578Y-55741184D01*
X58015115Y-55641935D01*
X58141435Y-55515615D01*
X58240684Y-55367078D01*
X58309048Y-55202033D01*
X58322478Y-55134515D01*
X58343900Y-55026824D01*
X58343900Y-54848175D01*
X58309049Y-54672972D01*
X58309048Y-54672971D01*
X58309048Y-54672967D01*
X58241344Y-54509516D01*
X58240685Y-54507924D01*
X58240680Y-54507915D01*
X58141435Y-54359385D01*
X58141432Y-54359381D01*
X58015118Y-54233067D01*
X58015114Y-54233064D01*
X57866584Y-54133819D01*
X57866575Y-54133814D01*
X57701533Y-54065452D01*
X57701527Y-54065450D01*
X57526324Y-54030600D01*
X57526322Y-54030600D01*
X57347678Y-54030600D01*
X57347676Y-54030600D01*
X57172472Y-54065450D01*
X57172466Y-54065452D01*
X57007424Y-54133814D01*
X57007415Y-54133819D01*
X56858885Y-54233064D01*
X56858881Y-54233067D01*
X56732567Y-54359381D01*
X56732564Y-54359385D01*
X56633319Y-54507915D01*
X56633314Y-54507924D01*
X56564952Y-54672966D01*
X56564950Y-54672972D01*
X56530100Y-54848175D01*
X56530100Y-54848178D01*
X56530100Y-55026822D01*
X56530100Y-55026824D01*
X56530099Y-55026824D01*
X41651677Y-55026824D01*
X41639609Y-55010213D01*
X41489286Y-54859890D01*
X41317320Y-54734951D01*
X41316615Y-54734591D01*
X41308554Y-54730485D01*
X41257759Y-54682512D01*
X41240963Y-54614692D01*
X41263499Y-54548556D01*
X41308554Y-54509515D01*
X41317316Y-54505051D01*
X41364094Y-54471065D01*
X41489286Y-54380109D01*
X41489288Y-54380106D01*
X41489292Y-54380104D01*
X41639604Y-54229792D01*
X41639606Y-54229788D01*
X41639609Y-54229786D01*
X41764548Y-54057820D01*
X41764547Y-54057820D01*
X41764551Y-54057816D01*
X41861057Y-53868412D01*
X41926746Y-53666243D01*
X41960000Y-53456287D01*
X41960000Y-53243713D01*
X41926746Y-53033757D01*
X41861057Y-52831588D01*
X41764551Y-52642184D01*
X41764549Y-52642181D01*
X41764548Y-52642179D01*
X41639609Y-52470213D01*
X41489286Y-52319890D01*
X41317320Y-52194951D01*
X41316615Y-52194591D01*
X41308554Y-52190485D01*
X41257759Y-52142512D01*
X41240963Y-52074692D01*
X41263499Y-52008556D01*
X41308554Y-51969515D01*
X41317316Y-51965051D01*
X41364094Y-51931065D01*
X41489286Y-51840109D01*
X41489288Y-51840106D01*
X41489292Y-51840104D01*
X41639604Y-51689792D01*
X41639606Y-51689788D01*
X41639609Y-51689786D01*
X41764548Y-51517820D01*
X41764547Y-51517820D01*
X41764551Y-51517816D01*
X41861057Y-51328412D01*
X41926746Y-51126243D01*
X41960000Y-50916287D01*
X41960000Y-50703713D01*
X41926746Y-50493757D01*
X41861057Y-50291588D01*
X41764551Y-50102184D01*
X41764549Y-50102181D01*
X41764548Y-50102179D01*
X41639609Y-49930213D01*
X41489286Y-49779890D01*
X41317320Y-49654951D01*
X41316615Y-49654591D01*
X41308554Y-49650485D01*
X41257759Y-49602512D01*
X41240963Y-49534692D01*
X41263499Y-49468556D01*
X41308554Y-49429515D01*
X41317316Y-49425051D01*
X41364094Y-49391065D01*
X41489286Y-49300109D01*
X41489288Y-49300106D01*
X41489292Y-49300104D01*
X41639604Y-49149792D01*
X41639606Y-49149788D01*
X41639609Y-49149786D01*
X41764548Y-48977820D01*
X41764547Y-48977820D01*
X41764551Y-48977816D01*
X41861057Y-48788412D01*
X41926746Y-48586243D01*
X41960000Y-48376287D01*
X41960000Y-48359324D01*
X53102599Y-48359324D01*
X53137450Y-48534527D01*
X53137452Y-48534533D01*
X53205814Y-48699575D01*
X53205819Y-48699584D01*
X53305064Y-48848114D01*
X53305067Y-48848118D01*
X53431381Y-48974432D01*
X53431385Y-48974435D01*
X53579915Y-49073680D01*
X53579921Y-49073683D01*
X53579922Y-49073684D01*
X53744967Y-49142048D01*
X53744971Y-49142048D01*
X53744972Y-49142049D01*
X53920175Y-49176900D01*
X53920178Y-49176900D01*
X54098824Y-49176900D01*
X54216698Y-49153452D01*
X54274033Y-49142048D01*
X54439078Y-49073684D01*
X54587615Y-48974435D01*
X54713935Y-48848115D01*
X54813184Y-48699578D01*
X54881548Y-48534533D01*
X54896897Y-48457371D01*
X54916400Y-48359324D01*
X54916400Y-48180675D01*
X54881549Y-48005472D01*
X54881548Y-48005471D01*
X54881548Y-48005467D01*
X54813184Y-47840422D01*
X54813183Y-47840421D01*
X54813180Y-47840415D01*
X54713935Y-47691885D01*
X54713932Y-47691881D01*
X54587618Y-47565567D01*
X54587614Y-47565564D01*
X54439084Y-47466319D01*
X54439075Y-47466314D01*
X54274033Y-47397952D01*
X54274027Y-47397950D01*
X54098824Y-47363100D01*
X54098822Y-47363100D01*
X53920178Y-47363100D01*
X53920176Y-47363100D01*
X53744972Y-47397950D01*
X53744966Y-47397952D01*
X53579924Y-47466314D01*
X53579915Y-47466319D01*
X53431385Y-47565564D01*
X53431381Y-47565567D01*
X53305067Y-47691881D01*
X53305064Y-47691885D01*
X53205819Y-47840415D01*
X53205814Y-47840424D01*
X53137452Y-48005466D01*
X53137450Y-48005472D01*
X53102600Y-48180675D01*
X53102600Y-48180678D01*
X53102600Y-48359322D01*
X53102600Y-48359324D01*
X53102599Y-48359324D01*
X41960000Y-48359324D01*
X41960000Y-48163713D01*
X41926746Y-47953757D01*
X41861057Y-47751588D01*
X41764551Y-47562184D01*
X41764549Y-47562181D01*
X41764548Y-47562179D01*
X41639609Y-47390213D01*
X41489286Y-47239890D01*
X41317320Y-47114951D01*
X41316615Y-47114591D01*
X41308554Y-47110485D01*
X41257759Y-47062512D01*
X41240963Y-46994692D01*
X41263499Y-46928556D01*
X41308554Y-46889515D01*
X41317316Y-46885051D01*
X41395316Y-46828381D01*
X41489286Y-46760109D01*
X41489288Y-46760106D01*
X41489292Y-46760104D01*
X41639604Y-46609792D01*
X41639606Y-46609788D01*
X41639609Y-46609786D01*
X41764548Y-46437820D01*
X41764547Y-46437820D01*
X41764551Y-46437816D01*
X41861057Y-46248412D01*
X41926746Y-46046243D01*
X41960000Y-45836287D01*
X41960000Y-45623713D01*
X41926746Y-45413757D01*
X41861057Y-45211588D01*
X41764551Y-45022184D01*
X41764549Y-45022181D01*
X41764548Y-45022179D01*
X41639609Y-44850213D01*
X41489286Y-44699890D01*
X41317320Y-44574951D01*
X41316615Y-44574591D01*
X41308554Y-44570485D01*
X41305702Y-44567791D01*
X41301897Y-44566832D01*
X41285498Y-44549324D01*
X56595099Y-44549324D01*
X56629950Y-44724527D01*
X56629952Y-44724533D01*
X56698314Y-44889575D01*
X56698319Y-44889584D01*
X56797564Y-45038114D01*
X56797567Y-45038118D01*
X56923881Y-45164432D01*
X56923885Y-45164435D01*
X57072415Y-45263680D01*
X57072424Y-45263685D01*
X57109812Y-45279171D01*
X57237467Y-45332048D01*
X57237471Y-45332048D01*
X57237472Y-45332049D01*
X57412675Y-45366900D01*
X57412678Y-45366900D01*
X57591324Y-45366900D01*
X57709198Y-45343452D01*
X57766533Y-45332048D01*
X57931578Y-45263684D01*
X57931584Y-45263680D01*
X57956716Y-45246888D01*
X58048653Y-45185457D01*
X58080115Y-45164435D01*
X58206435Y-45038115D01*
X58305684Y-44889578D01*
X58374048Y-44724533D01*
X58403802Y-44574951D01*
X58408900Y-44549324D01*
X58408900Y-44370675D01*
X58374049Y-44195472D01*
X58374048Y-44195471D01*
X58374048Y-44195467D01*
X58305684Y-44030422D01*
X58305683Y-44030421D01*
X58305680Y-44030415D01*
X58206435Y-43881885D01*
X58206432Y-43881881D01*
X58080118Y-43755567D01*
X58080114Y-43755564D01*
X57931584Y-43656319D01*
X57931575Y-43656314D01*
X57766533Y-43587952D01*
X57766527Y-43587950D01*
X57591324Y-43553100D01*
X57591322Y-43553100D01*
X57412678Y-43553100D01*
X57412676Y-43553100D01*
X57237472Y-43587950D01*
X57237466Y-43587952D01*
X57072424Y-43656314D01*
X57072415Y-43656319D01*
X56923885Y-43755564D01*
X56923881Y-43755567D01*
X56797567Y-43881881D01*
X56797564Y-43881885D01*
X56698319Y-44030415D01*
X56698314Y-44030424D01*
X56629952Y-44195466D01*
X56629950Y-44195472D01*
X56595100Y-44370675D01*
X56595100Y-44370678D01*
X56595100Y-44549322D01*
X56595100Y-44549324D01*
X56595099Y-44549324D01*
X41285498Y-44549324D01*
X41280509Y-44543997D01*
X41257759Y-44522512D01*
X41256815Y-44518701D01*
X41254133Y-44515838D01*
X41248484Y-44485063D01*
X41240963Y-44454692D01*
X41242228Y-44450977D01*
X41241520Y-44447117D01*
X41253408Y-44418169D01*
X41263499Y-44388556D01*
X41267002Y-44385066D01*
X41268063Y-44382485D01*
X41276460Y-44375647D01*
X41293822Y-44358357D01*
X41300876Y-44353427D01*
X41317316Y-44345051D01*
X41489292Y-44220104D01*
X41639604Y-44069792D01*
X41639606Y-44069788D01*
X41639609Y-44069786D01*
X41764548Y-43897820D01*
X41764547Y-43897820D01*
X41764551Y-43897816D01*
X41861057Y-43708412D01*
X41926746Y-43506243D01*
X41960000Y-43296287D01*
X41960000Y-43083713D01*
X41926746Y-42873757D01*
X41861057Y-42671588D01*
X41764551Y-42482184D01*
X41764549Y-42482181D01*
X41764548Y-42482179D01*
X41639609Y-42310213D01*
X41489286Y-42159890D01*
X41317320Y-42034951D01*
X41316615Y-42034591D01*
X41308554Y-42030485D01*
X41257759Y-41982512D01*
X41240963Y-41914692D01*
X41263499Y-41848556D01*
X41308554Y-41809515D01*
X41317316Y-41805051D01*
X41339289Y-41789086D01*
X41489286Y-41680109D01*
X41489288Y-41680106D01*
X41489292Y-41680104D01*
X41639604Y-41529792D01*
X41639606Y-41529788D01*
X41639609Y-41529786D01*
X41764548Y-41357820D01*
X41764547Y-41357820D01*
X41764551Y-41357816D01*
X41861057Y-41168412D01*
X41926746Y-40966243D01*
X41960000Y-40756287D01*
X41960000Y-40543713D01*
X41926746Y-40333757D01*
X41861057Y-40131588D01*
X41764551Y-39942184D01*
X41764549Y-39942181D01*
X41764548Y-39942179D01*
X41639609Y-39770213D01*
X41489286Y-39619890D01*
X41317320Y-39494951D01*
X41127914Y-39398444D01*
X41127913Y-39398443D01*
X41127912Y-39398443D01*
X40925743Y-39332754D01*
X40925741Y-39332753D01*
X40925740Y-39332753D01*
X40764457Y-39307208D01*
X40715787Y-39299500D01*
X40503213Y-39299500D01*
X40454542Y-39307208D01*
X40293260Y-39332753D01*
X40091085Y-39398444D01*
X39901679Y-39494951D01*
X39729713Y-39619890D01*
X39579390Y-39770213D01*
X39454449Y-39942182D01*
X39449984Y-39950946D01*
X39402009Y-40001742D01*
X39334188Y-40018536D01*
X39268053Y-39995998D01*
X39229016Y-39950946D01*
X39224550Y-39942182D01*
X39099609Y-39770213D01*
X38949286Y-39619890D01*
X38777320Y-39494951D01*
X38587914Y-39398444D01*
X38587913Y-39398443D01*
X38587912Y-39398443D01*
X38385743Y-39332754D01*
X38385741Y-39332753D01*
X38385740Y-39332753D01*
X38224457Y-39307208D01*
X38175787Y-39299500D01*
X37963213Y-39299500D01*
X37914542Y-39307208D01*
X37753260Y-39332753D01*
X37551085Y-39398444D01*
X37361679Y-39494951D01*
X37189713Y-39619890D01*
X37039390Y-39770213D01*
X36914451Y-39942179D01*
X36817944Y-40131585D01*
X36752253Y-40333760D01*
X36719000Y-40543713D01*
X36719000Y-40756286D01*
X36752253Y-40966239D01*
X36817944Y-41168414D01*
X36914451Y-41357820D01*
X37039390Y-41529786D01*
X37189713Y-41680109D01*
X37361682Y-41805050D01*
X37370446Y-41809516D01*
X37421242Y-41857491D01*
X37438036Y-41925312D01*
X37415498Y-41991447D01*
X37370446Y-42030484D01*
X37361682Y-42034949D01*
X37189713Y-42159890D01*
X37039390Y-42310213D01*
X36914451Y-42482179D01*
X36817944Y-42671585D01*
X36752253Y-42873760D01*
X36740782Y-42946185D01*
X36719000Y-43083713D01*
X36719000Y-43296287D01*
X36752254Y-43506243D01*
X36801015Y-43656314D01*
X36817944Y-43708414D01*
X36914451Y-43897820D01*
X37039390Y-44069786D01*
X37189713Y-44220109D01*
X37361682Y-44345050D01*
X37370446Y-44349516D01*
X37421242Y-44397491D01*
X37438036Y-44465312D01*
X37415498Y-44531447D01*
X37370446Y-44570484D01*
X37361682Y-44574949D01*
X37189713Y-44699890D01*
X37039390Y-44850213D01*
X36914451Y-45022179D01*
X36817944Y-45211585D01*
X36752253Y-45413760D01*
X36719000Y-45623713D01*
X36719000Y-45836286D01*
X36752253Y-46046239D01*
X36817944Y-46248414D01*
X36914451Y-46437820D01*
X37039390Y-46609786D01*
X37189713Y-46760109D01*
X37361682Y-46885050D01*
X37370446Y-46889516D01*
X37421242Y-46937491D01*
X37438036Y-47005312D01*
X37415498Y-47071447D01*
X37370446Y-47110484D01*
X37361682Y-47114949D01*
X37189713Y-47239890D01*
X37039390Y-47390213D01*
X36914451Y-47562179D01*
X36817944Y-47751585D01*
X36752253Y-47953760D01*
X36719000Y-48163713D01*
X36719000Y-48376286D01*
X36731842Y-48457371D01*
X36752254Y-48586243D01*
X36756517Y-48599364D01*
X36817944Y-48788414D01*
X36914451Y-48977820D01*
X37039390Y-49149786D01*
X37189713Y-49300109D01*
X37361682Y-49425050D01*
X37370446Y-49429516D01*
X37421242Y-49477491D01*
X37438036Y-49545312D01*
X37415498Y-49611447D01*
X37370446Y-49650484D01*
X37361682Y-49654949D01*
X37189713Y-49779890D01*
X37039390Y-49930213D01*
X36914451Y-50102179D01*
X36817944Y-50291585D01*
X36752253Y-50493760D01*
X36719000Y-50703713D01*
X36719000Y-50916286D01*
X36731842Y-50997371D01*
X36752254Y-51126243D01*
X36756517Y-51139364D01*
X36817944Y-51328414D01*
X36914451Y-51517820D01*
X37039390Y-51689786D01*
X37189713Y-51840109D01*
X37361682Y-51965050D01*
X37370446Y-51969516D01*
X37421242Y-52017491D01*
X37438036Y-52085312D01*
X37415498Y-52151447D01*
X37370446Y-52190484D01*
X37361682Y-52194949D01*
X37189713Y-52319890D01*
X37039390Y-52470213D01*
X36914451Y-52642179D01*
X36817944Y-52831585D01*
X36752253Y-53033760D01*
X36719000Y-53243713D01*
X36719000Y-53456286D01*
X36731842Y-53537371D01*
X36752254Y-53666243D01*
X36756517Y-53679364D01*
X36817944Y-53868414D01*
X36914451Y-54057820D01*
X37039390Y-54229786D01*
X37189713Y-54380109D01*
X37361682Y-54505050D01*
X37370446Y-54509516D01*
X37421242Y-54557491D01*
X37438036Y-54625312D01*
X37415498Y-54691447D01*
X37370446Y-54730484D01*
X37361682Y-54734949D01*
X37189713Y-54859890D01*
X37039390Y-55010213D01*
X36914451Y-55182179D01*
X36817944Y-55371585D01*
X36752253Y-55573760D01*
X36719000Y-55783713D01*
X36719000Y-55996286D01*
X36731842Y-56077371D01*
X36752254Y-56206243D01*
X36756517Y-56219364D01*
X36817944Y-56408414D01*
X36914451Y-56597820D01*
X37039390Y-56769786D01*
X37189713Y-56920109D01*
X37361682Y-57045050D01*
X37370446Y-57049516D01*
X37421242Y-57097491D01*
X37438036Y-57165312D01*
X37415498Y-57231447D01*
X37370446Y-57270484D01*
X37361682Y-57274949D01*
X37189713Y-57399890D01*
X37039390Y-57550213D01*
X36914451Y-57722179D01*
X36817944Y-57911585D01*
X36752253Y-58113760D01*
X36725321Y-58283802D01*
X36719000Y-58323713D01*
X36719000Y-58536287D01*
X36752254Y-58746243D01*
X36756517Y-58759364D01*
X36817944Y-58948414D01*
X36846371Y-59004205D01*
X36859267Y-59072874D01*
X36832991Y-59137615D01*
X36775884Y-59177872D01*
X36735886Y-59184500D01*
X32225000Y-59184500D01*
X32157961Y-59164815D01*
X32112206Y-59112011D01*
X32101000Y-59060500D01*
X32101000Y-32255500D01*
X32120685Y-32188461D01*
X32173489Y-32142706D01*
X32225000Y-32131500D01*
X56891384Y-32131500D01*
X56958423Y-32151185D01*
G37*
%TD.AperFunction*%
%TA.AperFunction,Conductor*%
G36*
X70298619Y-46551081D02*
G01*
X70365498Y-46666920D01*
X70460080Y-46761502D01*
X70575919Y-46828381D01*
X70636057Y-46844494D01*
X70073283Y-47407268D01*
X70073283Y-47407269D01*
X70110567Y-47434358D01*
X70267331Y-47514234D01*
X70318127Y-47562209D01*
X70334922Y-47630030D01*
X70312384Y-47696165D01*
X70267331Y-47735204D01*
X70110305Y-47815213D01*
X69949533Y-47932021D01*
X69809021Y-48072533D01*
X69692213Y-48233305D01*
X69612485Y-48389780D01*
X69564510Y-48440576D01*
X69496689Y-48457371D01*
X69430554Y-48434833D01*
X69391515Y-48389780D01*
X69311786Y-48233305D01*
X69194981Y-48072536D01*
X69054464Y-47932019D01*
X68893694Y-47815213D01*
X68736667Y-47735203D01*
X68685872Y-47687229D01*
X68669077Y-47619408D01*
X68691614Y-47553273D01*
X68736669Y-47514234D01*
X68893422Y-47434364D01*
X68930715Y-47407268D01*
X68367942Y-46844494D01*
X68428081Y-46828381D01*
X68543920Y-46761502D01*
X68638502Y-46666920D01*
X68705381Y-46551081D01*
X68721495Y-46490942D01*
X69284268Y-47053715D01*
X69311362Y-47016425D01*
X69391515Y-46859117D01*
X69439489Y-46808321D01*
X69507310Y-46791526D01*
X69573445Y-46814063D01*
X69612485Y-46859117D01*
X69692641Y-47016432D01*
X69719730Y-47053715D01*
X69719731Y-47053716D01*
X70282504Y-46490942D01*
X70298619Y-46551081D01*
G37*
%TD.AperFunction*%
%TD*%
%TA.AperFunction,Conductor*%
%TO.N,+3V3D*%
G36*
X70298619Y-115131081D02*
G01*
X70365498Y-115246920D01*
X70460080Y-115341502D01*
X70575919Y-115408381D01*
X70636057Y-115424494D01*
X70073283Y-115987268D01*
X70073283Y-115987269D01*
X70110567Y-116014358D01*
X70267331Y-116094234D01*
X70318127Y-116142209D01*
X70334922Y-116210030D01*
X70312384Y-116276165D01*
X70267331Y-116315204D01*
X70110305Y-116395213D01*
X69949533Y-116512021D01*
X69809021Y-116652533D01*
X69692213Y-116813305D01*
X69612485Y-116969780D01*
X69564510Y-117020576D01*
X69496689Y-117037371D01*
X69430554Y-117014833D01*
X69391515Y-116969780D01*
X69327585Y-116844312D01*
X69311787Y-116813306D01*
X69194981Y-116652536D01*
X69054464Y-116512019D01*
X68893694Y-116395213D01*
X68736667Y-116315203D01*
X68685872Y-116267229D01*
X68669077Y-116199408D01*
X68691614Y-116133273D01*
X68736669Y-116094234D01*
X68893422Y-116014364D01*
X68930716Y-115987268D01*
X68367942Y-115424494D01*
X68428081Y-115408381D01*
X68543920Y-115341502D01*
X68638502Y-115246920D01*
X68705381Y-115131081D01*
X68721495Y-115070942D01*
X69284268Y-115633715D01*
X69311362Y-115596425D01*
X69391515Y-115439117D01*
X69439489Y-115388321D01*
X69507310Y-115371526D01*
X69573445Y-115394063D01*
X69612485Y-115439117D01*
X69692641Y-115596432D01*
X69719730Y-115633715D01*
X70282504Y-115070941D01*
X70298619Y-115131081D01*
G37*
%TD.AperFunction*%
%TA.AperFunction,Conductor*%
G36*
X36662039Y-110380185D02*
G01*
X36707794Y-110432989D01*
X36719000Y-110484500D01*
X36719000Y-110595286D01*
X36752253Y-110805239D01*
X36817944Y-111007414D01*
X36914451Y-111196820D01*
X37039390Y-111368786D01*
X37189713Y-111519109D01*
X37361682Y-111644050D01*
X37370446Y-111648516D01*
X37421242Y-111696491D01*
X37438036Y-111764312D01*
X37415498Y-111830447D01*
X37370446Y-111869484D01*
X37361682Y-111873949D01*
X37189713Y-111998890D01*
X37039390Y-112149213D01*
X36914451Y-112321179D01*
X36817944Y-112510585D01*
X36752253Y-112712760D01*
X36719000Y-112922713D01*
X36719000Y-113135286D01*
X36752253Y-113345239D01*
X36817944Y-113547414D01*
X36914451Y-113736820D01*
X37039390Y-113908786D01*
X37189713Y-114059109D01*
X37361682Y-114184050D01*
X37370446Y-114188516D01*
X37421242Y-114236491D01*
X37438036Y-114304312D01*
X37415498Y-114370447D01*
X37370446Y-114409484D01*
X37361682Y-114413949D01*
X37189713Y-114538890D01*
X37039390Y-114689213D01*
X36914451Y-114861179D01*
X36817944Y-115050585D01*
X36752253Y-115252760D01*
X36729873Y-115394063D01*
X36719000Y-115462713D01*
X36719000Y-115675287D01*
X36752254Y-115885243D01*
X36794206Y-116014358D01*
X36817944Y-116087414D01*
X36914451Y-116276820D01*
X37039390Y-116448786D01*
X37189713Y-116599109D01*
X37361682Y-116724050D01*
X37370446Y-116728516D01*
X37421242Y-116776491D01*
X37438036Y-116844312D01*
X37415498Y-116910447D01*
X37370446Y-116949484D01*
X37361682Y-116953949D01*
X37189713Y-117078890D01*
X37039390Y-117229213D01*
X36914451Y-117401179D01*
X36817944Y-117590585D01*
X36752253Y-117792760D01*
X36719000Y-118002713D01*
X36719000Y-118215286D01*
X36745230Y-118380900D01*
X36752254Y-118425243D01*
X36794345Y-118554786D01*
X36817944Y-118627414D01*
X36914451Y-118816820D01*
X37039390Y-118988786D01*
X37189713Y-119139109D01*
X37361682Y-119264050D01*
X37370446Y-119268516D01*
X37421242Y-119316491D01*
X37438036Y-119384312D01*
X37415498Y-119450447D01*
X37370446Y-119489484D01*
X37361682Y-119493949D01*
X37189713Y-119618890D01*
X37039390Y-119769213D01*
X36914451Y-119941179D01*
X36817944Y-120130585D01*
X36752253Y-120332760D01*
X36719000Y-120542713D01*
X36719000Y-120755286D01*
X36734701Y-120854422D01*
X36752254Y-120965243D01*
X36794345Y-121094786D01*
X36817944Y-121167414D01*
X36914451Y-121356820D01*
X37039390Y-121528786D01*
X37189713Y-121679109D01*
X37361682Y-121804050D01*
X37370446Y-121808516D01*
X37421242Y-121856491D01*
X37438036Y-121924312D01*
X37415498Y-121990447D01*
X37370446Y-122029484D01*
X37361682Y-122033949D01*
X37189713Y-122158890D01*
X37039390Y-122309213D01*
X36914451Y-122481179D01*
X36817944Y-122670585D01*
X36752253Y-122872760D01*
X36728003Y-123025868D01*
X36719000Y-123082713D01*
X36719000Y-123295287D01*
X36752254Y-123505243D01*
X36794345Y-123634786D01*
X36817944Y-123707414D01*
X36914451Y-123896820D01*
X37039390Y-124068786D01*
X37189713Y-124219109D01*
X37361682Y-124344050D01*
X37370446Y-124348516D01*
X37421242Y-124396491D01*
X37438036Y-124464312D01*
X37415498Y-124530447D01*
X37370446Y-124569484D01*
X37361682Y-124573949D01*
X37189713Y-124698890D01*
X37039390Y-124849213D01*
X36914451Y-125021179D01*
X36817944Y-125210585D01*
X36752253Y-125412760D01*
X36725824Y-125579629D01*
X36719000Y-125622713D01*
X36719000Y-125835287D01*
X36752254Y-126045243D01*
X36794345Y-126174786D01*
X36817944Y-126247414D01*
X36914451Y-126436820D01*
X37039390Y-126608786D01*
X37189713Y-126759109D01*
X37361682Y-126884050D01*
X37370446Y-126888516D01*
X37421242Y-126936491D01*
X37438036Y-127004312D01*
X37415498Y-127070447D01*
X37370446Y-127109484D01*
X37361682Y-127113949D01*
X37189713Y-127238890D01*
X37039390Y-127389213D01*
X36914451Y-127561179D01*
X36817944Y-127750585D01*
X36752253Y-127952760D01*
X36719000Y-128162713D01*
X36719000Y-128375286D01*
X36739462Y-128504482D01*
X36752254Y-128585243D01*
X36807471Y-128755184D01*
X36817944Y-128787414D01*
X36914451Y-128976820D01*
X37039390Y-129148786D01*
X37189713Y-129299109D01*
X37361682Y-129424050D01*
X37370446Y-129428516D01*
X37421242Y-129476491D01*
X37438036Y-129544312D01*
X37415498Y-129610447D01*
X37370446Y-129649484D01*
X37361682Y-129653949D01*
X37189713Y-129778890D01*
X37039390Y-129929213D01*
X36914451Y-130101179D01*
X36817944Y-130290585D01*
X36752253Y-130492760D01*
X36719000Y-130702713D01*
X36719000Y-130915287D01*
X36729034Y-130978644D01*
X36751173Y-131118423D01*
X36752254Y-131125243D01*
X36783434Y-131221206D01*
X36817944Y-131327414D01*
X36914451Y-131516820D01*
X37039390Y-131688786D01*
X37189709Y-131839105D01*
X37194606Y-131842663D01*
X37237271Y-131897994D01*
X37243250Y-131967607D01*
X37210644Y-132029402D01*
X37160729Y-132060685D01*
X37150173Y-132064183D01*
X37150163Y-132064187D01*
X37000842Y-132156289D01*
X36876789Y-132280342D01*
X36784687Y-132429663D01*
X36784685Y-132429668D01*
X36756849Y-132513670D01*
X36729501Y-132596203D01*
X36729501Y-132596204D01*
X36729500Y-132596204D01*
X36719000Y-132698983D01*
X36719000Y-133999001D01*
X36719001Y-133999018D01*
X36729500Y-134101796D01*
X36729501Y-134101799D01*
X36784685Y-134268331D01*
X36784686Y-134268334D01*
X36876788Y-134417656D01*
X37000844Y-134541712D01*
X37150166Y-134633814D01*
X37316703Y-134688999D01*
X37419491Y-134699500D01*
X38719508Y-134699499D01*
X38822297Y-134688999D01*
X38988834Y-134633814D01*
X39138156Y-134541712D01*
X39251819Y-134428049D01*
X39313142Y-134394564D01*
X39382834Y-134399548D01*
X39427181Y-134428049D01*
X39540844Y-134541712D01*
X39690166Y-134633814D01*
X39856703Y-134688999D01*
X39959491Y-134699500D01*
X41259508Y-134699499D01*
X41362297Y-134688999D01*
X41528834Y-134633814D01*
X41678156Y-134541712D01*
X41802212Y-134417656D01*
X41894314Y-134268334D01*
X41949499Y-134101797D01*
X41960000Y-133999009D01*
X41959999Y-132698992D01*
X41949499Y-132596203D01*
X41894314Y-132429666D01*
X41802212Y-132280344D01*
X41678156Y-132156288D01*
X41528834Y-132064186D01*
X41528833Y-132064185D01*
X41528825Y-132064182D01*
X41518273Y-132060686D01*
X41460828Y-132020913D01*
X41434006Y-131956397D01*
X41446322Y-131887621D01*
X41477485Y-131850824D01*
X52972599Y-131850824D01*
X53007450Y-132026027D01*
X53007452Y-132026033D01*
X53075814Y-132191075D01*
X53075819Y-132191084D01*
X53175064Y-132339614D01*
X53175067Y-132339618D01*
X53301381Y-132465932D01*
X53301385Y-132465935D01*
X53449915Y-132565180D01*
X53449921Y-132565183D01*
X53449922Y-132565184D01*
X53614967Y-132633548D01*
X53614971Y-132633548D01*
X53614972Y-132633549D01*
X53790175Y-132668400D01*
X53790178Y-132668400D01*
X53968824Y-132668400D01*
X54086698Y-132644952D01*
X54144033Y-132633548D01*
X54309078Y-132565184D01*
X54457615Y-132465935D01*
X54583935Y-132339615D01*
X54683184Y-132191078D01*
X54751548Y-132026033D01*
X54786400Y-131850822D01*
X54786400Y-131672178D01*
X54786400Y-131672175D01*
X54751549Y-131496972D01*
X54751548Y-131496971D01*
X54751548Y-131496967D01*
X54683184Y-131331922D01*
X54683183Y-131331921D01*
X54683180Y-131331915D01*
X54583935Y-131183385D01*
X54583932Y-131183381D01*
X54457618Y-131057067D01*
X54457614Y-131057064D01*
X54309084Y-130957819D01*
X54309075Y-130957814D01*
X54144033Y-130889452D01*
X54144027Y-130889450D01*
X53968824Y-130854600D01*
X53968822Y-130854600D01*
X53790178Y-130854600D01*
X53790176Y-130854600D01*
X53614972Y-130889450D01*
X53614966Y-130889452D01*
X53449924Y-130957814D01*
X53449915Y-130957819D01*
X53301385Y-131057064D01*
X53301381Y-131057067D01*
X53175067Y-131183381D01*
X53175064Y-131183385D01*
X53075819Y-131331915D01*
X53075814Y-131331924D01*
X53007452Y-131496966D01*
X53007450Y-131496972D01*
X52972600Y-131672175D01*
X52972600Y-131672178D01*
X52972600Y-131850822D01*
X52972600Y-131850824D01*
X52972599Y-131850824D01*
X41477485Y-131850824D01*
X41484403Y-131842656D01*
X41489288Y-131839107D01*
X41489288Y-131839106D01*
X41489292Y-131839104D01*
X41639604Y-131688792D01*
X41709743Y-131592254D01*
X41715513Y-131584310D01*
X41764551Y-131516816D01*
X41861057Y-131327412D01*
X41926746Y-131125243D01*
X41960000Y-130915287D01*
X41960000Y-130702713D01*
X41926746Y-130492757D01*
X41861057Y-130290588D01*
X41764551Y-130101184D01*
X41764549Y-130101181D01*
X41764548Y-130101179D01*
X41639609Y-129929213D01*
X41489286Y-129778890D01*
X41317320Y-129653951D01*
X41316615Y-129653591D01*
X41308554Y-129649485D01*
X41257759Y-129601512D01*
X41240963Y-129533692D01*
X41263499Y-129467556D01*
X41308554Y-129428515D01*
X41317316Y-129424051D01*
X41339289Y-129408086D01*
X41489286Y-129299109D01*
X41489288Y-129299106D01*
X41489292Y-129299104D01*
X41639604Y-129148792D01*
X41639606Y-129148788D01*
X41639609Y-129148786D01*
X41764548Y-128976820D01*
X41764547Y-128976820D01*
X41764551Y-128976816D01*
X41861057Y-128787412D01*
X41926746Y-128585243D01*
X41960000Y-128375287D01*
X41960000Y-128162713D01*
X41940695Y-128040824D01*
X56530099Y-128040824D01*
X56564950Y-128216027D01*
X56564952Y-128216033D01*
X56633314Y-128381075D01*
X56633319Y-128381084D01*
X56732564Y-128529614D01*
X56732567Y-128529618D01*
X56858881Y-128655932D01*
X56858885Y-128655935D01*
X57007415Y-128755180D01*
X57007421Y-128755183D01*
X57007422Y-128755184D01*
X57172467Y-128823548D01*
X57172471Y-128823548D01*
X57172472Y-128823549D01*
X57347675Y-128858400D01*
X57347678Y-128858400D01*
X57526324Y-128858400D01*
X57644198Y-128834952D01*
X57701533Y-128823548D01*
X57866578Y-128755184D01*
X58015115Y-128655935D01*
X58141435Y-128529615D01*
X58240684Y-128381078D01*
X58309048Y-128216033D01*
X58343900Y-128040822D01*
X58343900Y-127862178D01*
X58343900Y-127862175D01*
X58309049Y-127686972D01*
X58309048Y-127686971D01*
X58309048Y-127686967D01*
X58240684Y-127521922D01*
X58240683Y-127521921D01*
X58240680Y-127521915D01*
X58141435Y-127373385D01*
X58141432Y-127373381D01*
X58015118Y-127247067D01*
X58015114Y-127247064D01*
X57866584Y-127147819D01*
X57866575Y-127147814D01*
X57701533Y-127079452D01*
X57701527Y-127079450D01*
X57526324Y-127044600D01*
X57526322Y-127044600D01*
X57347678Y-127044600D01*
X57347676Y-127044600D01*
X57172472Y-127079450D01*
X57172466Y-127079452D01*
X57007424Y-127147814D01*
X57007415Y-127147819D01*
X56858885Y-127247064D01*
X56858881Y-127247067D01*
X56732567Y-127373381D01*
X56732564Y-127373385D01*
X56633319Y-127521915D01*
X56633314Y-127521924D01*
X56564952Y-127686966D01*
X56564950Y-127686972D01*
X56530100Y-127862175D01*
X56530100Y-127862178D01*
X56530100Y-128040822D01*
X56530100Y-128040824D01*
X56530099Y-128040824D01*
X41940695Y-128040824D01*
X41926746Y-127952757D01*
X41861057Y-127750588D01*
X41861055Y-127750585D01*
X41861055Y-127750583D01*
X41794897Y-127620742D01*
X41764551Y-127561184D01*
X41764549Y-127561181D01*
X41764548Y-127561179D01*
X41639609Y-127389213D01*
X41489286Y-127238890D01*
X41317320Y-127113951D01*
X41316615Y-127113591D01*
X41308554Y-127109485D01*
X41257759Y-127061512D01*
X41240963Y-126993692D01*
X41263499Y-126927556D01*
X41308554Y-126888515D01*
X41317316Y-126884051D01*
X41345187Y-126863802D01*
X41489286Y-126759109D01*
X41489288Y-126759106D01*
X41489292Y-126759104D01*
X41639604Y-126608792D01*
X41639606Y-126608788D01*
X41639609Y-126608786D01*
X41764548Y-126436820D01*
X41764547Y-126436820D01*
X41764551Y-126436816D01*
X41861057Y-126247412D01*
X41926746Y-126045243D01*
X41960000Y-125835287D01*
X41960000Y-125622713D01*
X41926746Y-125412757D01*
X41861057Y-125210588D01*
X41764551Y-125021184D01*
X41764549Y-125021181D01*
X41764548Y-125021179D01*
X41639609Y-124849213D01*
X41489286Y-124698890D01*
X41317320Y-124573951D01*
X41316615Y-124573591D01*
X41308554Y-124569485D01*
X41257759Y-124521512D01*
X41240963Y-124453692D01*
X41263499Y-124387556D01*
X41308554Y-124348515D01*
X41317316Y-124344051D01*
X41415753Y-124272533D01*
X41489286Y-124219109D01*
X41489288Y-124219106D01*
X41489292Y-124219104D01*
X41639604Y-124068792D01*
X41639606Y-124068788D01*
X41639609Y-124068786D01*
X41764548Y-123896820D01*
X41764547Y-123896820D01*
X41764551Y-123896816D01*
X41861057Y-123707412D01*
X41926746Y-123505243D01*
X41960000Y-123295287D01*
X41960000Y-123082713D01*
X41926746Y-122872757D01*
X41861057Y-122670588D01*
X41764551Y-122481184D01*
X41764549Y-122481181D01*
X41764548Y-122481179D01*
X41639609Y-122309213D01*
X41489286Y-122158890D01*
X41317320Y-122033951D01*
X41316615Y-122033591D01*
X41308554Y-122029485D01*
X41257759Y-121981512D01*
X41240963Y-121913692D01*
X41263499Y-121847556D01*
X41308554Y-121808515D01*
X41317316Y-121804051D01*
X41415753Y-121732533D01*
X41489286Y-121679109D01*
X41489288Y-121679106D01*
X41489292Y-121679104D01*
X41639604Y-121528792D01*
X41639606Y-121528788D01*
X41639609Y-121528786D01*
X41752557Y-121373324D01*
X53037599Y-121373324D01*
X53072450Y-121548527D01*
X53072452Y-121548533D01*
X53140814Y-121713575D01*
X53140819Y-121713584D01*
X53240064Y-121862114D01*
X53240067Y-121862118D01*
X53366381Y-121988432D01*
X53366385Y-121988435D01*
X53514915Y-122087680D01*
X53514921Y-122087683D01*
X53514922Y-122087684D01*
X53679967Y-122156048D01*
X53679971Y-122156048D01*
X53679972Y-122156049D01*
X53855175Y-122190900D01*
X53855178Y-122190900D01*
X54033824Y-122190900D01*
X54194745Y-122158890D01*
X54209033Y-122156048D01*
X54374078Y-122087684D01*
X54522615Y-121988435D01*
X54648935Y-121862115D01*
X54748184Y-121713578D01*
X54816548Y-121548533D01*
X54831132Y-121475213D01*
X54851400Y-121373324D01*
X54851400Y-121194675D01*
X54816549Y-121019472D01*
X54816548Y-121019471D01*
X54816548Y-121019467D01*
X54748184Y-120854422D01*
X54748183Y-120854421D01*
X54748180Y-120854415D01*
X54648935Y-120705885D01*
X54648932Y-120705881D01*
X54522618Y-120579567D01*
X54522614Y-120579564D01*
X54374084Y-120480319D01*
X54374075Y-120480314D01*
X54209033Y-120411952D01*
X54209027Y-120411950D01*
X54033824Y-120377100D01*
X54033822Y-120377100D01*
X53855178Y-120377100D01*
X53855176Y-120377100D01*
X53679972Y-120411950D01*
X53679966Y-120411952D01*
X53514924Y-120480314D01*
X53514915Y-120480319D01*
X53366385Y-120579564D01*
X53366381Y-120579567D01*
X53240067Y-120705881D01*
X53240064Y-120705885D01*
X53140819Y-120854415D01*
X53140814Y-120854424D01*
X53072452Y-121019466D01*
X53072450Y-121019472D01*
X53037600Y-121194675D01*
X53037600Y-121194678D01*
X53037600Y-121373322D01*
X53037600Y-121373324D01*
X53037599Y-121373324D01*
X41752557Y-121373324D01*
X41764548Y-121356820D01*
X41764547Y-121356820D01*
X41764551Y-121356816D01*
X41861057Y-121167412D01*
X41926746Y-120965243D01*
X41960000Y-120755287D01*
X41960000Y-120542713D01*
X41926746Y-120332757D01*
X41861057Y-120130588D01*
X41764551Y-119941184D01*
X41764549Y-119941181D01*
X41764548Y-119941179D01*
X41639609Y-119769213D01*
X41489286Y-119618890D01*
X41317320Y-119493951D01*
X41316615Y-119493591D01*
X41308554Y-119489485D01*
X41257759Y-119441512D01*
X41240963Y-119373692D01*
X41263499Y-119307556D01*
X41308554Y-119268515D01*
X41317316Y-119264051D01*
X41415753Y-119192533D01*
X41489286Y-119139109D01*
X41489288Y-119139106D01*
X41489292Y-119139104D01*
X41639604Y-118988792D01*
X41639606Y-118988788D01*
X41639609Y-118988786D01*
X41764548Y-118816820D01*
X41764547Y-118816820D01*
X41764551Y-118816816D01*
X41861057Y-118627412D01*
X41926746Y-118425243D01*
X41960000Y-118215287D01*
X41960000Y-118002713D01*
X41926746Y-117792757D01*
X41861057Y-117590588D01*
X41847165Y-117563324D01*
X56530099Y-117563324D01*
X56564950Y-117738527D01*
X56564952Y-117738533D01*
X56633314Y-117903575D01*
X56633319Y-117903584D01*
X56732564Y-118052114D01*
X56732567Y-118052118D01*
X56858881Y-118178432D01*
X56858885Y-118178435D01*
X57007415Y-118277680D01*
X57007421Y-118277683D01*
X57007422Y-118277684D01*
X57172467Y-118346048D01*
X57172471Y-118346048D01*
X57172472Y-118346049D01*
X57347675Y-118380900D01*
X57347678Y-118380900D01*
X57526324Y-118380900D01*
X57644198Y-118357452D01*
X57701533Y-118346048D01*
X57866578Y-118277684D01*
X58015115Y-118178435D01*
X58141435Y-118052115D01*
X58240684Y-117903578D01*
X58309048Y-117738533D01*
X58327186Y-117647349D01*
X58343900Y-117563324D01*
X58343900Y-117384675D01*
X58342103Y-117375639D01*
X66969500Y-117375639D01*
X66969500Y-117574360D01*
X67000587Y-117770637D01*
X67061993Y-117959629D01*
X67061994Y-117959632D01*
X67109119Y-118052118D01*
X67152213Y-118136694D01*
X67269019Y-118297464D01*
X67409536Y-118437981D01*
X67570306Y-118554787D01*
X67601439Y-118570650D01*
X67726780Y-118634515D01*
X67777576Y-118682490D01*
X67794371Y-118750311D01*
X67771833Y-118816446D01*
X67726780Y-118855485D01*
X67570305Y-118935213D01*
X67409533Y-119052021D01*
X67269021Y-119192533D01*
X67152213Y-119353305D01*
X67061994Y-119530367D01*
X67061993Y-119530370D01*
X67000587Y-119719362D01*
X66969500Y-119915639D01*
X66969500Y-120114360D01*
X67000587Y-120310637D01*
X67061993Y-120499629D01*
X67061994Y-120499632D01*
X67102723Y-120579565D01*
X67152213Y-120676694D01*
X67269019Y-120837464D01*
X67409536Y-120977981D01*
X67570306Y-121094787D01*
X67601439Y-121110650D01*
X67726780Y-121174515D01*
X67777576Y-121222490D01*
X67794371Y-121290311D01*
X67771833Y-121356446D01*
X67726780Y-121395485D01*
X67570305Y-121475213D01*
X67409533Y-121592021D01*
X67269021Y-121732533D01*
X67152213Y-121893305D01*
X67061994Y-122070367D01*
X67061993Y-122070370D01*
X67000587Y-122259362D01*
X66969500Y-122455639D01*
X66969500Y-122654360D01*
X67000587Y-122850637D01*
X67061993Y-123039629D01*
X67061994Y-123039632D01*
X67152213Y-123216694D01*
X67269019Y-123377464D01*
X67409536Y-123517981D01*
X67570306Y-123634787D01*
X67601439Y-123650650D01*
X67726780Y-123714515D01*
X67777576Y-123762490D01*
X67794371Y-123830311D01*
X67771833Y-123896446D01*
X67726780Y-123935485D01*
X67570305Y-124015213D01*
X67409533Y-124132021D01*
X67269021Y-124272533D01*
X67152213Y-124433305D01*
X67061994Y-124610367D01*
X67061993Y-124610370D01*
X67000587Y-124799362D01*
X66969500Y-124995639D01*
X66969500Y-125194360D01*
X67000587Y-125390637D01*
X67061993Y-125579629D01*
X67061994Y-125579632D01*
X67152213Y-125756694D01*
X67269019Y-125917464D01*
X67409536Y-126057981D01*
X67409539Y-126057983D01*
X67533687Y-126148182D01*
X67576353Y-126203512D01*
X67582332Y-126273125D01*
X67549726Y-126334920D01*
X67488888Y-126369277D01*
X67460805Y-126372500D01*
X67422131Y-126372500D01*
X67422123Y-126372501D01*
X67362516Y-126378908D01*
X67227671Y-126429202D01*
X67227664Y-126429206D01*
X67112455Y-126515452D01*
X67112452Y-126515455D01*
X67026206Y-126630664D01*
X67026202Y-126630671D01*
X66975908Y-126765517D01*
X66969501Y-126825116D01*
X66969501Y-126825123D01*
X66969500Y-126825135D01*
X66969500Y-128444870D01*
X66969501Y-128444876D01*
X66975908Y-128504483D01*
X67026202Y-128639328D01*
X67026206Y-128639335D01*
X67112452Y-128754544D01*
X67112455Y-128754547D01*
X67227664Y-128840793D01*
X67227671Y-128840797D01*
X67362517Y-128891091D01*
X67362516Y-128891091D01*
X67369444Y-128891835D01*
X67422127Y-128897500D01*
X69041872Y-128897499D01*
X69101483Y-128891091D01*
X69236331Y-128840796D01*
X69351546Y-128754546D01*
X69437796Y-128639331D01*
X69488091Y-128504483D01*
X69494500Y-128444873D01*
X69494499Y-128406197D01*
X69514182Y-128339161D01*
X69566985Y-128293405D01*
X69636143Y-128283460D01*
X69699699Y-128312483D01*
X69718817Y-128333312D01*
X69809019Y-128457464D01*
X69949536Y-128597981D01*
X70110306Y-128714787D01*
X70141439Y-128730650D01*
X70287367Y-128805005D01*
X70287370Y-128805006D01*
X70344438Y-128823548D01*
X70476364Y-128866413D01*
X70672639Y-128897500D01*
X70672640Y-128897500D01*
X70871360Y-128897500D01*
X70871361Y-128897500D01*
X71067636Y-128866413D01*
X71256632Y-128805005D01*
X71433694Y-128714787D01*
X71594464Y-128597981D01*
X71734981Y-128457464D01*
X71851787Y-128296694D01*
X71942005Y-128119632D01*
X72003413Y-127930636D01*
X72034500Y-127734361D01*
X72034500Y-127535639D01*
X72003413Y-127339364D01*
X71942005Y-127150368D01*
X71942005Y-127150367D01*
X71867585Y-127004312D01*
X71851787Y-126973306D01*
X71734981Y-126812536D01*
X71594464Y-126672019D01*
X71433694Y-126555213D01*
X71277218Y-126475484D01*
X71226423Y-126427510D01*
X71209628Y-126359689D01*
X71232165Y-126293554D01*
X71277218Y-126254515D01*
X71433694Y-126174787D01*
X71594464Y-126057981D01*
X71734981Y-125917464D01*
X71851787Y-125756694D01*
X71942005Y-125579632D01*
X72003413Y-125390636D01*
X72034500Y-125194361D01*
X72034500Y-124995639D01*
X72003413Y-124799364D01*
X71942005Y-124610368D01*
X71942005Y-124610367D01*
X71867585Y-124464312D01*
X71851787Y-124433306D01*
X71734981Y-124272536D01*
X71594464Y-124132019D01*
X71433694Y-124015213D01*
X71277218Y-123935484D01*
X71226423Y-123887510D01*
X71209628Y-123819689D01*
X71232165Y-123753554D01*
X71277218Y-123714515D01*
X71433694Y-123634787D01*
X71594464Y-123517981D01*
X71734981Y-123377464D01*
X71851787Y-123216694D01*
X71942005Y-123039632D01*
X72003413Y-122850636D01*
X72034500Y-122654361D01*
X72034500Y-122455639D01*
X72003413Y-122259364D01*
X71947632Y-122087685D01*
X71942006Y-122070370D01*
X71942005Y-122070367D01*
X71867585Y-121924312D01*
X71851787Y-121893306D01*
X71734981Y-121732536D01*
X71594464Y-121592019D01*
X71433694Y-121475213D01*
X71277218Y-121395484D01*
X71226423Y-121347510D01*
X71209628Y-121279689D01*
X71232165Y-121213554D01*
X71277218Y-121174515D01*
X71433694Y-121094787D01*
X71594464Y-120977981D01*
X71734981Y-120837464D01*
X71851787Y-120676694D01*
X71942005Y-120499632D01*
X72003413Y-120310636D01*
X72034500Y-120114361D01*
X72034500Y-119915639D01*
X72003413Y-119719364D01*
X71942005Y-119530368D01*
X71942005Y-119530367D01*
X71867585Y-119384312D01*
X71851787Y-119353306D01*
X71734981Y-119192536D01*
X71594464Y-119052019D01*
X71433694Y-118935213D01*
X71277218Y-118855484D01*
X71226423Y-118807510D01*
X71209628Y-118739689D01*
X71232165Y-118673554D01*
X71277218Y-118634515D01*
X71433694Y-118554787D01*
X71594464Y-118437981D01*
X71734981Y-118297464D01*
X71851787Y-118136694D01*
X71942005Y-117959632D01*
X72003413Y-117770636D01*
X72034500Y-117574361D01*
X72034500Y-117375639D01*
X72003413Y-117179364D01*
X71942005Y-116990368D01*
X71942005Y-116990367D01*
X71867585Y-116844312D01*
X71851787Y-116813306D01*
X71734981Y-116652536D01*
X71594464Y-116512019D01*
X71433694Y-116395213D01*
X71276667Y-116315203D01*
X71225872Y-116267229D01*
X71209077Y-116199408D01*
X71231614Y-116133273D01*
X71276669Y-116094234D01*
X71433422Y-116014364D01*
X71470716Y-115987268D01*
X70907942Y-115424494D01*
X70968081Y-115408381D01*
X71083920Y-115341502D01*
X71178502Y-115246920D01*
X71245381Y-115131081D01*
X71261495Y-115070942D01*
X71824268Y-115633715D01*
X71851362Y-115596425D01*
X71941542Y-115419437D01*
X72002924Y-115230523D01*
X72002924Y-115230520D01*
X72034000Y-115034321D01*
X72034000Y-114835678D01*
X72002924Y-114639479D01*
X72002924Y-114639476D01*
X71941542Y-114450562D01*
X71851358Y-114273567D01*
X71824268Y-114236283D01*
X71261494Y-114799057D01*
X71245381Y-114738919D01*
X71178502Y-114623080D01*
X71083920Y-114528498D01*
X70968081Y-114461619D01*
X70907942Y-114445504D01*
X71470716Y-113882731D01*
X71470715Y-113882730D01*
X71433432Y-113855641D01*
X71256437Y-113765457D01*
X71067522Y-113704075D01*
X70871321Y-113673000D01*
X70672679Y-113673000D01*
X70476479Y-113704075D01*
X70476476Y-113704075D01*
X70287562Y-113765457D01*
X70110564Y-113855643D01*
X70073283Y-113882729D01*
X70073282Y-113882730D01*
X70636058Y-114445504D01*
X70575919Y-114461619D01*
X70460080Y-114528498D01*
X70365498Y-114623080D01*
X70298619Y-114738919D01*
X70282504Y-114799057D01*
X69719730Y-114236282D01*
X69719729Y-114236283D01*
X69692643Y-114273564D01*
X69612485Y-114430882D01*
X69564510Y-114481678D01*
X69496689Y-114498473D01*
X69430554Y-114475935D01*
X69391515Y-114430882D01*
X69311358Y-114273567D01*
X69284268Y-114236283D01*
X68721494Y-114799057D01*
X68705381Y-114738919D01*
X68638502Y-114623080D01*
X68543920Y-114528498D01*
X68428081Y-114461619D01*
X68367942Y-114445504D01*
X68930716Y-113882731D01*
X68930715Y-113882730D01*
X68893432Y-113855641D01*
X68716437Y-113765457D01*
X68527522Y-113704075D01*
X68331321Y-113673000D01*
X68132679Y-113673000D01*
X67936479Y-113704075D01*
X67936476Y-113704075D01*
X67747562Y-113765457D01*
X67570564Y-113855643D01*
X67533283Y-113882729D01*
X67533282Y-113882730D01*
X68096058Y-114445504D01*
X68035919Y-114461619D01*
X67920080Y-114528498D01*
X67825498Y-114623080D01*
X67758619Y-114738919D01*
X67742504Y-114799057D01*
X67179730Y-114236282D01*
X67179729Y-114236283D01*
X67152643Y-114273564D01*
X67062457Y-114450562D01*
X67001075Y-114639476D01*
X67001075Y-114639479D01*
X66970000Y-114835678D01*
X66970000Y-115034321D01*
X67001075Y-115230520D01*
X67001075Y-115230523D01*
X67062457Y-115419437D01*
X67152641Y-115596432D01*
X67179730Y-115633715D01*
X67179731Y-115633716D01*
X67742504Y-115070942D01*
X67758619Y-115131081D01*
X67825498Y-115246920D01*
X67920080Y-115341502D01*
X68035919Y-115408381D01*
X68096057Y-115424494D01*
X67533283Y-115987268D01*
X67533283Y-115987269D01*
X67570567Y-116014358D01*
X67727331Y-116094234D01*
X67778127Y-116142209D01*
X67794922Y-116210030D01*
X67772384Y-116276165D01*
X67727331Y-116315204D01*
X67570305Y-116395213D01*
X67409533Y-116512021D01*
X67269021Y-116652533D01*
X67152213Y-116813305D01*
X67061994Y-116990367D01*
X67061993Y-116990370D01*
X67000587Y-117179362D01*
X66969500Y-117375639D01*
X58342103Y-117375639D01*
X58309049Y-117209472D01*
X58309048Y-117209471D01*
X58309048Y-117209467D01*
X58240684Y-117044422D01*
X58240683Y-117044421D01*
X58240680Y-117044415D01*
X58141435Y-116895885D01*
X58141432Y-116895881D01*
X58015118Y-116769567D01*
X58015114Y-116769564D01*
X57866584Y-116670319D01*
X57866575Y-116670314D01*
X57701533Y-116601952D01*
X57701527Y-116601950D01*
X57526324Y-116567100D01*
X57526322Y-116567100D01*
X57347678Y-116567100D01*
X57347676Y-116567100D01*
X57172472Y-116601950D01*
X57172466Y-116601952D01*
X57007424Y-116670314D01*
X57007415Y-116670319D01*
X56858885Y-116769564D01*
X56858881Y-116769567D01*
X56732567Y-116895881D01*
X56732564Y-116895885D01*
X56633319Y-117044415D01*
X56633314Y-117044424D01*
X56564952Y-117209466D01*
X56564950Y-117209472D01*
X56530100Y-117384675D01*
X56530100Y-117384678D01*
X56530100Y-117563322D01*
X56530100Y-117563324D01*
X56530099Y-117563324D01*
X41847165Y-117563324D01*
X41764551Y-117401184D01*
X41764550Y-117401182D01*
X41639609Y-117229213D01*
X41489286Y-117078890D01*
X41317320Y-116953951D01*
X41316615Y-116953591D01*
X41308554Y-116949485D01*
X41257759Y-116901512D01*
X41240963Y-116833692D01*
X41263499Y-116767556D01*
X41308554Y-116728515D01*
X41317316Y-116724051D01*
X41339289Y-116708086D01*
X41489286Y-116599109D01*
X41489288Y-116599106D01*
X41489292Y-116599104D01*
X41639604Y-116448792D01*
X41639606Y-116448788D01*
X41639609Y-116448786D01*
X41764548Y-116276820D01*
X41764547Y-116276820D01*
X41764551Y-116276816D01*
X41861057Y-116087412D01*
X41926746Y-115885243D01*
X41960000Y-115675287D01*
X41960000Y-115462713D01*
X41926746Y-115252757D01*
X41861057Y-115050588D01*
X41764551Y-114861184D01*
X41764550Y-114861182D01*
X41639609Y-114689213D01*
X41489286Y-114538890D01*
X41317320Y-114413951D01*
X41316615Y-114413591D01*
X41308554Y-114409485D01*
X41257759Y-114361512D01*
X41240963Y-114293692D01*
X41263499Y-114227556D01*
X41308554Y-114188515D01*
X41317316Y-114184051D01*
X41339289Y-114168086D01*
X41489286Y-114059109D01*
X41489288Y-114059106D01*
X41489292Y-114059104D01*
X41639604Y-113908792D01*
X41764551Y-113736816D01*
X41861057Y-113547412D01*
X41926746Y-113345243D01*
X41960000Y-113135287D01*
X41960000Y-112922713D01*
X41926746Y-112712757D01*
X41861057Y-112510588D01*
X41764551Y-112321184D01*
X41764549Y-112321181D01*
X41764548Y-112321179D01*
X41639609Y-112149213D01*
X41489286Y-111998890D01*
X41317320Y-111873951D01*
X41316615Y-111873591D01*
X41308554Y-111869485D01*
X41257759Y-111821512D01*
X41240963Y-111753692D01*
X41263499Y-111687556D01*
X41308554Y-111648515D01*
X41317316Y-111644051D01*
X41363936Y-111610180D01*
X41489286Y-111519109D01*
X41489288Y-111519106D01*
X41489292Y-111519104D01*
X41639604Y-111368792D01*
X41639606Y-111368788D01*
X41639609Y-111368786D01*
X41764548Y-111196820D01*
X41764547Y-111196820D01*
X41764551Y-111196816D01*
X41861057Y-111007412D01*
X41926746Y-110805243D01*
X41960000Y-110595287D01*
X41960000Y-110484500D01*
X41979685Y-110417461D01*
X42032489Y-110371706D01*
X42084000Y-110360500D01*
X52897039Y-110360500D01*
X52964078Y-110380185D01*
X53009833Y-110432989D01*
X53019777Y-110502147D01*
X53011600Y-110531952D01*
X53007453Y-110541962D01*
X53007450Y-110541972D01*
X52972600Y-110717175D01*
X52972600Y-110717178D01*
X52972600Y-110895822D01*
X52972600Y-110895824D01*
X52972599Y-110895824D01*
X53007450Y-111071027D01*
X53007452Y-111071033D01*
X53075814Y-111236075D01*
X53075819Y-111236084D01*
X53175064Y-111384614D01*
X53175067Y-111384618D01*
X53301381Y-111510932D01*
X53301385Y-111510935D01*
X53449915Y-111610180D01*
X53449921Y-111610183D01*
X53449922Y-111610184D01*
X53614967Y-111678548D01*
X53614971Y-111678548D01*
X53614972Y-111678549D01*
X53790175Y-111713400D01*
X53790178Y-111713400D01*
X53968824Y-111713400D01*
X54098747Y-111687556D01*
X54144033Y-111678548D01*
X54309078Y-111610184D01*
X54457615Y-111510935D01*
X54583935Y-111384615D01*
X54683184Y-111236078D01*
X54751548Y-111071033D01*
X54786400Y-110895822D01*
X54786400Y-110717178D01*
X54786400Y-110717175D01*
X54751549Y-110541972D01*
X54751548Y-110541971D01*
X54751548Y-110541967D01*
X54747400Y-110531952D01*
X54739931Y-110462483D01*
X54771207Y-110400004D01*
X54831296Y-110364352D01*
X54861961Y-110360500D01*
X74076500Y-110360500D01*
X74143539Y-110380185D01*
X74189294Y-110432989D01*
X74200500Y-110484500D01*
X74200500Y-130939500D01*
X74180815Y-131006539D01*
X74128011Y-131052294D01*
X74076500Y-131063500D01*
X66682663Y-131063500D01*
X66670830Y-131061109D01*
X66632575Y-131063500D01*
X66594275Y-131063500D01*
X66593192Y-131063642D01*
X66571629Y-131067168D01*
X66570578Y-131067374D01*
X66537918Y-131078349D01*
X66534246Y-131079584D01*
X66497246Y-131089499D01*
X66486799Y-131095529D01*
X66475363Y-131099373D01*
X66475357Y-131099376D01*
X66446663Y-131118423D01*
X66440089Y-131122497D01*
X66410256Y-131139721D01*
X66410247Y-131139728D01*
X66401712Y-131148261D01*
X66391667Y-131154931D01*
X66366345Y-131183627D01*
X66363594Y-131186379D01*
X66363595Y-131186379D01*
X66339228Y-131210747D01*
X66338598Y-131211568D01*
X66324985Y-131230502D01*
X56984364Y-141816541D01*
X56925249Y-141853786D01*
X56891384Y-141858500D01*
X32225000Y-141858500D01*
X32157961Y-141838815D01*
X32112206Y-141786011D01*
X32101000Y-141734500D01*
X32101000Y-110484500D01*
X32120685Y-110417461D01*
X32173489Y-110371706D01*
X32225000Y-110360500D01*
X36595000Y-110360500D01*
X36662039Y-110380185D01*
G37*
%TD.AperFunction*%
%TD*%
%TA.AperFunction,Conductor*%
%TO.N,+3V3B*%
G36*
X70298619Y-69411081D02*
G01*
X70365498Y-69526920D01*
X70460080Y-69621502D01*
X70575919Y-69688381D01*
X70636057Y-69704494D01*
X70073283Y-70267268D01*
X70073283Y-70267269D01*
X70110567Y-70294358D01*
X70267331Y-70374234D01*
X70318127Y-70422209D01*
X70334922Y-70490030D01*
X70312384Y-70556165D01*
X70267331Y-70595204D01*
X70110305Y-70675213D01*
X69949533Y-70792021D01*
X69809021Y-70932533D01*
X69692213Y-71093305D01*
X69612485Y-71249780D01*
X69564510Y-71300576D01*
X69496689Y-71317371D01*
X69430554Y-71294833D01*
X69391515Y-71249780D01*
X69311786Y-71093305D01*
X69194981Y-70932536D01*
X69054464Y-70792019D01*
X68893694Y-70675213D01*
X68736667Y-70595203D01*
X68685872Y-70547229D01*
X68669077Y-70479408D01*
X68691614Y-70413273D01*
X68736669Y-70374234D01*
X68893422Y-70294364D01*
X68930716Y-70267268D01*
X68367942Y-69704494D01*
X68428081Y-69688381D01*
X68543920Y-69621502D01*
X68638502Y-69526920D01*
X68705381Y-69411081D01*
X68721495Y-69350942D01*
X69284268Y-69913715D01*
X69311362Y-69876425D01*
X69391515Y-69719117D01*
X69439489Y-69668321D01*
X69507310Y-69651526D01*
X69573445Y-69674063D01*
X69612485Y-69719117D01*
X69692641Y-69876432D01*
X69719730Y-69913715D01*
X70282504Y-69350941D01*
X70298619Y-69411081D01*
G37*
%TD.AperFunction*%
%TA.AperFunction,Conductor*%
G36*
X37219066Y-59709685D02*
G01*
X37264821Y-59762489D01*
X37274765Y-59831647D01*
X37245740Y-59895203D01*
X37224912Y-59914318D01*
X37189714Y-59939890D01*
X37189709Y-59939894D01*
X37039390Y-60090213D01*
X36914451Y-60262179D01*
X36817944Y-60451585D01*
X36752253Y-60653760D01*
X36719000Y-60863713D01*
X36719000Y-61076286D01*
X36752253Y-61286239D01*
X36817944Y-61488414D01*
X36914451Y-61677820D01*
X37039390Y-61849786D01*
X37189713Y-62000109D01*
X37361682Y-62125050D01*
X37370446Y-62129516D01*
X37421242Y-62177491D01*
X37438036Y-62245312D01*
X37415498Y-62311447D01*
X37370446Y-62350484D01*
X37361682Y-62354949D01*
X37189713Y-62479890D01*
X37039390Y-62630213D01*
X36914451Y-62802179D01*
X36817944Y-62991585D01*
X36752253Y-63193760D01*
X36719000Y-63403713D01*
X36719000Y-63616286D01*
X36752253Y-63826239D01*
X36817944Y-64028414D01*
X36914451Y-64217820D01*
X37039390Y-64389786D01*
X37189713Y-64540109D01*
X37361682Y-64665050D01*
X37370446Y-64669516D01*
X37421242Y-64717491D01*
X37438036Y-64785312D01*
X37415498Y-64851447D01*
X37370446Y-64890484D01*
X37361682Y-64894949D01*
X37189713Y-65019890D01*
X37039390Y-65170213D01*
X36914451Y-65342179D01*
X36817944Y-65531585D01*
X36752253Y-65733760D01*
X36719000Y-65943713D01*
X36719000Y-66156286D01*
X36752253Y-66366239D01*
X36817944Y-66568414D01*
X36914451Y-66757820D01*
X37039390Y-66929786D01*
X37189713Y-67080109D01*
X37361682Y-67205050D01*
X37370446Y-67209516D01*
X37421242Y-67257491D01*
X37438036Y-67325312D01*
X37415498Y-67391447D01*
X37370446Y-67430484D01*
X37361682Y-67434949D01*
X37189713Y-67559890D01*
X37039390Y-67710213D01*
X36914451Y-67882179D01*
X36817944Y-68071585D01*
X36752253Y-68273760D01*
X36719000Y-68483713D01*
X36719000Y-68696286D01*
X36736772Y-68808498D01*
X36752254Y-68906243D01*
X36769872Y-68960466D01*
X36817944Y-69108414D01*
X36914451Y-69297820D01*
X37039390Y-69469786D01*
X37189713Y-69620109D01*
X37361682Y-69745050D01*
X37370446Y-69749516D01*
X37421242Y-69797491D01*
X37438036Y-69865312D01*
X37415498Y-69931447D01*
X37370446Y-69970484D01*
X37361682Y-69974949D01*
X37189713Y-70099890D01*
X37039390Y-70250213D01*
X36914451Y-70422179D01*
X36817944Y-70611585D01*
X36752253Y-70813760D01*
X36719000Y-71023713D01*
X36719000Y-71236286D01*
X36752253Y-71446239D01*
X36752253Y-71446241D01*
X36752254Y-71446243D01*
X36806257Y-71612447D01*
X36817944Y-71648414D01*
X36914451Y-71837820D01*
X37039390Y-72009786D01*
X37189713Y-72160109D01*
X37361682Y-72285050D01*
X37370446Y-72289516D01*
X37421242Y-72337491D01*
X37438036Y-72405312D01*
X37415498Y-72471447D01*
X37370446Y-72510484D01*
X37361682Y-72514949D01*
X37189713Y-72639890D01*
X37039390Y-72790213D01*
X36914451Y-72962179D01*
X36817944Y-73151585D01*
X36752253Y-73353760D01*
X36719000Y-73563713D01*
X36719000Y-73776286D01*
X36731842Y-73857371D01*
X36752254Y-73986243D01*
X36756517Y-73999364D01*
X36817944Y-74188414D01*
X36914451Y-74377820D01*
X37039390Y-74549786D01*
X37189713Y-74700109D01*
X37361682Y-74825050D01*
X37370446Y-74829516D01*
X37421242Y-74877491D01*
X37438036Y-74945312D01*
X37415498Y-75011447D01*
X37370446Y-75050484D01*
X37361682Y-75054949D01*
X37189713Y-75179890D01*
X37039390Y-75330213D01*
X36914451Y-75502179D01*
X36817944Y-75691585D01*
X36752253Y-75893760D01*
X36719000Y-76103713D01*
X36719000Y-76316286D01*
X36731842Y-76397371D01*
X36752254Y-76526243D01*
X36807471Y-76696184D01*
X36817944Y-76728414D01*
X36914451Y-76917820D01*
X37039390Y-77089786D01*
X37189713Y-77240109D01*
X37361682Y-77365050D01*
X37370446Y-77369516D01*
X37421242Y-77417491D01*
X37438036Y-77485312D01*
X37415498Y-77551447D01*
X37370446Y-77590484D01*
X37361682Y-77594949D01*
X37189713Y-77719890D01*
X37039390Y-77870213D01*
X36914451Y-78042179D01*
X36817944Y-78231585D01*
X36752253Y-78433760D01*
X36733441Y-78552536D01*
X36719000Y-78643713D01*
X36719000Y-78856287D01*
X36728273Y-78914833D01*
X36741455Y-78998065D01*
X36752254Y-79066243D01*
X36771144Y-79124381D01*
X36817944Y-79268414D01*
X36914451Y-79457820D01*
X37039390Y-79629786D01*
X37189709Y-79780105D01*
X37194606Y-79783663D01*
X37237271Y-79838994D01*
X37243250Y-79908607D01*
X37210644Y-79970402D01*
X37160729Y-80001685D01*
X37150173Y-80005183D01*
X37150163Y-80005187D01*
X37000842Y-80097289D01*
X36876789Y-80221342D01*
X36784687Y-80370663D01*
X36784685Y-80370668D01*
X36765627Y-80428182D01*
X36729501Y-80537203D01*
X36729501Y-80537204D01*
X36729500Y-80537204D01*
X36719000Y-80639983D01*
X36719000Y-81940001D01*
X36719001Y-81940018D01*
X36729500Y-82042796D01*
X36729501Y-82042799D01*
X36784685Y-82209331D01*
X36784687Y-82209336D01*
X36799500Y-82233351D01*
X36876788Y-82358656D01*
X37000844Y-82482712D01*
X37150166Y-82574814D01*
X37316703Y-82629999D01*
X37419491Y-82640500D01*
X38719508Y-82640499D01*
X38822297Y-82629999D01*
X38988834Y-82574814D01*
X39138156Y-82482712D01*
X39251819Y-82369049D01*
X39313142Y-82335564D01*
X39382834Y-82340548D01*
X39427181Y-82369049D01*
X39540844Y-82482712D01*
X39690166Y-82574814D01*
X39856703Y-82629999D01*
X39959491Y-82640500D01*
X41259508Y-82640499D01*
X41362297Y-82629999D01*
X41528834Y-82574814D01*
X41678156Y-82482712D01*
X41802212Y-82358656D01*
X41894314Y-82209334D01*
X41949499Y-82042797D01*
X41960000Y-81940009D01*
X41959999Y-80639992D01*
X41959744Y-80637500D01*
X41949499Y-80537203D01*
X41949498Y-80537200D01*
X41939219Y-80506180D01*
X41894314Y-80370666D01*
X41802212Y-80221344D01*
X41678156Y-80097288D01*
X41528834Y-80005186D01*
X41528833Y-80005185D01*
X41528825Y-80005182D01*
X41518273Y-80001686D01*
X41460828Y-79961913D01*
X41434006Y-79897397D01*
X41446322Y-79828621D01*
X41477485Y-79791824D01*
X52972599Y-79791824D01*
X53007450Y-79967027D01*
X53007452Y-79967033D01*
X53075814Y-80132075D01*
X53075819Y-80132084D01*
X53175064Y-80280614D01*
X53175067Y-80280618D01*
X53301381Y-80406932D01*
X53301385Y-80406935D01*
X53449915Y-80506180D01*
X53449921Y-80506183D01*
X53449922Y-80506184D01*
X53614967Y-80574548D01*
X53614971Y-80574548D01*
X53614972Y-80574549D01*
X53790175Y-80609400D01*
X53790178Y-80609400D01*
X53968824Y-80609400D01*
X54104106Y-80582490D01*
X54144033Y-80574548D01*
X54309078Y-80506184D01*
X54457615Y-80406935D01*
X54583935Y-80280615D01*
X54683184Y-80132078D01*
X54751548Y-79967033D01*
X54777017Y-79838994D01*
X54786400Y-79791824D01*
X54786400Y-79613175D01*
X54751549Y-79437972D01*
X54751548Y-79437971D01*
X54751548Y-79437967D01*
X54698671Y-79310312D01*
X54683185Y-79272924D01*
X54683180Y-79272915D01*
X54583935Y-79124385D01*
X54583932Y-79124381D01*
X54457618Y-78998067D01*
X54457614Y-78998064D01*
X54309084Y-78898819D01*
X54309075Y-78898814D01*
X54144033Y-78830452D01*
X54144027Y-78830450D01*
X53968824Y-78795600D01*
X53968822Y-78795600D01*
X53790178Y-78795600D01*
X53790176Y-78795600D01*
X53614972Y-78830450D01*
X53614966Y-78830452D01*
X53449924Y-78898814D01*
X53449915Y-78898819D01*
X53301385Y-78998064D01*
X53301381Y-78998067D01*
X53175067Y-79124381D01*
X53175064Y-79124385D01*
X53075819Y-79272915D01*
X53075814Y-79272924D01*
X53007452Y-79437966D01*
X53007450Y-79437972D01*
X52972600Y-79613175D01*
X52972600Y-79613178D01*
X52972600Y-79791822D01*
X52972600Y-79791824D01*
X52972599Y-79791824D01*
X41477485Y-79791824D01*
X41484403Y-79783656D01*
X41489288Y-79780107D01*
X41489288Y-79780106D01*
X41489292Y-79780104D01*
X41639604Y-79629792D01*
X41764551Y-79457816D01*
X41861057Y-79268412D01*
X41926746Y-79066243D01*
X41960000Y-78856287D01*
X41960000Y-78643713D01*
X41926746Y-78433757D01*
X41861057Y-78231588D01*
X41764551Y-78042184D01*
X41764549Y-78042181D01*
X41764548Y-78042179D01*
X41639609Y-77870213D01*
X41489286Y-77719890D01*
X41317320Y-77594951D01*
X41316615Y-77594591D01*
X41308554Y-77590485D01*
X41257759Y-77542512D01*
X41240963Y-77474692D01*
X41263499Y-77408556D01*
X41308554Y-77369515D01*
X41317316Y-77365051D01*
X41364094Y-77331065D01*
X41489286Y-77240109D01*
X41489288Y-77240106D01*
X41489292Y-77240104D01*
X41639604Y-77089792D01*
X41639606Y-77089788D01*
X41639609Y-77089786D01*
X41764548Y-76917820D01*
X41764547Y-76917820D01*
X41764551Y-76917816D01*
X41861057Y-76728412D01*
X41926746Y-76526243D01*
X41960000Y-76316287D01*
X41960000Y-76103713D01*
X41940695Y-75981824D01*
X56530099Y-75981824D01*
X56564950Y-76157027D01*
X56564952Y-76157033D01*
X56633314Y-76322075D01*
X56633319Y-76322084D01*
X56732564Y-76470614D01*
X56732567Y-76470618D01*
X56858881Y-76596932D01*
X56858885Y-76596935D01*
X57007415Y-76696180D01*
X57007421Y-76696183D01*
X57007422Y-76696184D01*
X57172467Y-76764548D01*
X57172471Y-76764548D01*
X57172472Y-76764549D01*
X57347675Y-76799400D01*
X57347678Y-76799400D01*
X57526324Y-76799400D01*
X57644198Y-76775952D01*
X57701533Y-76764548D01*
X57866578Y-76696184D01*
X58015115Y-76596935D01*
X58141435Y-76470615D01*
X58240684Y-76322078D01*
X58309048Y-76157033D01*
X58343900Y-75981822D01*
X58343900Y-75803178D01*
X58343900Y-75803175D01*
X58309049Y-75627972D01*
X58309048Y-75627971D01*
X58309048Y-75627967D01*
X58240684Y-75462922D01*
X58240683Y-75462921D01*
X58240680Y-75462915D01*
X58141435Y-75314385D01*
X58141432Y-75314381D01*
X58015118Y-75188067D01*
X58015114Y-75188064D01*
X57866584Y-75088819D01*
X57866575Y-75088814D01*
X57701533Y-75020452D01*
X57701527Y-75020450D01*
X57526324Y-74985600D01*
X57526322Y-74985600D01*
X57347678Y-74985600D01*
X57347676Y-74985600D01*
X57172472Y-75020450D01*
X57172466Y-75020452D01*
X57007424Y-75088814D01*
X57007415Y-75088819D01*
X56858885Y-75188064D01*
X56858881Y-75188067D01*
X56732567Y-75314381D01*
X56732564Y-75314385D01*
X56633319Y-75462915D01*
X56633314Y-75462924D01*
X56564952Y-75627966D01*
X56564950Y-75627972D01*
X56530100Y-75803175D01*
X56530100Y-75803178D01*
X56530100Y-75981822D01*
X56530100Y-75981824D01*
X56530099Y-75981824D01*
X41940695Y-75981824D01*
X41926746Y-75893757D01*
X41861057Y-75691588D01*
X41861055Y-75691585D01*
X41861055Y-75691583D01*
X41792736Y-75557500D01*
X41764551Y-75502184D01*
X41764549Y-75502181D01*
X41764548Y-75502179D01*
X41639609Y-75330213D01*
X41489286Y-75179890D01*
X41317320Y-75054951D01*
X41316615Y-75054591D01*
X41308554Y-75050485D01*
X41257759Y-75002512D01*
X41240963Y-74934692D01*
X41263499Y-74868556D01*
X41308554Y-74829515D01*
X41317316Y-74825051D01*
X41351495Y-74800219D01*
X41489286Y-74700109D01*
X41489288Y-74700106D01*
X41489292Y-74700104D01*
X41639604Y-74549792D01*
X41639606Y-74549788D01*
X41639609Y-74549786D01*
X41764548Y-74377820D01*
X41764547Y-74377820D01*
X41764551Y-74377816D01*
X41861057Y-74188412D01*
X41926746Y-73986243D01*
X41960000Y-73776287D01*
X41960000Y-73563713D01*
X41926746Y-73353757D01*
X41861057Y-73151588D01*
X41764551Y-72962184D01*
X41764549Y-72962181D01*
X41764548Y-72962179D01*
X41639609Y-72790213D01*
X41489286Y-72639890D01*
X41317320Y-72514951D01*
X41316615Y-72514591D01*
X41308554Y-72510485D01*
X41257759Y-72462512D01*
X41240963Y-72394692D01*
X41263499Y-72328556D01*
X41308554Y-72289515D01*
X41317316Y-72285051D01*
X41364094Y-72251065D01*
X41489286Y-72160109D01*
X41489288Y-72160106D01*
X41489292Y-72160104D01*
X41639604Y-72009792D01*
X41639606Y-72009788D01*
X41639609Y-72009786D01*
X41764548Y-71837820D01*
X41764547Y-71837820D01*
X41764551Y-71837816D01*
X41857375Y-71655639D01*
X66969500Y-71655639D01*
X66969500Y-71854360D01*
X67000587Y-72050637D01*
X67061993Y-72239629D01*
X67061994Y-72239632D01*
X67152213Y-72416694D01*
X67269019Y-72577464D01*
X67409536Y-72717981D01*
X67570306Y-72834787D01*
X67688832Y-72895179D01*
X67726780Y-72914515D01*
X67777576Y-72962490D01*
X67794371Y-73030311D01*
X67771833Y-73096446D01*
X67726780Y-73135485D01*
X67570305Y-73215213D01*
X67409533Y-73332021D01*
X67269021Y-73472533D01*
X67152213Y-73633305D01*
X67061994Y-73810367D01*
X67061993Y-73810370D01*
X67000587Y-73999362D01*
X66969500Y-74195639D01*
X66969500Y-74394360D01*
X67000587Y-74590637D01*
X67061993Y-74779629D01*
X67061994Y-74779632D01*
X67152213Y-74956694D01*
X67269019Y-75117464D01*
X67409536Y-75257981D01*
X67570306Y-75374787D01*
X67688832Y-75435179D01*
X67726780Y-75454515D01*
X67777576Y-75502490D01*
X67794371Y-75570311D01*
X67771833Y-75636446D01*
X67726780Y-75675485D01*
X67570305Y-75755213D01*
X67409533Y-75872021D01*
X67269021Y-76012533D01*
X67152213Y-76173305D01*
X67061994Y-76350367D01*
X67061993Y-76350370D01*
X67000587Y-76539362D01*
X66969500Y-76735639D01*
X66969500Y-76934360D01*
X67000587Y-77130637D01*
X67061993Y-77319629D01*
X67061994Y-77319632D01*
X67152213Y-77496694D01*
X67269019Y-77657464D01*
X67409536Y-77797981D01*
X67570306Y-77914787D01*
X67688832Y-77975179D01*
X67726780Y-77994515D01*
X67777576Y-78042490D01*
X67794371Y-78110311D01*
X67771833Y-78176446D01*
X67726780Y-78215485D01*
X67570305Y-78295213D01*
X67409533Y-78412021D01*
X67269021Y-78552533D01*
X67152213Y-78713305D01*
X67061994Y-78890367D01*
X67061993Y-78890370D01*
X67000587Y-79079362D01*
X66969500Y-79275639D01*
X66969500Y-79474360D01*
X67000587Y-79670637D01*
X67061993Y-79859629D01*
X67061994Y-79859632D01*
X67118435Y-79970402D01*
X67152213Y-80036694D01*
X67269019Y-80197464D01*
X67409536Y-80337981D01*
X67409539Y-80337983D01*
X67533687Y-80428182D01*
X67576353Y-80483512D01*
X67582332Y-80553125D01*
X67549726Y-80614920D01*
X67488888Y-80649277D01*
X67460805Y-80652500D01*
X67422131Y-80652500D01*
X67422123Y-80652501D01*
X67362516Y-80658908D01*
X67227671Y-80709202D01*
X67227664Y-80709206D01*
X67112455Y-80795452D01*
X67112452Y-80795455D01*
X67026206Y-80910664D01*
X67026202Y-80910671D01*
X66975908Y-81045517D01*
X66969501Y-81105116D01*
X66969501Y-81105123D01*
X66969500Y-81105135D01*
X66969500Y-82724870D01*
X66969501Y-82724876D01*
X66975908Y-82784483D01*
X67026202Y-82919328D01*
X67026206Y-82919335D01*
X67112452Y-83034544D01*
X67112455Y-83034547D01*
X67227664Y-83120793D01*
X67227671Y-83120797D01*
X67362517Y-83171091D01*
X67362516Y-83171091D01*
X67369444Y-83171835D01*
X67422127Y-83177500D01*
X69041872Y-83177499D01*
X69101483Y-83171091D01*
X69236331Y-83120796D01*
X69351546Y-83034546D01*
X69437796Y-82919331D01*
X69488091Y-82784483D01*
X69494500Y-82724873D01*
X69494499Y-82686197D01*
X69514182Y-82619161D01*
X69566985Y-82573405D01*
X69636143Y-82563460D01*
X69699699Y-82592483D01*
X69718817Y-82613312D01*
X69730941Y-82629999D01*
X69809019Y-82737464D01*
X69949536Y-82877981D01*
X70110306Y-82994787D01*
X70188333Y-83034544D01*
X70287367Y-83085005D01*
X70287370Y-83085006D01*
X70381866Y-83115709D01*
X70476364Y-83146413D01*
X70672639Y-83177500D01*
X70672640Y-83177500D01*
X70871360Y-83177500D01*
X70871361Y-83177500D01*
X71067636Y-83146413D01*
X71256632Y-83085005D01*
X71433694Y-82994787D01*
X71594464Y-82877981D01*
X71734981Y-82737464D01*
X71851787Y-82576694D01*
X71942005Y-82399632D01*
X72003413Y-82210636D01*
X72034500Y-82014361D01*
X72034500Y-81815639D01*
X72003413Y-81619364D01*
X71942005Y-81430368D01*
X71942005Y-81430367D01*
X71896035Y-81340149D01*
X71851787Y-81253306D01*
X71734981Y-81092536D01*
X71594464Y-80952019D01*
X71433694Y-80835213D01*
X71277218Y-80755484D01*
X71226423Y-80707510D01*
X71209628Y-80639689D01*
X71232165Y-80573554D01*
X71277218Y-80534515D01*
X71433694Y-80454787D01*
X71594464Y-80337981D01*
X71734981Y-80197464D01*
X71851787Y-80036694D01*
X71942005Y-79859632D01*
X72003413Y-79670636D01*
X72034500Y-79474361D01*
X72034500Y-79275639D01*
X72003413Y-79079364D01*
X71944750Y-78898816D01*
X71942006Y-78890370D01*
X71942005Y-78890367D01*
X71851786Y-78713305D01*
X71734981Y-78552536D01*
X71594464Y-78412019D01*
X71433694Y-78295213D01*
X71277218Y-78215484D01*
X71226423Y-78167510D01*
X71209628Y-78099689D01*
X71232165Y-78033554D01*
X71277218Y-77994515D01*
X71433694Y-77914787D01*
X71594464Y-77797981D01*
X71734981Y-77657464D01*
X71851787Y-77496694D01*
X71942005Y-77319632D01*
X72003413Y-77130636D01*
X72034500Y-76934361D01*
X72034500Y-76735639D01*
X72003413Y-76539364D01*
X71942005Y-76350368D01*
X71942005Y-76350367D01*
X71851786Y-76173305D01*
X71839964Y-76157033D01*
X71734981Y-76012536D01*
X71594464Y-75872019D01*
X71433694Y-75755213D01*
X71277218Y-75675484D01*
X71226423Y-75627510D01*
X71209628Y-75559689D01*
X71232165Y-75493554D01*
X71277218Y-75454515D01*
X71433694Y-75374787D01*
X71594464Y-75257981D01*
X71734981Y-75117464D01*
X71851787Y-74956694D01*
X71942005Y-74779632D01*
X72003413Y-74590636D01*
X72034500Y-74394361D01*
X72034500Y-74195639D01*
X72003413Y-73999364D01*
X71942005Y-73810368D01*
X71942005Y-73810367D01*
X71851786Y-73633305D01*
X71734981Y-73472536D01*
X71594464Y-73332019D01*
X71433694Y-73215213D01*
X71277218Y-73135484D01*
X71226423Y-73087510D01*
X71209628Y-73019689D01*
X71232165Y-72953554D01*
X71277218Y-72914515D01*
X71433694Y-72834787D01*
X71594464Y-72717981D01*
X71734981Y-72577464D01*
X71851787Y-72416694D01*
X71942005Y-72239632D01*
X72003413Y-72050636D01*
X72034500Y-71854361D01*
X72034500Y-71655639D01*
X72003413Y-71459364D01*
X71942005Y-71270368D01*
X71942005Y-71270367D01*
X71851786Y-71093305D01*
X71734981Y-70932536D01*
X71594464Y-70792019D01*
X71433694Y-70675213D01*
X71276667Y-70595203D01*
X71225872Y-70547229D01*
X71209077Y-70479408D01*
X71231614Y-70413273D01*
X71276669Y-70374234D01*
X71433422Y-70294364D01*
X71470716Y-70267268D01*
X70907942Y-69704494D01*
X70968081Y-69688381D01*
X71083920Y-69621502D01*
X71178502Y-69526920D01*
X71245381Y-69411081D01*
X71261495Y-69350942D01*
X71824268Y-69913715D01*
X71851362Y-69876425D01*
X71941542Y-69699437D01*
X72002924Y-69510523D01*
X72002924Y-69510520D01*
X72034000Y-69314321D01*
X72034000Y-69115678D01*
X72002924Y-68919479D01*
X72002924Y-68919476D01*
X71941542Y-68730562D01*
X71851358Y-68553567D01*
X71824268Y-68516283D01*
X71261494Y-69079057D01*
X71245381Y-69018919D01*
X71178502Y-68903080D01*
X71083920Y-68808498D01*
X70968081Y-68741619D01*
X70907942Y-68725504D01*
X71470716Y-68162731D01*
X71470715Y-68162730D01*
X71433432Y-68135641D01*
X71256437Y-68045457D01*
X71067522Y-67984075D01*
X70871321Y-67953000D01*
X70672679Y-67953000D01*
X70476479Y-67984075D01*
X70476476Y-67984075D01*
X70287562Y-68045457D01*
X70110564Y-68135643D01*
X70073283Y-68162729D01*
X70073282Y-68162730D01*
X70636058Y-68725504D01*
X70575919Y-68741619D01*
X70460080Y-68808498D01*
X70365498Y-68903080D01*
X70298619Y-69018919D01*
X70282504Y-69079057D01*
X69719730Y-68516282D01*
X69719729Y-68516283D01*
X69692643Y-68553564D01*
X69612485Y-68710882D01*
X69564510Y-68761678D01*
X69496689Y-68778473D01*
X69430554Y-68755935D01*
X69391515Y-68710882D01*
X69311358Y-68553567D01*
X69284268Y-68516283D01*
X68721494Y-69079057D01*
X68705381Y-69018919D01*
X68638502Y-68903080D01*
X68543920Y-68808498D01*
X68428081Y-68741619D01*
X68367942Y-68725504D01*
X68930716Y-68162731D01*
X68930715Y-68162730D01*
X68893432Y-68135641D01*
X68716437Y-68045457D01*
X68527522Y-67984075D01*
X68331321Y-67953000D01*
X68132679Y-67953000D01*
X67936479Y-67984075D01*
X67936476Y-67984075D01*
X67747562Y-68045457D01*
X67570564Y-68135643D01*
X67533283Y-68162729D01*
X67533282Y-68162730D01*
X68096058Y-68725504D01*
X68035919Y-68741619D01*
X67920080Y-68808498D01*
X67825498Y-68903080D01*
X67758619Y-69018919D01*
X67742504Y-69079057D01*
X67179730Y-68516282D01*
X67179729Y-68516283D01*
X67152643Y-68553564D01*
X67062457Y-68730562D01*
X67001075Y-68919476D01*
X67001075Y-68919479D01*
X66970000Y-69115678D01*
X66970000Y-69314321D01*
X67001075Y-69510520D01*
X67001075Y-69510523D01*
X67062457Y-69699437D01*
X67152641Y-69876432D01*
X67179730Y-69913715D01*
X67179731Y-69913716D01*
X67742504Y-69350942D01*
X67758619Y-69411081D01*
X67825498Y-69526920D01*
X67920080Y-69621502D01*
X68035919Y-69688381D01*
X68096057Y-69704494D01*
X67533283Y-70267268D01*
X67533283Y-70267269D01*
X67570567Y-70294358D01*
X67727331Y-70374234D01*
X67778127Y-70422209D01*
X67794922Y-70490030D01*
X67772384Y-70556165D01*
X67727331Y-70595204D01*
X67570305Y-70675213D01*
X67409533Y-70792021D01*
X67269021Y-70932533D01*
X67152213Y-71093305D01*
X67061994Y-71270367D01*
X67061993Y-71270370D01*
X67000587Y-71459362D01*
X66969500Y-71655639D01*
X41857375Y-71655639D01*
X41861057Y-71648412D01*
X41926746Y-71446243D01*
X41960000Y-71236287D01*
X41960000Y-71023713D01*
X41926746Y-70813757D01*
X41861057Y-70611588D01*
X41764551Y-70422184D01*
X41764549Y-70422181D01*
X41764548Y-70422179D01*
X41639609Y-70250213D01*
X41489286Y-70099890D01*
X41317320Y-69974951D01*
X41316615Y-69974591D01*
X41308554Y-69970485D01*
X41257759Y-69922512D01*
X41240963Y-69854692D01*
X41263499Y-69788556D01*
X41308554Y-69749515D01*
X41317316Y-69745051D01*
X41395316Y-69688381D01*
X41489286Y-69620109D01*
X41489288Y-69620106D01*
X41489292Y-69620104D01*
X41639604Y-69469792D01*
X41639606Y-69469788D01*
X41639609Y-69469786D01*
X41752557Y-69314324D01*
X53037599Y-69314324D01*
X53072450Y-69489527D01*
X53072452Y-69489533D01*
X53140814Y-69654575D01*
X53140819Y-69654584D01*
X53240064Y-69803114D01*
X53240067Y-69803118D01*
X53366381Y-69929432D01*
X53366385Y-69929435D01*
X53514915Y-70028680D01*
X53514921Y-70028683D01*
X53514922Y-70028684D01*
X53679967Y-70097048D01*
X53679971Y-70097048D01*
X53679972Y-70097049D01*
X53855175Y-70131900D01*
X53855178Y-70131900D01*
X54033824Y-70131900D01*
X54194745Y-70099890D01*
X54209033Y-70097048D01*
X54374078Y-70028684D01*
X54522615Y-69929435D01*
X54648935Y-69803115D01*
X54748184Y-69654578D01*
X54816548Y-69489533D01*
X54851400Y-69314322D01*
X54851400Y-69135678D01*
X54845976Y-69108412D01*
X54816549Y-68960474D01*
X54816549Y-68960472D01*
X54816548Y-68960467D01*
X54748184Y-68795422D01*
X54748183Y-68795421D01*
X54748180Y-68795415D01*
X54648935Y-68646885D01*
X54648932Y-68646881D01*
X54522618Y-68520567D01*
X54522614Y-68520564D01*
X54374084Y-68421319D01*
X54374075Y-68421314D01*
X54209033Y-68352952D01*
X54209027Y-68352950D01*
X54101728Y-68331607D01*
X54101727Y-68331606D01*
X54033825Y-68318100D01*
X54033822Y-68318100D01*
X53855178Y-68318100D01*
X53855176Y-68318100D01*
X53679972Y-68352950D01*
X53679966Y-68352952D01*
X53514924Y-68421314D01*
X53514915Y-68421319D01*
X53366385Y-68520564D01*
X53366381Y-68520567D01*
X53240067Y-68646881D01*
X53240064Y-68646885D01*
X53140819Y-68795415D01*
X53140814Y-68795424D01*
X53072452Y-68960466D01*
X53072450Y-68960472D01*
X53037600Y-69135675D01*
X53037600Y-69135678D01*
X53037600Y-69314322D01*
X53037600Y-69314324D01*
X53037599Y-69314324D01*
X41752557Y-69314324D01*
X41764548Y-69297820D01*
X41764547Y-69297820D01*
X41764551Y-69297816D01*
X41861057Y-69108412D01*
X41926746Y-68906243D01*
X41960000Y-68696287D01*
X41960000Y-68483713D01*
X41926746Y-68273757D01*
X41861057Y-68071588D01*
X41764551Y-67882184D01*
X41764549Y-67882181D01*
X41764548Y-67882179D01*
X41639609Y-67710213D01*
X41489286Y-67559890D01*
X41317320Y-67434951D01*
X41316615Y-67434591D01*
X41308554Y-67430485D01*
X41257759Y-67382512D01*
X41240963Y-67314692D01*
X41263499Y-67248556D01*
X41308554Y-67209515D01*
X41317316Y-67205051D01*
X41339289Y-67189086D01*
X41489286Y-67080109D01*
X41489288Y-67080106D01*
X41489292Y-67080104D01*
X41639604Y-66929792D01*
X41639606Y-66929788D01*
X41639609Y-66929786D01*
X41764548Y-66757820D01*
X41764547Y-66757820D01*
X41764551Y-66757816D01*
X41861057Y-66568412D01*
X41926746Y-66366243D01*
X41960000Y-66156287D01*
X41960000Y-65943713D01*
X41926746Y-65733757D01*
X41861057Y-65531588D01*
X41847165Y-65504324D01*
X56530099Y-65504324D01*
X56564950Y-65679527D01*
X56564952Y-65679533D01*
X56633314Y-65844575D01*
X56633319Y-65844584D01*
X56732564Y-65993114D01*
X56732567Y-65993118D01*
X56858881Y-66119432D01*
X56858885Y-66119435D01*
X57007415Y-66218680D01*
X57007421Y-66218683D01*
X57007422Y-66218684D01*
X57172467Y-66287048D01*
X57172471Y-66287048D01*
X57172472Y-66287049D01*
X57347675Y-66321900D01*
X57347678Y-66321900D01*
X57526324Y-66321900D01*
X57644198Y-66298452D01*
X57701533Y-66287048D01*
X57866578Y-66218684D01*
X58015115Y-66119435D01*
X58141435Y-65993115D01*
X58240684Y-65844578D01*
X58309048Y-65679533D01*
X58327186Y-65588349D01*
X58343900Y-65504324D01*
X58343900Y-65325675D01*
X58309049Y-65150472D01*
X58309048Y-65150471D01*
X58309048Y-65150467D01*
X58240684Y-64985422D01*
X58240683Y-64985421D01*
X58240680Y-64985415D01*
X58141435Y-64836885D01*
X58141432Y-64836881D01*
X58015118Y-64710567D01*
X58015114Y-64710564D01*
X57866584Y-64611319D01*
X57866575Y-64611314D01*
X57701533Y-64542952D01*
X57701527Y-64542950D01*
X57526324Y-64508100D01*
X57526322Y-64508100D01*
X57347678Y-64508100D01*
X57347676Y-64508100D01*
X57172472Y-64542950D01*
X57172466Y-64542952D01*
X57007424Y-64611314D01*
X57007415Y-64611319D01*
X56858885Y-64710564D01*
X56858881Y-64710567D01*
X56732567Y-64836881D01*
X56732564Y-64836885D01*
X56633319Y-64985415D01*
X56633314Y-64985424D01*
X56564952Y-65150466D01*
X56564950Y-65150472D01*
X56530100Y-65325675D01*
X56530100Y-65325678D01*
X56530100Y-65504322D01*
X56530100Y-65504324D01*
X56530099Y-65504324D01*
X41847165Y-65504324D01*
X41764551Y-65342184D01*
X41764550Y-65342182D01*
X41639609Y-65170213D01*
X41489286Y-65019890D01*
X41317320Y-64894951D01*
X41316615Y-64894591D01*
X41308554Y-64890485D01*
X41257759Y-64842512D01*
X41240963Y-64774692D01*
X41263499Y-64708556D01*
X41308554Y-64669515D01*
X41317316Y-64665051D01*
X41339289Y-64649086D01*
X41489286Y-64540109D01*
X41489288Y-64540106D01*
X41489292Y-64540104D01*
X41639604Y-64389792D01*
X41639606Y-64389788D01*
X41639609Y-64389786D01*
X41764548Y-64217820D01*
X41764547Y-64217820D01*
X41764551Y-64217816D01*
X41861057Y-64028412D01*
X41926746Y-63826243D01*
X41960000Y-63616287D01*
X41960000Y-63403713D01*
X41926746Y-63193757D01*
X41861057Y-62991588D01*
X41764551Y-62802184D01*
X41764549Y-62802181D01*
X41764548Y-62802179D01*
X41639609Y-62630213D01*
X41489286Y-62479890D01*
X41317320Y-62354951D01*
X41316615Y-62354591D01*
X41308554Y-62350485D01*
X41257759Y-62302512D01*
X41240963Y-62234692D01*
X41263499Y-62168556D01*
X41308554Y-62129515D01*
X41317316Y-62125051D01*
X41339289Y-62109086D01*
X41489286Y-62000109D01*
X41489288Y-62000106D01*
X41489292Y-62000104D01*
X41639604Y-61849792D01*
X41639606Y-61849788D01*
X41639609Y-61849786D01*
X41764548Y-61677820D01*
X41764547Y-61677820D01*
X41764551Y-61677816D01*
X41861057Y-61488412D01*
X41926746Y-61286243D01*
X41960000Y-61076287D01*
X41960000Y-60863713D01*
X41926746Y-60653757D01*
X41861057Y-60451588D01*
X41764551Y-60262184D01*
X41764549Y-60262181D01*
X41764548Y-60262179D01*
X41639609Y-60090213D01*
X41489290Y-59939894D01*
X41489285Y-59939890D01*
X41454088Y-59914318D01*
X41411422Y-59858989D01*
X41405443Y-59789375D01*
X41438048Y-59727580D01*
X41498887Y-59693223D01*
X41526973Y-59690000D01*
X66845501Y-59690000D01*
X66912540Y-59709685D01*
X66958295Y-59762489D01*
X66969501Y-59814000D01*
X66969501Y-59864876D01*
X66975908Y-59924483D01*
X67026202Y-60059328D01*
X67026206Y-60059335D01*
X67112452Y-60174544D01*
X67112455Y-60174547D01*
X67227664Y-60260793D01*
X67227671Y-60260797D01*
X67362517Y-60311091D01*
X67362516Y-60311091D01*
X67369444Y-60311835D01*
X67422127Y-60317500D01*
X69041872Y-60317499D01*
X69101483Y-60311091D01*
X69236331Y-60260796D01*
X69351546Y-60174546D01*
X69437796Y-60059331D01*
X69488091Y-59924483D01*
X69494500Y-59864873D01*
X69494500Y-59826198D01*
X69514185Y-59759159D01*
X69566989Y-59713404D01*
X69636147Y-59703460D01*
X69699703Y-59732485D01*
X69718818Y-59753313D01*
X69799870Y-59864872D01*
X69809019Y-59877464D01*
X69949536Y-60017981D01*
X70110306Y-60134787D01*
X70188333Y-60174544D01*
X70287367Y-60225005D01*
X70287370Y-60225006D01*
X70381866Y-60255709D01*
X70476364Y-60286413D01*
X70672639Y-60317500D01*
X70672640Y-60317500D01*
X70871360Y-60317500D01*
X70871361Y-60317500D01*
X71067636Y-60286413D01*
X71256632Y-60225005D01*
X71433694Y-60134787D01*
X71594464Y-60017981D01*
X71734981Y-59877464D01*
X71834045Y-59741114D01*
X71889375Y-59698449D01*
X71934363Y-59690000D01*
X74076500Y-59690000D01*
X74143539Y-59709685D01*
X74189294Y-59762489D01*
X74200500Y-59814000D01*
X74200500Y-86365500D01*
X74180815Y-86432539D01*
X74128011Y-86478294D01*
X74076500Y-86489500D01*
X32225000Y-86489500D01*
X32157961Y-86469815D01*
X32112206Y-86417011D01*
X32101000Y-86365500D01*
X32101000Y-59814000D01*
X32120685Y-59746961D01*
X32173489Y-59701206D01*
X32225000Y-59690000D01*
X37152027Y-59690000D01*
X37219066Y-59709685D01*
G37*
%TD.AperFunction*%
%TD*%
%TA.AperFunction,Conductor*%
%TO.N,+3V3C*%
G36*
X70298619Y-92271081D02*
G01*
X70365498Y-92386920D01*
X70460080Y-92481502D01*
X70575919Y-92548381D01*
X70636057Y-92564494D01*
X70073283Y-93127268D01*
X70073283Y-93127269D01*
X70110567Y-93154358D01*
X70267331Y-93234234D01*
X70318127Y-93282209D01*
X70334922Y-93350030D01*
X70312384Y-93416165D01*
X70267331Y-93455204D01*
X70110305Y-93535213D01*
X69949533Y-93652021D01*
X69809021Y-93792533D01*
X69692213Y-93953305D01*
X69612485Y-94109780D01*
X69564510Y-94160576D01*
X69496689Y-94177371D01*
X69430554Y-94154833D01*
X69391515Y-94109780D01*
X69327585Y-93984312D01*
X69311787Y-93953306D01*
X69194981Y-93792536D01*
X69054464Y-93652019D01*
X68893694Y-93535213D01*
X68736667Y-93455203D01*
X68685872Y-93407229D01*
X68669077Y-93339408D01*
X68691614Y-93273273D01*
X68736669Y-93234234D01*
X68893422Y-93154364D01*
X68930716Y-93127268D01*
X68367942Y-92564494D01*
X68428081Y-92548381D01*
X68543920Y-92481502D01*
X68638502Y-92386920D01*
X68705381Y-92271081D01*
X68721495Y-92210942D01*
X69284268Y-92773715D01*
X69311362Y-92736425D01*
X69391515Y-92579117D01*
X69439489Y-92528321D01*
X69507310Y-92511526D01*
X69573445Y-92534063D01*
X69612485Y-92579117D01*
X69692641Y-92736432D01*
X69719730Y-92773715D01*
X70282504Y-92210941D01*
X70298619Y-92271081D01*
G37*
%TD.AperFunction*%
%TA.AperFunction,Conductor*%
G36*
X74143539Y-87014685D02*
G01*
X74189294Y-87067489D01*
X74200500Y-87119000D01*
X74200500Y-109731000D01*
X74180815Y-109798039D01*
X74128011Y-109843794D01*
X74076500Y-109855000D01*
X41878150Y-109855000D01*
X41811111Y-109835315D01*
X41767667Y-109787299D01*
X41764549Y-109781180D01*
X41639609Y-109609213D01*
X41489286Y-109458890D01*
X41317320Y-109333951D01*
X41316615Y-109333591D01*
X41308554Y-109329485D01*
X41257759Y-109281512D01*
X41240963Y-109213692D01*
X41263499Y-109147556D01*
X41308554Y-109108515D01*
X41317316Y-109104051D01*
X41339289Y-109088086D01*
X41489286Y-108979109D01*
X41489288Y-108979106D01*
X41489292Y-108979104D01*
X41639604Y-108828792D01*
X41639606Y-108828788D01*
X41639609Y-108828786D01*
X41764548Y-108656820D01*
X41764547Y-108656820D01*
X41764551Y-108656816D01*
X41861057Y-108467412D01*
X41926746Y-108265243D01*
X41960000Y-108055287D01*
X41960000Y-107842713D01*
X41926746Y-107632757D01*
X41861057Y-107430588D01*
X41764551Y-107241184D01*
X41764549Y-107241181D01*
X41764548Y-107241179D01*
X41651677Y-107085824D01*
X56530099Y-107085824D01*
X56564950Y-107261027D01*
X56564952Y-107261033D01*
X56633314Y-107426075D01*
X56633319Y-107426084D01*
X56732564Y-107574614D01*
X56732567Y-107574618D01*
X56858881Y-107700932D01*
X56858885Y-107700935D01*
X57007415Y-107800180D01*
X57007421Y-107800183D01*
X57007422Y-107800184D01*
X57172467Y-107868548D01*
X57172471Y-107868548D01*
X57172472Y-107868549D01*
X57347675Y-107903400D01*
X57347678Y-107903400D01*
X57526324Y-107903400D01*
X57644198Y-107879952D01*
X57701533Y-107868548D01*
X57866578Y-107800184D01*
X58015115Y-107700935D01*
X58141435Y-107574615D01*
X58240684Y-107426078D01*
X58309048Y-107261033D01*
X58343900Y-107085822D01*
X58343900Y-106907178D01*
X58343900Y-106907175D01*
X58309049Y-106731972D01*
X58309048Y-106731971D01*
X58309048Y-106731967D01*
X58241344Y-106568516D01*
X58240685Y-106566924D01*
X58240680Y-106566915D01*
X58141435Y-106418385D01*
X58141432Y-106418381D01*
X58015118Y-106292067D01*
X58015114Y-106292064D01*
X57866584Y-106192819D01*
X57866575Y-106192814D01*
X57701533Y-106124452D01*
X57701527Y-106124450D01*
X57526324Y-106089600D01*
X57526322Y-106089600D01*
X57347678Y-106089600D01*
X57347676Y-106089600D01*
X57172472Y-106124450D01*
X57172466Y-106124452D01*
X57007424Y-106192814D01*
X57007415Y-106192819D01*
X56858885Y-106292064D01*
X56858881Y-106292067D01*
X56732567Y-106418381D01*
X56732564Y-106418385D01*
X56633319Y-106566915D01*
X56633314Y-106566924D01*
X56564952Y-106731966D01*
X56564950Y-106731972D01*
X56530100Y-106907175D01*
X56530100Y-106907178D01*
X56530100Y-107085822D01*
X56530100Y-107085824D01*
X56530099Y-107085824D01*
X41651677Y-107085824D01*
X41639609Y-107069213D01*
X41489286Y-106918890D01*
X41317320Y-106793951D01*
X41316615Y-106793591D01*
X41308554Y-106789485D01*
X41257759Y-106741512D01*
X41240963Y-106673692D01*
X41263499Y-106607556D01*
X41308554Y-106568515D01*
X41317316Y-106564051D01*
X41339289Y-106548086D01*
X41489286Y-106439109D01*
X41489288Y-106439106D01*
X41489292Y-106439104D01*
X41639604Y-106288792D01*
X41639606Y-106288788D01*
X41639609Y-106288786D01*
X41764548Y-106116820D01*
X41764547Y-106116820D01*
X41764551Y-106116816D01*
X41861057Y-105927412D01*
X41926746Y-105725243D01*
X41960000Y-105515287D01*
X41960000Y-105302713D01*
X41926746Y-105092757D01*
X41861057Y-104890588D01*
X41764551Y-104701184D01*
X41764549Y-104701181D01*
X41764548Y-104701179D01*
X41639609Y-104529213D01*
X41489286Y-104378890D01*
X41317320Y-104253951D01*
X41316615Y-104253591D01*
X41308554Y-104249485D01*
X41257759Y-104201512D01*
X41240963Y-104133692D01*
X41263499Y-104067556D01*
X41308554Y-104028515D01*
X41317316Y-104024051D01*
X41345187Y-104003802D01*
X41489286Y-103899109D01*
X41489288Y-103899106D01*
X41489292Y-103899104D01*
X41639604Y-103748792D01*
X41639606Y-103748788D01*
X41639609Y-103748786D01*
X41764548Y-103576820D01*
X41764547Y-103576820D01*
X41764551Y-103576816D01*
X41861057Y-103387412D01*
X41926746Y-103185243D01*
X41960000Y-102975287D01*
X41960000Y-102762713D01*
X41926746Y-102552757D01*
X41861057Y-102350588D01*
X41764551Y-102161184D01*
X41764549Y-102161181D01*
X41764548Y-102161179D01*
X41639609Y-101989213D01*
X41489286Y-101838890D01*
X41317320Y-101713951D01*
X41316615Y-101713591D01*
X41308554Y-101709485D01*
X41257759Y-101661512D01*
X41240963Y-101593692D01*
X41263499Y-101527556D01*
X41308554Y-101488515D01*
X41317316Y-101484051D01*
X41415753Y-101412533D01*
X41489286Y-101359109D01*
X41489288Y-101359106D01*
X41489292Y-101359104D01*
X41639604Y-101208792D01*
X41639606Y-101208788D01*
X41639609Y-101208786D01*
X41764548Y-101036820D01*
X41764547Y-101036820D01*
X41764551Y-101036816D01*
X41861057Y-100847412D01*
X41926746Y-100645243D01*
X41960000Y-100435287D01*
X41960000Y-100418324D01*
X53102599Y-100418324D01*
X53137450Y-100593527D01*
X53137452Y-100593533D01*
X53205814Y-100758575D01*
X53205819Y-100758584D01*
X53305064Y-100907114D01*
X53305067Y-100907118D01*
X53431381Y-101033432D01*
X53431385Y-101033435D01*
X53579915Y-101132680D01*
X53579921Y-101132683D01*
X53579922Y-101132684D01*
X53744967Y-101201048D01*
X53744971Y-101201048D01*
X53744972Y-101201049D01*
X53920175Y-101235900D01*
X53920178Y-101235900D01*
X54098824Y-101235900D01*
X54216698Y-101212452D01*
X54274033Y-101201048D01*
X54439078Y-101132684D01*
X54587615Y-101033435D01*
X54713935Y-100907115D01*
X54813184Y-100758578D01*
X54881548Y-100593533D01*
X54896679Y-100517464D01*
X54916400Y-100418324D01*
X54916400Y-100239675D01*
X54881549Y-100064472D01*
X54881548Y-100064471D01*
X54881548Y-100064467D01*
X54813184Y-99899422D01*
X54813183Y-99899421D01*
X54813180Y-99899415D01*
X54713935Y-99750885D01*
X54713932Y-99750881D01*
X54587618Y-99624567D01*
X54587614Y-99624564D01*
X54439084Y-99525319D01*
X54439075Y-99525314D01*
X54274033Y-99456952D01*
X54274027Y-99456950D01*
X54098824Y-99422100D01*
X54098822Y-99422100D01*
X53920178Y-99422100D01*
X53920176Y-99422100D01*
X53744972Y-99456950D01*
X53744966Y-99456952D01*
X53579924Y-99525314D01*
X53579915Y-99525319D01*
X53431385Y-99624564D01*
X53431381Y-99624567D01*
X53305067Y-99750881D01*
X53305064Y-99750885D01*
X53205819Y-99899415D01*
X53205814Y-99899424D01*
X53137452Y-100064466D01*
X53137450Y-100064472D01*
X53102600Y-100239675D01*
X53102600Y-100239678D01*
X53102600Y-100418322D01*
X53102600Y-100418324D01*
X53102599Y-100418324D01*
X41960000Y-100418324D01*
X41960000Y-100222713D01*
X41926746Y-100012757D01*
X41861057Y-99810588D01*
X41764551Y-99621184D01*
X41764549Y-99621181D01*
X41764548Y-99621179D01*
X41639609Y-99449213D01*
X41489286Y-99298890D01*
X41317320Y-99173951D01*
X41316615Y-99173591D01*
X41308554Y-99169485D01*
X41257759Y-99121512D01*
X41240963Y-99053692D01*
X41263499Y-98987556D01*
X41308554Y-98948515D01*
X41317316Y-98944051D01*
X41415753Y-98872533D01*
X41489286Y-98819109D01*
X41489288Y-98819106D01*
X41489292Y-98819104D01*
X41639604Y-98668792D01*
X41639606Y-98668788D01*
X41639609Y-98668786D01*
X41764548Y-98496820D01*
X41764547Y-98496820D01*
X41764551Y-98496816D01*
X41861057Y-98307412D01*
X41926746Y-98105243D01*
X41960000Y-97895287D01*
X41960000Y-97682713D01*
X41926746Y-97472757D01*
X41861057Y-97270588D01*
X41764551Y-97081184D01*
X41764549Y-97081181D01*
X41764548Y-97081179D01*
X41639609Y-96909213D01*
X41489286Y-96758890D01*
X41317320Y-96633951D01*
X41316615Y-96633591D01*
X41308554Y-96629485D01*
X41305702Y-96626791D01*
X41301897Y-96625832D01*
X41285498Y-96608324D01*
X56595099Y-96608324D01*
X56629950Y-96783527D01*
X56629952Y-96783533D01*
X56698314Y-96948575D01*
X56698319Y-96948584D01*
X56797564Y-97097114D01*
X56797567Y-97097118D01*
X56923881Y-97223432D01*
X56923885Y-97223435D01*
X57072415Y-97322680D01*
X57072421Y-97322683D01*
X57072422Y-97322684D01*
X57237467Y-97391048D01*
X57237471Y-97391048D01*
X57237472Y-97391049D01*
X57412675Y-97425900D01*
X57412678Y-97425900D01*
X57591324Y-97425900D01*
X57709198Y-97402452D01*
X57766533Y-97391048D01*
X57931578Y-97322684D01*
X58080115Y-97223435D01*
X58206435Y-97097115D01*
X58305684Y-96948578D01*
X58374048Y-96783533D01*
X58396558Y-96670368D01*
X58408900Y-96608324D01*
X58408900Y-96429675D01*
X58374049Y-96254472D01*
X58374048Y-96254471D01*
X58374048Y-96254467D01*
X58305684Y-96089422D01*
X58305683Y-96089421D01*
X58305680Y-96089415D01*
X58206435Y-95940885D01*
X58206432Y-95940881D01*
X58080118Y-95814567D01*
X58080114Y-95814564D01*
X57931584Y-95715319D01*
X57931575Y-95715314D01*
X57766533Y-95646952D01*
X57766527Y-95646950D01*
X57591324Y-95612100D01*
X57591322Y-95612100D01*
X57412678Y-95612100D01*
X57412676Y-95612100D01*
X57237472Y-95646950D01*
X57237466Y-95646952D01*
X57072424Y-95715314D01*
X57072415Y-95715319D01*
X56923885Y-95814564D01*
X56923881Y-95814567D01*
X56797567Y-95940881D01*
X56797564Y-95940885D01*
X56698319Y-96089415D01*
X56698314Y-96089424D01*
X56629952Y-96254466D01*
X56629950Y-96254472D01*
X56595100Y-96429675D01*
X56595100Y-96429678D01*
X56595100Y-96608322D01*
X56595100Y-96608324D01*
X56595099Y-96608324D01*
X41285498Y-96608324D01*
X41280509Y-96602997D01*
X41257759Y-96581512D01*
X41256815Y-96577701D01*
X41254133Y-96574838D01*
X41248484Y-96544063D01*
X41240963Y-96513692D01*
X41242228Y-96509977D01*
X41241520Y-96506117D01*
X41253408Y-96477169D01*
X41263499Y-96447556D01*
X41267002Y-96444066D01*
X41268063Y-96441485D01*
X41276460Y-96434647D01*
X41293822Y-96417357D01*
X41300876Y-96412427D01*
X41317316Y-96404051D01*
X41489292Y-96279104D01*
X41639604Y-96128792D01*
X41639606Y-96128788D01*
X41639609Y-96128786D01*
X41764548Y-95956820D01*
X41764547Y-95956820D01*
X41764551Y-95956816D01*
X41861057Y-95767412D01*
X41926746Y-95565243D01*
X41960000Y-95355287D01*
X41960000Y-95142713D01*
X41926746Y-94932757D01*
X41861057Y-94730588D01*
X41764551Y-94541184D01*
X41764550Y-94541182D01*
X41745992Y-94515639D01*
X66969500Y-94515639D01*
X66969500Y-94714360D01*
X67000587Y-94910637D01*
X67061993Y-95099629D01*
X67061994Y-95099632D01*
X67152213Y-95276694D01*
X67269019Y-95437464D01*
X67409536Y-95577981D01*
X67570306Y-95694787D01*
X67688832Y-95755179D01*
X67726780Y-95774515D01*
X67777576Y-95822490D01*
X67794371Y-95890311D01*
X67771833Y-95956446D01*
X67726780Y-95995485D01*
X67570305Y-96075213D01*
X67409533Y-96192021D01*
X67269021Y-96332533D01*
X67152213Y-96493305D01*
X67061994Y-96670367D01*
X67061993Y-96670370D01*
X67000587Y-96859362D01*
X66986457Y-96948575D01*
X66969500Y-97055639D01*
X66969500Y-97254361D01*
X66981060Y-97327349D01*
X67000587Y-97450637D01*
X67061993Y-97639629D01*
X67061994Y-97639632D01*
X67152213Y-97816694D01*
X67269019Y-97977464D01*
X67409536Y-98117981D01*
X67570306Y-98234787D01*
X67601439Y-98250650D01*
X67726780Y-98314515D01*
X67777576Y-98362490D01*
X67794371Y-98430311D01*
X67771833Y-98496446D01*
X67726780Y-98535485D01*
X67570305Y-98615213D01*
X67409533Y-98732021D01*
X67269021Y-98872533D01*
X67152213Y-99033305D01*
X67061994Y-99210367D01*
X67061993Y-99210370D01*
X67000587Y-99399362D01*
X66969500Y-99595639D01*
X66969500Y-99794360D01*
X67000587Y-99990637D01*
X67061993Y-100179629D01*
X67061994Y-100179632D01*
X67152213Y-100356694D01*
X67269019Y-100517464D01*
X67409536Y-100657981D01*
X67570306Y-100774787D01*
X67601439Y-100790650D01*
X67726780Y-100854515D01*
X67777576Y-100902490D01*
X67794371Y-100970311D01*
X67771833Y-101036446D01*
X67726780Y-101075485D01*
X67570305Y-101155213D01*
X67409533Y-101272021D01*
X67269021Y-101412533D01*
X67152213Y-101573305D01*
X67061994Y-101750367D01*
X67061993Y-101750370D01*
X67000587Y-101939362D01*
X66969500Y-102135639D01*
X66969500Y-102334360D01*
X67000587Y-102530637D01*
X67061993Y-102719629D01*
X67061994Y-102719632D01*
X67152213Y-102896694D01*
X67269019Y-103057464D01*
X67409536Y-103197981D01*
X67409539Y-103197983D01*
X67533687Y-103288182D01*
X67576353Y-103343512D01*
X67582332Y-103413125D01*
X67549726Y-103474920D01*
X67488888Y-103509277D01*
X67460805Y-103512500D01*
X67422131Y-103512500D01*
X67422123Y-103512501D01*
X67362516Y-103518908D01*
X67227671Y-103569202D01*
X67227664Y-103569206D01*
X67112455Y-103655452D01*
X67112452Y-103655455D01*
X67026206Y-103770664D01*
X67026202Y-103770671D01*
X66975908Y-103905517D01*
X66969501Y-103965116D01*
X66969501Y-103965123D01*
X66969500Y-103965135D01*
X66969500Y-105584870D01*
X66969501Y-105584876D01*
X66975908Y-105644483D01*
X67026202Y-105779328D01*
X67026206Y-105779335D01*
X67112452Y-105894544D01*
X67112455Y-105894547D01*
X67227664Y-105980793D01*
X67227671Y-105980797D01*
X67362517Y-106031091D01*
X67362516Y-106031091D01*
X67369444Y-106031835D01*
X67422127Y-106037500D01*
X69041872Y-106037499D01*
X69101483Y-106031091D01*
X69236331Y-105980796D01*
X69351546Y-105894546D01*
X69437796Y-105779331D01*
X69488091Y-105644483D01*
X69494500Y-105584873D01*
X69494499Y-105546197D01*
X69514182Y-105479161D01*
X69566985Y-105433405D01*
X69636143Y-105423460D01*
X69699699Y-105452483D01*
X69718817Y-105473312D01*
X69809019Y-105597464D01*
X69949536Y-105737981D01*
X70110306Y-105854787D01*
X70141439Y-105870650D01*
X70287367Y-105945005D01*
X70287370Y-105945006D01*
X70381866Y-105975709D01*
X70476364Y-106006413D01*
X70672639Y-106037500D01*
X70672640Y-106037500D01*
X70871360Y-106037500D01*
X70871361Y-106037500D01*
X71067636Y-106006413D01*
X71256632Y-105945005D01*
X71433694Y-105854787D01*
X71594464Y-105737981D01*
X71734981Y-105597464D01*
X71851787Y-105436694D01*
X71942005Y-105259632D01*
X72003413Y-105070636D01*
X72034500Y-104874361D01*
X72034500Y-104675639D01*
X72003413Y-104479364D01*
X71942005Y-104290368D01*
X71942005Y-104290367D01*
X71867585Y-104144312D01*
X71851787Y-104113306D01*
X71734981Y-103952536D01*
X71594464Y-103812019D01*
X71433694Y-103695213D01*
X71277218Y-103615484D01*
X71226423Y-103567510D01*
X71209628Y-103499689D01*
X71232165Y-103433554D01*
X71277218Y-103394515D01*
X71433694Y-103314787D01*
X71594464Y-103197981D01*
X71734981Y-103057464D01*
X71851787Y-102896694D01*
X71942005Y-102719632D01*
X72003413Y-102530636D01*
X72034500Y-102334361D01*
X72034500Y-102135639D01*
X72003413Y-101939364D01*
X71942005Y-101750368D01*
X71942005Y-101750367D01*
X71867585Y-101604312D01*
X71851787Y-101573306D01*
X71734981Y-101412536D01*
X71594464Y-101272019D01*
X71433694Y-101155213D01*
X71277218Y-101075484D01*
X71226423Y-101027510D01*
X71209628Y-100959689D01*
X71232165Y-100893554D01*
X71277218Y-100854515D01*
X71433694Y-100774787D01*
X71594464Y-100657981D01*
X71734981Y-100517464D01*
X71851787Y-100356694D01*
X71942005Y-100179632D01*
X72003413Y-99990636D01*
X72034500Y-99794361D01*
X72034500Y-99595639D01*
X72003413Y-99399364D01*
X71942005Y-99210368D01*
X71942005Y-99210367D01*
X71867585Y-99064312D01*
X71851787Y-99033306D01*
X71734981Y-98872536D01*
X71594464Y-98732019D01*
X71433694Y-98615213D01*
X71277218Y-98535484D01*
X71226423Y-98487510D01*
X71209628Y-98419689D01*
X71232165Y-98353554D01*
X71277218Y-98314515D01*
X71433694Y-98234787D01*
X71594464Y-98117981D01*
X71734981Y-97977464D01*
X71851787Y-97816694D01*
X71942005Y-97639632D01*
X72003413Y-97450636D01*
X72034500Y-97254361D01*
X72034500Y-97055639D01*
X72003413Y-96859364D01*
X71942005Y-96670368D01*
X71942005Y-96670367D01*
X71867585Y-96524312D01*
X71851787Y-96493306D01*
X71734981Y-96332536D01*
X71594464Y-96192019D01*
X71433694Y-96075213D01*
X71277218Y-95995484D01*
X71226423Y-95947510D01*
X71209628Y-95879689D01*
X71232165Y-95813554D01*
X71277218Y-95774515D01*
X71433694Y-95694787D01*
X71594464Y-95577981D01*
X71734981Y-95437464D01*
X71851787Y-95276694D01*
X71942005Y-95099632D01*
X72003413Y-94910636D01*
X72034500Y-94714361D01*
X72034500Y-94515639D01*
X72003413Y-94319364D01*
X71942005Y-94130368D01*
X71942005Y-94130367D01*
X71867585Y-93984312D01*
X71851787Y-93953306D01*
X71734981Y-93792536D01*
X71594464Y-93652019D01*
X71433694Y-93535213D01*
X71276667Y-93455203D01*
X71225872Y-93407229D01*
X71209077Y-93339408D01*
X71231614Y-93273273D01*
X71276669Y-93234234D01*
X71433422Y-93154364D01*
X71470716Y-93127268D01*
X70907942Y-92564494D01*
X70968081Y-92548381D01*
X71083920Y-92481502D01*
X71178502Y-92386920D01*
X71245381Y-92271081D01*
X71261495Y-92210942D01*
X71824268Y-92773715D01*
X71851362Y-92736425D01*
X71941542Y-92559437D01*
X72002924Y-92370523D01*
X72002924Y-92370520D01*
X72034000Y-92174321D01*
X72034000Y-91975678D01*
X72002924Y-91779479D01*
X72002924Y-91779476D01*
X71941542Y-91590562D01*
X71851358Y-91413567D01*
X71824268Y-91376283D01*
X71261494Y-91939057D01*
X71245381Y-91878919D01*
X71178502Y-91763080D01*
X71083920Y-91668498D01*
X70968081Y-91601619D01*
X70907942Y-91585504D01*
X71470716Y-91022731D01*
X71470715Y-91022730D01*
X71433432Y-90995641D01*
X71256437Y-90905457D01*
X71067522Y-90844075D01*
X70871321Y-90813000D01*
X70672679Y-90813000D01*
X70476479Y-90844075D01*
X70476476Y-90844075D01*
X70287562Y-90905457D01*
X70110564Y-90995643D01*
X70073283Y-91022729D01*
X70073282Y-91022730D01*
X70636058Y-91585504D01*
X70575919Y-91601619D01*
X70460080Y-91668498D01*
X70365498Y-91763080D01*
X70298619Y-91878919D01*
X70282504Y-91939057D01*
X69719730Y-91376282D01*
X69719729Y-91376283D01*
X69692643Y-91413564D01*
X69612485Y-91570882D01*
X69564510Y-91621678D01*
X69496689Y-91638473D01*
X69430554Y-91615935D01*
X69391515Y-91570882D01*
X69311358Y-91413567D01*
X69284268Y-91376283D01*
X68721494Y-91939057D01*
X68705381Y-91878919D01*
X68638502Y-91763080D01*
X68543920Y-91668498D01*
X68428081Y-91601619D01*
X68367942Y-91585504D01*
X68930716Y-91022731D01*
X68930715Y-91022730D01*
X68893432Y-90995641D01*
X68716437Y-90905457D01*
X68527522Y-90844075D01*
X68331321Y-90813000D01*
X68132679Y-90813000D01*
X67936479Y-90844075D01*
X67936476Y-90844075D01*
X67747562Y-90905457D01*
X67570564Y-90995643D01*
X67533283Y-91022729D01*
X67533282Y-91022730D01*
X68096058Y-91585504D01*
X68035919Y-91601619D01*
X67920080Y-91668498D01*
X67825498Y-91763080D01*
X67758619Y-91878919D01*
X67742504Y-91939057D01*
X67179730Y-91376282D01*
X67179729Y-91376283D01*
X67152643Y-91413564D01*
X67062457Y-91590562D01*
X67001075Y-91779476D01*
X67001075Y-91779479D01*
X66970000Y-91975678D01*
X66970000Y-92174321D01*
X67001075Y-92370520D01*
X67001075Y-92370523D01*
X67062457Y-92559437D01*
X67152641Y-92736432D01*
X67179730Y-92773715D01*
X67179731Y-92773716D01*
X67742504Y-92210942D01*
X67758619Y-92271081D01*
X67825498Y-92386920D01*
X67920080Y-92481502D01*
X68035919Y-92548381D01*
X68096057Y-92564494D01*
X67533283Y-93127268D01*
X67533283Y-93127269D01*
X67570567Y-93154358D01*
X67727331Y-93234234D01*
X67778127Y-93282209D01*
X67794922Y-93350030D01*
X67772384Y-93416165D01*
X67727331Y-93455204D01*
X67570305Y-93535213D01*
X67409533Y-93652021D01*
X67269021Y-93792533D01*
X67152213Y-93953305D01*
X67061994Y-94130367D01*
X67061993Y-94130370D01*
X67000587Y-94319362D01*
X66969500Y-94515639D01*
X41745992Y-94515639D01*
X41639609Y-94369213D01*
X41489286Y-94218890D01*
X41317320Y-94093951D01*
X41316615Y-94093591D01*
X41308554Y-94089485D01*
X41257759Y-94041512D01*
X41240963Y-93973692D01*
X41263499Y-93907556D01*
X41308554Y-93868515D01*
X41317316Y-93864051D01*
X41415753Y-93792533D01*
X41489286Y-93739109D01*
X41489288Y-93739106D01*
X41489292Y-93739104D01*
X41639604Y-93588792D01*
X41639606Y-93588788D01*
X41639609Y-93588786D01*
X41764548Y-93416820D01*
X41764547Y-93416820D01*
X41764551Y-93416816D01*
X41861057Y-93227412D01*
X41926746Y-93025243D01*
X41960000Y-92815287D01*
X41960000Y-92602713D01*
X41926746Y-92392757D01*
X41861057Y-92190588D01*
X41764551Y-92001184D01*
X41764550Y-92001182D01*
X41639609Y-91829213D01*
X41489286Y-91678890D01*
X41317320Y-91553951D01*
X41127914Y-91457444D01*
X41127913Y-91457443D01*
X41127912Y-91457443D01*
X40925743Y-91391754D01*
X40925741Y-91391753D01*
X40925740Y-91391753D01*
X40764457Y-91366208D01*
X40715787Y-91358500D01*
X40503213Y-91358500D01*
X40454542Y-91366208D01*
X40293260Y-91391753D01*
X40091085Y-91457444D01*
X39901679Y-91553951D01*
X39729713Y-91678890D01*
X39579390Y-91829213D01*
X39454449Y-92001182D01*
X39449984Y-92009946D01*
X39402009Y-92060742D01*
X39334188Y-92077536D01*
X39268053Y-92054998D01*
X39229016Y-92009946D01*
X39224550Y-92001182D01*
X39099609Y-91829213D01*
X38949286Y-91678890D01*
X38777320Y-91553951D01*
X38587914Y-91457444D01*
X38587913Y-91457443D01*
X38587912Y-91457443D01*
X38385743Y-91391754D01*
X38385741Y-91391753D01*
X38385740Y-91391753D01*
X38224457Y-91366208D01*
X38175787Y-91358500D01*
X37963213Y-91358500D01*
X37914542Y-91366208D01*
X37753260Y-91391753D01*
X37551085Y-91457444D01*
X37361679Y-91553951D01*
X37189713Y-91678890D01*
X37039390Y-91829213D01*
X36914451Y-92001179D01*
X36817944Y-92190585D01*
X36752253Y-92392760D01*
X36729873Y-92534063D01*
X36719000Y-92602713D01*
X36719000Y-92815287D01*
X36752254Y-93025243D01*
X36794206Y-93154358D01*
X36817944Y-93227414D01*
X36914451Y-93416820D01*
X37039390Y-93588786D01*
X37189713Y-93739109D01*
X37361682Y-93864050D01*
X37370446Y-93868516D01*
X37421242Y-93916491D01*
X37438036Y-93984312D01*
X37415498Y-94050447D01*
X37370446Y-94089484D01*
X37361682Y-94093949D01*
X37189713Y-94218890D01*
X37039390Y-94369213D01*
X36914451Y-94541179D01*
X36817944Y-94730585D01*
X36752253Y-94932760D01*
X36728003Y-95085868D01*
X36719000Y-95142713D01*
X36719000Y-95355287D01*
X36752254Y-95565243D01*
X36801015Y-95715314D01*
X36817944Y-95767414D01*
X36914451Y-95956820D01*
X37039390Y-96128786D01*
X37189713Y-96279109D01*
X37361682Y-96404050D01*
X37370446Y-96408516D01*
X37421242Y-96456491D01*
X37438036Y-96524312D01*
X37415498Y-96590447D01*
X37370446Y-96629484D01*
X37361682Y-96633949D01*
X37189713Y-96758890D01*
X37039390Y-96909213D01*
X36914451Y-97081179D01*
X36817944Y-97270585D01*
X36752253Y-97472760D01*
X36725824Y-97639629D01*
X36719000Y-97682713D01*
X36719000Y-97895287D01*
X36752254Y-98105243D01*
X36794345Y-98234786D01*
X36817944Y-98307414D01*
X36914451Y-98496820D01*
X37039390Y-98668786D01*
X37189713Y-98819109D01*
X37361682Y-98944050D01*
X37370446Y-98948516D01*
X37421242Y-98996491D01*
X37438036Y-99064312D01*
X37415498Y-99130447D01*
X37370446Y-99169484D01*
X37361682Y-99173949D01*
X37189713Y-99298890D01*
X37039390Y-99449213D01*
X36914451Y-99621179D01*
X36817944Y-99810585D01*
X36752253Y-100012760D01*
X36728003Y-100165868D01*
X36719000Y-100222713D01*
X36719000Y-100435287D01*
X36752254Y-100645243D01*
X36794345Y-100774786D01*
X36817944Y-100847414D01*
X36914451Y-101036820D01*
X37039390Y-101208786D01*
X37189713Y-101359109D01*
X37361682Y-101484050D01*
X37370446Y-101488516D01*
X37421242Y-101536491D01*
X37438036Y-101604312D01*
X37415498Y-101670447D01*
X37370446Y-101709484D01*
X37361682Y-101713949D01*
X37189713Y-101838890D01*
X37039390Y-101989213D01*
X36914451Y-102161179D01*
X36817944Y-102350585D01*
X36752253Y-102552760D01*
X36725824Y-102719629D01*
X36719000Y-102762713D01*
X36719000Y-102975287D01*
X36752254Y-103185243D01*
X36794345Y-103314786D01*
X36817944Y-103387414D01*
X36914451Y-103576820D01*
X37039390Y-103748786D01*
X37189713Y-103899109D01*
X37361682Y-104024050D01*
X37370446Y-104028516D01*
X37421242Y-104076491D01*
X37438036Y-104144312D01*
X37415498Y-104210447D01*
X37370446Y-104249484D01*
X37361682Y-104253949D01*
X37189713Y-104378890D01*
X37039390Y-104529213D01*
X36914451Y-104701179D01*
X36817944Y-104890585D01*
X36752253Y-105092760D01*
X36719000Y-105302713D01*
X36719000Y-105515286D01*
X36739462Y-105644482D01*
X36752254Y-105725243D01*
X36807264Y-105894547D01*
X36817944Y-105927414D01*
X36914451Y-106116820D01*
X37039390Y-106288786D01*
X37189713Y-106439109D01*
X37361682Y-106564050D01*
X37370446Y-106568516D01*
X37421242Y-106616491D01*
X37438036Y-106684312D01*
X37415498Y-106750447D01*
X37370446Y-106789484D01*
X37361682Y-106793949D01*
X37189713Y-106918890D01*
X37039390Y-107069213D01*
X36914451Y-107241179D01*
X36817944Y-107430585D01*
X36752253Y-107632760D01*
X36719000Y-107842713D01*
X36719000Y-108055286D01*
X36752253Y-108265239D01*
X36817944Y-108467414D01*
X36914451Y-108656820D01*
X37039390Y-108828786D01*
X37189713Y-108979109D01*
X37361682Y-109104050D01*
X37370446Y-109108516D01*
X37421242Y-109156491D01*
X37438036Y-109224312D01*
X37415498Y-109290447D01*
X37370446Y-109329484D01*
X37361682Y-109333949D01*
X37189713Y-109458890D01*
X37039390Y-109609213D01*
X36914450Y-109781180D01*
X36911333Y-109787299D01*
X36863357Y-109838093D01*
X36800850Y-109855000D01*
X32225000Y-109855000D01*
X32157961Y-109835315D01*
X32112206Y-109782511D01*
X32101000Y-109731000D01*
X32101000Y-87119000D01*
X32120685Y-87051961D01*
X32173489Y-87006206D01*
X32225000Y-86995000D01*
X74076500Y-86995000D01*
X74143539Y-87014685D01*
G37*
%TD.AperFunction*%
%TD*%
M02*
