M48
; DRILL file {KiCad 9.0.0-9.0.0-2~ubuntu24.04.1} date 2025-03-20T00:32:54-0400
; FORMAT={-:-/ absolute / inch / decimal}
; #@! TF.CreationDate,2025-03-20T00:32:54-04:00
; #@! TF.GenerationSoftware,Kicad,Pcbnew,9.0.0-9.0.0-2~ubuntu24.04.1
; #@! TF.FileFunction,Plated,1,4,PTH
FMAT,2
INCH
; #@! TA.AperFunction,Plated,PTH,ViaDrill
T1C0.0160
; #@! TA.AperFunction,Plated,PTH,ComponentDrill
T2C0.0394
; #@! TA.AperFunction,Plated,PTH,ComponentDrill
T3C0.0400
%
G90
G05
T1
X2.1212Y-1.9629
X2.1212Y-2.3129
X2.1212Y-2.7879
X2.1212Y-3.1379
X2.1212Y-4.0125
X2.1212Y-4.3625
X2.1212Y-4.8375
X2.1212Y-5.1875
X2.1238Y-2.3754
X2.1238Y-2.7254
X2.1238Y-4.425
X2.1238Y-4.775
X2.1264Y-1.5504
X2.1264Y-1.9004
X2.1264Y-3.6
X2.1264Y-3.95
X2.2613Y-2.1129
X2.2613Y-2.1629
X2.2613Y-2.5254
X2.2613Y-2.5754
X2.2613Y-2.9406
X2.2613Y-2.9879
X2.2613Y-4.1625
X2.2613Y-4.2125
X2.2613Y-4.575
X2.2613Y-4.625
X2.2613Y-4.9901
X2.2613Y-5.0375
X2.2639Y-1.7004
X2.2639Y-1.7504
X2.2639Y-3.75
X2.2639Y-3.8
T2
X1.4988Y-1.6004
X1.4988Y-1.7004
X1.4988Y-1.8004
X1.4988Y-1.9004
X1.4988Y-2.0004
X1.4988Y-2.1004
X1.4988Y-2.2004
X1.4988Y-2.3004
X1.4988Y-2.4004
X1.4988Y-2.5004
X1.4988Y-2.6004
X1.4988Y-2.7004
X1.4988Y-2.8004
X1.4988Y-2.9004
X1.4988Y-3.0004
X1.4988Y-3.1004
X1.4988Y-3.2004
X1.4988Y-3.65
X1.4988Y-3.75
X1.4988Y-3.85
X1.4988Y-3.95
X1.4988Y-4.05
X1.4988Y-4.15
X1.4988Y-4.25
X1.4988Y-4.35
X1.4988Y-4.45
X1.4988Y-4.55
X1.4988Y-4.65
X1.4988Y-4.75
X1.4988Y-4.85
X1.4988Y-4.95
X1.4988Y-5.05
X1.4988Y-5.15
X1.4988Y-5.25
X1.5988Y-1.6004
X1.5988Y-1.7004
X1.5988Y-1.8004
X1.5988Y-1.9004
X1.5988Y-2.0004
X1.5988Y-2.1004
X1.5988Y-2.2004
X1.5988Y-2.3004
X1.5988Y-2.4004
X1.5988Y-2.5004
X1.5988Y-2.6004
X1.5988Y-2.7004
X1.5988Y-2.8004
X1.5988Y-2.9004
X1.5988Y-3.0004
X1.5988Y-3.1004
X1.5988Y-3.2004
X1.5988Y-3.65
X1.5988Y-3.75
X1.5988Y-3.85
X1.5988Y-3.95
X1.5988Y-4.05
X1.5988Y-4.15
X1.5988Y-4.25
X1.5988Y-4.35
X1.5988Y-4.45
X1.5988Y-4.55
X1.5988Y-4.65
X1.5988Y-4.75
X1.5988Y-4.85
X1.5988Y-4.95
X1.5988Y-5.05
X1.5988Y-5.15
X1.5988Y-5.25
T3
X2.6863Y-1.825
X2.6863Y-1.925
X2.6863Y-2.025
X2.6863Y-2.125
X2.6863Y-2.225
X2.6863Y-2.325
X2.6863Y-2.725
X2.6863Y-2.825
X2.6863Y-2.925
X2.6863Y-3.025
X2.6863Y-3.125
X2.6863Y-3.225
X2.6863Y-3.625
X2.6863Y-3.725
X2.6863Y-3.825
X2.6863Y-3.925
X2.6863Y-4.025
X2.6863Y-4.125
X2.6863Y-4.525
X2.6863Y-4.625
X2.6863Y-4.725
X2.6863Y-4.825
X2.6863Y-4.925
X2.6863Y-5.025
X2.7863Y-1.825
X2.7863Y-1.925
X2.7863Y-2.025
X2.7863Y-2.125
X2.7863Y-2.225
X2.7863Y-2.325
X2.7863Y-2.725
X2.7863Y-2.825
X2.7863Y-2.925
X2.7863Y-3.025
X2.7863Y-3.125
X2.7863Y-3.225
X2.7863Y-3.625
X2.7863Y-3.725
X2.7863Y-3.825
X2.7863Y-3.925
X2.7863Y-4.025
X2.7863Y-4.125
X2.7863Y-4.525
X2.7863Y-4.625
X2.7863Y-4.725
X2.7863Y-4.825
X2.7863Y-4.925
X2.7863Y-5.025
M30
